<svg width="430" height="391" fill="none" xmlns="http://www.w3.org/2000/svg"><g clip-path="url(#clip0_677_2164)"><path d="M236.6 161.9c0 11.4 9.2 20.6 20.6 20.6h34.7c11.4 0 20.6-9.2 20.6-20.6V75.4l5.9 2.9c-.2-3.2-3.8-5.6-5.9-6.9V43.3c0-18.9-15.3-34.3-34.3-34.3h-7.3c-18.9 0-34.3 15.3-34.3 34.3v28.2c-2.1 1.2-5.7 3.7-5.9 6.9l5.9-2.9v86.4z" fill="#EBEFF1"/><path d="M222 69.7c.2-3.2 3.8-5.6 5.9-6.9V34.6c0-18.9 15.3-34.3 34.3-34.3h7.3c18.9 0 34.3 15.3 34.3 34.3v28.2c2.1 1.2 5.7 3.7 5.9 6.9l-5.9-2.9v86.5c0 11.4-9.2 20.6-20.6 20.6h-34.7c-11.4 0-20.6-9.2-20.6-20.6V66.8l-5.9 2.9z" fill="#50CECD"/><path d="M250.6 168.9h30.5c11.4 0 17.5-11.3 17.5-22.6l3.1-106.8c0-18.9-15.3-34.3-34.3-34.3h-3.1c-18.9 0-34.3 15.3-34.3 34.3l3.1 106.8c.1 11.4 6.2 22.6 17.5 22.6z" fill="#81E0DB"/><path d="M299.6 104.3c.5-.2.9-.3 1.4-.5v.1c0 16.2-2.3 42.4-2.3 42.4s-6.6 3.2-6.6-14.9c0-7.8-.1-16.2 0-24.4 2.4-.9 4.9-1.8 7.5-2.7zm-7.6-.7c.1-9.6.5-18.4 1.4-24.6 1.8-12.2 7.5-30.4 7.5-30.4v51.1c-2.9 1.3-5.9 2.6-8.9 3.9zm-59.8.7c-.5-.2-.9-.3-1.4-.5v.1c0 16.2 2.3 42.4 2.3 42.4s6.6 3.2 6.6-14.9c0-7.8.1-16.2 0-24.4-2.4-.9-5-1.8-7.5-2.7zm7.6-.7c-.1-9.6-.5-18.4-1.4-24.6-1.8-12.2-7.5-30.4-7.5-30.4v51.1c2.9 1.3 5.9 2.6 8.9 3.9z" fill="#45474A"/><path d="M232.2 104.3c-.5-.2-.9-.3-1.4-.5v.1c0 16.2 2.3 42.4 2.3 42.4s6.6 3.2 6.6-14.9c0-7.8.1-16.2 0-24.4-2.4-.9-5-1.8-7.5-2.7zm7.6-.7c-.1-9.6-.5-18.4-1.4-24.6-1.8-12.2-7.5-30.4-7.5-30.4v51.1c2.9 1.3 5.9 2.6 8.9 3.9zm26.1-69.4c-21.6 0-30.5 10.6-30.5 10.6l5.7 32h49.6l5.7-32s-9-10.6-30.5-10.6z" fill="#45474A"/><path d="M296.4 18c-.1.5-.5.9-1 1-.4.1-.8-.2-1.2-.4-4.9-3-8.7-7.9-10.5-13.4 5.5 2.9 9.9 7.4 12.7 12.8zm-61.1 0c.1.5.5.9 1 1 .4.1.8-.2 1.2-.4 4.9-3 8.7-7.9 10.5-13.4-5.4 2.9-9.8 7.4-12.7 12.8z" fill="#E9E8D8"/><path d="M235.3 161.4l4.5 8.1 4.6-11.1-3.4-1.8c-.7-.4-1.6-.2-2.1.4l-3.6 4.4zm61.1 0l-4.5 8.1-4.6-11.1 3.4-1.8c.7-.4 1.6-.2 2.1.4l3.6 4.4z" fill="#FC0"/><path d="M287.3 158.399c-5.4 2.3-21.4 2.2-21.4 2.2s-16 .2-21.4-2.2l-4.6 11.1c4.5 3.1 26 2.3 26 2.3s21.5.7 26-2.3l-4.6-11.1z" fill="#45474A"/><path d="M125.9 67.7c.3-.1 3.2-1.3 4.9-2l.1.5c.6 4.1.9 8.3.8 12.5l-.7 46.299c0 2.7-.5 5.4-1.3 8-.8 2.7-1.3 5.6-1.3 8.4v20.5c0 11.4 9.2 20.6 20.6 20.6h34.7c11.4 0 20.6-9.2 20.6-20.6v-20.5c0-2.9-.4-5.7-1.3-8.4-.8-2.6-1.2-5.3-1.3-8l-.6-46.3c-.1-4.2.2-8.3.8-12.5l.1-.5c1.7.7 4.5 1.9 4.9 2 .5.1 1.2-1.2.5-2.6-.6-1.2-3.6-3.4-4.7-4.2l.8-5.9c.5-3.8.8-7.6.8-11.4v-8.1c0-14.7-11.9-26.6-26.6-26.6H155c-14.7 0-26.6 11.9-26.6 26.6v8.1c0 3.8.3 7.6.8 11.4l.8 5.9c-1.1.8-4.1 3-4.7 4.2-.6 1.4.1 2.7.6 2.6z" fill="#EBEFF1"/><path d="M120.6 46.4c-.5-3.8-.8-7.6-.8-11.4v-8.1c0-14.7 11.9-26.6 26.6-26.6H169c14.7 0 26.6 11.9 26.6 26.6V35c0 3.8-.3 7.6-.8 11.4l-1.6 11.1c-.6 4.1-.9 8.3-.8 12.5l.6 46.3c0 2.7.5 5.4 1.3 8 .8 2.7 1.3 5.6 1.3 8.4v20.5c0 11.4-9.2 20.6-20.6 20.6h-34.8c-11.4 0-20.6-9.2-20.6-20.6v-20.5c0-2.9.4-5.7 1.3-8.4.8-2.6 1.2-5.3 1.3-8l.6-46.3c.1-4.2-.2-8.3-.8-12.5l-1.4-11.1z" fill="#FF6F00"/><path d="M192.699 48.7c.5-3.5.8-7.1.8-10.7v-7.6c0-13.9-11.2-25.1-25.1-25.1h-21.4c-13.9 0-25.1 11.2-25.1 25.1V38c0 3.6.3 7.2.8 10.7l1.5 10.5c.6 3.9.8 7.8.8 11.8l-.6 43.7c0 2.6-.4 5.1-1.2 7.6-.8 2.6-1.2 5.2-1.2 7.9v19.4c0 10.7 8.7 19.4 19.4 19.4h32.8c10.7 0 19.4-8.7 19.4-19.4v-19.4c0-2.7-.4-5.4-1.2-7.9-.8-2.5-1.2-5-1.2-7.6l-.7-43.7c-.1-3.9.2-7.9.8-11.8l1.4-10.5z" fill="#FF8B00"/><path d="M125 15.6c-2.2-3.2 7.2-9.3 9.9-7.2 2.8 2.1-8.2 9.8-9.9 7.2z" fill="#E9E8D8"/><path d="M121.8 52s-4.3 3-5.1 4.4c-.7 1.4 0 2.8.5 2.6.5-.2 6.1-2.5 6.1-2.5l-1.5-4.5z" fill="#F60"/><path d="M128.599 95.2c0-7.7-.1-14.3-.3-19.1-.7-15.2-3.5-27.3-3.5-27.3-.9 18-1.3 32.7-1.4 44.6 1.7.7 3.4 1.1 5.2 1.8zm-5.2-.5c-.3 36.6 2.4 45.7 2.4 45.7 1.9-7.3 2.7-27 2.8-43.9-1.7-.6-3.5-1.4-5.2-1.8zm63.401.5c0-7.7.1-14.3.3-19.1.7-15.2 3.5-27.3 3.5-27.3.9 18 1.3 32.7 1.4 44.6-1.7.7-3.5 1.1-5.2 1.8zm5.2-.5c.3 36.6-2.4 45.7-2.4 45.7-1.9-7.3-2.7-27-2.8-43.9 1.7-.6 3.4-1.4 5.2-1.8z" fill="#45474A"/><path d="M135 168.9c-.5 1-2.9.9-5.4-.3-2.5-1.2-4.1-3-3.6-4 .5-1 2.9-.9 5.4.3 2.4 1.2 4.1 3 3.6 4z" fill="#FC0"/><path d="M190.399 15.6c2.2-3.2-7.2-9.3-9.9-7.2-2.8 2.1 8.1 9.8 9.9 7.2z" fill="#E9E8D8"/><path d="M193.6 52s4.3 3 5.1 4.4c.7 1.4 0 2.8-.5 2.6-.5-.1-6.1-2.5-6.1-2.5l1.5-4.5z" fill="#F60"/><path d="M180.399 168.9c.5 1 2.9.9 5.4-.3 2.5-1.2 4.1-3 3.6-4-.5-1-2.9-.9-5.4.3-2.5 1.2-4.1 3-3.6 4z" fill="#FC0"/><path d="M157.7 132.6c17.6 0 25.5-3.5 25.5-3.5v26.5s-6.5 7.3-25.5 7.3-25.5-7.3-25.5-7.3v-26.5c-.1 0 7.8 3.5 25.5 3.5zm0-103.3c-24.5 0-30.7 13.4-30.7 13.4l3.3 26.4s14-3 27.4-3c13.4 0 27.4 3 27.4 3l3.3-26.4c0 .1-6.2-13.4-30.7-13.4z" fill="#45474A"/><path d="M19.5 73.2l-1.7 66.9c0 11.4 9.2 42.8 20.6 42.8H72c11.4 0 20.6-31.4 20.6-42.8l-1.7-66.9 5.2 1.3s1.1-4.3-5.3-5.2l-.1-3.4c0-1.3 0-2.7.1-4l1.4-15.6c.9-10.2-2.5-23.2-9.7-30.4-6.2-6.2-15.8-7.2-25.3-7.2h-4.1c-9.5 0-19.1 1-25.3 7.2-7.2 7.2-10.7 20.2-9.7 30.4l1.4 15.6c.1 1.3.2 2.6.1 4l-.1 3.4c-6.3.9-5.3 5.2-5.3 5.2l5.3-1.3z" fill="#EBEFF1"/><path d="M11 57.2c0-1.3 0-2.7-.1-4L9.5 37.6c-1-10.2 2.5-23.2 9.7-30.4C25.4 1 35 0 44.5 0h4.1C58 0 67.7 1 73.9 7.2c7.2 7.2 10.7 20.2 9.7 30.4l-1.4 15.6c-.1 1.3-.2 2.6-.1 4l1.9 74.3c0 11.4-9.2 42.8-20.6 42.8H29.7c-11.4 0-20.6-31.4-20.6-42.8L11 57.2z" fill="#E13E26"/><path d="M76.6 63.1c0-1.3 3.8-7 3.9-8.3l1.4-14.9c.9-9.7-2.4-22.1-9.3-29C66.7 5 57.5 4.1 48.5 4.1h-3.9c-9 0-18.2.9-24.1 6.8-6.9 6.9-10.2 19.3-9.3 29l1.4 14.9c.1 1.3 3.9 7 3.9 8.3v69.1c0 10.8 3.2 38 14 38h32.1c10.8 0 14-27.2 14-38V63.1z" fill="#FF6148"/><path d="M13.5 60.4v3.5l-7.8 1.9s-1.3-5.4 7.8-5.4z" fill="#E13E26"/><path d="M15.4 96.9v.7c0 17.299 1.1 34.499 1.1 34.499s4.3-12.6 4.3-17.2v-16.9c-1.8-.5-3.6-.8-5.4-1.1zm5.4-.9V80.2c0-2.7-4.3-17.1-4.3-17.1s-.9 15.2-1.1 31.3c1.8.4 3.6 1 5.4 1.6zm56.9.9v.7c0 17.299-1.1 34.499-1.1 34.499s-4.3-12.6-4.3-17.2v-16.9c1.8-.5 3.6-.8 5.4-1.1zm-5.4-.9V80.2c0-2.7 4.3-17.1 4.3-17.1s.9 15.2 1.1 31.3c-1.9.4-3.6 1-5.4 1.6z" fill="#45474A"/><path d="M79.6 60.4v3.5l7.8 1.9s1.3-5.4-7.8-5.4z" fill="#E13E26"/><path d="M22.8 75.5l-6.5-25S23.1 41 46.5 41s30.2 9.5 30.2 9.5l-6.5 25s-13-3.1-23.8-3.1c-10.6.1-23.6 3.1-23.6 3.1zm45.5 55.3c-3.9.9-13.9 2.7-21.7 2.7-7.8 0-17.8-1.8-21.7-2.7-1.1-.2-2.1.5-2.1 1.6l-.8 22.8c0 .6.3 1.2.8 1.5 9.1 5.4 23.8 4.7 23.8 4.7s14.7.7 23.8-4.7c.5-.3.9-.9.8-1.5l-.8-22.8c-.1-1-1.1-1.8-2.1-1.6z" fill="#45474A"/><path d="M16.3 13.1c5.4-1.3 8.8-7.4 8.6-9-1.5.8-3 1.9-4.2 3.2-1.7 1.6-3.2 3.6-4.4 5.8zm60.5 0c-5.4-1.3-8.8-7.4-8.6-9 1.5.8 3 1.9 4.2 3.2 1.7 1.6 3.1 3.6 4.4 5.8z" fill="#E9E8D8"/><path d="M202.9 272.4v-23.8c0-15.1-12.2-27.3-27.3-27.3h-18.4c-15.1 0-27.3 12.2-27.3 27.3v23.8c-8.1 1.9-8.1 6.9-8.1 6.9s5.4-1.2 8.1-2.1v90.5c0 8.5 6.9 15.3 15.3 15.3h42.4c8.5 0 15.3-6.9 15.3-15.3v-90.5c2.8.9 8.1 2.1 8.1 2.1s0-5-8.1-6.9z" fill="#EBEFF1"/><path d="M181.3 374.3h-47.2c-7.2 0-13-5.8-13-13V240.6c0-15.5 12.6-28.1 28.1-28.1h17c15.5 0 28.1 12.6 28.1 28.1v120.7c-.1 7.2-5.9 13-13 13z" fill="#2A89E4"/><path d="M166.6 367h-17.9c-14.4 0-21.6-2.4-21.6-16.8l5.2-65.9-9.7-40.9c0-15.1 12.2-27.3 27.3-27.3h15.3c15.1 0 27.3 12.2 27.3 27.3l-9.7 40.9 5.2 65.9c.2 14.4-7 16.8-21.4 16.8z" fill="#54A0E9"/><path d="M122.5 263.4c2-.3 1.4 3.6 0 4.5-1.4.9-9.5 2.7-9.5 2.7s0-5.6 9.5-7.2z" fill="#2A89E4"/><path d="M123.8 254.6s5.5 27.1 6.1 32.3c.5 5.2 1.1 59.1 0 61.5-1.1 2.3-2.7 1.8-2.7 1.8s-3.4-6.3-3.4-38.1v-57.5z" fill="#45474A"/><path d="M125.6 359.7c.4 1.4 6.5 7.9 6.8 9.2.4 1.3-3.2 2.8-6.8-1.1-3.6-3.8 0-8.1 0-8.1z" fill="#FF6166"/><path d="M133.5 367s4.4 1.2 6.2 4.5c0 0-5.7-.3-6.2-4.5z" fill="#FC0"/><path d="M125.2 234s-1-12.4 11.4-15.5c0 0-3.3 11.5-11.4 15.5z" fill="#E9E8D8"/><path d="M192.8 263.4c-2-.3-1.4 3.6 0 4.5 1.4.9 9.5 2.7 9.5 2.7s.1-5.6-9.5-7.2z" fill="#2A89E4"/><path d="M191.6 254.6s-5.5 27.1-6.1 32.3c-.5 5.2-1.1 59.1 0 61.5 1.1 2.3 2.7 1.8 2.7 1.8s3.4-6.3 3.4-38.1v-57.5zm-59.2 29.7S126 257 127.2 252c1.1-5 15.1-8.8 30.5-8.8s29.4 3.8 30.5 8.8c1.1 5-5.2 32.3-5.2 32.3s-8.5-1.6-25.3-1.6-25.3 1.6-25.3 1.6zm25.3 80.1c-18.7 0-24.2-4.7-24.2-4.7l-3.8 2.9c11.1 8.1 28 7.2 28 7.2s16.8.9 28-7.2l-3.8-2.9s-5.5 4.7-24.2 4.7z" fill="#45474A"/><path d="M189.8 359.7c-.4 1.4-6.5 7.9-6.8 9.2-.4 1.3 3.2 2.8 6.8-1.1 3.6-3.8 0-8.1 0-8.1z" fill="#FF6166"/><path d="M181.9 367s-4.4 1.2-6.2 4.5c0 0 5.6-.3 6.2-4.5z" fill="#FC0"/><path d="M190.1 234s1-12.4-11.4-15.5c.1 0 3.4 11.5 11.4 15.5z" fill="#E9E8D8"/><path d="M238 375.2c0 8.5 6.9 15.3 15.3 15.3h42.4c8.5 0 15.3-6.9 15.3-15.3v-105l7.8 1.7.3-1.3c.3-1.5-.5-2.9-2-3.3l-6.1-1.7V241c0-15.1-12.2-27.3-27.3-27.3h-18.4c-15.1 0-27.3 12.2-27.3 27.3v24.6l-6.1 1.7c-1.5.4-2.3 1.9-2 3.3l.3 1.3 7.8-1.7v105z" fill="#EBEFF1"/><path d="M241.5 381.8h48.7c6.7 0 12.2-5.4 12.2-12.2V232.3c0-15.1-12.2-27.3-27.3-27.3h-18.5c-15.1 0-27.3 12.2-27.3 27.3v137.4c0 6.7 5.5 12.1 12.2 12.1z" fill="#6F686C"/><path d="M246.5 377.3h38.7c8.5 0 15.3-6.9 15.3-15.3l-11.7-32.3.3-59.7 11.4-33.1c0-15.1-12.2-27.3-27.3-27.3h-14.7c-15.1 0-27.3 12.2-27.3 27.3l11.4 33.1.3 59.7-11.7 32.3c0 8.5 6.9 15.3 15.3 15.3z" fill="#807A7E"/><path d="M247.7 209.4c.3-.7.3-1.4.3-2.1-4.8 1.9-8.9 5.3-11.8 9.7 1.8-1.5 3.8-2.7 5.9-3.6 2.1-.9 4.7-1.8 5.6-4zm36.4 0c-.3-.7-.3-1.4-.3-2.1 4.8 1.9 8.9 5.3 11.8 9.7-1.8-1.5-3.8-2.7-5.9-3.6-2.2-.9-4.7-1.8-5.6-4z" fill="#E9E8D8"/><path d="M239.9 299.3c-.1-9.1-.3-17.4-.3-20.5 0-9.2-6.8-17.8-6.8-17.8v35.5c2.2 1.1 4.6 2 7.1 2.8zm-.2 22.6c.3-5.8.3-13.7.2-21.3-2.4-.7-4.8-1.4-7.2-2.2v27c2.4-1.1 4.7-2.2 7-3.5zm-7 5.4v9.4s5.9-.2 6.8-12.4c0-.3 0-.7.1-1-2.3 1.4-4.5 2.9-6.9 4z" fill="#45474A"/><path d="M231.2 256.4l-8 2.2c-1.5.4-2.3 1.9-2 3.3l.3 1.3 9.7-2.2v-4.6z" fill="#6F686C"/><path d="M275.1 205.8h-18.4c-2.2 0-4.4.3-6.5.8 2.3 1.6 5.1 2.5 8 2.5h15.4c2.8 0 5.6-.9 8-2.5-2.1-.6-4.3-.8-6.5-.8zm16.8 93.5c.1-9.1.3-17.4.3-20.5 0-9.2 6.8-17.8 6.8-17.8v35.5c-2.3 1.1-4.7 2-7.1 2.8zm.2 22.6c-.3-5.8-.3-13.7-.2-21.3 2.4-.7 4.8-1.4 7.2-2.2v27c-2.4-1.1-4.7-2.2-7-3.5zm7 5.4v9.4s-5.9-.2-6.8-12.4c0-.3 0-.7-.1-1 2.2 1.4 4.5 2.9 6.9 4zm-3.7-72.2c-.4 2.9-1.8 8.8-6.2 14.9-.6.8-1.6 1.3-2.7 1.2-3.5-.3-11.9-.9-20.6-.9-8.7 0-17.1.6-20.6.9-1 .1-2.1-.4-2.7-1.2-4.5-6-5.8-11.9-6.2-14.9-.2-1.3.4-2.5 1.5-3.1 3.1-1.7 10.9-4.6 28-4.6s24.9 2.9 28 4.6c1.1.6 1.7 1.9 1.5 3.1zm-6.6 74.6s-9.6 4.9-23 4.9c-13.3 0-23-4.9-23-4.9-1.9 5.4-2.6 12.6-2.9 16.5-.1 1.7.8 3.3 2.4 4.1 4 2 12.6 5.5 23.5 5.5s19.4-3.5 23.5-5.5c1.5-.8 2.5-2.4 2.4-4.1-.3-3.9-1-11.1-2.9-16.5z" fill="#45474A"/><path d="M300.5 256.4l8 2.2c1.5.4 2.3 1.9 2 3.3l-.3 1.3-9.7-2.2v-4.6z" fill="#6F686C"/><path d="M241.1 379.7c-2.3-.7-4.4-1.9-6.1-3.6-.4-.4-.9-.9-1.4-1.2-.4-.2-.9-.2-1.3-.1 2.4 3.3 6.1 5.6 10.4 6.2-.1-.8-.9-1.1-1.6-1.3zm49.601 0c2.3-.7 4.4-1.9 6.1-3.6.4-.4.9-.9 1.4-1.2.4-.2.9-.2 1.3-.1-2.4 3.3-6.1 5.6-10.4 6.2 0-.8.9-1.1 1.6-1.3z" fill="#FC0"/><path d="M94.7 270.4c-.6-18.4-2-32.8-3-41.3-.7-5.7-4.6-10.4-10.1-12-6.2-1.9-15.3-3.8-26.4-3.8-11.1 0-20.2 1.9-26.4 3.8-5.4 1.6-9.4 6.4-10.1 12-1 8.5-2.4 22.9-3 41.3-1.8.3-5 1-6.8 3.3-.7.9 0 2.1 1.1 2l5.5-.7c-.1 4.9-.2 10-.2 15.3 0 31.9 3.5 71.2 5.1 88.2.5 5.2 4.5 9.5 9.7 10.3 6.1 1 14.9 2.1 25.1 2.1 10.2 0 19-1 25.1-2.1 5.2-.9 9.1-5.1 9.7-10.3 1.7-17.1 5.1-56.4 5.1-88.2 0-5.4-.1-10.5-.2-15.3l5.5.7c1.1.1 1.8-1.1 1.1-2-1.8-2.3-5-3.1-6.8-3.3z" fill="#EBEFF1"/><path d="M83 220.4c-.7-5.7-4.6-10.4-10.1-12-6.2-1.9-15.3-3.8-26.4-3.8-11.1 0-20.2 1.9-26.4 3.8-5.4 1.6-9.4 6.4-10.1 12-1.3 11.4-3.4 33.2-3.4 61.3 0 31.9 3.5 71.2 5.1 88.2.5 5.2 4.5 9.5 9.7 10.3 6.1 1 14.9 2.1 25.1 2.1 10.2 0 19-1 25.1-2.1 5.2-.9 9.1-5.1 9.7-10.3 1.7-17.1 5.1-56.4 5.1-88.2 0-28.1-2-49.9-3.4-61.3z" fill="#FFA400"/><path d="M81.8 222.8c-.6-5.5-4.5-10-9.7-11.6-6-1.8-14.8-3.7-25.6-3.7s-19.6 1.9-25.6 3.7c-5.3 1.6-9.1 6.2-9.7 11.6-1.3 11 5.5 27 5.5 54.1 0 30.8 1.3 56 2.9 72.5.5 5.1-2.4 27.2 2.7 28 5.9 1 14.4 2 24.3 2s18.4-1 24.3-2c5-.8 2.2-23 2.7-28 1.6-16.5 2.9-41.7 2.9-72.5-.2-27.2 6.6-43.1 5.3-54.1z" fill="#FFE04A"/><path d="M8.3 261.6s-5.6.2-8.1 3.5c-.7.9 0 2.1 1.1 2l7-.8v-4.7z" fill="#FFA400"/><path d="M31.2 206.899c-4.3.7-8.1 1.6-11.1 2.6-2.2.7-4.2 1.9-5.8 3.4.1.4.4.8.8.9.8.3 1.8-.1 2.6-.5 4.3-2 8.5-4 12.8-6 .2-.1.4-.3.7-.4z" fill="#E9E8D8"/><path d="M84.7 261.6s5.6.2 8.1 3.5c.7.9 0 2.1-1.1 2l-7-.8v-4.7z" fill="#FFA400"/><path d="M61.9 206.899c4.3.7 8.1 1.6 11.1 2.6 2.2.7 4.2 1.9 5.8 3.4-.1.4-.4.8-.8.9-.8.3-1.8-.1-2.6-.5-4.3-2-8.5-4-12.8-6-.2-.1-.5-.3-.7-.4z" fill="#E9E8D8"/><path d="M19.6 349.399v25.7c0 2.1 1.5 3.9 3.6 4.2 8.2 1.3 23.3 1.5 23.3 1.5s15.1-.2 23.3-1.5c2.1-.3 3.6-2.1 3.6-4.2v-25.7H19.6zm26.9-124c-21.4 0-33.6 13.2-33.6 13.2l3.8 38.3s12.9-7.1 29.8-7.1 29.8 7.1 29.8 7.1l3.8-38.3c.1 0-12.1-13.2-33.6-13.2zm-31.9 117.7c-.1-9.3-.2-19.8-.3-29.6-2-1-4-1.9-5.9-2.8.3 11.8 1.2 23 2.3 32.4h3.9zm-3.5 2.701c1.8 14.2 3.7 23.6 3.7 23.6s-.1-10.2-.2-23.8c-1.1.1-2.3.2-3.5.2zm3.2-36.3c-.1-13.4-.3-24.8-.5-28.8-.5-12-3.8-33.1-3.8-33.1s-1.7 22.3-1.7 56.5v.1c2 2 4 3.7 6 5.3zm64.1 33.599c.1-9.3.2-19.8.3-29.6 2-1 4-1.9 5.9-2.8-.3 11.8-1.2 23-2.3 32.4h-3.9zM82 345.8c-1.8 14.2-3.7 23.6-3.7 23.6s.1-10.2.2-23.8c1.1.1 2.3.2 3.5.2zm-3.3-36.3c.1-13.4.3-24.8.5-28.8.5-12 3.8-33.1 3.8-33.1s1.7 22.3 1.7 56.5v.1c-1.9 2-3.9 3.7-6 5.3z" fill="#45474A"/><path d="M406 390.1c8.5 0 15.3-6.9 15.3-15.3V273.6c2.8.9 8.1 2.1 8.1 2.1s0-5-8.1-6.9V242c0-13.4-10.9-24.3-24.3-24.3h-24.5c-13.4 0-24.3 10.9-24.3 24.3v26.8c-8.1 1.9-8.1 6.9-8.1 6.9s5.4-1.2 8.1-2.1v101.2c0 8.5 6.9 15.3 15.3 15.3H406z" fill="#EBEFF1"/><path d="M401.2 381.5h-50.1c-6.3 0-11.5-5.1-11.5-11.5V233.2c0-13.4 10.8-24.2 24.2-24.2h24.7c13.4 0 24.2 10.8 24.2 24.2V370c0 6.4-5.2 11.5-11.5 11.5z" fill="#231D27"/><path d="M341 259.8c2-.3 1.4 3.6 0 4.5-1.4.9-9.5 2.7-9.5 2.7s-.1-5.5 9.5-7.2zm70.3 0c-2-.3-1.4 3.6 0 4.5 1.4.9 9.5 2.7 9.5 2.7s0-5.5-9.5-7.2z" fill="#231D27"/><path d="M367.2 374.2h17.9c14.4 0 21.6-2.4 21.6-16.8l-5.2-76.7 9.7-46.3c0-15.1-12.2-23.4-27.3-23.4h-15.3c-15.1 0-27.3 8.3-27.3 23.4l9.7 46.3-5.2 76.7c-.2 14.4 7 16.8 21.4 16.8z" fill="#2B252F"/><path d="M342.3 251s5.5 27.1 6.1 32.3c.6 5.2 1.1 69.9 0 72.2-1.1 2.3-2.7 1.8-2.7 1.8s-3.4-13.5-3.4-45.3v-61z" fill="#45474A"/><path d="M344 366.9c.4 1.4 6.5 7.9 6.8 9.2.4 1.3-3.2 2.8-6.8-1.1-3.6-3.8 0-8.1 0-8.1z" fill="#FF6166"/><path d="M410 251s-5.5 27.1-6.1 32.3c-.5 5.2-1.1 69.9 0 72.2 1.1 2.3 2.7 1.8 2.7 1.8s3.4-13.5 3.4-45.3v-61zm-59.1 29.7s-6.4-27.3-5.2-32.3c1.1-5 15.1-8.8 30.5-8.8s29.4 3.8 30.5 8.8c1.1 5-5.2 32.3-5.2 32.3s-8.5-1.6-25.3-1.6-25.3 1.6-25.3 1.6zm25.2 90.9c-18.7 0-24.2-4.7-24.2-4.7l-3.8 2.9c11.1 8.1 28 7.2 28 7.2s16.8.9 28-7.2l-3.8-2.9s-5.4 4.7-24.2 4.7z" fill="#45474A"/><path d="M408.2 366.9c-.4 1.4-6.5 7.9-6.8 9.2-.4 1.3 3.2 2.8 6.8-1.1 3.6-3.8 0-8.1 0-8.1z" fill="#FF6166"/><path d="M358.4 214.2c-.1-1.3-.9-2.4-1.9-3.2-4.5 1.8-8.3 4.9-10.9 8.9 3.1.9 6.6.6 9.5-.9 1.8-1.1 3.5-2.8 3.3-4.8zm35.4 0c.1-1.3.9-2.4 1.9-3.2 4.5 1.8 8.3 4.9 10.9 8.9-3.1.9-6.6.6-9.5-.9-1.7-1.1-3.4-2.8-3.3-4.8z" fill="#E9E8D8"/><path d="M397.7 311.9h-43.1c-1.4 0-2.6-1.1-2.6-2.6v-18.5c0-1.4 1.1-2.6 2.6-2.6h43.1c1.4 0 2.6 1.1 2.6 2.6v18.5c-.1 1.4-1.2 2.6-2.6 2.6z" fill="#45474A"/><path d="M345.199 161.9c0 11.4 9.2 20.6 20.6 20.6h34.7c11.4 0 20.6-9.2 20.6-20.6V75.4l5.9 2.9c-.2-3.2-3.8-5.6-5.9-6.9V32.2c-.1-12.8-10.5-23.2-23.3-23.2h-29.5c-12.8 0-23.2 10.4-23.2 23.2v39.3c-2.1 1.2-5.7 3.7-5.9 6.9l5.9-2.9v86.4h.1z" fill="#EBEFF1"/><path d="M330.6 69.7c.2-3.2 3.8-5.6 5.9-6.9V23.5c0-12.8 10.4-23.2 23.2-23.2h29.5c12.8 0 23.2 10.4 23.2 23.2v39.3c2.1 1.2 5.7 3.7 5.9 6.9l-5.9-2.9v86.5c0 11.4-9.2 20.6-20.6 20.6H357c-11.4 0-20.6-9.2-20.6-20.6V66.8l-5.8 2.9z" fill="#1FB80F"/><path d="M349.6 76.8l-11-49.7c0-12.1 9.8-21.9 21.9-21.9h27.9c12.1 0 21.9 9.8 21.9 21.9l-11 49.7c2 1.2 1.3 26.8 1.3 26.8v38.6c0 10.7 1 26.8-9.7 26.8H358c-10.7 0-9.6-17.8-9.6-28.5l-.1-36.8c0-.1-.7-25.8 1.3-26.9z" fill="#50CE5A"/><path d="M355.3 82.5h-3.5v57.9h3.5V82.5zm41.7 0h-3.5v57.9h3.5V82.5zm3.5 21.1c.1-9.6.5-18.4 1.4-24.6 1.8-12.2 7.5-30.4 7.5-30.4v51.1c-2.9 1.3-5.9 2.6-8.9 3.9zm7.4 32.599c-.4 6-.8 10.1-.8 10.1s-6.6 3.2-6.6-14.9v-2.5c2.5 2.4 5 4.9 7.4 7.3zm-7.4-9.4v-19.7c2.5-.9 5.1-1.8 7.6-2.7.5-.2.9-.3 1.4-.5v.1c0 8.8-.7 20.7-1.3 29.6-2.5-2.5-5.1-4.6-7.7-6.8zM348.299 103.6c-.1-9.6-.5-18.4-1.4-24.6-1.8-12.2-7.5-30.4-7.5-30.4v51.1c2.9 1.3 5.9 2.6 8.9 3.9z" fill="#45474A"/><path d="M348.299 103.6c-.1-9.6-.5-18.4-1.4-24.6-1.8-12.2-7.5-30.4-7.5-30.4v51.1c2.9 1.3 5.9 2.6 8.9 3.9zm-7.4 32.599c.4 6 .8 10.1.8 10.1s6.6 3.2 6.6-14.9v-2.5c-2.5 2.4-4.9 4.9-7.4 7.3zm7.5-9.4v-19.7c-2.5-.9-5.1-1.8-7.6-2.7-.5-.2-.9-.3-1.4-.5v.1c0 8.8.7 20.7 1.3 29.6 2.4-2.5 5.1-4.6 7.7-6.8zm26-92.599c-21.6 0-30.5 10.6-30.5 10.6l5.7 32h49.6l5.7-32c.1 0-8.9-10.6-30.5-10.6zM400.1 145.3s-10.7 5.4-25.7 5.4c-14.9 0-25.7-5.4-25.7-5.4-2.1 6-2.9 10.5-3.2 14.8-.1 1.9.9 3.7 2.6 4.6 4.5 2.2 14.1 6.1 26.2 6.1s21.7-3.9 26.2-6.1c1.7-.9 2.8-2.7 2.6-4.6-.1-4.3-.9-8.7-3-14.8z" fill="#45474A"/><path d="M354.499 170.7c-2.8-3.2-7.3-5-11.6-4.7v.8c3.3 3.1 7.7 5.2 12.6 5.5-.2-.6-.6-1.1-1-1.6zm39.801 0c2.8-3.2 7.3-5 11.6-4.7v.8c-3.3 3.1-7.7 5.2-12.6 5.5.2-.6.6-1.1 1-1.6z" fill="#FF6148"/><path d="M341.7 14.9c-2.2-3.2 7.2-9.3 9.9-7.2 2.8 2.1-8.1 9.8-9.9 7.2zm65.399 0c2.2-3.2-7.2-9.3-9.9-7.2-2.8 2.1 8.1 9.8 9.9 7.2z" fill="#E9E8D8"/></g><defs><clipPath id="clip0_677_2164"><path fill="#fff" d="M0 0h429.5v391H0z"/></clipPath></defs></svg>