<svg width="506" height="565" viewBox="0 0 506 565" fill="none" xmlns="http://www.w3.org/2000/svg">
<path d="M388.574 164.021L388.185 163.926L398.225 122.76C401.557 109.096 393.14 95.3216 379.455 91.9838L229.169 55.3303C215.483 51.9926 201.669 60.3447 198.337 74.0086L188.297 115.175L187.907 115.08C186.116 114.643 184.326 115.728 183.89 117.514L176.946 145.987C176.51 147.772 177.601 149.56 179.392 149.997L179.781 150.092L178.124 156.885L177.735 156.79C175.944 156.353 174.153 157.438 173.717 159.224L166.773 187.697C166.338 189.482 167.428 191.27 169.219 191.707L169.608 191.802L108.775 441.226C105.448 454.871 113.841 468.66 127.546 472.002L277.832 508.656C291.517 511.994 305.331 503.641 308.663 489.978L375.404 216.33L375.793 216.425C377.584 216.862 379.375 215.777 379.811 213.992L391.02 168.031C391.455 166.245 390.365 164.458 388.574 164.021Z" fill="#333343"/>
<path d="M276.743 501.955L131.597 466.554C120.481 463.843 113.66 452.659 116.363 441.576L205.224 77.231C207.926 66.1485 219.131 59.3604 230.247 62.0714L375.413 97.4762C386.529 100.187 393.35 111.372 390.647 122.454L301.791 486.78C299.084 497.882 287.879 504.67 276.743 501.955Z" fill="url(#paint0_linear_650_1651)" style="mix-blend-mode:color-dodge"/>
<path d="M309.354 455.666C321.408 301.286 226.203 203.943 181.41 175.224L205.518 74.237C208.093 63.4482 218.956 56.816 229.73 59.4552L377.749 95.7165C388.365 98.3172 394.928 108.932 392.404 119.566C376.166 187.992 339.319 335.823 309.354 455.666Z" fill="white" fill-opacity="0.2"/>
<rect x="238.863" y="344.669" width="83.262" height="36.5848" rx="4" transform="rotate(13.7064 238.863 344.669)" fill="#C8CFE2"/>
<line x1="278.386" y1="363.982" x2="309.046" y2="371.459" stroke="white" stroke-width="2"/>
<line x1="270.097" y1="366.798" x2="307.933" y2="376.026" stroke="white" stroke-width="2"/>
<line x1="268.33" y1="371.205" x2="306.819" y2="380.592" stroke="white" stroke-width="2"/>
<line x1="286.31" y1="382.502" x2="305.228" y2="387.116" stroke="white" stroke-width="2"/>
<circle cx="251.538" cy="367.238" r="10.0924" transform="rotate(13.7064 251.538 367.238)" fill="white"/>
<rect x="163.022" y="85.9443" width="194.278" height="75.6927" rx="10" transform="rotate(13.7064 163.022 85.9443)" fill="#0077CC"/>
<line x1="207.531" y1="121.74" x2="322.74" y2="149.839" stroke="white" stroke-width="2"/>
<line x1="178.475" y1="123.743" x2="320.647" y2="158.418" stroke="white" stroke-width="2"/>
<line x1="173.932" y1="131.726" x2="318.555" y2="166.998" stroke="white" stroke-width="2"/>
<line x1="171.54" y1="141.53" x2="316.164" y2="176.803" stroke="white" stroke-width="2"/>
<rect x="188.643" y="284.375" width="112.278" height="29.0155" rx="4" transform="rotate(13.7064 188.643 284.375)" fill="#0077CC"/>
<line x1="215.71" y1="299.551" x2="282.291" y2="315.79" stroke="white" stroke-width="2"/>
<line x1="198.917" y1="300.708" x2="281.081" y2="320.747" stroke="white" stroke-width="2"/>
<line x1="196.291" y1="305.321" x2="279.872" y2="325.706" stroke="white" stroke-width="2"/>
<rect x="108.468" y="176.521" width="156.432" height="69.385" rx="10" transform="rotate(13.7064 108.468 176.521)" fill="#C8CFE2"/>
<line x1="182.361" y1="214.291" x2="239.965" y2="228.34" stroke="white" stroke-width="2"/>
<line x1="166.787" y1="219.582" x2="237.873" y2="236.919" stroke="white" stroke-width="2"/>
<line x1="163.47" y1="227.862" x2="235.781" y2="245.499" stroke="white" stroke-width="2"/>
<line x1="197.249" y1="249.086" x2="232.792" y2="257.755" stroke="white" stroke-width="2"/>
<circle cx="133.19" cy="218.91" r="18.9232" transform="rotate(13.7064 133.19 218.91)" fill="white"/>
<rect x="108.468" y="376" width="156.432" height="69.385" rx="10" transform="rotate(13.7064 108.468 376)" fill="#2F82FF"/>
<line x1="134.118" y1="403.615" x2="191.722" y2="417.665" stroke="white" stroke-width="2"/>
<line x1="118.544" y1="408.906" x2="189.63" y2="426.244" stroke="white" stroke-width="2"/>
<line x1="115.226" y1="417.187" x2="187.538" y2="434.823" stroke="white" stroke-width="2"/>
<line x1="149.006" y1="438.41" x2="184.549" y2="447.079" stroke="white" stroke-width="2"/>
<circle cx="223.868" cy="439.868" r="18.9232" transform="rotate(13.7064 223.868 439.868)" fill="white"/>
<defs>
<linearGradient id="paint0_linear_650_1651" x1="302.83" y1="79.7738" x2="155.294" y2="663.109" gradientUnits="userSpaceOnUse">
<stop stop-color="#3598DF"/>
<stop offset="1" stop-color="#227FC1" stop-opacity="0"/>
</linearGradient>
</defs>
</svg>
