<svg width="155" height="155" viewBox="0 0 155 155" fill="none" xmlns="http://www.w3.org/2000/svg">
<g clip-path="url(#clip0_650_1461)">
<path d="M77.5 45C65.095 45 55 34.9075 55 22.5C55 10.0925 65.095 0 77.5 0C89.905 0 100 10.0925 100 22.5C100 34.9075 89.905 45 77.5 45Z" fill="#2F82FF"/>
<path d="M77.5 155C65.095 155 55 144.907 55 132.5C55 120.093 65.095 110 77.5 110C89.905 110 100 120.093 100 132.5C100 144.907 89.905 155 77.5 155Z" fill="#2F82FF"/>
<path d="M112.5 110C105.608 110 100 104.392 100 97.5C100 90.6075 105.608 85 112.5 85C119.392 85 125 90.6075 125 97.5C125 104.392 119.392 110 112.5 110Z" fill="#2F82FF"/>
<path d="M42.5 110C35.6075 110 30 104.392 30 97.5C30 90.6075 35.6075 85 42.5 85C49.3925 85 55 90.6075 55 97.5C55 104.392 49.3925 110 42.5 110Z" fill="#2F82FF"/>
<path d="M80 30H75C73.6225 30 72.5 28.88 72.5 27.5H67.5C67.5 31.635 70.865 35 75 35V40H80V35C84.135 35 87.5 31.635 87.5 27.5C87.5 23.365 84.135 20 80 20H75C73.6225 20 72.5 18.88 72.5 17.5C72.5 16.12 73.6225 15 75 15H80C81.3775 15 82.5 16.12 82.5 17.5H87.5C87.5 13.365 84.135 10 80 10V5H75V10C70.865 10 67.5 13.365 67.5 17.5C67.5 21.635 70.865 25 75 25H80C81.3775 25 82.5 26.12 82.5 27.5C82.5 28.88 81.3775 30 80 30Z" fill="#2D2F35"/>
<path d="M75 125H80C81.3775 125 82.5 126.12 82.5 127.5H87.5C87.5 123.365 84.135 120 80 120V115H75V120C70.865 120 67.5 123.365 67.5 127.5C67.5 131.635 70.865 135 75 135H80C81.3775 135 82.5 136.12 82.5 137.5C82.5 138.88 81.3775 140 80 140H75C73.6225 140 72.5 138.88 72.5 137.5H67.5C67.5 141.635 70.865 145 75 145V150H80V145C84.135 145 87.5 141.635 87.5 137.5C87.5 133.365 84.135 130 80 130H75C73.6225 130 72.5 128.88 72.5 127.5C72.5 126.12 73.6225 125 75 125Z" fill="#2D2F35"/>
<path d="M155 77.4996C155 71.3296 154.167 65.2171 152.525 59.3271L147.707 60.6696C149.23 66.1221 150 71.7846 150 77.4996C150 100.89 137.105 122.14 116.345 132.962L112.562 134.932L131.132 147.092L133.872 142.907L122.317 135.345C142.58 123.152 155 101.357 155 77.4996Z" fill="#2D2F35"/>
<path d="M137.5 47.5C137.5 51.635 140.865 55 145 55C149.135 55 152.5 51.635 152.5 47.5C152.5 43.365 149.135 40 145 40C140.865 40 137.5 43.365 137.5 47.5ZM145 45C146.377 45 147.5 46.12 147.5 47.5C147.5 48.88 146.377 50 145 50C143.623 50 142.5 48.88 142.5 47.5C142.5 46.12 143.623 45 145 45Z" fill="#2D2F35"/>
<path d="M132.5 37.5C136.635 37.5 140 34.135 140 30C140 25.865 136.635 22.5 132.5 22.5C128.365 22.5 125 25.865 125 30C125 34.135 128.365 37.5 132.5 37.5ZM132.5 27.5C133.877 27.5 135 28.62 135 30C135 31.38 133.877 32.5 132.5 32.5C131.122 32.5 130 31.38 130 30C130 28.62 131.122 27.5 132.5 27.5Z" fill="#2D2F35"/>
<path d="M5 77.4997C5 54.1097 17.895 32.8597 38.655 22.0372L42.4375 20.0672L23.87 7.90723L21.13 12.0922L32.685 19.6547C12.42 31.8472 0 53.6422 0 77.4997C0 83.6697 0.8325 89.7822 2.475 95.6722L7.2925 94.3297C5.77 88.8772 5 83.2147 5 77.4997Z" fill="#2D2F35"/>
<path d="M17.5 107.5C17.5 103.365 14.135 100 10 100C5.865 100 2.5 103.365 2.5 107.5C2.5 111.635 5.865 115 10 115C14.135 115 17.5 111.635 17.5 107.5ZM10 110C8.6225 110 7.5 108.88 7.5 107.5C7.5 106.12 8.6225 105 10 105C11.3775 105 12.5 106.12 12.5 107.5C12.5 108.88 11.3775 110 10 110Z" fill="#2D2F35"/>
<path d="M22.5 117.5C18.365 117.5 15 120.865 15 125C15 129.135 18.365 132.5 22.5 132.5C26.635 132.5 30 129.135 30 125C30 120.865 26.635 117.5 22.5 117.5ZM22.5 127.5C21.1225 127.5 20 126.38 20 125C20 123.62 21.1225 122.5 22.5 122.5C23.8775 122.5 25 123.62 25 125C25 126.38 23.8775 127.5 22.5 127.5Z" fill="#2D2F35"/>
<path d="M54.7475 100C54.3675 101.857 53.5425 103.54 52.4375 105H102.565C101.46 103.54 100.633 101.857 100.255 100H54.7475Z" fill="#2D2F35"/>
<path d="M54.7476 95H100.253C100.633 93.1425 101.458 91.46 102.563 90H52.4351C53.5426 91.46 54.3676 93.1425 54.7476 95Z" fill="#2D2F35"/>
<path d="M76.72 55H89.505C103.09 55 114.885 64.6675 117.55 77.99L117.95 80H122.5C126.635 80 130 83.365 130 87.5V90H122.435C123.54 91.46 124.367 93.1425 124.745 95H130V97.5C130 98.88 128.877 100 127.5 100H124.747C124.367 101.857 123.542 103.54 122.437 105H127.5C131.635 105 135 101.635 135 97.5V87.5C135 80.6075 129.392 75 122.5 75H121.985C118.117 60.395 104.772 50 89.505 50H76.72C63.91 50 52.3975 57.1175 46.6675 68.5725L45.81 70.29L30.0475 73.4425C24.225 74.605 20 79.76 20 85.6975V97.5C20 101.635 23.365 105 27.5 105H32.565C31.46 103.54 30.6325 101.857 30.255 100H27.5C26.1225 100 25 98.88 25 97.5V95H30.2525C30.6325 93.1425 31.4575 91.46 32.5625 90H25V85.6975C25 82.1325 27.535 79.04 31.03 78.3425L49.19 74.7125L51.1425 70.8075C56.0175 61.0575 65.8175 55 76.72 55Z" fill="#2D2F35"/>
<path d="M112.5 100C113.881 100 115 98.8807 115 97.5C115 96.1193 113.881 95 112.5 95C111.119 95 110 96.1193 110 97.5C110 98.8807 111.119 100 112.5 100Z" fill="#2D2F35"/>
<path d="M42.5 100C43.8807 100 45 98.8807 45 97.5C45 96.1193 43.8807 95 42.5 95C41.1193 95 40 96.1193 40 97.5C40 98.8807 41.1193 100 42.5 100Z" fill="#2D2F35"/>
<path d="M92.5 60H74.71C69.365 60 64.3825 62.395 61.045 66.5675L55 74.1225V80H110V77.5C110 67.8525 102.15 60 92.5 60ZM64.9475 69.6925C67.335 66.71 70.89 65 74.71 65H82.5V75H60.7025L64.9475 69.6925ZM87.5 75V65H92.5C98.5375 65 103.587 69.3025 104.747 75H87.5Z" fill="#2D2F35"/>
</g>
<defs>
<clipPath id="clip0_650_1461">
<rect width="155" height="155" fill="white"/>
</clipPath>
</defs>
</svg>
