<svg width="45" height="45" viewBox="0 0 45 45" fill="none" xmlns="http://www.w3.org/2000/svg">
<g clip-path="url(#clip0_812_13560)">
<path d="M2.90308 11.6133H19.5966V24.6778H2.90308V11.6133Z" fill="#2F82FF"/>
<path d="M29.7578 24.7635L29.4336 24.6009C25.6039 22.6868 23.2256 18.838 23.2256 14.5572V11.3322L25.7769 12.1838C26.8596 12.5439 28.0908 12.2547 28.8991 11.4456L29.7578 10.5869L30.6166 11.4456C31.4256 12.254 32.6554 12.546 33.7395 12.1831L36.2901 11.3315V14.5565C36.2901 18.8373 33.9117 22.6861 30.0821 24.6009L29.7578 24.7635Z" fill="#2F82FF"/>
<path d="M29.7577 20.6234L27.0671 17.9328L28.0935 16.9065L29.7577 18.5708L38.68 9.64844L39.7064 10.6748L29.7577 20.6234Z" fill="#494D58"/>
<path d="M24.6772 36.29H32.6611V37.7416H24.6772V36.29Z" fill="#494D58"/>
<path d="M29.032 43.5484H1.45137V10.1613H10.161V1.45161H29.032V11.3124L29.7578 10.5866L30.4836 11.3124V0H9.13471L-0.000244141 9.13496V45H30.4836V36.9254H29.032V43.5484ZM2.4777 8.70968L8.70943 2.47795V8.70968H2.4777Z" fill="#494D58"/>
<path d="M43.1299 29.5872L39.9102 29.1268C39.7152 29.0992 39.5373 28.9904 39.4225 28.8309L37.0229 25.4712C36.3439 24.5189 35.2399 23.9512 34.0697 23.9512H24.7795C23.5629 23.9512 22.4345 24.5551 21.76 25.5676L20.0086 28.1944C19.915 28.3344 19.7751 28.4389 19.6138 28.4868L13.891 30.2031C12.9618 30.482 12.3384 31.3202 12.3384 32.2891V35.5641C12.3384 36.7644 13.3155 37.7415 14.5158 37.7415H18.8706V36.2899H14.5158C14.116 36.2899 13.79 35.9645 13.79 35.5641V32.2891C13.79 31.9662 13.9984 31.687 14.3067 31.5938L20.0299 29.8774C20.514 29.7321 20.9357 29.4202 21.2157 28.9992L22.9671 26.3724C23.3722 25.765 24.0491 25.4028 24.7795 25.4028H34.0704C34.7725 25.4028 35.4341 25.7441 35.842 26.3143L38.2424 29.675C38.5872 30.1567 39.1206 30.4806 39.7064 30.5646L42.9261 31.0249C43.2801 31.0742 43.5481 31.3836 43.5481 31.7419V35.5641C43.5481 35.9645 43.222 36.2899 42.8222 36.2899H38.4674V37.7415H42.8222C44.0226 37.7415 44.9997 36.7644 44.9997 35.5641V31.7419C44.9997 30.6656 44.1962 29.7395 43.1299 29.5872Z" fill="#494D58"/>
<path d="M24.2284 26.8545L22.051 31.2093H36.7387L34.5613 26.8545H24.2284ZM24.4 29.7577L25.1258 28.3061H33.6639L34.3897 29.7577H24.4Z" fill="#494D58"/>
<path d="M18.8706 5.80664H20.3222V7.25825H18.8706V5.80664Z" fill="#494D58"/>
<path d="M21.7739 5.80664H23.2255V7.25825H21.7739V5.80664Z" fill="#494D58"/>
<path d="M15.9675 5.80664H17.4191V7.25825H15.9675V5.80664Z" fill="#494D58"/>
<path d="M2.90308 11.6133H19.5966V13.0649H2.90308V11.6133Z" fill="#494D58"/>
<path d="M2.90308 17.4189H19.5966V18.8706H2.90308V17.4189Z" fill="#494D58"/>
<path d="M21.7741 40.6448C19.7731 40.6448 18.145 39.0167 18.145 37.0158C18.145 35.0148 19.7731 33.3867 21.7741 33.3867C23.775 33.3867 25.4031 35.0148 25.4031 37.0158C25.4031 39.0167 23.775 40.6448 21.7741 40.6448Z" fill="#2F82FF"/>
<path d="M21.0481 36.29H22.4997V37.7416H21.0481V36.29Z" fill="#494D58"/>
<path d="M35.5643 40.6448C33.5634 40.6448 31.9353 39.0167 31.9353 37.0158C31.9353 35.0148 33.5634 33.3867 35.5643 33.3867C37.5653 33.3867 39.1934 35.0148 39.1934 37.0158C39.1934 39.0167 37.5653 40.6448 35.5643 40.6448Z" fill="#2F82FF"/>
<path d="M34.8384 36.29H36.29V37.7416H34.8384V36.29Z" fill="#494D58"/>
<path d="M13.0642 14.5166H19.5965V15.9682H13.0642V14.5166Z" fill="#494D58"/>
<path d="M2.90308 14.5166H11.6128V15.9682H2.90308V14.5166Z" fill="#494D58"/>
<path d="M2.90308 20.3223H19.5966V21.7739H2.90308V20.3223Z" fill="#494D58"/>
<path d="M2.90308 23.2256H19.5966V24.6772H2.90308V23.2256Z" fill="#494D58"/>
<path d="M15.9676 42.097H14.516C13.4071 42.097 12.9301 41.0069 12.5817 40.2099C12.4488 39.9058 12.1376 39.1938 11.9778 39.1938C11.8183 39.1938 11.5068 39.9058 11.3739 40.2099C11.0255 41.0062 10.5489 42.097 9.43888 42.097C8.32926 42.097 7.85153 41.0069 7.50316 40.2106C7.37026 39.9058 7.05839 39.1938 6.89714 39.1938C6.73589 39.1938 6.42402 39.9058 6.29112 40.2106C5.94204 41.0069 5.46431 42.097 4.35469 42.097H2.90308V40.6454H4.35469C4.51594 40.6454 4.82781 39.9334 4.96071 39.6286C5.30979 38.8323 5.78752 37.7422 6.89714 37.7422C8.00711 37.7422 8.48449 38.8323 8.83286 39.6286C8.96647 39.9334 9.27869 40.6454 9.43959 40.6454C9.59942 40.6454 9.91058 39.9334 10.0442 39.6294C10.3919 38.8323 10.8689 37.7422 11.9785 37.7422C13.0885 37.7422 13.5651 38.833 13.9128 39.6294C14.0457 39.9334 14.3561 40.6454 14.516 40.6454H15.9676V42.097Z" fill="#494D58"/>
<path d="M17.4192 40.6455H18.8708V42.0971H17.4192V40.6455Z" fill="#494D58"/>
<path d="M27.5803 10.1614H11.6125V2.90332H27.5803V10.1614ZM13.0642 8.70977H26.1287V4.35493H13.0642V8.70977Z" fill="#494D58"/>
</g>
<defs>
<clipPath id="clip0_812_13560">
<rect width="45" height="45" fill="white" transform="translate(-0.000244141)"/>
</clipPath>
</defs>
</svg>
