<svg width="98" height="98" viewBox="0 0 98 98" fill="none" xmlns="http://www.w3.org/2000/svg">
<g clip-path="url(#clip0_812_6494)">
<path d="M49 74.2901C62.9675 74.2901 74.2904 62.9673 74.2904 48.9998C74.2904 35.0323 62.9675 23.7095 49 23.7095C35.0326 23.7095 23.7097 35.0323 23.7097 48.9998C23.7097 62.9673 35.0326 74.2901 49 74.2901Z" fill="#2F82FF"/>
<path d="M49 14.2256C29.8252 14.2256 14.2258 29.825 14.2258 48.9998C14.2258 68.1746 29.8252 83.774 49 83.774C68.1748 83.774 83.7742 68.1746 83.7742 48.9998C83.7742 29.825 68.1748 14.2256 49 14.2256ZM49 80.6127C31.5687 80.6127 17.3871 66.4311 17.3871 48.9998C17.3871 31.5684 31.5687 17.3869 49 17.3869C66.4314 17.3869 80.6129 31.5684 80.6129 48.9998C80.6129 66.4311 66.4314 80.6127 49 80.6127Z" fill="#333333"/>
<path d="M47.4192 47.4195H26.8708V50.5808H50.5805V26.8711H47.4192V47.4195Z" fill="#333333"/>
<path d="M49.0001 23.7096C49.873 23.7096 50.5807 23.002 50.5807 22.129C50.5807 21.256 49.873 20.5483 49.0001 20.5483C48.1271 20.5483 47.4194 21.256 47.4194 22.129C47.4194 23.002 48.1271 23.7096 49.0001 23.7096Z" fill="#333333"/>
<path d="M49.0001 77.4518C49.873 77.4518 50.5807 76.7441 50.5807 75.8712C50.5807 74.9982 49.873 74.2905 49.0001 74.2905C48.1271 74.2905 47.4194 74.9982 47.4194 75.8712C47.4194 76.7441 48.1271 77.4518 49.0001 77.4518Z" fill="#333333"/>
<path d="M75.8709 50.5807C76.7439 50.5807 77.4516 49.873 77.4516 49.0001C77.4516 48.1271 76.7439 47.4194 75.8709 47.4194C74.998 47.4194 74.2903 48.1271 74.2903 49.0001C74.2903 49.873 74.998 50.5807 75.8709 50.5807Z" fill="#333333"/>
<path d="M22.129 50.5807C23.002 50.5807 23.7096 49.873 23.7096 49.0001C23.7096 48.1271 23.002 47.4194 22.129 47.4194C21.256 47.4194 20.5483 48.1271 20.5483 49.0001C20.5483 49.873 21.256 50.5807 22.129 50.5807Z" fill="#333333"/>
<path d="M11.1767 67.3813L9.34952 71.951C5.2999 64.9819 3.16129 57.1119 3.16129 49C3.16129 23.7255 23.7255 3.16129 49 3.16129C59.4528 3.16129 69.6827 6.78097 77.8073 13.3533L79.7957 10.8954C71.1101 3.86942 60.1736 0 49 0C21.9805 0 0 21.9805 0 49C0 57.7394 2.32671 66.2132 6.72248 73.7071L1.89045 72.7413L1.27084 75.8394L10.4623 77.6777L14.1136 68.5542L11.1767 67.3813Z" fill="#333333"/>
<path d="M14.2259 82.1935C15.0989 82.1935 15.8066 81.4858 15.8066 80.6129C15.8066 79.7399 15.0989 79.0322 14.2259 79.0322C13.3529 79.0322 12.6453 79.7399 12.6453 80.6129C12.6453 81.4858 13.3529 82.1935 14.2259 82.1935Z" fill="#333333"/>
<path d="M91.2776 24.293L96.1096 25.2587L96.7308 22.1591L87.5393 20.3208L83.8881 29.4443L86.8233 30.6171L88.6505 26.0475C92.7002 33.0181 94.8388 40.8882 94.8388 49C94.8388 74.2745 74.2746 94.8387 49.0001 94.8387C38.5472 94.8387 28.3173 91.2191 20.1928 84.6467L18.2043 87.1046C26.89 94.1306 37.8265 98 49.0001 98C76.0196 98 98.0001 76.0196 98.0001 49C98.0001 40.2606 95.6734 31.7868 91.2776 24.293Z" fill="#333333"/>
<path d="M83.7742 18.9679C84.6472 18.9679 85.3549 18.2603 85.3549 17.3873C85.3549 16.5143 84.6472 15.8066 83.7742 15.8066C82.9013 15.8066 82.1936 16.5143 82.1936 17.3873C82.1936 18.2603 82.9013 18.9679 83.7742 18.9679Z" fill="#333333"/>
</g>
<defs>
<clipPath id="clip0_812_6494">
<rect width="98" height="98" fill="white"/>
</clipPath>
</defs>
</svg>
