<svg width="98" height="98" viewBox="0 0 98 98" fill="none" xmlns="http://www.w3.org/2000/svg">
<g clip-path="url(#clip0_812_6414)">
<path d="M15.8064 6.32275H56.9032V26.8711H15.8064V6.32275Z" fill="#2F82FF"/>
<path d="M15.8064 6.32275H18.9677V9.48404H15.8064V6.32275Z" fill="black"/>
<path d="M22.1292 6.32275H56.9033V9.48404H22.1292V6.32275Z" fill="black"/>
<path d="M15.8064 16H56.9032V19.1613H15.8064V16Z" fill="black"/>
<path d="M15.8064 25.2905H56.9032V28.4518H15.8064V25.2905Z" fill="black"/>
<path d="M63.2258 10.5381V0H9.48387V10.5381L0 23.1833V69.5484H49.4754V66.3871H6.00769L25.9116 50.1014C28.8753 52.4554 32.5136 53.7419 36.3548 53.7419C40.1961 53.7419 43.8344 52.4554 46.7981 50.1014L55.169 56.9519L57.1703 54.5052L49.1389 47.9349L69.5484 27.5255V49.0787H72.7097V23.1833L63.2258 10.5381ZM69.0429 23.5607L63.2258 29.3778V15.8065L69.0429 23.5607ZM23.5708 47.9349L3.16129 64.6328V27.5255L23.5708 47.9349ZM9.48387 29.3778L3.66682 23.5607L9.48387 15.8065V29.3778ZM26.6796 46.5719L12.6452 32.5391V3.16129H60.0645V32.5391L46.0301 46.5735C43.4454 49.1582 40.0093 50.5807 36.3548 50.5807C32.7004 50.5807 29.2643 49.1582 26.6796 46.5719Z" fill="black"/>
<path d="M72.7098 98.0001C58.7657 98.0001 47.4194 86.6539 47.4194 72.7098C47.4194 58.7657 58.7657 47.4194 72.7098 47.4194C86.6539 47.4194 98.0001 58.7657 98.0001 72.7098C98.0001 86.6539 86.6539 98.0001 72.7098 98.0001Z" fill="#2F82FF"/>
<path d="M72.5 65C68.916 65 66 67.8711 66 71.4V74.6C66 78.1289 68.916 81 72.5 81H74.9375V79.4H72.5C69.8114 79.4 67.625 77.2473 67.625 74.6V71.4C67.625 68.7527 69.8114 66.6 72.5 66.6C75.1886 66.6 77.375 68.7527 77.375 71.4V77C77.375 77.4406 77.0108 77.8 76.5625 77.8C76.1142 77.8 75.75 77.4406 75.75 77V71.4C75.75 69.6352 74.2924 68.2 72.5 68.2C70.7076 68.2 69.25 69.6352 69.25 71.4V74.6C69.25 76.3648 70.7076 77.8 72.5 77.8C73.1086 77.8 73.6723 77.6238 74.1591 77.3367C74.3273 78.5 75.3358 79.4 76.5625 79.4C77.9062 79.4 79 78.323 79 77V71.4C79 67.8711 76.084 65 72.5 65ZM72.5 76.2C71.6038 76.2 70.875 75.4824 70.875 74.6V71.4C70.875 70.5176 71.6038 69.8 72.5 69.8C73.3962 69.8 74.125 70.5176 74.125 71.4V74.6C74.125 75.4824 73.3962 76.2 72.5 76.2Z" fill="black"/>
<path d="M88.5161 71.1289H91.6774V74.2902H88.5161V71.1289Z" fill="black"/>
<path d="M53.7419 71.1289H56.9032V74.2902H53.7419V71.1289Z" fill="black"/>
</g>
<defs>
<clipPath id="clip0_812_6414">
<rect width="98" height="98" fill="white"/>
</clipPath>
</defs>
</svg>
