<svg width="84" height="24" viewBox="0 0 84 24" fill="none" xmlns="http://www.w3.org/2000/svg">
<path d="M32.3049 14.2233H32.5164L34.0878 8.48164L34.4504 6.6987H37.3515L37.5932 8.30032L38.9229 14.1931H39.1042L40.6454 8.48164L41.008 6.6987H43.5464L40.2525 17.2452H37.4421L35.8103 10.4761H35.5988L33.7554 17.2452H30.7637L28.0439 6.78936L30.7637 6.63827L31.0054 8.30032L32.3049 14.2233Z" fill="#242424"/>
<path d="M51.3569 10.6876C51.3569 9.5796 50.8835 9.02558 49.9366 9.02558C49.2516 9.02558 48.5264 9.34792 47.7608 9.9926V12.6217L47.9119 17.2452H44.89L45.0411 12.8936L44.9202 6.91024L47.791 6.66848V8.20966H47.9421C48.8084 7.44411 49.715 6.90017 50.6619 6.57783C51.8102 6.57783 52.6765 6.83973 53.2607 7.36353C53.8651 7.88733 54.1572 8.63273 54.1371 9.59975L54.0766 12.6217L54.1975 17.2452H51.1756L51.3569 10.6876Z" fill="#242424"/>
<path d="M58.8795 12.3799C59.0004 14.2938 59.9271 15.2507 61.6597 15.2507C62.6469 15.2507 63.6642 14.9687 64.7118 14.4046L64.9536 14.5859L64.5608 16.7919C63.5132 17.2351 62.4555 17.4668 61.3877 17.487C59.7156 17.487 58.4162 17.0035 57.4895 16.0364C56.5627 15.0694 56.0994 13.7398 56.0994 12.0475C56.0994 10.3351 56.5627 8.99536 57.4895 8.02835C58.4363 7.04119 59.635 6.54761 61.0855 6.54761C62.5361 6.54761 63.6139 6.92031 64.319 7.66572C65.0443 8.39098 65.4069 9.39829 65.4069 10.6876C65.4069 11.0906 65.3767 11.5036 65.3162 11.9266L64.8629 12.3497L58.8795 12.3799ZM61.1762 8.51186C60.592 8.51186 60.0984 8.70325 59.6955 9.08602C59.3127 9.4688 59.0609 10.0127 58.94 10.7179L62.7476 10.597L62.808 10.3552C62.7879 9.12631 62.2439 8.51186 61.1762 8.51186Z" fill="#242424"/>
<path d="M73.2379 6.6987C73.3789 6.71885 73.5703 6.739 73.812 6.75914V9.50909L73.5098 9.62997C73.2479 9.52924 72.9659 9.47887 72.6637 9.47887C71.7974 9.47887 71.0016 10.0329 70.2764 11.1409V12.6217L70.4577 17.2452H67.4358L67.5869 12.8936L67.466 6.91024L70.3368 6.66848L70.3066 8.75361H70.4879C71.2132 7.40382 72.1298 6.71885 73.2379 6.6987Z" fill="#242424"/>
<path d="M79.014 14.1931H79.1651L81.0084 8.60251L81.4013 6.6987H84.0002L80.5854 16.52C80.1019 17.9503 79.437 19.0382 78.5909 19.7836C77.7448 20.5492 76.5461 21.1536 74.9948 21.5968L74.7833 21.5666C74.2393 21.0831 73.7961 20.4787 73.4536 19.7534L73.5443 19.4512C75.297 19.149 76.6972 18.4137 77.7448 17.2452L73.8767 6.78936L76.7778 6.63827L77.1102 8.33054L79.014 14.1931Z" fill="#242424"/>
<path d="M0.513292 15.0415C0.87232 16.1928 1.38373 17.2789 2.09424 18.274C2.12019 18.3867 2.19756 18.4659 2.28295 18.5401L2.28626 18.5465C2.51649 18.9026 2.79909 19.2194 3.08829 19.5321L3.09631 19.5375C3.43583 19.9247 3.80653 20.2858 4.205 20.6173C4.29936 20.6979 4.3555 20.8314 4.50553 20.8436L4.79473 21.0698C4.86361 21.2056 5.01034 21.2481 5.12498 21.3323C7.95568 23.3102 11.1037 24.0551 14.5692 23.567C15.8348 23.3887 17.0599 23.0062 18.1925 22.4356C18.6718 22.2614 19.0888 21.9804 19.5078 21.7115L19.5144 21.7075C19.8918 21.5084 20.2126 21.2382 20.549 20.9861C20.5518 20.9861 20.5547 20.9834 20.557 20.9789L20.925 20.6702L21.393 20.2489C21.5346 20.1616 21.619 20.0227 21.7233 19.9L21.7304 19.895C21.8429 19.8283 21.9355 19.7347 21.9993 19.6235L22.154 19.4425L22.1941 19.3914C22.1821 19.4093 22.1687 19.4264 22.154 19.4425C22.3324 19.3067 22.4371 19.114 22.5758 18.9474C22.7367 18.7691 22.9004 18.5926 23.007 18.3768L23.4835 17.6414C23.526 17.5626 23.567 17.483 23.6118 17.4052C24.1244 16.5084 24.5135 15.5515 24.7691 14.5587C25.3038 12.5257 25.2738 10.3939 24.6823 8.37556C24.4063 7.41481 24.0218 6.49479 23.4816 5.63903C23.4085 5.43815 23.2939 5.25346 23.1448 5.09598C23.0832 4.94011 22.9839 4.80051 22.8551 4.68869C22.8257 4.6187 22.7791 4.55659 22.7192 4.50768L22.4833 4.1909L22.0587 3.6931C21.6752 3.30753 21.2992 2.91472 20.8793 2.56174L20.7406 2.47123C20.6872 2.35312 20.5599 2.30696 20.4627 2.24496C20.2438 2.1092 20.0914 1.887 19.8343 1.80418C19.7833 1.76934 19.7347 1.73042 19.6809 1.70055C18.6139 1.10206 17.4172 0.747879 16.1841 0.665586C14.6767 0.562859 13.2326 0.789131 11.8602 1.42179C10.8664 1.87461 9.98246 2.52207 9.26536 3.32247C8.64509 3.98347 8.15871 4.74958 7.83113 5.58156C8.33311 5.22858 8.88887 4.98104 9.42435 4.70136C10.1759 4.43301 10.9383 4.20809 11.7418 4.13433C13.995 3.92706 16.0166 4.4846 17.7334 5.89924C20.223 7.94836 21.1175 11.1809 20.0093 14.1514C19.1464 16.4648 17.4853 18.0432 15.0447 18.8442C13.5435 19.3366 12.021 19.3791 10.5052 18.9547C7.825 18.2034 6.02326 16.5449 5.14951 13.997C4.38617 11.7651 4.42202 9.4947 4.91692 7.2175C5.19528 5.95006 5.64392 4.72262 6.2516 3.56593C6.29878 3.489 6.35303 3.41479 6.39785 3.33604C6.9003 2.45404 7.5023 1.64444 8.2463 0.932135C8.59542 0.598158 8.98748 0.315769 9.35641 -0.000106812C9.08891 0.0614395 8.82518 0.12932 8.56664 0.211683C7.52872 0.54204 6.56439 1.01993 5.64677 1.58606C5.42079 1.72544 5.17263 1.84491 5.01175 2.06621L4.93013 2.11463C4.75887 2.18387 4.62961 2.30651 4.49704 2.42553C4.36494 2.55405 4.18141 2.63008 4.08658 2.79661L3.98704 2.88712C3.82522 2.97084 3.7068 3.09936 3.59829 3.23784L3.55347 3.28083C2.97317 3.78406 2.53205 4.39725 2.08245 5.00321C1.98866 5.1122 1.91277 5.23428 1.8574 5.36524C1.72483 5.47974 1.66869 5.6413 1.5866 5.78475C0.663319 7.38087 0.130203 9.08832 0.0235806 10.9134C-0.0657864 12.3063 0.0999565 13.7035 0.513292 15.0415Z" fill="#242424"/>
</svg>
