<svg width="149" height="42" viewBox="0 0 149 42" fill="none" xmlns="http://www.w3.org/2000/svg">
                <path d="M57.7736 25.1H58.1469L60.92 14.9677L61.5599 11.8213H66.6794L67.1061 14.6477L69.4525 25.0467H69.7725L72.4922 14.9677L73.1321 11.8213H77.6117L71.7989 30.4328H66.8394L63.9597 18.4873H63.5864L60.3334 30.4328H55.0539L50.2544 11.9813L55.0539 11.7147L55.4805 14.6477L57.7736 25.1Z" fill="white"/>
                <path d="M91.3949 18.8606C91.3949 16.9053 90.5594 15.9276 88.8885 15.9276C87.6797 15.9276 86.3998 16.4964 85.0489 17.6341V22.2736L85.3155 30.4328H79.9827L80.2493 22.7536L80.036 12.1946L85.1022 11.768V14.4877H85.3688C86.8976 13.1368 88.4974 12.1768 90.1684 11.608C92.1948 11.608 93.7236 12.0702 94.7546 12.9945C95.8211 13.9189 96.3366 15.2343 96.3011 16.9408L96.1944 22.2736L96.4077 30.4328H91.0749L91.3949 18.8606Z" fill="white"/>
                <path d="M104.67 21.847C104.883 25.2244 106.519 26.9132 109.576 26.9132C111.318 26.9132 113.114 26.4154 114.962 25.42L115.389 25.7399L114.696 29.6329C112.847 30.415 110.981 30.8239 109.096 30.8594C106.146 30.8594 103.852 30.0062 102.217 28.2997C100.582 26.5932 99.764 24.2468 99.764 21.2604C99.764 18.2385 100.582 15.8743 102.217 14.1678C103.888 12.4257 106.003 11.5547 108.563 11.5547C111.123 11.5547 113.025 12.2124 114.269 13.5278C115.549 14.8077 116.189 16.5853 116.189 18.8606C116.189 19.5717 116.136 20.3005 116.029 21.0471L115.229 21.7937L104.67 21.847ZM108.723 15.021C107.692 15.021 106.821 15.3588 106.11 16.0342C105.435 16.7097 104.99 17.6696 104.777 18.914L111.496 18.7006L111.603 18.274C111.567 16.1053 110.607 15.021 108.723 15.021Z" fill="white"/>
                <path d="M130.008 11.8213C130.257 11.8569 130.595 11.8924 131.022 11.928V16.7808L130.488 16.9941C130.026 16.8164 129.528 16.7275 128.995 16.7275C127.466 16.7275 126.062 17.7052 124.782 19.6606V22.2736L125.102 30.4328H119.769L120.036 22.7536L119.823 12.1946L124.889 11.768L124.836 15.4476H125.156C126.435 13.0656 128.053 11.8569 130.008 11.8213Z" fill="white"/>
                <path d="M140.202 25.0467H140.468L143.721 15.181L144.414 11.8213H149.001L142.975 29.1529C142.121 31.6771 140.948 33.5969 139.455 34.9124C137.962 36.2634 135.846 37.3299 133.109 38.1121L132.736 38.0587C131.776 37.2055 130.994 36.1389 130.389 34.859L130.549 34.3258C133.642 33.7925 136.113 32.4948 137.962 30.4328L131.136 11.9813L136.255 11.7147L136.842 14.701L140.202 25.0467Z" fill="white"/>
                <path class="logo-o" fill="white" d="M0.905537 26.544C1.53912 28.5757 2.44161 30.4923 3.69545 32.2485C3.74123 32.4473 3.87777 32.5871 4.02847 32.718L4.0343 32.7292C4.44059 33.3577 4.93929 33.9168 5.44965 34.4686L5.4638 34.4782C6.06296 35.1615 6.71714 35.7986 7.42032 36.3836C7.58683 36.5258 7.6859 36.7614 7.95066 36.7829L8.46102 37.1822C8.58257 37.4218 8.8415 37.4969 9.04381 37.6454C14.0392 41.1359 19.5946 42.4504 25.71 41.589C27.9436 41.2744 30.1055 40.5994 32.1041 39.5924C32.9499 39.285 33.6859 38.789 34.4252 38.3147L34.4369 38.3075C35.1029 37.9561 35.6691 37.4793 36.2627 37.0345C36.2677 37.0345 36.2727 37.0297 36.2768 37.0217L36.9262 36.4771L37.7521 35.7336C38.0019 35.5794 38.1509 35.3343 38.3349 35.1179L38.3474 35.1091C38.546 34.9913 38.7095 34.8262 38.822 34.6299L39.0951 34.3105L39.1658 34.2202C39.1445 34.2519 39.1209 34.2821 39.0951 34.3105C39.4098 34.0709 39.5946 33.7307 39.8394 33.4368C40.1233 33.1221 40.4122 32.8107 40.6003 32.4297L41.4412 31.132C41.5161 30.9931 41.5886 30.8525 41.6677 30.7151C42.5723 29.1326 43.2588 27.4441 43.7099 25.6919C44.6534 22.1044 44.6006 18.3424 43.5568 14.7806C43.0697 13.0851 42.3912 11.4616 41.4379 9.95141C41.3089 9.59691 41.1067 9.27098 40.8434 8.99308C40.7349 8.71802 40.5596 8.47166 40.3322 8.27434C40.2804 8.15083 40.1981 8.04121 40.0925 7.9549L39.6762 7.39587L38.9269 6.51741C38.25 5.83699 37.5865 5.1438 36.8455 4.52089L36.6007 4.36117C36.5066 4.15274 36.2818 4.07128 36.1103 3.96187C35.724 3.72229 35.4551 3.33017 35.0014 3.18402C34.9114 3.12253 34.8257 3.05386 34.7308 3.00114C32.8477 1.94498 30.7359 1.31996 28.5598 1.17474C25.8998 0.993454 23.3514 1.39276 20.9294 2.50921C19.1757 3.30831 17.6158 4.45088 16.3504 5.86335C15.2558 7.02982 14.3974 8.38179 13.8194 9.84999C14.7052 9.22707 15.686 8.79023 16.6309 8.2967C17.9572 7.82312 19.3026 7.42622 20.7205 7.29604C24.6968 6.93028 28.2643 7.91417 31.294 10.4106C35.6874 14.0267 37.2659 19.7311 35.3102 24.9732C33.7875 29.0556 30.8561 31.8412 26.5492 33.2547C23.9 34.1236 21.2133 34.1987 18.5383 33.4496C13.8085 32.1239 10.629 29.197 9.0871 24.7008C7.74002 20.7621 7.80329 16.7555 8.67665 12.7369C9.16786 10.5003 9.95958 8.33421 11.032 6.293C11.1152 6.15723 11.211 6.02626 11.2901 5.88731C12.1767 4.33083 13.2391 2.90212 14.552 1.64511C15.1681 1.05574 15.86 0.557411 16.511 -1.52588e-05C16.039 0.108597 15.5736 0.228386 15.1173 0.373734C13.2857 0.956715 11.584 1.80005 9.96462 2.7991C9.56582 3.04507 9.1279 3.2559 8.84399 3.64642L8.69996 3.73187C8.39774 3.85406 8.16962 4.07048 7.93567 4.28051C7.70256 4.50732 7.37869 4.64148 7.21134 4.93537L7.03568 5.09509C6.75011 5.24283 6.54113 5.46964 6.34965 5.71401L6.27055 5.78988C5.2465 6.67793 4.46806 7.76004 3.67463 8.82937C3.50913 9.0217 3.37521 9.23714 3.2775 9.46825C3.04355 9.6703 2.94447 9.9554 2.79961 10.2086C1.17029 13.0252 0.2295 16.0384 0.0413399 19.2592C-0.116367 21.7172 0.176121 24.1828 0.905537 26.544Z"/>
            </svg>