<svg width="45" height="45" viewBox="0 0 45 45" fill="none" xmlns="http://www.w3.org/2000/svg">
<g clip-path="url(#clip0_812_13541)">
<path d="M26.8546 0H3.62879C1.62774 0 -0.000244141 1.62798 -0.000244141 3.62903V41.371C-0.000244141 43.372 1.62774 45 3.62879 45H26.8546C28.8556 45 30.4836 43.372 30.4836 41.371V3.62903C30.4836 1.62798 28.8556 0 26.8546 0ZM3.62879 1.45161H26.8546C28.0551 1.45161 29.032 2.42855 29.032 3.62903V4.35484H1.45137V3.62903C1.45137 2.42855 2.4283 1.45161 3.62879 1.45161ZM26.8546 43.5484H3.62879C2.4283 43.5484 1.45137 42.5715 1.45137 41.371V39.1936H24.6772V37.7419H1.45137V5.80645H29.032V41.371C29.032 42.5715 28.0551 43.5484 26.8546 43.5484Z" fill="#494D58"/>
<path d="M40.9996 34.839C43.2088 34.839 44.9997 33.0481 44.9997 30.839V12.71C44.9997 10.5008 43.2088 8.70996 40.9997 8.70996H8.35449C6.14536 8.70996 4.35449 10.5008 4.35449 12.71V30.839C4.35449 33.0481 6.14535 34.839 8.35449 34.839H40.9996Z" fill="#2F82FF"/>
<path d="M19.5966 40.6445H10.887V42.0961H19.5966V40.6445Z" fill="#494D58"/>
<path d="M29.7579 37.7422H26.1289V39.1938H29.7579V37.7422Z" fill="#494D58"/>
<path d="M21.774 25.4026H15.9675V18.1445H21.774V25.4026ZM17.4191 23.951H20.3224V19.5961H17.4191V23.951Z" fill="#494D58"/>
<path d="M14.5158 18.1445H13.0642V25.4026H14.5158V18.1445Z" fill="#494D58"/>
<path d="M34.8384 25.4026H29.032V18.1445H34.8384V25.4026ZM30.4836 23.951H33.3868V19.5961H30.4836V23.951Z" fill="#494D58"/>
<path d="M24.6772 18.1445H23.2256V25.4026H24.6772V18.1445Z" fill="#494D58"/>
<path d="M27.5805 18.1445H26.1289V25.4026H27.5805V18.1445Z" fill="#494D58"/>
<path d="M37.7416 18.1445H36.29V25.4026H37.7416V18.1445Z" fill="#494D58"/>
<path d="M40.645 18.1445H39.1934V25.4026H40.645V18.1445Z" fill="#494D58"/>
<path d="M16.7398 31.9135C16.2041 31.878 15.6678 31.7996 15.1474 31.6806L15.4718 30.266C15.9167 30.3683 16.3762 30.4344 16.8349 30.4648L16.7398 31.9135ZM18.3467 31.8932L18.2146 30.4474C18.6704 30.4053 19.1284 30.3269 19.5748 30.2137L19.9319 31.621C19.4122 31.7531 18.8787 31.8446 18.3467 31.8932ZM13.6116 31.1972C13.1173 30.9969 12.6339 30.7552 12.1752 30.4786L12.9249 29.2353C13.3183 29.4727 13.7328 29.6802 14.1574 29.8523L13.6116 31.1972ZM21.4561 31.0977L20.8762 29.7666C21.2971 29.5837 21.7065 29.3652 22.0926 29.117L22.8765 30.3393C22.425 30.6281 21.9474 30.8836 21.4561 31.0977ZM10.8673 29.5416C10.4594 29.1969 10.0754 28.8173 9.72486 28.4115L10.8237 27.4614C11.1249 27.8098 11.4545 28.1372 11.805 28.4326L10.8673 29.5416ZM8.77333 27.1152C8.49027 26.6594 8.24349 26.1775 8.03664 25.6825L9.37648 25.1236C9.55285 25.5475 9.76478 25.959 10.0065 26.3488L8.77333 27.1152ZM7.53946 24.1539C7.41462 23.6372 7.33043 23.1023 7.28833 22.5644L8.73559 22.4527C8.77115 22.9143 8.84301 23.3723 8.9497 23.8143L7.53946 24.1539ZM8.73704 21.0729L7.28978 20.9553C7.33406 20.4175 7.4197 19.8826 7.54527 19.3673L8.95551 19.7106C8.84809 20.1526 8.77478 20.6106 8.73704 21.0729ZM9.38591 18.4019L8.04752 17.8394C8.2551 17.3459 8.50406 16.8654 8.78712 16.411L10.0188 17.1782C9.77639 17.5673 9.56373 17.9788 9.38591 18.4019ZM10.839 16.0685L9.74156 15.1169C10.0921 14.7119 10.4782 14.3331 10.8883 13.9883L11.821 15.101C11.4697 15.3956 11.1395 15.7208 10.839 16.0685ZM22.1144 14.4427C21.7297 14.1952 21.3203 13.9745 20.8987 13.7894L21.4844 12.4612C21.9757 12.6782 22.4519 12.9337 22.8997 13.2226L22.1144 14.4427ZM12.9467 14.299L12.197 13.0556C12.6549 12.7798 13.1405 12.5381 13.6391 12.3385L14.1791 13.6864C13.7516 13.8577 13.3372 14.0638 12.9467 14.299ZM19.598 13.3402C19.1524 13.2255 18.6958 13.1449 18.2407 13.1035L18.3757 11.6577C18.907 11.7071 19.4412 11.8007 19.9616 11.9357L19.598 13.3402ZM15.4957 13.2777L15.1757 11.8617C15.6961 11.7441 16.2324 11.6672 16.7681 11.6338L16.8603 13.0825C16.4001 13.1108 15.9407 13.1769 15.4957 13.2777Z" fill="#494D58"/>
<path d="M42.0966 30.4834H40.645V31.935H42.0966V30.4834Z" fill="#494D58"/>
<path d="M39.1933 30.4834H30.4836V31.935H39.1933V30.4834Z" fill="#494D58"/>
</g>
<defs>
<clipPath id="clip0_812_13541">
<rect width="45" height="45" fill="white" transform="translate(-0.000244141)"/>
</clipPath>
</defs>
</svg>
