<svg width="149" height="42" viewBox="0 0 149 42" fill="none" xmlns="http://www.w3.org/2000/svg">
<path d="M57.7732 25.1H58.1465L60.9195 14.9677L61.5595 11.8213H66.6789L67.1056 14.6477L69.452 25.0467H69.772L72.4917 14.9677L73.1316 11.8213H77.6112L71.7984 30.4328H66.8389L63.9592 18.4873H63.5859L60.3329 30.4328H55.0534L50.2539 11.9813L55.0534 11.7147L55.4801 14.6477L57.7732 25.1Z" fill="#0077CC"/>
<path d="M91.3944 18.8606C91.3944 16.9053 90.5589 15.9276 88.888 15.9276C87.6792 15.9276 86.3993 16.4964 85.0484 17.6341V22.2736L85.315 30.4328H79.9822L80.2488 22.7536L80.0355 12.1946L85.1017 11.768V14.4877H85.3683C86.8971 13.1368 88.4969 12.1768 90.1679 11.608C92.1943 11.608 93.7231 12.0702 94.7541 12.9945C95.8206 13.9189 96.3361 15.2343 96.3006 16.9408L96.1939 22.2736L96.4072 30.4328H91.0744L91.3944 18.8606Z" fill="#0077CC"/>
<path d="M104.67 21.847C104.883 25.2244 106.518 26.9132 109.576 26.9132C111.318 26.9132 113.113 26.4154 114.962 25.42L115.389 25.7399L114.695 29.6329C112.847 30.415 110.98 30.8239 109.096 30.8594C106.145 30.8594 103.852 30.0062 102.217 28.2997C100.581 26.5932 99.7635 24.2468 99.7635 21.2604C99.7635 18.2385 100.581 15.8743 102.217 14.1678C103.888 12.4257 106.003 11.5547 108.563 11.5547C111.122 11.5547 113.024 12.2124 114.269 13.5278C115.549 14.8077 116.189 16.5853 116.189 18.8606C116.189 19.5717 116.135 20.3005 116.029 21.0471L115.229 21.7937L104.67 21.847ZM108.723 15.021C107.692 15.021 106.821 15.3588 106.11 16.0342C105.434 16.7097 104.99 17.6696 104.776 18.914L111.496 18.7006L111.602 18.274C111.567 16.1053 110.607 15.021 108.723 15.021Z" fill="#0077CC"/>
<path d="M130.008 11.8213C130.257 11.8569 130.594 11.8924 131.021 11.928V16.7808L130.488 16.9941C130.026 16.8164 129.528 16.7275 128.995 16.7275C127.466 16.7275 126.062 17.7052 124.782 19.6606V22.2736L125.102 30.4328H119.769L120.036 22.7536L119.822 12.1946L124.888 11.768L124.835 15.4476H125.155C126.435 13.0656 128.053 11.8569 130.008 11.8213Z" fill="#0077CC"/>
<path d="M140.201 25.0467H140.468L143.721 15.181L144.414 11.8213H149L142.974 29.1529C142.121 31.6771 140.948 33.5969 139.454 34.9124C137.961 36.2634 135.846 37.3299 133.108 38.1121L132.735 38.0587C131.775 37.2055 130.993 36.1389 130.389 34.859L130.549 34.3258C133.642 33.7925 136.113 32.4948 137.961 30.4328L131.135 11.9813L136.255 11.7147L136.841 14.701L140.201 25.0467Z" fill="#0077CC"/>
<path d="M0.905781 26.544C1.53936 28.5757 2.44185 30.4923 3.69569 32.2485C3.74148 32.4473 3.87802 32.5871 4.02871 32.718L4.03454 32.7292C4.44083 33.3577 4.93953 33.9168 5.44989 34.4686L5.46405 34.4782C6.0632 35.1615 6.71738 35.7986 7.42056 36.3836C7.58707 36.5258 7.68615 36.7614 7.9509 36.7829L8.46126 37.1822C8.58281 37.4218 8.84174 37.4969 9.04405 37.6454C14.0394 41.1359 19.5948 42.4504 25.7102 41.589C27.9438 41.2744 30.1057 40.5994 32.1043 39.5924C32.9502 39.285 33.6862 38.789 34.4255 38.3147L34.4371 38.3075C35.1032 37.9561 35.6693 37.4793 36.2629 37.0345C36.2679 37.0345 36.2729 37.0297 36.2771 37.0217L36.9265 36.4771L37.7524 35.7336C38.0022 35.5794 38.1512 35.3343 38.3352 35.1179L38.3477 35.1091C38.5463 34.9913 38.7097 34.8262 38.8222 34.6299L39.0953 34.3105L39.1661 34.2202C39.1448 34.2519 39.1211 34.2821 39.0953 34.3105C39.41 34.0709 39.5948 33.7307 39.8396 33.4368C40.1235 33.1221 40.4124 32.8107 40.6006 32.4297L41.4415 31.132C41.5164 30.9931 41.5888 30.8525 41.6679 30.7151C42.5725 29.1326 43.259 27.4441 43.7102 25.6919C44.6537 22.1044 44.6009 18.3424 43.557 14.7806C43.07 13.0851 42.3914 11.4616 41.4381 9.95141C41.3091 9.59691 41.1069 9.27098 40.8437 8.99308C40.7351 8.71802 40.5599 8.47166 40.3325 8.27434C40.2807 8.15083 40.1984 8.04121 40.0927 7.9549L39.6764 7.39587L38.9271 6.51741C38.2503 5.83699 37.5867 5.1438 36.8457 4.52089L36.601 4.36117C36.5069 4.15274 36.2821 4.07128 36.1106 3.96187C35.7243 3.72229 35.4554 3.33017 35.0016 3.18402C34.9117 3.12253 34.8259 3.05386 34.731 3.00114C32.848 1.94498 30.7362 1.31996 28.5601 1.17474C25.9001 0.993454 23.3516 1.39276 20.9297 2.50921C19.1759 3.30831 17.6161 4.45088 16.3506 5.86335C15.256 7.02982 14.3977 8.38179 13.8196 9.84999C14.7055 9.22707 15.6862 8.79023 16.6312 8.2967C17.9574 7.82312 19.3029 7.42622 20.7207 7.29604C24.697 6.93028 28.2645 7.91417 31.2942 10.4106C35.6876 14.0267 37.2662 19.7311 35.3105 24.9732C33.7877 29.0556 30.8563 31.8412 26.5495 33.2547C23.9003 34.1236 21.2136 34.1987 18.5386 33.4496C13.8088 32.1239 10.6292 29.197 9.08735 24.7008C7.74026 20.7621 7.80354 16.7555 8.67689 12.7369C9.16811 10.5003 9.95982 8.33421 11.0322 6.293C11.1155 6.15723 11.2112 6.02626 11.2903 5.88731C12.177 4.33083 13.2393 2.90212 14.5523 1.64511C15.1684 1.05574 15.8602 0.557411 16.5113 -1.52588e-05C16.0392 0.108597 15.5738 0.228386 15.1176 0.373734C13.2859 0.956715 11.5842 1.80005 9.96486 2.7991C9.56607 3.04507 9.12814 3.2559 8.84424 3.64642L8.70021 3.73187C8.39799 3.85406 8.16986 4.07048 7.93592 4.28051C7.7028 4.50732 7.37893 4.64148 7.21159 4.93537L7.03592 5.09509C6.75035 5.24283 6.54138 5.46964 6.34989 5.71401L6.2708 5.78988C5.24675 6.67793 4.4683 7.76004 3.67487 8.82937C3.50937 9.0217 3.37545 9.23714 3.27774 9.46825C3.04379 9.6703 2.94472 9.9554 2.79985 10.2086C1.17053 13.0252 0.229744 16.0384 0.041584 19.2592C-0.116123 21.7172 0.176365 24.1828 0.905781 26.544Z" fill="#0077CC"/>
</svg>
