<svg width="155" height="155" viewBox="0 0 155 155" fill="none" xmlns="http://www.w3.org/2000/svg">
<g clip-path="url(#clip0_650_1468)">
<path d="M47.5 140C29.58 140 15 125.42 15 107.5C15 89.58 29.58 75 47.5 75C65.42 75 80 89.58 80 107.5C80 125.42 65.42 140 47.5 140ZM47.5 92.5C39.23 92.5 32.5 99.23 32.5 107.5C32.5 115.77 39.23 122.5 47.5 122.5C55.77 122.5 62.5 115.77 62.5 107.5C62.5 99.23 55.77 92.5 47.5 92.5Z" fill="#2F82FF"/>
<path d="M155 70H138.378L130.673 63.835C127.58 61.3625 123.697 60 119.74 60H117.5V46.6275C125.25 42.16 130 34.01 130 25C130 15.39 122.352 8.1975 119.067 5.5525L118.383 5H117.5C113.365 5 110 8.365 110 12.5V17.5C110 20.2575 107.758 22.5 105 22.5C102.242 22.5 100 20.2575 100 17.5V12.5C100 8.365 96.635 5 92.5 5H91.6175L90.9325 5.5525C87.6475 8.1975 80 15.39 80 25C80 30.5475 81.8125 35.7625 85.0075 40H50H30H27.5C26.12 40 25 38.8775 25 37.5V5H30V0H5V5H10V37.5C10 47.15 17.8525 55 27.5 55H30V62.5C30 62.785 30.0525 63.0575 30.085 63.335C12.0325 70.4575 0 87.975 0 107.5C0 133.693 21.3075 155 47.5 155C69.06 155 87.4625 140.64 93.16 120.542C94.33 123.162 96.95 125 100 125H110C114.135 125 117.5 121.635 117.5 117.5V115H119.74C123.697 115 127.583 113.637 130.673 111.167L138.38 105H155V70ZM93.2625 10.1175C94.27 10.4425 95 11.3875 95 12.5V17.5C95 23.015 99.485 27.5 105 27.5C110.515 27.5 115 23.015 115 17.5V12.5C115 11.3875 115.73 10.4425 116.737 10.1175C119.737 12.705 125 18.2125 125 25C125 32.625 120.743 39.4825 113.888 42.895L112.5 43.585V60H97.5V43.585L96.1125 42.895C89.2575 39.4825 85 32.625 85 25C85 18.2125 90.2625 12.705 93.2625 10.1175ZM102.5 107.5C102.5 108.88 101.38 110 100 110H90C88.62 110 87.5 108.88 87.5 107.5C87.5 106.12 88.62 105 90 105H100C101.38 105 102.5 106.12 102.5 107.5ZM102.5 87.5C102.5 88.88 101.38 90 100 90H90C88.62 90 87.5 88.88 87.5 87.5C87.5 86.12 88.62 85 90 85H100C101.38 85 102.5 86.12 102.5 87.5ZM102.5 97.5C102.5 98.88 101.38 100 100 100H90C88.62 100 87.5 98.88 87.5 97.5C87.5 96.12 88.62 95 90 95H100C101.38 95 102.5 96.12 102.5 97.5ZM102.5 77.5C102.5 78.8775 101.38 80 100 80H90C88.62 80 87.5 78.8775 87.5 77.5C87.5 76.1225 88.62 75 90 75H97.5H100C101.38 75 102.5 76.1225 102.5 77.5ZM87.5 65C87.5 66.8725 88.05 68.605 88.9475 70.105C87.725 70.28 86.5975 70.73 85.6375 71.4225C76.305 61.5575 63.5625 55.71 49.9975 55.0675V55H92.4975V60C89.7425 60 87.5 62.2425 87.5 65ZM90.06 45C90.84 45.58 91.645 46.135 92.5 46.6275V50H50V45H90.06ZM45 45V55V65H37.5C36.12 65 35 63.8775 35 62.5V45H45ZM27.5 50C20.6075 50 15 44.3925 15 37.5V5H20V37.5C20 41.635 23.365 45 27.5 45H30V50H27.5ZM47.5 150C24.065 150 5 130.935 5 107.5C5 89.9275 15.8875 74.1725 32.2575 67.8475C33.61 69.175 35.46 70 37.5 70H45V75.1275C45.8275 75.0625 46.655 75 47.5 75C48.345 75 49.1725 75.0625 50 75.1275V70V60.065C62.555 60.7225 74.2825 66.355 82.7375 75.72C82.595 76.295 82.5 76.885 82.5 77.5C82.5 79.4275 83.2525 81.17 84.45 82.5C83.25 83.83 82.5 85.5725 82.5 87.5C82.5 89.4275 83.2525 91.17 84.45 92.5C83.25 93.83 82.5 95.5725 82.5 97.5C82.5 99.4275 83.2525 101.17 84.45 102.5C83.7975 103.223 83.2925 104.065 82.96 105H79.8725C79.9375 105.828 80 106.655 80 107.5C80 108.345 79.9375 109.172 79.8725 110H82.96C83.92 112.695 86.3625 114.658 89.3125 114.93C85.77 135.098 68.2775 150 47.5 150ZM110 120H100C98.62 120 97.5 118.88 97.5 117.5V115H100C104.135 115 107.5 111.635 107.5 107.5C107.5 105.572 106.748 103.83 105.55 102.5C106.75 101.17 107.5 99.4275 107.5 97.5C107.5 95.5725 106.748 93.83 105.55 92.5C106.75 91.17 107.5 89.4275 107.5 87.5C107.5 85.5725 106.748 83.83 105.55 82.5C106.75 81.17 107.5 79.4275 107.5 77.5C107.5 76.62 107.32 75.785 107.04 75H108.965L111.337 77.375C111.71 77.7475 112.1 78.095 112.5 78.4275V117.5C112.5 118.88 111.38 120 110 120ZM127.548 107.26C125.34 109.027 122.565 110 119.74 110H117.5V81.35C119.46 82.095 121.555 82.5 123.713 82.5H127.5V77.5H123.713C120.375 77.5 117.235 76.2 114.873 73.84L111.035 70H100H97.5C94.7425 70 92.5 67.7575 92.5 65H119.74C122.567 65 125.34 65.9725 127.548 67.74L135 73.7025V101.298L127.548 107.26ZM150 100H140V75H150V100Z" fill="#2D2F35"/>
<path d="M47.5 100C43.365 100 40 103.365 40 107.5C40 111.635 43.365 115 47.5 115C51.635 115 55 111.635 55 107.5C55 103.365 51.635 100 47.5 100ZM47.5 110C46.12 110 45 108.88 45 107.5C45 106.12 46.12 105 47.5 105C48.88 105 50 106.12 50 107.5C50 108.88 48.88 110 47.5 110Z" fill="#2D2F35"/>
<path d="M50 90.2V85H45V90.2C37.3525 91.3025 31.3025 97.3525 30.2 105H25V110H30.2C31.3025 117.647 37.3525 123.697 45 124.8V130H50V124.8C57.6475 123.697 63.6975 117.647 64.8 110H70V105H64.8C63.6975 97.3525 57.6475 91.3025 50 90.2ZM47.5 120C40.6075 120 35 114.392 35 107.5C35 100.607 40.6075 95 47.5 95C54.3925 95 60 100.607 60 107.5C60 114.392 54.3925 120 47.5 120Z" fill="#2D2F35"/>
<path d="M65.1775 93.3575C66.155 92.38 66.155 90.7975 65.1775 89.8225C64.2 88.845 62.6175 88.845 61.6425 89.8225C60.665 90.8 60.665 92.3825 61.6425 93.3575C62.6175 94.335 64.2025 94.335 65.1775 93.3575Z" fill="#2D2F35"/>
<path d="M33.3575 93.3575C34.335 92.38 34.335 90.7975 33.3575 89.8225C32.38 88.845 30.7975 88.845 29.8225 89.8225C28.845 90.8 28.845 92.3825 29.8225 93.3575C30.7975 94.335 32.3825 94.335 33.3575 93.3575Z" fill="#2D2F35"/>
<path d="M29.8225 121.642C28.845 122.62 28.845 124.202 29.8225 125.177C30.8 126.155 32.3825 126.155 33.3575 125.177C34.3325 124.2 34.335 122.617 33.3575 121.642C32.3825 120.665 30.7975 120.665 29.8225 121.642Z" fill="#2D2F35"/>
<path d="M61.6425 121.642C60.665 122.62 60.665 124.202 61.6425 125.177C62.62 126.152 64.2025 126.155 65.1775 125.177C66.155 124.2 66.155 122.617 65.1775 121.642C64.2025 120.665 62.6175 120.665 61.6425 121.642Z" fill="#2D2F35"/>
</g>
<defs>
<clipPath id="clip0_650_1468">
<rect width="155" height="155" fill="white"/>
</clipPath>
</defs>
</svg>
