<svg width="98" height="98" viewBox="0 0 98 98" fill="none" xmlns="http://www.w3.org/2000/svg">
<path d="M68.5 42.5V21C70.6667 21 76.8 21.1 84 21.5C89.6 29.1 86 38 83.5 41.5L68.5 42.5Z" fill="#2F82FF"/>
<path d="M49 6.32275H42.6775V56.9032H49V6.32275Z" fill="#2F82FF"/>
<path d="M83.7741 20.5657V20.5562L81.6527 20.3364C80.9618 12.0459 79.152 0 74.2505 0C73.7446 0 73.2911 0.143986 72.8436 0.390481L60.9555 4.35633C57.042 5.66198 52.9733 6.32256 48.8462 6.32256H33.1933C19.2489 6.32256 7.90303 17.6684 7.90303 31.6128C7.90303 42.9664 15.4254 52.5942 25.7485 55.7808L16.815 63.2256H1.58081V66.3869H17.9594L27.2393 58.6528L37.0155 61.4458L40.341 65.6029C40.782 66.1529 40.9749 66.8404 40.8879 67.5408C40.7979 68.2395 40.4404 68.8576 39.8763 69.2794C38.8552 70.0445 37.4043 69.94 36.5016 69.0407L33.3103 65.8511L24.3022 73.0571L26.2779 75.5261L30.032 72.523V85.3545H19.3406L16.1793 83.7737H1.58081V86.935H15.4335L18.5947 88.5158H30.0323V90.0966C30.0323 94.4543 33.5777 98 37.9357 98C42.2937 98 45.8391 94.4546 45.8391 90.0966V88.5158C48.4534 88.5158 50.5811 86.3884 50.5811 83.7737C50.5811 82.5551 50.1054 81.4534 49.3483 80.6125C50.107 79.7715 50.5811 78.6698 50.5811 77.4512C50.5811 76.2325 50.1054 75.1309 49.3483 74.2899C50.107 73.4489 50.5811 72.3473 50.5811 71.1286C50.5811 69.91 50.1054 68.8083 49.3483 67.9673C50.107 67.1264 50.5811 66.0247 50.5811 64.8061C50.5811 62.1917 48.4537 60.064 45.8391 60.064V56.9027H48.8456C52.9726 56.9027 57.0507 57.5633 60.966 58.8689L72.8635 62.8348C73.311 63.0813 73.7851 63.2253 74.2909 63.2253C79.1925 63.2253 80.9628 51.1793 81.6534 42.8889L83.7747 42.669V42.6596C86.936 42.4809 88.36 37.0276 88.36 31.6125C88.36 26.1973 86.9354 20.7444 83.7741 20.5657ZM69.8611 40.899C69.6652 38.0807 69.5481 34.9842 69.5481 31.6128C69.5481 28.2414 69.6652 25.1449 69.8611 22.3266L80.4371 23.384C79.4825 25.5114 79.032 28.5668 79.032 31.6128C79.032 34.6588 79.4825 37.7141 80.4371 39.8416L69.8611 40.899ZM78.5309 20.0157L70.1281 19.1747C71.0275 10.0308 72.7789 4.5047 73.9517 3.35888L74.3563 3.22467C75.3619 3.86637 77.521 8.66208 78.5309 20.0157ZM41.7731 71.8084C42.5682 71.2126 43.1546 70.4286 43.5451 69.5481H45.8387C46.7111 69.5481 47.4195 70.258 47.4195 71.129C47.4195 72 46.7114 72.7098 45.8387 72.7098H39.9667C40.6033 72.5213 41.2167 72.2242 41.7731 71.8084ZM47.4192 77.4515C47.4192 78.3225 46.7111 79.0323 45.8384 79.0323H39.5158C38.6431 79.0323 37.935 78.3225 37.935 77.4515C37.935 76.5805 38.6431 75.8707 39.5158 75.8707H45.8384C46.7111 75.8707 47.4192 76.5805 47.4192 77.4515ZM42.6774 90.0966C42.6774 92.711 40.55 94.8387 37.9354 94.8387C35.3207 94.8387 33.1933 92.7113 33.1933 90.0966V70.2027L34.2666 71.2743C34.4436 71.453 34.6412 71.5983 34.8371 71.7484C34.9666 72.7206 35.3807 73.5963 36.0082 74.2902C35.2495 75.1312 34.7754 76.2329 34.7754 77.4515C34.7754 78.6702 35.2512 79.7718 36.0082 80.6128C35.2495 81.4538 34.7754 82.5554 34.7754 83.7741C34.7754 86.3884 36.9028 88.5162 39.5175 88.5162H42.6788V90.0966H42.6774ZM45.8387 85.3545H39.5162C38.6435 85.3545 37.9354 84.6447 37.9354 83.7737C37.9354 82.9027 38.6435 82.1929 39.5162 82.1929H45.8387C46.7111 82.1929 47.4195 82.9027 47.4195 83.7737C47.4195 84.6447 46.7111 85.3545 45.8387 85.3545ZM47.4192 64.8064C47.4192 65.6774 46.7111 66.3872 45.8384 66.3872H43.9844C43.8405 65.3898 43.4581 64.4382 42.81 63.6275L42.4889 63.2259H45.8384C46.7111 63.2256 47.4192 63.9354 47.4192 64.8064ZM42.6774 60.0643H39.9603L38.8552 58.6828L32.5044 56.8683C32.735 56.8747 32.9613 56.903 33.1936 56.903H42.6774V60.0643ZM48.8449 53.7418H33.1936C20.9912 53.7418 11.0646 43.8152 11.0646 31.6128C11.0646 19.4104 20.9909 9.48384 33.1936 9.48384H48.8466C53.3135 9.48384 57.7265 8.76796 61.9658 7.35474L69.7805 4.74984C67.1931 11.3631 66.3869 23.4505 66.3869 31.6128C66.3869 39.7751 67.1931 51.8625 69.7805 58.4757L61.9658 55.8708C57.7265 54.4576 53.3135 53.7418 48.8449 53.7418ZM74.4167 60.0215L74.1196 59.922C72.8834 58.9579 71.0548 53.4066 70.1302 44.0492L78.5312 43.2082C77.5098 54.6917 75.319 59.4668 74.4167 60.0215ZM83.7741 39.3722C83.1894 38.6293 82.1933 35.9803 82.1933 31.6128C82.1933 27.2453 83.189 24.5963 83.7741 23.8534C84.3588 24.5963 85.3549 27.2453 85.3549 31.6128C85.3549 35.9803 84.3588 38.6293 83.7741 39.3722Z" fill="#333333"/>
<path d="M96.4191 30.0322H91.677V33.1935H96.4191V30.0322Z" fill="#333333"/>
<path d="M94.3351 11.1427L89.594 12.7241L90.5942 15.7229L95.3353 14.1415L94.3351 11.1427Z" fill="#333333"/>
<path d="M90.5943 47.4975L89.5947 50.4966L94.3363 52.077L95.3359 49.0779L90.5943 47.4975Z" fill="#333333"/>
</svg>
