<svg width="206" height="204" viewBox="0 0 206 204" fill="none" xmlns="http://www.w3.org/2000/svg">
<path d="M97.2014 2.1271C100.672 -0.343373 105.328 -0.343378 108.799 2.1271L118.853 9.28331C121.107 10.8873 123.924 11.4862 126.635 10.9375L138.731 8.48951C142.907 7.64442 147.16 9.53784 149.326 13.2065L155.601 23.8336C157.007 26.2156 159.337 27.9086 162.037 28.5101L174.083 31.1936C178.242 32.1201 181.357 35.5795 181.843 39.8121L183.253 52.0725C183.569 54.8206 185.009 57.315 187.231 58.9627L197.144 66.3137C200.566 68.8515 202.005 73.2788 200.728 77.3434L197.029 89.1172C196.2 91.7562 196.501 94.6208 197.86 97.0297L203.926 107.777C206.021 111.487 205.534 116.117 202.714 119.311L194.546 128.562C192.715 130.636 191.825 133.375 192.088 136.129L193.258 148.415C193.662 152.656 191.334 156.687 187.459 158.458L176.234 163.588C173.719 164.737 171.791 166.878 170.911 169.5L166.983 181.2C165.627 185.238 161.861 187.975 157.6 188.016L145.26 188.137C142.494 188.164 139.862 189.335 137.992 191.373L129.645 200.463C126.763 203.601 122.21 204.569 118.301 202.874L106.978 197.965C104.44 196.864 101.56 196.864 99.022 197.965L87.6992 202.874C83.7904 204.569 79.237 203.601 76.3554 200.463L68.0084 191.373C66.1375 189.335 63.5063 188.164 60.7402 188.137L48.3996 188.016C44.1393 187.975 40.3732 185.238 39.0172 181.2L35.0892 169.5C34.2088 166.878 32.2815 164.737 29.7656 163.588L18.5408 158.458C14.6658 156.687 12.3382 152.656 12.7422 148.415L13.9124 136.129C14.1747 133.375 13.2846 130.636 11.4538 128.562L3.28582 119.311C0.466051 116.117 -0.0205479 111.487 2.07357 107.777L8.13959 97.0297C9.49923 94.6208 9.8003 91.7562 8.97123 89.1172L5.2723 77.3434C3.99535 73.2788 5.43387 68.8515 8.85604 66.3137L18.769 58.9627C20.9909 57.315 22.4311 54.8206 22.7471 52.0725L24.1568 39.8121C24.6435 35.5795 27.7584 32.1201 31.9169 31.1936L43.9628 28.5101C46.6628 27.9086 48.993 26.2156 50.3994 23.8336L56.674 13.2065C58.8401 9.53784 63.0928 7.64442 67.2686 8.48951L79.3646 10.9375C82.0758 11.4862 84.8932 10.8873 87.1468 9.28331L97.2014 2.1271Z" fill="#0077CC"/>
</svg>
