<svg width="54" height="54" viewBox="0 0 54 54" fill="none" xmlns="http://www.w3.org/2000/svg">
<g clip-path="url(#clip0_650_1733)">
<path d="M53.2089 30.4364C50.8761 30.4364 49.6953 30.8933 48.5533 31.3351C47.5786 31.7122 46.6533 32.0698 44.9048 32.1207C47.6561 31.0115 49.8287 29.6205 51.3862 27.9662C53.1864 26.0538 53.7716 24.2136 53.9454 23.0065C54.0132 22.5357 53.8739 22.0599 53.563 21.7012C53.2521 21.3422 52.8007 21.1365 52.3247 21.1365H36.5534L31.5029 17.5289C30.9352 17.1235 30.2665 16.9092 29.569 16.9092H22.7728C21.8704 16.9092 21.1364 17.6432 21.1364 18.5456V21.1364H20.0914C19.851 21.1364 19.625 21.0428 19.4551 20.8728L18.8653 20.283C18.3084 19.7261 17.5114 19.4651 16.7329 19.5849L7.88273 20.9465C6.92318 21.0941 5.98904 21.4568 5.18136 21.9953L2.73227 23.628C2.15504 24.0128 1.76291 24.6267 1.65649 25.3123C1.55007 25.9978 1.7376 26.7017 2.17097 27.2434L5.44503 31.336C5.44419 31.3357 5.44335 31.3354 5.44261 31.3351C4.30165 30.8932 3.12188 30.4363 0.791016 30.4363C0.354164 30.4363 0 30.7904 0 31.2273C0 31.6642 0.354164 32.0183 0.791016 32.0183C2.82614 32.0183 3.81945 32.4031 4.87128 32.8104C6.01225 33.2523 7.19202 33.7092 9.52288 33.7092C11.8542 33.7092 13.0343 33.2522 14.1755 32.8104C15.2276 32.4031 16.2212 32.0183 18.257 32.0183C20.2935 32.0183 21.2875 32.4031 22.3399 32.8104C23.4815 33.2523 24.662 33.7092 26.994 33.7092C29.3254 33.7092 30.5055 33.2522 31.6467 32.8104C32.6988 32.4031 33.6925 32.0183 35.7283 32.0183C37.7656 32.0183 38.7602 32.4031 39.813 32.8105C40.955 33.2523 42.1358 33.7092 44.4687 33.7092C46.8015 33.7092 47.9823 33.2523 49.1243 32.8105C50.1771 32.4032 51.1716 32.0183 53.209 32.0183C53.6458 32.0183 54 31.6642 54 31.2273C54 30.7904 53.6457 30.4364 53.2089 30.4364ZM26.1 18.4912H29.5689C29.9348 18.4912 30.2856 18.6036 30.5833 18.8163L33.8315 21.1365H26.1V18.4912ZM22.7182 18.5456C22.7182 18.5156 22.7425 18.4912 22.7726 18.4912H24.5179V21.1365H22.7182V18.5456ZM41.3144 31.6755C40.9912 31.5699 40.6898 31.4534 40.3838 31.335C39.2419 30.8933 38.0609 30.4364 35.7282 30.4364C33.3968 30.4364 32.2167 30.8934 31.0754 31.3352C30.0234 31.7425 29.0296 32.1273 26.9939 32.1273C24.9573 32.1273 23.9632 31.7425 22.9109 31.3352C21.7693 30.8933 20.5889 30.4364 18.2569 30.4364C15.9256 30.4364 14.7455 30.8934 13.6042 31.3352C12.5522 31.7425 11.5585 32.1273 9.52277 32.1273C8.95461 32.1273 8.46777 32.0972 8.03809 32.0451L3.40622 26.2553C3.36709 26.2064 3.33376 26.1545 3.30602 26.1003H6.70939C7.14625 26.1003 7.50041 25.7461 7.50041 25.3092C7.50041 24.8724 7.14625 24.5182 6.70939 24.5182H4.24881L6.05865 23.3117C6.67596 22.9002 7.38988 22.6231 8.1231 22.5102L16.9734 21.1486C17.2553 21.1053 17.5445 21.1998 17.7465 21.4017L18.3362 21.9914C18.8049 22.4602 19.4282 22.7184 20.0912 22.7184H52.3246C52.3318 22.7184 52.351 22.7184 52.3671 22.737C52.3831 22.7553 52.3804 22.7733 52.3794 22.781C52.3158 23.2223 52.1713 23.8235 51.8542 24.5181H10.0908C9.65398 24.5181 9.29981 24.8723 9.29981 25.3091C9.29981 25.746 9.65398 26.1001 10.0908 26.1001H50.8962C49.4569 27.9855 46.6752 30.1378 41.3144 31.6755Z" fill="#2F82FF"/>
<path d="M49.7204 35.1151C49.5633 34.7074 49.1053 34.5044 48.6978 34.6616L48.5536 34.7173C48.0774 34.9015 47.6276 35.0755 47.0924 35.2145C46.6695 35.3244 46.4158 35.7562 46.5256 36.179C46.6181 36.5352 46.939 36.7714 47.2907 36.7714C47.3566 36.7714 47.4234 36.763 47.4901 36.7457C48.1136 36.5837 48.6275 36.3849 49.1245 36.1925L49.2668 36.1376C49.6745 35.9805 49.8776 35.5226 49.7204 35.1151Z" fill="#2F82FF"/>
<path d="M43.9365 35.5C42.2489 35.4391 41.3425 35.0884 40.3828 34.7171C39.2408 34.2752 38.06 33.8184 35.7272 33.8184C33.3958 33.8184 32.2157 34.2754 31.0744 34.7172C30.0224 35.1245 29.0287 35.5092 26.9929 35.5092C24.9563 35.5092 23.9624 35.1245 22.9099 34.7172C21.7683 34.2753 20.5879 33.8184 18.2559 33.8184C15.9246 33.8184 14.7445 34.2754 13.6032 34.7172C12.6459 35.0879 11.7416 35.4379 10.0609 35.4996C9.62422 35.5157 9.28334 35.8826 9.29937 36.3191C9.3154 36.7558 9.68264 37.0958 10.1189 37.0806C12.0652 37.0092 13.1376 36.594 14.1746 36.1925C15.2266 35.7851 16.2202 35.4004 18.256 35.4004C20.2925 35.4004 21.2865 35.7851 22.339 36.1925C23.4806 36.6344 24.661 37.0913 26.993 37.0913C29.3244 37.0913 30.5045 36.6343 31.6458 36.1925C32.6978 35.7851 33.6915 35.4004 35.7273 35.4004C37.7646 35.4004 38.7592 35.7851 39.812 36.1926C40.8514 36.5947 41.9261 37.0106 43.8795 37.081C44.3124 37.0972 44.6828 36.7557 44.6985 36.319C44.7142 35.8824 44.373 35.5158 43.9365 35.5Z" fill="#2F82FF"/>
<path d="M6.9097 35.2162C6.37128 35.0767 5.91998 34.9018 5.44221 34.7167C5.03468 34.5589 4.57663 34.7612 4.41885 35.1685C4.26107 35.576 4.46335 36.0341 4.87067 36.1919C5.36954 36.3851 5.88539 36.585 6.51272 36.7476C6.57927 36.7649 6.64603 36.7731 6.71174 36.7731C7.06348 36.7731 7.38452 36.5367 7.47691 36.1804C7.5866 35.7576 7.33263 35.3259 6.9097 35.2162Z" fill="#2F82FF"/>
</g>
<defs>
<clipPath id="clip0_650_1733">
<rect width="54" height="54" fill="white"/>
</clipPath>
</defs>
</svg>
