<svg width="10" height="10" viewBox="0 0 10 10" fill="none" xmlns="http://www.w3.org/2000/svg">
    <path fill-rule="evenodd" clip-rule="evenodd" d="M5 0C2.23844 0 0 2.23844 0 5C0 7.76125 2.23844 10 5 10C7.76125 10 10 7.76156 10 5C10 2.23844 7.76125 0 5 0ZM5 9.375C2.58375 9.375 0.625 7.41625 0.625 5C0.625 2.58375 2.58375 0.625 5 0.625C7.41625 0.625 9.375 2.58375 9.375 5C9.375 7.41625 7.41625 9.375 5 9.375Z" fill="#B92B27"/>
    <path fill-rule="evenodd" clip-rule="evenodd" d="M7.10276 6.64701L5.45651 5.00045L7.09339 3.37701C7.21683 3.25482 7.21683 3.05701 7.09339 2.93514C6.97026 2.81326 6.77026 2.81326 6.64714 2.93514L5.01245 4.55639L3.35339 2.89701C3.23026 2.77326 3.03026 2.77326 2.90714 2.89701C2.78401 3.02045 2.78401 3.22107 2.90714 3.34451L4.5637 5.00139L2.89776 6.65357C2.77464 6.77576 2.77464 6.97357 2.89776 7.09545C3.02089 7.21764 3.22089 7.21764 3.34433 7.09545L5.00808 5.44545L6.65683 7.0942C6.77995 7.21795 6.97995 7.21795 7.10308 7.0942C7.22589 6.97107 7.22589 6.77076 7.10276 6.64701Z" fill="#B92B27"/>
</svg>
