<svg width="54" height="54" viewBox="0 0 54 54" fill="none" xmlns="http://www.w3.org/2000/svg">
<path d="M21.0648 35.1606H6.96865C5.32965 35.1606 4.00098 33.8319 4.00098 32.1929V15.871C4.00098 14.232 5.32965 12.9033 6.96865 12.9033H41.0964C42.7354 12.9033 44.0641 14.232 44.0641 15.871V32.193C44.0641 33.832 42.7354 35.1606 41.0964 35.1606H27.0001" stroke="#2F82FF" stroke-width="1.6" stroke-miterlimit="10" stroke-linecap="round" stroke-linejoin="round"/>
<path d="M50.0001 35.1602H41.0972" stroke="#2F82FF" stroke-width="1.6" stroke-miterlimit="10" stroke-linecap="round" stroke-linejoin="round"/>
<path d="M49.9993 41.0957H6.96875" stroke="#2F82FF" stroke-width="1.6" stroke-miterlimit="10" stroke-linecap="round" stroke-linejoin="round"/>
<path d="M48.5149 33.6768V38.1282" stroke="#2F82FF" stroke-width="1.6" stroke-miterlimit="10" stroke-linecap="round" stroke-linejoin="round"/>
<path d="M48.5153 41.0955C49.3348 41.0955 49.9991 40.4312 49.9991 39.6117C49.9991 38.7922 49.3348 38.1279 48.5153 38.1279C47.6958 38.1279 47.0315 38.7922 47.0315 39.6117C47.0315 40.4312 47.6958 41.0955 48.5153 41.0955Z" stroke="#2F82FF" stroke-width="1.6" stroke-miterlimit="10" stroke-linecap="round" stroke-linejoin="round"/>
<path d="M24.0323 41.0959C26.0811 41.0959 27.7419 39.4351 27.7419 37.3863C27.7419 35.3376 26.0811 33.6768 24.0323 33.6768C21.9836 33.6768 20.3228 35.3376 20.3228 37.3863C20.3228 39.4351 21.9836 41.0959 24.0323 41.0959Z" stroke="#2F82FF" stroke-width="1.6" stroke-miterlimit="10" stroke-linecap="round" stroke-linejoin="round"/>
<path d="M24.0325 37.3867H24.0396" stroke="#2F82FF" stroke-width="1.6" stroke-miterlimit="10" stroke-linecap="round" stroke-linejoin="round"/>
<path d="M18.8386 32.1931H14.3872C13.9774 32.1931 13.6453 31.8609 13.6453 31.4512V16.613C13.6453 16.2033 13.9774 15.8711 14.3872 15.8711H18.8386C19.2484 15.8711 19.5805 16.2033 19.5805 16.613V31.4512C19.5805 31.8609 19.2484 32.1931 18.8386 32.1931Z" stroke="#2F82FF" stroke-width="1.6" stroke-miterlimit="10" stroke-linecap="round" stroke-linejoin="round"/>
<path d="M9.93633 24.7745H7.71065C7.30092 24.7745 6.96875 24.4423 6.96875 24.0326V18.0974C6.96875 17.6876 7.30092 17.3555 7.71065 17.3555H9.93633C10.3461 17.3555 10.6782 17.6876 10.6782 18.0974V24.0326C10.6782 24.4423 10.3461 24.7745 9.93633 24.7745Z" stroke="#2F82FF" stroke-width="1.6" stroke-miterlimit="10" stroke-linecap="round" stroke-linejoin="round"/>
<path d="M26.9996 22.5479H23.29C22.8803 22.5479 22.5481 22.2157 22.5481 21.806V18.0964C22.5481 17.6867 22.8803 17.3545 23.29 17.3545H26.9996C27.4093 17.3545 27.7415 17.6867 27.7415 18.0964V21.806C27.7415 22.2157 27.4093 22.5479 26.9996 22.5479Z" stroke="#2F82FF" stroke-width="1.6" stroke-miterlimit="10" stroke-linecap="round" stroke-linejoin="round"/>
<path d="M39.6129 17.3545H40.3548C40.7645 17.3545 41.0967 17.6867 41.0967 18.0964V24.0316C41.0967 24.4414 40.7645 24.7735 40.3548 24.7735H31.4519C31.0421 24.7735 30.71 24.4414 30.71 24.0316V18.0964C30.71 17.6867 31.0421 17.3545 31.4519 17.3545H36.6452" stroke="#2F82FF" stroke-width="1.6" stroke-miterlimit="10" stroke-linecap="round" stroke-linejoin="round"/>
<path d="M13.6453 24.7734H19.5805" stroke="#2F82FF" stroke-width="1.6" stroke-miterlimit="10" stroke-linecap="round" stroke-linejoin="round"/>
<path d="M19.5811 27.7412H4.00098" stroke="#2F82FF" stroke-width="1.6" stroke-miterlimit="10" stroke-linecap="round" stroke-linejoin="round"/>
<path d="M44.0634 27.7412H22.5481" stroke="#2F82FF" stroke-width="1.6" stroke-miterlimit="10" stroke-linecap="round" stroke-linejoin="round"/>
</svg>
