<svg width="9" height="5" viewBox="0 0 9 5" fill="none" xmlns="http://www.w3.org/2000/svg">
<path d="M4.32858 4.99981C4.50013 4.99292 4.66206 4.91919 4.78001 4.794L8.39187 1.1715C8.53685 1.05435 8.62548 0.880696 8.63556 0.693944C8.6454 0.507192 8.57578 0.325267 8.44409 0.192956C8.31216 0.0608744 8.13077 -0.008956 7.94457 0.000923096C7.75836 0.0110296 7.58522 0.0999269 7.46841 0.245327L3.85655 3.86782C3.6621 4.05641 3.60278 4.34515 3.70722 4.59553C3.81143 4.84568 4.05808 5.00625 4.32858 4.99981Z" fill="white"/>
<path d="M4.30789 4.99981C4.13634 4.99292 3.97442 4.91919 3.85647 4.794L0.244606 1.1715C0.0996259 1.05435 0.0109922 0.880696 0.000919146 0.693944C-0.00892933 0.507192 0.0606944 0.325267 0.192388 0.192956C0.324311 0.0608744 0.505707 -0.008956 0.691905 0.000923096C0.87811 0.0110296 1.05126 0.0999269 1.16806 0.245327L4.77992 3.86782C4.97437 4.05641 5.03369 4.34515 4.92926 4.59553C4.82505 4.84568 4.5784 5.00625 4.30789 4.99981Z" fill="white"/>
</svg>
