<svg width="16" height="16" viewBox="0 0 16 16" fill="none" xmlns="http://www.w3.org/2000/svg">
<path d="M15.9999 7.98114C15.9875 7.67127 15.8543 7.37879 15.6281 7.16574L9.08486 0.641658C8.87325 0.379782 8.55958 0.219684 8.22225 0.201489C7.88492 0.1837 7.55631 0.30946 7.31732 0.547338C7.07874 0.785629 6.9526 1.11328 6.97045 1.44961C6.9887 1.78595 7.14928 2.0987 7.41191 2.30969L13.9552 8.83377C14.2958 9.185 14.8174 9.29215 15.2697 9.10351C15.7215 8.91528 16.0115 8.46975 15.9999 7.98114Z" fill="#242424"/>
<path d="M15.9999 8.0185C15.9875 8.32836 15.8543 8.62084 15.6281 8.8339L9.08486 15.358C8.87325 15.6199 8.55958 15.7799 8.22225 15.7981C7.88492 15.8159 7.55631 15.6902 7.31732 15.4523C7.07874 15.214 6.9526 14.8863 6.97045 14.55C6.9887 14.2137 7.14928 13.9009 7.41191 13.6899L13.9552 7.16586C14.2958 6.81463 14.8174 6.70749 15.2697 6.89613C15.7215 7.08436 16.0115 7.52988 15.9999 8.0185Z" fill="#242424"/>
<path d="M9.43155 7.98114C9.4191 7.67127 9.28591 7.37879 9.05978 7.16574L2.5165 0.641658C2.30489 0.379782 1.99122 0.219684 1.65389 0.201489C1.31656 0.1837 0.987948 0.30946 0.748957 0.547338C0.510379 0.785629 0.384244 1.11328 0.402089 1.44961C0.420345 1.78595 0.580918 2.0987 0.843554 2.30969L7.38684 8.83377C7.72748 9.185 8.24904 9.29215 8.70129 9.10351C9.15314 8.91528 9.44317 8.46975 9.43155 7.98114Z" fill="#242424"/>
<path d="M9.43155 8.0185C9.4191 8.32836 9.28591 8.62084 9.05978 8.8339L2.5165 15.358C2.30489 15.6199 1.99122 15.7799 1.65389 15.7981C1.31656 15.8159 0.987948 15.6902 0.748957 15.4523C0.510379 15.214 0.384244 14.8863 0.402089 14.55C0.420345 14.2137 0.580918 13.9009 0.843554 13.6899L7.38684 7.16586C7.72748 6.81463 8.24904 6.70749 8.70129 6.89613C9.15314 7.08436 9.44317 7.52988 9.43155 8.0185Z" fill="#242424"/>
</svg>
