<svg width="17" height="16" viewBox="0 0 17 16" fill="none" xmlns="http://www.w3.org/2000/svg">
<path d="M0.000154654 7.98114C0.0126024 7.67127 0.145791 7.37879 0.37192 7.16574L6.9152 0.641658C7.12681 0.379782 7.44048 0.219684 7.77781 0.201489C8.11514 0.1837 8.44375 0.30946 8.68274 0.547338C8.92132 0.785629 9.04746 1.11328 9.02961 1.44961C9.01136 1.78595 8.85078 2.0987 8.58815 2.30969L2.04486 8.83377C1.70422 9.185 1.18267 9.29215 0.730408 9.10351C0.278565 8.91528 -0.0114656 8.46975 0.000154654 7.98114Z" fill="#242424"/>
<path d="M9.29383e-05 8.0185C0.0125407 8.32836 0.145729 8.62084 0.371858 8.8339L6.91514 15.358C7.12675 15.6199 7.44042 15.7799 7.77775 15.7981C8.11508 15.8159 8.44369 15.6902 8.68268 15.4523C8.92126 15.214 9.0474 14.8863 9.02955 14.55C9.0113 14.2137 8.85072 13.9009 8.58809 13.6899L2.0448 7.16586C1.70416 6.81463 1.1826 6.70749 0.730346 6.89613C0.278503 7.08436 -0.0115274 7.52988 9.29383e-05 8.0185Z" fill="#242424"/>
<path d="M6.569 7.98114C6.58145 7.67127 6.71464 7.37879 6.94077 7.16574L13.484 0.641658C13.6957 0.379782 14.0093 0.219684 14.3467 0.201489C14.684 0.1837 15.0126 0.30946 15.2516 0.547338C15.4902 0.785629 15.6163 1.11328 15.5985 1.44961C15.5802 1.78595 15.4196 2.0987 15.157 2.30969L8.61371 8.83377C8.27307 9.185 7.75151 9.29215 7.29926 9.10351C6.84741 8.91528 6.55738 8.46975 6.569 7.98114Z" fill="#242424"/>
<path d="M7.0004 8.21436C7.01285 8.52422 7.14603 8.8167 7.37216 9.02976L13.9154 15.5538C14.1271 15.8157 14.4407 15.9758 14.7781 15.994C15.1154 16.0118 15.444 15.886 15.683 15.6482C15.9216 15.4099 16.0477 15.0822 16.0299 14.7459C16.0116 14.4095 15.851 14.0968 15.5884 13.8858L9.04511 7.36172C8.70446 7.01049 8.18291 6.90335 7.73065 7.09199C7.27881 7.28022 6.98878 7.72575 7.0004 8.21436Z" fill="#242424"/>
</svg>
