<svg width="6" height="6" viewBox="0 0 6 6" fill="none" xmlns="http://www.w3.org/2000/svg">
<path d="M3.0071 5.99987C3.12628 5.99508 3.23877 5.94386 3.32071 5.85688L5.82997 3.34024C5.9307 3.25885 5.99227 3.13821 5.99927 3.00846C6.00611 2.87872 5.95774 2.75233 5.86625 2.66041C5.7746 2.56865 5.64858 2.52014 5.51922 2.527C5.38986 2.53402 5.26957 2.59578 5.18842 2.6968L2.67916 5.21344C2.54407 5.34446 2.50286 5.54506 2.57542 5.719C2.64781 5.89279 2.81917 6.00434 3.0071 5.99987Z" fill="white"/>
<path d="M2.99281 5.99987C2.87363 5.99508 2.76114 5.94386 2.6792 5.85688L0.169934 3.34024C0.0692129 3.25885 0.00763657 3.13821 0.000638556 3.00846C-0.00620345 2.87872 0.0421661 2.75233 0.133657 2.66041C0.225308 2.56865 0.351329 2.52014 0.480686 2.527C0.610047 2.53402 0.730337 2.59578 0.811486 2.6968L3.32075 5.21344C3.45584 5.34446 3.49705 5.54506 3.42449 5.719C3.3521 5.89279 3.18074 6.00434 2.99281 5.99987Z" fill="white"/>
<path d="M3.0071 3.4735C3.12628 3.46872 3.23877 3.41749 3.32071 3.33052L5.82997 0.813869C5.9307 0.732481 5.99227 0.611838 5.99927 0.482096C6.00611 0.352354 5.95774 0.225965 5.86625 0.134045C5.7746 0.0422847 5.64858 -0.00622872 5.51922 0.000634628C5.38986 0.00765628 5.26957 0.0694153 5.18842 0.170429L2.67916 2.68708C2.54407 2.81809 2.50286 3.01869 2.57542 3.19264C2.64781 3.36642 2.81917 3.47797 3.0071 3.4735Z" fill="white"/>
<path d="M2.99281 3.4735C2.87363 3.46872 2.76114 3.41749 2.6792 3.33052L0.169934 0.813869C0.0692129 0.732481 0.00763657 0.611838 0.000638556 0.482096C-0.00620345 0.352354 0.0421661 0.225965 0.133657 0.134045C0.225308 0.0422847 0.351329 -0.00622872 0.480686 0.000634628C0.610047 0.00765628 0.730337 0.0694153 0.811486 0.170429L3.32075 2.68708C3.45584 2.81809 3.49705 3.01869 3.42449 3.19264C3.3521 3.36642 3.18074 3.47797 2.99281 3.4735Z" fill="white"/>
</svg>
