<svg width="14" height="9" viewBox="0 0 14 9" fill="none" xmlns="http://www.w3.org/2000/svg">
<path d="M13.5083 4.166C12.8197 3.03976 11.8938 2.13484 10.7307 1.45124C9.56761 0.767628 8.33939 0.425781 7.04593 0.425781C5.75247 0.425781 4.52419 0.767499 3.36106 1.45124C2.1979 2.13484 1.27205 3.03976 0.583523 4.166C0.485206 4.33811 0.436035 4.50779 0.436035 4.67505C0.436035 4.8423 0.485206 5.01198 0.583523 5.18404C1.27205 6.31033 2.1979 7.21533 3.36106 7.89877C4.52419 8.58246 5.75247 8.92405 7.04593 8.92405C8.33942 8.92405 9.56764 8.5836 10.7307 7.90249C11.8938 7.22135 12.8199 6.31516 13.5083 5.18404C13.6067 5.01198 13.6558 4.84238 13.6558 4.67505C13.6558 4.50779 13.6067 4.33811 13.5083 4.166ZM5.46343 2.14832C5.90357 1.70819 6.43102 1.48804 7.04585 1.48804C7.14417 1.48804 7.22784 1.52256 7.29672 1.59137C7.3655 1.6602 7.40008 1.74384 7.40008 1.84219C7.40008 1.94061 7.3655 2.02419 7.29688 2.09292C7.22809 2.16184 7.14438 2.19625 7.04603 2.19625C6.6231 2.19625 6.26152 2.34633 5.96155 2.64626C5.66149 2.94638 5.51155 3.30781 5.51155 3.73074C5.51155 3.82921 5.47703 3.91275 5.40822 3.98164C5.3393 4.05057 5.25574 4.08497 5.1574 4.08497C5.05898 4.08497 4.97539 4.0505 4.90651 3.98164C4.83759 3.91275 4.80318 3.82911 4.80318 3.73074C4.80318 3.11604 5.02332 2.58849 5.46343 2.14832ZM10.2513 7.08379C9.26522 7.68118 8.19679 7.98006 7.04593 7.98006C5.8951 7.98006 4.82666 7.68136 3.8406 7.08379C3.02472 6.58935 2.32246 5.95434 1.73385 5.17874C1.50741 4.88036 1.50678 4.46937 1.73159 4.16975C2.0449 3.75218 2.38692 3.37897 2.75765 3.05014C3.13768 2.71307 3.741 3.22274 3.741 3.73072C3.741 4.64065 4.06442 5.41874 4.71109 6.06556C5.35775 6.71238 6.13612 7.03565 7.04593 7.03565C7.95582 7.03565 8.73395 6.7122 9.38077 6.06556C10.0276 5.41892 10.3509 4.64065 10.3509 3.73072C10.3509 3.22282 10.9542 2.71316 11.3342 3.05019C11.7049 3.37905 12.047 3.75229 12.3603 4.16988C12.5851 4.46942 12.5844 4.88031 12.3581 5.17864C11.7695 5.95429 11.0673 6.58933 10.2513 7.08379Z" fill="white"/>
</svg>
