<svg width="12" height="22" viewBox="0 0 12 22" fill="none" xmlns="http://www.w3.org/2000/svg">
<path d="M3.64903 8.66055H4.39903V7.91055V5.41423C4.39903 3.9229 4.85394 2.76711 5.59133 1.98989C6.32482 1.21678 7.40175 0.750136 8.78497 0.75C8.78517 0.75 8.78538 0.75 8.78558 0.75L11.2489 0.754061V3.51037L9.6915 3.51094C9.69141 3.51094 9.69132 3.51094 9.69123 3.51094C8.98285 3.51097 8.31569 3.64597 7.87615 4.15739C7.46137 4.63999 7.41573 5.28 7.41573 5.79439V7.91055V8.66055H8.16573H11.1186L11.1175 11.6749H8.16573H7.41573V12.4249V21.25H4.39903V12.4249V11.6749H3.64903H1.16992V8.66055H3.64903ZM11.5624 3.51025H11.5621H11.5624Z" stroke="white" stroke-width="1.5"/>
</svg>
