<svg width="22" height="19" viewBox="0 0 22 19" fill="none" xmlns="http://www.w3.org/2000/svg">
<path d="M20.1937 1.7933C19.0447 0.650176 17.4899 0.00847108 15.8691 0.00847108C14.2483 0.00847108 12.6934 0.650176 11.5444 1.7933L10.9583 2.37939L10.39 1.7933C9.24098 0.645029 7.68304 0 6.05864 0C4.43423 0 2.8763 0.645029 1.72731 1.7933C-0.657032 4.17764 -0.532709 8.20482 1.85163 10.5892L2.29564 11.0332L9.74171 18.497C10.0647 18.8191 10.5022 19 10.9583 19C11.4144 19 11.8519 18.8191 12.1749 18.497L19.6254 11.0465L20.0694 10.6025C22.4493 8.22258 22.5781 4.1954 20.1937 1.7933ZM19.7497 6.37993C19.6696 7.36918 19.2325 8.29553 18.5198 8.98628L18.0536 9.47469L10.9494 16.5789L3.84524 9.47469L3.39235 9.00404C2.67838 8.31374 2.23969 7.38744 2.158 6.39769C2.12079 5.84249 2.2026 5.28574 2.39794 4.76471C2.59329 4.24367 2.89768 3.77038 3.29072 3.37649C3.68377 2.9826 4.15642 2.6772 4.67703 2.48074C5.19765 2.28428 5.75422 2.20128 6.3095 2.23731C7.301 2.31937 8.22814 2.76162 8.91585 3.48054L9.39094 3.95119L10.2124 4.77261L11.3846 5.9448C11.4924 6.05238 11.6204 6.13766 11.7613 6.19577C11.9021 6.25388 12.053 6.28368 12.2053 6.28348C12.3577 6.28327 12.5085 6.25306 12.6492 6.19457C12.7898 6.13608 12.9176 6.05045 13.0252 5.94258C13.1328 5.83471 13.218 5.70671 13.2761 5.56588C13.3343 5.42505 13.3641 5.27416 13.3638 5.12181C13.3636 4.96947 13.3334 4.81865 13.2749 4.67798C13.2164 4.53731 13.1308 4.40954 13.023 4.30196L12.6011 3.85795L13.0984 3.38286C13.6602 2.82192 14.3795 2.4454 15.1605 2.30343C15.9416 2.16146 16.7474 2.26077 17.4706 2.58815C18.1938 2.91553 18.8002 3.45543 19.2089 4.13599C19.6176 4.81654 19.8094 5.60545 19.7586 6.39769L19.7497 6.37993Z" fill="white"/>
</svg>
