<svg width="23" height="23" viewBox="0 0 23 23" fill="none" xmlns="http://www.w3.org/2000/svg">
<path d="M7.29995 8.69995V7.94995C6.88574 7.94995 6.54995 8.28574 6.54995 8.69995H7.29995ZM7.29995 10.1L7.83028 10.6303L8.04995 10.4106V10.1H7.29995ZM4.91 10.51L4.37967 11.0403H4.37967L4.91 10.51ZM10.1 19.2H10.85V18.8893L10.6303 18.6696L10.1 19.2ZM8.69995 17.8H7.94995V18.1106L8.16962 18.3303L8.69995 17.8ZM8.69995 15.7H9.44995V15.3893L9.23028 15.1696L8.69995 15.7ZM7.29995 14.3H6.54995V14.6106L6.76962 14.8303L7.29995 14.3ZM7.29995 12.9V12.15C6.88574 12.15 6.54995 12.4857 6.54995 12.9H7.29995ZM13.55 1.69995V4.49995H15.05V1.69995H13.55ZM12.9 5.14995H11.5V6.64995H12.9V5.14995ZM8.69995 7.94995H7.29995V9.44995H8.69995V7.94995ZM6.54995 8.69995V10.1H8.04995V8.69995H6.54995ZM6.76962 9.56962L6.35957 9.97967L7.42023 11.0403L7.83028 10.6303L6.76962 9.56962ZM5.44033 9.97967L2.93028 7.46962L1.86962 8.53028L4.37967 11.0403L5.44033 9.97967ZM9.34995 7.29995C9.34995 7.65894 9.05894 7.94995 8.69995 7.94995V9.44995C9.88736 9.44995 10.85 8.48736 10.85 7.29995H9.34995ZM11.5 5.14995C10.3125 5.14995 9.34995 6.11254 9.34995 7.29995H10.85C10.85 6.94097 11.141 6.64995 11.5 6.64995V5.14995ZM6.35957 9.97967C6.10573 10.2335 5.69417 10.2335 5.44033 9.97967L4.37967 11.0403C5.2193 11.88 6.5806 11.88 7.42023 11.0403L6.35957 9.97967ZM13.55 4.49995C13.55 4.85894 13.2589 5.14995 12.9 5.14995V6.64995C14.0874 6.64995 15.05 5.68736 15.05 4.49995H13.55ZM10.85 21.3V19.2H9.34995V21.3H10.85ZM10.6303 18.6696L9.23028 17.2696L8.16962 18.3303L9.56962 19.7303L10.6303 18.6696ZM9.44995 17.8V15.7H7.94995V17.8H9.44995ZM9.23028 15.1696L7.83028 13.7696L6.76962 14.8303L8.16962 16.2303L9.23028 15.1696ZM8.04995 14.3V12.9H6.54995V14.3H8.04995ZM7.29995 13.65H12.9V12.15H7.29995V13.65ZM13.55 14.3V15.2333H15.05V14.3H13.55ZM16.1666 17.85H19.9V16.35H16.1666V17.85ZM14.95 16.6333C14.95 17.3052 15.4947 17.85 16.1666 17.85V16.35C16.3231 16.35 16.45 16.4768 16.45 16.6333H14.95ZM14.7666 16.45C14.8679 16.45 14.95 16.532 14.95 16.6333H16.45C16.45 15.7036 15.6963 14.95 14.7666 14.95V16.45ZM13.55 15.2333C13.55 15.9052 14.0947 16.45 14.7666 16.45V14.95C14.9231 14.95 15.05 15.0768 15.05 15.2333H13.55ZM12.9 13.65C13.2589 13.65 13.55 13.941 13.55 14.3H15.05C15.05 13.1125 14.0874 12.15 12.9 12.15V13.65ZM11.5 20.55C6.50177 20.55 2.44995 16.4981 2.44995 11.5H0.949951C0.949951 17.3266 5.67335 22.05 11.5 22.05V20.55ZM20.55 11.5C20.55 16.4981 16.4981 20.55 11.5 20.55V22.05C17.3266 22.05 22.05 17.3266 22.05 11.5H20.55ZM11.5 2.44995C16.4981 2.44995 20.55 6.50177 20.55 11.5H22.05C22.05 5.67335 17.3266 0.949951 11.5 0.949951V2.44995ZM11.5 0.949951C5.67335 0.949951 0.949951 5.67335 0.949951 11.5H2.44995C2.44995 6.50177 6.50177 2.44995 11.5 2.44995V0.949951Z" fill="white"/>
</svg>
