<svg width="11" height="9" viewBox="0 0 11 9" fill="none" xmlns="http://www.w3.org/2000/svg">
<path d="M9.46824 1.17222C8.95431 0.660926 8.25885 0.373906 7.53391 0.373906C6.80897 0.373906 6.11351 0.660926 5.59958 1.17222L5.59564 1.17616C5.45369 1.31812 5.22299 1.31634 5.08323 1.17222C4.56931 0.658624 3.87249 0.370117 3.14593 0.370117C2.41937 0.370117 1.72254 0.658624 1.20862 1.17222C0.14216 2.23868 0.197767 4.03995 1.26423 5.10641L1.46282 5.305L4.79328 8.64341C4.93773 8.78748 5.13342 8.86839 5.33744 8.86839C5.54145 8.86839 5.73714 8.78748 5.88159 8.64341L9.21403 5.31096L9.41263 5.11237C10.4771 4.04789 10.5347 2.24662 9.46824 1.17222ZM9.27159 3.22762C9.27104 3.22652 9.26938 3.22684 9.26928 3.22807C9.23252 3.6689 9.03724 4.08154 8.71953 4.38948L8.511 4.60793C6.7561 6.36284 3.91083 6.36284 2.15592 4.60793L1.95336 4.39742C1.63402 4.08866 1.4378 3.67435 1.40126 3.23166C1.38462 2.98333 1.42121 2.73431 1.50858 2.50126C1.59596 2.26822 1.7321 2.05652 1.9079 1.88034C2.0837 1.70416 2.29511 1.56757 2.52797 1.4797C2.76083 1.39182 3.00977 1.3547 3.25813 1.37081C3.70161 1.40752 4.11629 1.60533 4.42389 1.92688L4.63639 2.1374L5.00379 2.5048L5.52809 3.02909C5.57634 3.07721 5.63359 3.11535 5.69658 3.14134C5.75957 3.16734 5.82706 3.18067 5.8952 3.18057C5.96334 3.18048 6.0308 3.16697 6.09372 3.14081C6.15663 3.11465 6.21378 3.07635 6.2619 3.0281C6.31002 2.97985 6.34816 2.9226 6.37415 2.85961C6.40014 2.79662 6.41347 2.72913 6.41338 2.66099C6.41329 2.59285 6.39978 2.52539 6.37362 2.46247C6.34745 2.39955 6.30916 2.3424 6.26091 2.29429C6.15662 2.18451 6.16083 2.01106 6.27031 1.90647L6.29467 1.88319C6.54593 1.6323 6.86765 1.46389 7.21701 1.40039C7.56636 1.33689 7.92677 1.38131 8.25025 1.52774C8.57373 1.67417 8.84493 1.91565 9.02775 2.22005C9.20979 2.52316 9.2956 2.87432 9.2739 3.22715C9.27382 3.2284 9.27215 3.22874 9.27159 3.22762Z" fill="white"/>
</svg>
