<svg width="54" height="54" viewBox="0 0 54 54" fill="none" xmlns="http://www.w3.org/2000/svg">
<path d="M48.3294 30.1667C48.1464 29.8554 47.7458 29.7511 47.4344 29.9341C47.123 30.1171 47.0189 30.5177 47.2018 30.8291C47.7307 31.7293 48.0102 32.7585 48.0102 33.8053C48.0102 37.0513 45.3693 39.6922 42.1234 39.6922C38.8773 39.6922 36.2364 37.0513 36.2364 33.8053C36.2364 32.9793 36.4092 32.168 36.7408 31.4207L38.4781 33.0729C38.4298 33.3136 38.4052 33.5585 38.4052 33.8053C38.4052 35.8555 40.0731 37.5233 42.1233 37.5233C44.1734 37.5233 45.8413 35.8554 45.8413 33.8053C45.8413 31.7551 44.1734 30.0872 42.1233 30.0872C41.8131 30.0872 41.5073 30.1264 41.2093 30.2019L39.472 28.5499C40.2901 28.1355 41.1929 27.9184 42.1233 27.9184C43.5208 27.9184 44.8764 28.4181 45.9402 29.3255C46.0633 29.4306 46.2142 29.4819 46.3641 29.4819C46.549 29.4819 46.7326 29.404 46.8619 29.2524C47.0963 28.9777 47.0636 28.5649 46.7888 28.3306C45.4885 27.2215 43.8316 26.6107 42.1232 26.6107C40.8303 26.6107 39.5804 26.9527 38.477 27.6036L37.6726 26.8386C38.8645 26.1606 40.2419 25.7728 41.7085 25.7728C42.1424 25.7728 42.5797 25.8075 43.0087 25.8758C43.1995 25.9063 43.3937 25.8508 43.5397 25.7244L45.603 23.9376C45.932 23.6527 46.1813 23.2976 46.3354 22.9015C46.8865 21.485 46.9134 18.8109 45.8625 17.6107C42.9801 14.3184 38.7027 12.6978 33.8189 13.0465C32.6195 13.1323 31.9279 14.4575 32.5457 15.4959L32.8331 15.979H31.4688C31.1076 15.979 30.8149 16.2717 30.8149 16.6328C30.8149 16.9939 31.1076 17.2867 31.4688 17.2867H33.5766C33.8805 17.9544 34.0238 18.6797 33.9976 19.4097C32.686 18.2431 30.9977 17.5931 29.2004 17.5931C26.8314 17.5931 24.649 18.7306 23.2907 20.6531H18.586C18.216 20.6531 17.8534 20.5255 17.565 20.2938L12.7809 16.45C12.6648 16.3567 12.5203 16.3059 12.3714 16.3059H8.45974C7.37443 16.3059 6.49148 17.1889 6.49148 18.2742C6.49148 18.9063 6.79809 19.5039 7.31158 19.8729L8.71892 20.8836C9.01193 21.0942 9.42072 21.0273 9.63143 20.734C9.84206 20.4407 9.77502 20.0322 9.48174 19.8214L8.07449 18.8107C7.90205 18.6869 7.79917 18.4863 7.79917 18.2741C7.79917 17.9098 8.0955 17.6135 8.45974 17.6135H12.1413L16.7462 21.3133C17.2659 21.7309 17.9194 21.9608 18.5862 21.9608H23.5351L27.7693 23.5792L30.0998 24.47C29.9784 24.5329 28.4069 25.9103 25.8535 25.9103H24.4177C22.9799 25.9103 21.6148 26.6829 20.8817 28.0095L19.801 27.2332C19.801 27.2331 19.8008 27.233 19.8006 27.2329L11.2546 21.0948C10.9614 20.8842 10.5528 20.9511 10.3421 21.2444C10.1315 21.5377 10.1985 21.9463 10.4918 22.1569L18.2402 27.7222L16.8307 28.5892C15.4992 27.3259 13.7228 26.6106 11.8766 26.6106C7.90937 26.6107 4.68188 29.8381 4.68188 33.8052C4.68188 37.7723 7.90937 40.9998 11.8765 40.9998C15.8436 40.9998 19.071 37.7723 19.071 33.8052C19.071 33.1957 18.9931 32.5922 18.8408 32.0042L20.3886 31.0519V35.954C20.3886 37.8229 21.9089 39.3432 23.7777 39.3432H26.928V39.6921H22.6622C22.301 39.6921 22.0084 39.9847 22.0084 40.3459C22.0084 40.7071 22.301 40.9998 22.6622 40.9998H27.5818C27.943 40.9998 28.2357 40.7071 28.2357 40.3459V39.3432H34.235C34.4734 39.3432 34.6929 39.2134 34.8078 39.0045C34.9227 38.7956 34.9149 38.5406 34.7873 38.3392C33.958 37.0312 33.5198 35.5175 33.5198 33.9616C33.5198 32.348 33.989 30.8423 34.798 29.5729L35.7465 30.475C35.2104 31.4998 34.9288 32.6404 34.9288 33.8051C34.9288 37.7722 38.1562 40.9997 42.1234 40.9997C46.0905 40.9997 49.318 37.7723 49.318 33.8052C49.318 32.5258 48.9761 31.2675 48.3294 30.1667ZM44.5338 33.8052C44.5338 35.1342 43.4525 36.2155 42.1234 36.2155C40.9621 36.2155 39.9901 35.3898 39.7631 34.2948L40.7581 35.2409C41.128 35.5927 41.6129 35.7865 42.1233 35.7865C42.6636 35.7865 43.1869 35.562 43.5593 35.1705C43.9241 34.7871 44.1175 34.2845 44.1043 33.7554C44.0909 33.2263 43.8724 32.7341 43.4888 32.3695L42.4939 31.4233C43.6477 31.6021 44.5338 32.6021 44.5338 33.8052ZM45.0957 18.8098C45.5886 19.8945 45.4369 21.7498 45.0861 22.4981C44.204 22.3483 43.5303 21.5785 43.5303 20.6544C43.5303 19.7278 44.2076 18.9565 45.0957 18.8098ZM29.2007 18.9009C30.9391 18.9009 32.5539 19.6429 33.6828 20.9483C33.0265 22.6509 31.7436 23.2383 31.374 23.5571L25.9198 21.4724L24.6758 20.9969C25.7956 19.6718 27.4351 18.9009 29.2007 18.9009ZM20.4368 29.3C20.4267 29.363 20.4168 29.4322 20.4088 29.5042L14.5971 33.08C14.595 33.0813 14.5929 33.0826 14.5907 33.0839L12.6337 34.2881C12.3157 34.4799 11.9007 34.3771 11.709 34.059C11.6128 33.8994 11.5871 33.7124 11.6364 33.5326C11.6823 33.3653 11.7894 33.2239 11.9431 33.1313L13.9943 31.8694C13.9962 31.8683 13.998 31.8672 13.9998 31.8661L17.0596 29.984C17.0607 29.9833 17.0619 29.9825 17.0631 29.9818L19.3917 28.5494L20.4368 29.3ZM10.5891 34.7342C10.9604 35.3498 11.6154 35.6911 12.2881 35.6911C12.6378 35.6911 12.9923 35.5988 13.3141 35.4048L13.9668 35.0032C13.5504 35.727 12.7697 36.2157 11.8765 36.2157C10.5474 36.2157 9.46614 35.1344 9.46614 33.8053C9.46614 32.4763 10.5474 31.395 11.8765 31.395C11.9949 31.395 12.112 31.4043 12.2273 31.4212L11.2629 32.0144C10.8257 32.2779 10.5105 32.6942 10.3753 33.1865C10.2323 33.7073 10.3102 34.2714 10.5891 34.7342ZM17.7634 33.8052C17.7634 37.0512 15.1225 39.6921 11.8766 39.6921C8.63043 39.6922 5.98958 37.0513 5.98958 33.8052C5.98958 30.5592 8.63043 27.9184 11.8765 27.9184C13.269 27.9184 14.6121 28.4172 15.6673 29.3049L13.6571 30.5414C13.113 30.2432 12.5053 30.0871 11.8765 30.0871C9.82628 30.0871 8.15844 31.7551 8.15844 33.8052C8.15844 35.8553 9.82637 37.5232 11.8765 37.5232C13.8597 37.5232 15.4849 35.9625 15.589 34.0049L17.6629 32.7289C17.729 33.0832 17.7634 33.4429 17.7634 33.8052ZM33.1286 38.0356H23.7777C22.6299 38.0356 21.6962 37.1018 21.6962 35.9541V29.9394C21.6962 28.5799 22.6975 27.4646 23.9738 27.2549C25.1397 27.0605 27.7551 27.7591 30.6697 25.6708C32.7312 24.1934 34.6018 23.2503 35.1812 20.4802C35.4058 19.4066 35.3326 18.3067 34.9824 17.2869H35.757C36.1181 17.2869 36.4108 16.9941 36.4108 16.633C36.4108 16.2719 36.1181 15.9792 35.757 15.9792H34.3549L33.6698 14.8274C33.5517 14.6289 33.6789 14.3677 33.9123 14.351C37.9872 14.0597 41.5864 15.2537 44.1653 17.7266C43.0248 18.2095 42.2227 19.3401 42.2227 20.6545C42.2227 21.9308 42.9793 23.033 44.0672 23.538L42.9092 24.5408C42.5111 24.4905 42.1086 24.4651 41.7087 24.4651C36.4778 24.4651 32.2121 28.7137 32.2121 33.9617C32.2121 35.3802 32.5265 36.7689 33.1286 38.0356ZM36.5679 27.5926L37.946 28.9031C37.9467 28.9037 37.9472 28.9043 37.9478 28.9048L42.5876 33.3171C42.718 33.4411 42.7923 33.6085 42.7968 33.7883C42.8013 33.9681 42.7355 34.139 42.6116 34.2695C42.4831 34.4045 42.3097 34.4789 42.1231 34.4789C41.9496 34.4789 41.7848 34.413 41.659 34.2935L37.0202 29.882C37.0188 29.8806 37.0174 29.8793 37.0159 29.878L35.5918 28.5236C35.8912 28.1873 36.2177 27.8758 36.5679 27.5926Z" fill="#2F82FF"/>
<path d="M27.0003 34.3848H25.1224C24.7612 34.3848 24.4685 34.6774 24.4685 35.0386C24.4685 35.3998 24.7612 35.6925 25.1224 35.6925H27.0003C27.3615 35.6925 27.6541 35.3998 27.6541 35.0386C27.6541 34.6774 27.3615 34.3848 27.0003 34.3848Z" fill="#2F82FF"/>
</svg>
