<svg width="19" height="18" viewBox="0 0 19 18" fill="none" xmlns="http://www.w3.org/2000/svg">
<path d="M17.7341 16.4524L13.9287 12.647C13.7416 12.4607 13.4883 12.356 13.2242 12.356C12.9601 12.356 12.7068 12.4607 12.5197 12.647C11.517 13.6166 10.2209 14.2261 8.83466 14.3802C7.44837 14.5342 6.05015 14.224 4.85904 13.4982C3.66794 12.7724 2.75123 11.672 2.25255 10.3694C1.75386 9.06675 1.70137 7.6355 2.10329 6.29985C2.50521 4.96419 3.33885 3.79959 4.47359 2.98849C5.60833 2.17739 6.98007 1.76562 8.37392 1.81768C9.76776 1.86975 11.105 2.3827 12.176 3.27619C13.2471 4.16968 13.9915 5.39323 14.2927 6.75515C14.5085 7.74319 14.4863 8.76838 14.2278 9.74614C14.1973 9.86066 14.1896 9.98007 14.2053 10.0976C14.2209 10.215 14.2595 10.3283 14.3189 10.4309C14.3783 10.5334 14.4573 10.6233 14.5514 10.6953C14.6456 10.7673 14.7529 10.8201 14.8675 10.8506C15.0988 10.9123 15.3451 10.8795 15.5522 10.7596C15.7593 10.6396 15.9103 10.4423 15.972 10.211C16.4685 8.34498 16.2839 6.36311 15.4515 4.62082C14.619 2.87853 13.1931 1.48979 11.4294 0.70365C9.66578 -0.0824926 7.67973 -0.21461 5.82747 0.330991C3.97521 0.876592 2.3779 2.06422 1.32201 3.68089C0.266109 5.29756 -0.179309 7.23752 0.0656323 9.15287C0.310573 11.0682 1.22985 12.8337 2.6586 14.1326C4.08736 15.4315 5.93213 16.179 7.86208 16.2409C9.79203 16.3028 11.6809 15.6751 13.19 14.4705L16.4585 17.7353C16.5421 17.8192 16.6416 17.8858 16.751 17.9312C16.8605 17.9766 16.9778 18 17.0963 18C17.2148 18 17.3321 17.9766 17.4416 17.9312C17.551 17.8858 17.6505 17.8192 17.7341 17.7353C17.8191 17.6515 17.8866 17.5516 17.9327 17.4415C17.9787 17.3314 18.0024 17.2132 18.0024 17.0939C18.0024 16.9745 17.9787 16.8564 17.9327 16.7462C17.8866 16.6361 17.8191 16.5363 17.7341 16.4524Z" fill="#34465E"/>
</svg>
