<svg width="54" height="54" viewBox="0 0 54 54" fill="none" xmlns="http://www.w3.org/2000/svg">
<path d="M26.3285 34.6162H23.0364" stroke="#2F82FF" stroke-width="1.6" stroke-miterlimit="10" stroke-linecap="round" stroke-linejoin="round"/>
<path d="M5.92996 34.6167H4.74954C4.41214 34.6167 4.13818 34.3427 4.13818 34.0053V31.2666C4.13818 30.9292 4.41214 30.6553 4.74954 30.6553H20.4296" stroke="#2F82FF" stroke-width="1.6" stroke-miterlimit="10" stroke-linecap="round" stroke-linejoin="round"/>
<path d="M16.182 34.6162H12.7842" stroke="#2F82FF" stroke-width="1.6" stroke-miterlimit="10" stroke-linecap="round" stroke-linejoin="round"/>
<path d="M26.329 30.6553H23.6492" stroke="#2F82FF" stroke-width="1.6" stroke-miterlimit="10" stroke-linecap="round" stroke-linejoin="round"/>
<path d="M33.6836 19.0107H35.6059C38.1598 19.0107 40.4471 20.5883 41.3536 22.9749C41.7728 24.079 42.2196 25.2824 42.614 26.4058C42.6986 26.6449 42.9229 26.8057 43.1766 26.814C45.6634 26.894 47.4349 27.6653 48.5216 28.3383C49.3389 28.8448 49.8307 29.743 49.8307 30.7046V31.6635" stroke="#2F82FF" stroke-width="1.6" stroke-miterlimit="10" stroke-linecap="round" stroke-linejoin="round"/>
<path d="M49.8294 34.8809V36.5531C49.8294 36.9503 49.5076 37.272 49.1105 37.272H47.2378" stroke="#2F82FF" stroke-width="1.6" stroke-miterlimit="10" stroke-linecap="round" stroke-linejoin="round"/>
<path d="M31.2388 37.2725H38.8941" stroke="#2F82FF" stroke-width="1.6" stroke-miterlimit="10" stroke-linecap="round" stroke-linejoin="round"/>
<path d="M26.3289 33.8829V20.1774C26.3289 19.5329 26.8519 19.0107 27.4963 19.0107H31.2408" stroke="#2F82FF" stroke-width="1.6" stroke-miterlimit="10" stroke-linecap="round" stroke-linejoin="round"/>
<path d="M44.6685 40.8708C46.8012 39.9874 47.814 37.5423 46.9306 35.4096C46.0471 33.2768 43.6021 32.2641 41.4693 33.1475C39.3366 34.0309 38.3238 36.476 39.2073 38.6087C40.0907 40.7415 42.5358 41.7542 44.6685 40.8708Z" stroke="#2F82FF" stroke-width="1.6" stroke-miterlimit="10" stroke-linecap="round" stroke-linejoin="round"/>
<path d="M43.611 38.3204C44.3352 38.0205 44.679 37.1903 44.3791 36.4661C44.0791 35.742 43.2489 35.3981 42.5248 35.6981C41.8007 35.998 41.4568 36.8282 41.7567 37.5524C42.0567 38.2765 42.8869 38.6204 43.611 38.3204Z" stroke="#2F82FF" stroke-width="1.6" stroke-miterlimit="10" stroke-linecap="round" stroke-linejoin="round"/>
<path d="M21.2102 40.8718C23.343 39.9884 24.3557 37.5433 23.4723 35.4105C22.5889 33.2778 20.1438 32.265 18.0111 33.1485C15.8783 34.0319 14.8656 36.477 15.749 38.6097C16.6324 40.7424 19.0775 41.7552 21.2102 40.8718Z" stroke="#2F82FF" stroke-width="1.6" stroke-miterlimit="10" stroke-linecap="round" stroke-linejoin="round"/>
<path d="M20.1535 38.3214C20.8776 38.0215 21.2215 37.1913 20.9216 36.4671C20.6216 35.743 19.7914 35.3991 19.0673 35.6991C18.3431 35.999 17.9993 36.8292 18.2992 37.5534C18.5992 38.2775 19.4294 38.6214 20.1535 38.3214Z" stroke="#2F82FF" stroke-width="1.6" stroke-miterlimit="10" stroke-linecap="round" stroke-linejoin="round"/>
<path d="M10.958 40.8718C13.0908 39.9884 14.1035 37.5433 13.2201 35.4105C12.3367 33.2778 9.89161 32.265 7.75888 33.1485C5.62614 34.0319 4.61338 36.477 5.4968 38.6097C6.38023 40.7424 8.82531 41.7552 10.958 40.8718Z" stroke="#2F82FF" stroke-width="1.6" stroke-miterlimit="10" stroke-linecap="round" stroke-linejoin="round"/>
<path d="M9.90107 38.3214C10.6252 38.0215 10.9691 37.1913 10.6691 36.4671C10.3692 35.743 9.53897 35.3991 8.81483 35.6991C8.09069 35.999 7.74682 36.8292 8.04678 37.5534C8.34673 38.2775 9.17693 38.6214 9.90107 38.3214Z" stroke="#2F82FF" stroke-width="1.6" stroke-miterlimit="10" stroke-linecap="round" stroke-linejoin="round"/>
<path d="M42.577 26.2991H37.0599C36.7616 26.2991 36.5198 26.0573 36.5198 25.759V22.2608C36.5198 21.9626 36.7616 21.7207 37.0599 21.7207H40.704" stroke="#2F82FF" stroke-width="1.6" stroke-miterlimit="10" stroke-linecap="round" stroke-linejoin="round"/>
<path d="M33.6825 37.2727V16.6587C33.6825 14.6381 32.0444 13 30.0238 13H29.3182C29.1661 13 29.0427 13.1234 29.0427 13.2755V15.167C29.0427 15.3191 29.1661 15.4425 29.3182 15.4425H30.0239C30.6956 15.4425 31.2402 15.987 31.2402 16.6587V37.2725" stroke="#2F82FF" stroke-width="1.6" stroke-miterlimit="10" stroke-linecap="round" stroke-linejoin="round"/>
<path d="M27.0734 38.5228H30.4965C30.9075 38.5228 31.2407 38.1896 31.2407 37.7786V33.8828H26.3289V37.7786C26.3289 38.1896 26.6624 38.5228 27.0734 38.5228Z" stroke="#2F82FF" stroke-width="1.6" stroke-miterlimit="10" stroke-linecap="round" stroke-linejoin="round"/>
</svg>
