<svg width="407" height="458" fill="none" xmlns="http://www.w3.org/2000/svg"><path d="M97.357 134.687l.312-.07-7.423-32.993c-2.463-10.95 4.45-21.821 15.418-24.289l120.445-27.098c10.968-2.468 21.872 4.395 24.335 15.345l7.423 32.993.312-.07a2.644 2.644 0 013.171 1.999l5.134 22.819a2.645 2.645 0 01-2.009 3.165l-.312.07 1.225 5.445.312-.07a2.644 2.644 0 013.171 1.999l5.134 22.819a2.645 2.645 0 01-2.009 3.165l-.312.07 44.973 199.899c2.46 10.935-4.434 21.818-15.418 24.289l-120.445 27.098c-10.968 2.468-21.871-4.394-24.335-15.345l-49.341-219.312-.312.07a2.644 2.644 0 01-3.171-1.999l-8.287-36.834a2.644 2.644 0 012.009-3.165z" fill="#333343"/><path d="M181.759 405.94l116.326-26.171c8.909-2.005 14.512-10.832 12.514-19.714l-65.695-292c-1.999-8.882-10.842-14.46-19.751-12.455L108.811 81.775c-8.908 2.004-14.512 10.831-12.513 19.713l65.691 291.985c2.002 8.898 10.846 14.475 19.77 12.467z" fill="url(#paint0_linear_817_16555)" style="mix-blend-mode:color-dodge"/><path d="M156.399 368.538c-7.41-123.36 69.951-199.673 106.104-221.948l-16.919-76.96c-2.382-10.833-13.125-17.66-23.944-15.214L110.853 79.461c-10.661 2.41-17.413 12.89-15.07 23.566 12.38 56.382 38.928 171.654 60.616 265.511z" fill="#fff" fill-opacity=".2"/><path d="M183.872 179.604l41.651 80.879 58.078-4.192 31.241-86.141-130.97 9.454z" fill="#F99746"/><path d="M255.346 258.178l-27.932-78.211-41.501 3.591 39.505 77.015 29.928-2.395z" fill="#F37B40"/><path d="M315.712 174.234l-133.752 9.655a4.405 4.405 0 01-4.71-4.082 4.405 4.405 0 014.075-4.717l133.725-9.653a4.406 4.406 0 014.71 4.083c.175 2.432-1.647 4.541-4.048 4.714zm-36.275 110.978l-45.858 3.31a6.022 6.022 0 01-6.435-5.578l-1.623-22.489 57.887-4.178 1.623 22.488c.214 3.336-2.266 6.207-5.594 6.447z" fill="#F78248"/><path d="M144.93 147.699l6.284-2.799a1.527 1.527 0 011.579.206c.568.46 1.168.893 1.768 1.326 1.147.773 2.3 1.456 3.49 2.052.551.279.901.844.855 1.469l-.435 7.148c-.057.774.496 1.442 1.27 1.559l6.518.958c.744.114 1.44-.344 1.612-1.049l1.671-6.369c.136-.619.709-1.055 1.374-1.096a26.25 26.25 0 008.193-1.762 1.484 1.484 0 011.765.549l2.316 3.281c.436.631 1.295.813 1.984.445l5.708-3.171c.124-.05.221-.133.317-.216a1.478 1.478 0 00.334-1.681l-2.094-4.671-.517-1.145a27.36 27.36 0 002.317-2.881 25.21 25.21 0 002.423-4.31c.251-.55.82-.927 1.449-.881l5.78.365c.778.057 1.482-.52 1.599-1.289l.754-4.941.194-1.421c.117-.77-.369-1.523-1.138-1.7l-5.343-1.409c-.619-.165-1.063-.677-1.107-1.308a28.4 28.4 0 00-1.039-5.521c-.049-.154-.068-.305-.117-.458-.025-.061-.023-.091-.049-.153-.138-.578.118-1.188.625-1.54l5.331-3.767a.358.358 0 00.161-.137c.486-.473.6-1.213.283-1.805l-3.166-5.647c-.371-.686-1.223-.958-1.938-.651l-6.533 2.931c-.561.258-1.215.15-1.635-.27a30.42 30.42 0 00-3.181-2.567 30 30 0 00-1.841-1.153c-.519-.307-.811-.837-.768-1.432l.413-6.851a1.49 1.49 0 00-1.239-1.557l-6.429-.95a1.564 1.564 0 00-1.738 1.128l-1.334 5.048a1.472 1.472 0 01-1.496 1.117 27.397 27.397 0 00-8.112 1.08 1.502 1.502 0 01-1.673-.572l-3.411-4.768c-.465-.633-1.322-.845-2.013-.447l-5.677 3.143a1.437 1.437 0 00-.62 1.899l.129.279 2.461 5.416c.258.587.15 1.237-.306 1.713a27.073 27.073 0 00-3.001 3.579 30.74 30.74 0 00-1.329 2.116 1.448 1.448 0 01-1.41.764l-5.87-.371a1.536 1.536 0 00-1.631 1.316l-.949 6.363c-.013.178-.026.357.021.54.11.546.528.996 1.088 1.157l4.197 1.026c.532.129.923.546 1.065 1.065.021.122.07.275.059.424a26.749 26.749 0 001.897 10.221c.23.556.095 1.174-.327 1.592l-.193.165-4.314 3.034a1.476 1.476 0 00-.444 1.942l.081.125 3.085 5.522a1.52 1.52 0 001.967.653zm35.695-31.693c.664.796 1.288 1.71 1.847 2.708 1.064 1.903 1.691 5.24 1.352 7.399-.047.236-.065.474-.11.681-2.547 13.784-20.007 16.78-27.07 4.384-.903-1.622-1.526-4.211-1.518-6.365.007-.508.04-.954.101-1.368a16.039 16.039 0 011.74-5.258c4.732-8.717 16.877-10.219 23.658-2.181z" fill="#DFEBFD"/><path d="M144.93 147.699l6.284-2.799a1.527 1.527 0 011.579.206c.568.46 1.168.893 1.768 1.326 1.147.773 2.3 1.456 3.49 2.052.551.279.901.844.855 1.469l-.435 7.148c-.057.774.496 1.442 1.27 1.559l6.518.958c.744.114 1.44-.344 1.612-1.049l1.671-6.369c.136-.619.709-1.055 1.374-1.096a26.25 26.25 0 008.193-1.762 1.484 1.484 0 011.765.549l2.316 3.281c.436.631 1.295.813 1.984.445l5.708-3.171c.124-.05.221-.133.317-.216a1.478 1.478 0 00.334-1.681l-2.094-4.671-.517-1.145a27.36 27.36 0 002.317-2.881 25.21 25.21 0 002.423-4.31c.251-.55.82-.927 1.449-.881l5.78.365c.778.057 1.482-.52 1.599-1.289l.754-4.941.194-1.421c.117-.77-.369-1.523-1.138-1.7l-5.343-1.409c-.619-.165-1.063-.677-1.107-1.308a28.4 28.4 0 00-1.039-5.521c-.049-.154-.068-.305-.117-.458-.025-.061-.023-.091-.049-.153-.138-.578.118-1.188.625-1.54l5.331-3.767a.358.358 0 00.161-.137c.486-.473.6-1.213.283-1.805l-3.166-5.647c-.371-.686-1.223-.958-1.938-.651l-6.533 2.931c-.561.258-1.215.15-1.635-.27a30.42 30.42 0 00-3.181-2.567 30 30 0 00-1.841-1.153c-.519-.307-.811-.837-.768-1.432l.413-6.851a1.49 1.49 0 00-1.239-1.557l-6.429-.95a1.564 1.564 0 00-1.738 1.128l-1.334 5.048a1.472 1.472 0 01-1.496 1.117 27.397 27.397 0 00-8.112 1.08 1.502 1.502 0 01-1.673-.572l-3.411-4.768c-.465-.633-1.322-.845-2.013-.447l-5.677 3.143a1.437 1.437 0 00-.62 1.899l.129.279 2.461 5.416c.258.587.15 1.237-.306 1.713a27.073 27.073 0 00-3.001 3.579 30.74 30.74 0 00-1.329 2.116 1.448 1.448 0 01-1.41.764l-5.87-.371a1.536 1.536 0 00-1.631 1.316l-.949 6.363c-.013.178-.026.357.021.54.11.546.528.996 1.088 1.157l4.197 1.026c.532.129.923.546 1.065 1.065.021.122.07.275.059.424a26.749 26.749 0 001.897 10.221c.23.556.095 1.174-.327 1.592l-.193.165-4.314 3.034a1.476 1.476 0 00-.444 1.942l.081.125 3.085 5.522a1.52 1.52 0 001.967.653zm35.695-31.693c.664.796 1.288 1.71 1.847 2.708 1.064 1.903 1.691 5.24 1.352 7.399-.047.236-.065.474-.11.681-2.547 13.784-20.007 16.78-27.07 4.384-.903-1.622-1.526-4.211-1.518-6.365.007-.508.04-.954.101-1.368a16.039 16.039 0 011.74-5.258c4.732-8.717 16.877-10.219 23.658-2.181z" fill="#DFEBFD"/><path d="M144.93 147.699l6.284-2.799a1.527 1.527 0 011.579.206c.568.46 1.168.893 1.768 1.326 1.147.773 2.3 1.456 3.49 2.052.551.279.901.844.855 1.469l-.435 7.148c-.057.774.496 1.442 1.27 1.559l6.518.958c.744.114 1.44-.344 1.612-1.049l1.671-6.369c.136-.619.709-1.055 1.374-1.096a26.25 26.25 0 008.193-1.762 1.484 1.484 0 011.765.549l2.316 3.281c.436.631 1.295.813 1.984.445l5.708-3.171c.124-.05.221-.133.317-.216a1.478 1.478 0 00.334-1.681l-2.094-4.671-.517-1.145a27.36 27.36 0 002.317-2.881 25.21 25.21 0 002.423-4.31c.251-.55.82-.927 1.449-.881l5.78.365c.778.057 1.482-.52 1.599-1.289l.754-4.941.194-1.421c.117-.77-.369-1.523-1.138-1.7l-5.343-1.409c-.619-.165-1.063-.677-1.107-1.308a28.4 28.4 0 00-1.039-5.521c-.049-.154-.068-.305-.117-.458-.025-.061-.023-.091-.049-.153-.138-.578.118-1.188.625-1.54l5.331-3.767a.358.358 0 00.161-.137c.486-.473.6-1.213.283-1.805l-3.166-5.647c-.371-.686-1.223-.958-1.938-.651l-6.533 2.931c-.561.258-1.215.15-1.635-.27a30.42 30.42 0 00-3.181-2.567 30 30 0 00-1.841-1.153c-.519-.307-.811-.837-.768-1.432l.413-6.851a1.49 1.49 0 00-1.239-1.557l-6.429-.95a1.564 1.564 0 00-1.738 1.128l-1.334 5.048a1.472 1.472 0 01-1.496 1.117 27.397 27.397 0 00-8.112 1.08 1.502 1.502 0 01-1.673-.572l-3.411-4.768c-.465-.633-1.322-.845-2.013-.447l-5.677 3.143a1.437 1.437 0 00-.62 1.899l.129.279 2.461 5.416c.258.587.15 1.237-.306 1.713a27.073 27.073 0 00-3.001 3.579 30.74 30.74 0 00-1.329 2.116 1.448 1.448 0 01-1.41.764l-5.87-.371a1.536 1.536 0 00-1.631 1.316l-.949 6.363c-.013.178-.026.357.021.54.11.546.528.996 1.088 1.157l4.197 1.026c.532.129.923.546 1.065 1.065.021.122.07.275.059.424a26.749 26.749 0 001.897 10.221c.23.556.095 1.174-.327 1.592l-.193.165-4.314 3.034a1.476 1.476 0 00-.444 1.942l.081.125 3.085 5.522a1.52 1.52 0 001.967.653zm35.695-31.693c.664.796 1.288 1.71 1.847 2.708 1.064 1.903 1.691 5.24 1.352 7.399-.047.236-.065.474-.11.681-2.547 13.784-20.007 16.78-27.07 4.384-.903-1.622-1.526-4.211-1.518-6.365.007-.508.04-.954.101-1.368a16.039 16.039 0 011.74-5.258c4.732-8.717 16.877-10.219 23.658-2.181z" fill="#DFEBFD"/><path d="M144.93 147.699l6.284-2.799a1.527 1.527 0 011.579.206c.568.46 1.168.893 1.768 1.326 1.147.773 2.3 1.456 3.49 2.052.551.279.901.844.855 1.469l-.435 7.148c-.057.774.496 1.442 1.27 1.559l6.518.958c.744.114 1.44-.344 1.612-1.049l1.671-6.369c.136-.619.709-1.055 1.374-1.096a26.25 26.25 0 008.193-1.762 1.484 1.484 0 011.765.549l2.316 3.281c.436.631 1.295.813 1.984.445l5.708-3.171c.124-.05.221-.133.317-.216a1.478 1.478 0 00.334-1.681l-2.094-4.671-.517-1.145a27.36 27.36 0 002.317-2.881 25.21 25.21 0 002.423-4.31c.251-.55.82-.927 1.449-.881l5.78.365c.778.057 1.482-.52 1.599-1.289l.754-4.941.194-1.421c.117-.77-.369-1.523-1.138-1.7l-5.343-1.409c-.619-.165-1.063-.677-1.107-1.308a28.4 28.4 0 00-1.039-5.521c-.049-.154-.068-.305-.117-.458-.025-.061-.023-.091-.049-.153-.138-.578.118-1.188.625-1.54l5.331-3.767a.358.358 0 00.161-.137c.486-.473.6-1.213.283-1.805l-3.166-5.647c-.371-.686-1.223-.958-1.938-.651l-6.533 2.931c-.561.258-1.215.15-1.635-.27a30.42 30.42 0 00-3.181-2.567 30 30 0 00-1.841-1.153c-.519-.307-.811-.837-.768-1.432l.413-6.851a1.49 1.49 0 00-1.239-1.557l-6.429-.95a1.564 1.564 0 00-1.738 1.128l-1.334 5.048a1.472 1.472 0 01-1.496 1.117 27.397 27.397 0 00-8.112 1.08 1.502 1.502 0 01-1.673-.572l-3.411-4.768c-.465-.633-1.322-.845-2.013-.447l-5.677 3.143a1.437 1.437 0 00-.62 1.899l.129.279 2.461 5.416c.258.587.15 1.237-.306 1.713a27.073 27.073 0 00-3.001 3.579 30.74 30.74 0 00-1.329 2.116 1.448 1.448 0 01-1.41.764l-5.87-.371a1.536 1.536 0 00-1.631 1.316l-.949 6.363c-.013.178-.026.357.021.54.11.546.528.996 1.088 1.157l4.197 1.026c.532.129.923.546 1.065 1.065.021.122.07.275.059.424a26.749 26.749 0 001.897 10.221c.23.556.095 1.174-.327 1.592l-.193.165-4.314 3.034a1.476 1.476 0 00-.444 1.942l.081.125 3.085 5.522a1.52 1.52 0 001.967.653zm35.695-31.693c.664.796 1.288 1.71 1.847 2.708 1.064 1.903 1.691 5.24 1.352 7.399-.047.236-.065.474-.11.681-2.547 13.784-20.007 16.78-27.07 4.384-.903-1.622-1.526-4.211-1.518-6.365.007-.508.04-.954.101-1.368a16.039 16.039 0 011.74-5.258c4.732-8.717 16.877-10.219 23.658-2.181z" fill="#DFEBFD"/><path opacity=".5" d="M239.425 152.81l4.411-2.112a1.11 1.11 0 011.13.121c.394.334.828.632 1.262.93.833.556 1.672 1.037 2.519 1.403.404.182.641.58.645 1.037l-.224 5.121c-.039.53.381 1.018.908 1.095l4.628.606a1 1 0 001.122-.793l1.098-4.6c.109-.449.474-.765.971-.804a19.852 19.852 0 005.799-1.363 1.05 1.05 0 011.266.359l1.693 2.294c.309.441.946.564 1.422.295l4.011-2.37a.45.45 0 00.203-.175c.328-.319.402-.808.203-1.203l-1.581-3.313-.398-.79a17.064 17.064 0 001.598-2.09 18.818 18.818 0 001.672-3.112c.182-.406.582-.681.998-.65l4.127.189c.57.003 1.054-.38 1.133-.945l.45-3.544.113-1.019c.08-.565-.3-1.088-.823-1.202l-3.845-.93a1.047 1.047 0 01-.806-.934 19.55 19.55 0 00-.812-3.942 2.623 2.623 0 00-.091-.311c.003-.038-.032-.078-.029-.116-.083-.425.063-.871.423-1.111l3.737-2.77.122-.105c.33-.357.406-.884.173-1.32l-2.327-4.014c-.269-.477-.9-.675-1.411-.446l-4.608 2.211a1.027 1.027 0 01-1.166-.162c-.714-.623-1.466-1.249-2.302-1.767a16.17 16.17 0 00-1.345-.822c-.364-.217-.604-.577-.573-.994l.21-4.932c.039-.53-.381-1.017-.907-1.094l-4.594-.566c-.564-.079-1.083.263-1.2.826l-.875 3.627a1.085 1.085 0 01-1.049.836 19.69 19.69 0 00-5.766.909 1.007 1.007 0 01-1.187-.392l-2.487-3.379c-.347-.444-.947-.565-1.46-.298l-3.971 2.334c-.476.27-.674.902-.405 1.379l.099.197 1.806 3.863c.199.395.125.884-.205 1.241a20.508 20.508 0 00-2.089 2.586 15.494 15.494 0 00-.911 1.532 1.034 1.034 0 01-.992.574l-4.165-.192c-.567-.042-1.054.379-1.133.944l-.604 4.599c-.008.114-.019.265.01.381.086.387.403.715.814.821l3.062.72c.373.103.655.391.782.742a.728.728 0 01.053.309 18.373 18.373 0 001.515 7.304c.161.392.09.844-.199 1.165l-.122.105-3.015 2.252c-.441.311-.564.949-.295 1.425l.07.081 2.298 3.899c.312.403.905.599 1.416.37zm24.963-23.284c.49.568.937 1.21 1.34 1.925.775 1.351 1.283 3.748 1.093 5.294-.011.151-.063.338-.074.489-1.641 9.927-14.013 12.329-19.184 3.577-.675-1.153-1.146-3.015-1.186-4.54-.013-.343.012-.684.034-.987.179-1.395.576-2.66 1.153-3.797 3.278-6.343 11.882-7.614 16.824-1.961z" fill="#AEC3FF"/><path opacity=".5" d="M239.425 152.81l4.411-2.112a1.11 1.11 0 011.13.121c.394.334.828.632 1.262.93.833.556 1.672 1.037 2.519 1.403.404.182.641.58.645 1.037l-.224 5.121c-.039.53.381 1.018.908 1.095l4.628.606a1 1 0 001.122-.793l1.098-4.6c.109-.449.474-.765.971-.804a19.852 19.852 0 005.799-1.363 1.05 1.05 0 011.266.359l1.693 2.294c.309.441.946.564 1.422.295l4.011-2.37a.45.45 0 00.203-.175c.328-.319.402-.808.203-1.203l-1.581-3.313-.398-.79a17.064 17.064 0 001.598-2.09 18.818 18.818 0 001.672-3.112c.182-.406.582-.681.998-.65l4.127.189c.57.003 1.054-.38 1.133-.945l.45-3.544.113-1.019c.08-.565-.3-1.088-.823-1.202l-3.845-.93a1.047 1.047 0 01-.806-.934 19.55 19.55 0 00-.812-3.942 2.623 2.623 0 00-.091-.311c.003-.038-.032-.078-.029-.116-.083-.425.063-.871.423-1.111l3.737-2.77.122-.105c.33-.357.406-.884.173-1.32l-2.327-4.014c-.269-.477-.9-.675-1.411-.446l-4.608 2.211a1.027 1.027 0 01-1.166-.162c-.714-.623-1.466-1.249-2.302-1.767a16.17 16.17 0 00-1.345-.822c-.364-.217-.604-.577-.573-.994l.21-4.932c.039-.53-.381-1.017-.907-1.094l-4.594-.566c-.564-.079-1.083.263-1.2.826l-.875 3.627a1.085 1.085 0 01-1.049.836 19.69 19.69 0 00-5.766.909 1.007 1.007 0 01-1.187-.392l-2.487-3.379c-.347-.444-.947-.565-1.46-.298l-3.971 2.334c-.476.27-.674.902-.405 1.379l.099.197 1.806 3.863c.199.395.125.884-.205 1.241a20.508 20.508 0 00-2.089 2.586 15.494 15.494 0 00-.911 1.532 1.034 1.034 0 01-.992.574l-4.165-.192c-.567-.042-1.054.379-1.133.944l-.604 4.599c-.008.114-.019.265.01.381.086.387.403.715.814.821l3.062.72c.373.103.655.391.782.742a.728.728 0 01.053.309 18.373 18.373 0 001.515 7.304c.161.392.09.844-.199 1.165l-.122.105-3.015 2.252c-.441.311-.564.949-.295 1.425l.07.081 2.298 3.899c.312.403.905.599 1.416.37zm24.963-23.284c.49.568.937 1.21 1.34 1.925.775 1.351 1.283 3.748 1.093 5.294-.011.151-.063.338-.074.489-1.641 9.927-14.013 12.329-19.184 3.577-.675-1.153-1.146-3.015-1.186-4.54-.013-.343.012-.684.034-.987.179-1.395.576-2.66 1.153-3.797 3.278-6.343 11.882-7.614 16.824-1.961z" fill="#AEC3FF"/><path opacity=".5" d="M239.425 152.81l4.411-2.112a1.11 1.11 0 011.13.121c.394.334.828.632 1.262.93.833.556 1.672 1.037 2.519 1.403.404.182.641.58.645 1.037l-.224 5.121c-.039.53.381 1.018.908 1.095l4.628.606a1 1 0 001.122-.793l1.098-4.6c.109-.449.474-.765.971-.804a19.852 19.852 0 005.799-1.363 1.05 1.05 0 011.266.359l1.693 2.294c.309.441.946.564 1.422.295l4.011-2.37a.45.45 0 00.203-.175c.328-.319.402-.808.203-1.203l-1.581-3.313-.398-.79a17.064 17.064 0 001.598-2.09 18.818 18.818 0 001.672-3.112c.182-.406.582-.681.998-.65l4.127.189c.57.003 1.054-.38 1.133-.945l.45-3.544.113-1.019c.08-.565-.3-1.088-.823-1.202l-3.845-.93a1.047 1.047 0 01-.806-.934 19.55 19.55 0 00-.812-3.942 2.623 2.623 0 00-.091-.311c.003-.038-.032-.078-.029-.116-.083-.425.063-.871.423-1.111l3.737-2.77.122-.105c.33-.357.406-.884.173-1.32l-2.327-4.014c-.269-.477-.9-.675-1.411-.446l-4.608 2.211a1.027 1.027 0 01-1.166-.162c-.714-.623-1.466-1.249-2.302-1.767a16.17 16.17 0 00-1.345-.822c-.364-.217-.604-.577-.573-.994l.21-4.932c.039-.53-.381-1.017-.907-1.094l-4.594-.566c-.564-.079-1.083.263-1.2.826l-.875 3.627a1.085 1.085 0 01-1.049.836 19.69 19.69 0 00-5.766.909 1.007 1.007 0 01-1.187-.392l-2.487-3.379c-.347-.444-.947-.565-1.46-.298l-3.971 2.334c-.476.27-.674.902-.405 1.379l.099.197 1.806 3.863c.199.395.125.884-.205 1.241a20.508 20.508 0 00-2.089 2.586 15.494 15.494 0 00-.911 1.532 1.034 1.034 0 01-.992.574l-4.165-.192c-.567-.042-1.054.379-1.133.944l-.604 4.599c-.008.114-.019.265.01.381.086.387.403.715.814.821l3.062.72c.373.103.655.391.782.742a.728.728 0 01.053.309 18.373 18.373 0 001.515 7.304c.161.392.09.844-.199 1.165l-.122.105-3.015 2.252c-.441.311-.564.949-.295 1.425l.07.081 2.298 3.899c.312.403.905.599 1.416.37zm24.963-23.284c.49.568.937 1.21 1.34 1.925.775 1.351 1.283 3.748 1.093 5.294-.011.151-.063.338-.074.489-1.641 9.927-14.013 12.329-19.184 3.577-.675-1.153-1.146-3.015-1.186-4.54-.013-.343.012-.684.034-.987.179-1.395.576-2.66 1.153-3.797 3.278-6.343 11.882-7.614 16.824-1.961z" fill="#AEC3FF"/><path opacity=".5" d="M239.425 152.81l4.411-2.112a1.11 1.11 0 011.13.121c.394.334.828.632 1.262.93.833.556 1.672 1.037 2.519 1.403.404.182.641.58.645 1.037l-.224 5.121c-.039.53.381 1.018.908 1.095l4.628.606a1 1 0 001.122-.793l1.098-4.6c.109-.449.474-.765.971-.804a19.852 19.852 0 005.799-1.363 1.05 1.05 0 011.266.359l1.693 2.294c.309.441.946.564 1.422.295l4.011-2.37a.45.45 0 00.203-.175c.328-.319.402-.808.203-1.203l-1.581-3.313-.398-.79a17.064 17.064 0 001.598-2.09 18.818 18.818 0 001.672-3.112c.182-.406.582-.681.998-.65l4.127.189c.57.003 1.054-.38 1.133-.945l.45-3.544.113-1.019c.08-.565-.3-1.088-.823-1.202l-3.845-.93a1.047 1.047 0 01-.806-.934 19.55 19.55 0 00-.812-3.942 2.623 2.623 0 00-.091-.311c.003-.038-.032-.078-.029-.116-.083-.425.063-.871.423-1.111l3.737-2.77.122-.105c.33-.357.406-.884.173-1.32l-2.327-4.014c-.269-.477-.9-.675-1.411-.446l-4.608 2.211a1.027 1.027 0 01-1.166-.162c-.714-.623-1.466-1.249-2.302-1.767a16.17 16.17 0 00-1.345-.822c-.364-.217-.604-.577-.573-.994l.21-4.932c.039-.53-.381-1.017-.907-1.094l-4.594-.566c-.564-.079-1.083.263-1.2.826l-.875 3.627a1.085 1.085 0 01-1.049.836 19.69 19.69 0 00-5.766.909 1.007 1.007 0 01-1.187-.392l-2.487-3.379c-.347-.444-.947-.565-1.46-.298l-3.971 2.334c-.476.27-.674.902-.405 1.379l.099.197 1.806 3.863c.199.395.125.884-.205 1.241a20.508 20.508 0 00-2.089 2.586 15.494 15.494 0 00-.911 1.532 1.034 1.034 0 01-.992.574l-4.165-.192c-.567-.042-1.054.379-1.133.944l-.604 4.599c-.008.114-.019.265.01.381.086.387.403.715.814.821l3.062.72c.373.103.655.391.782.742a.728.728 0 01.053.309 18.373 18.373 0 001.515 7.304c.161.392.09.844-.199 1.165l-.122.105-3.015 2.252c-.441.311-.564.949-.295 1.425l.07.081 2.298 3.899c.312.403.905.599 1.416.37zm24.963-23.284c.49.568.937 1.21 1.34 1.925.775 1.351 1.283 3.748 1.093 5.294-.011.151-.063.338-.074.489-1.641 9.927-14.013 12.329-19.184 3.577-.675-1.153-1.146-3.015-1.186-4.54-.013-.343.012-.684.034-.987.179-1.395.576-2.66 1.153-3.797 3.278-6.343 11.882-7.614 16.824-1.961z" fill="#AEC3FF"/><path opacity=".5" d="M239.425 152.81l4.411-2.112a1.11 1.11 0 011.13.121c.394.334.828.632 1.262.93.833.556 1.672 1.037 2.519 1.403.404.182.641.58.645 1.037l-.224 5.121c-.039.53.381 1.018.908 1.095l4.628.606a1 1 0 001.122-.793l1.098-4.6c.109-.449.474-.765.971-.804a19.852 19.852 0 005.799-1.363 1.05 1.05 0 011.266.359l1.693 2.294c.309.441.946.564 1.422.295l4.011-2.37a.45.45 0 00.203-.175c.328-.319.402-.808.203-1.203l-1.581-3.313-.398-.79a17.064 17.064 0 001.598-2.09 18.818 18.818 0 001.672-3.112c.182-.406.582-.681.998-.65l4.127.189c.57.003 1.054-.38 1.133-.945l.45-3.544.113-1.019c.08-.565-.3-1.088-.823-1.202l-3.845-.93a1.047 1.047 0 01-.806-.934 19.55 19.55 0 00-.812-3.942 2.623 2.623 0 00-.091-.311c.003-.038-.032-.078-.029-.116-.083-.425.063-.871.423-1.111l3.737-2.77.122-.105c.33-.357.406-.884.173-1.32l-2.327-4.014c-.269-.477-.9-.675-1.411-.446l-4.608 2.211a1.027 1.027 0 01-1.166-.162c-.714-.623-1.466-1.249-2.302-1.767a16.17 16.17 0 00-1.345-.822c-.364-.217-.604-.577-.573-.994l.21-4.932c.039-.53-.381-1.017-.907-1.094l-4.594-.566c-.564-.079-1.083.263-1.2.826l-.875 3.627a1.085 1.085 0 01-1.049.836 19.69 19.69 0 00-5.766.909 1.007 1.007 0 01-1.187-.392l-2.487-3.379c-.347-.444-.947-.565-1.46-.298l-3.971 2.334c-.476.27-.674.902-.405 1.379l.099.197 1.806 3.863c.199.395.125.884-.205 1.241a20.508 20.508 0 00-2.089 2.586 15.494 15.494 0 00-.911 1.532 1.034 1.034 0 01-.992.574l-4.165-.192c-.567-.042-1.054.379-1.133.944l-.604 4.599c-.008.114-.019.265.01.381.086.387.403.715.814.821l3.062.72c.373.103.655.391.782.742a.728.728 0 01.053.309 18.373 18.373 0 001.515 7.304c.161.392.09.844-.199 1.165l-.122.105-3.015 2.252c-.441.311-.564.949-.295 1.425l.07.081 2.298 3.899c.312.403.905.599 1.416.37zm24.963-23.284c.49.568.937 1.21 1.34 1.925.775 1.351 1.283 3.748 1.093 5.294-.011.151-.063.338-.074.489-1.641 9.927-14.013 12.329-19.184 3.577-.675-1.153-1.146-3.015-1.186-4.54-.013-.343.012-.684.034-.987.179-1.395.576-2.66 1.153-3.797 3.278-6.343 11.882-7.614 16.824-1.961zm-51.672-52.318l7.701-3.469c.63-.296 1.38-.165 1.919.256a23.42 23.42 0 002.159 1.642 32.525 32.525 0 004.298 2.523 1.805 1.805 0 011.047 1.79l-.535 8.828a1.765 1.765 0 001.57 1.904l7.967 1.194c.901.142 1.742-.443 1.995-1.3l2.061-7.878c.171-.787.856-1.308 1.695-1.36a31.992 31.992 0 0010.037-2.155c.781-.286 1.674-.03 2.156.653l2.856 4.053c.551.764 1.598.993 2.428.56l6.976-3.941c.157-.065.279-.17.401-.275a1.837 1.837 0 00.379-2.065l-2.579-5.746-.618-1.416a28.601 28.601 0 002.845-3.558 30.128 30.128 0 002.973-5.3c.317-.7.996-1.145 1.751-1.09l7.11.447c.983.072 1.832-.627 1.98-1.606l.904-6.099.244-1.77c.145-.941-.471-1.862-1.402-2.12l-6.559-1.738c-.745-.207-1.305-.857-1.363-1.622a31.934 31.934 0 00-1.284-6.83 2.223 2.223 0 00-.15-.545c-.032-.078-.03-.116-.062-.194a1.791 1.791 0 01.747-1.887l6.535-4.657a.462.462 0 00.203-.176c.611-.564.756-1.505.355-2.257l-3.894-6.984a1.858 1.858 0 00-2.374-.783l-8.018 3.635c-.67.331-1.455.16-2.027-.339-1.209-1.117-2.498-2.2-3.91-3.142a35.436 35.436 0 00-2.251-1.42c-.621-.35-.986-1.063-.933-1.782l.509-8.487c.069-.947-.593-1.756-1.532-1.902l-7.892-1.188a1.893 1.893 0 00-2.116 1.405l-1.636 6.235c-.213.822-.978 1.413-1.812 1.39a33.29 33.29 0 00-9.938 1.325 1.78 1.78 0 01-2.037-.72l-4.201-5.904a1.88 1.88 0 00-2.467-.562l-6.933 3.868c-.832.472-1.175 1.512-.779 2.34l.164.355 3.004 6.69c.327.71.153 1.534-.383 2.103a34.627 34.627 0 00-3.667 4.412c-.596.87-1.116 1.745-1.637 2.62-.349.621-1.022.99-1.702.94l-7.186-.451c-.983-.072-1.872.661-1.98 1.605l-1.267 7.937c-.016.227-.033.454.029.649.141.657.669 1.229 1.338 1.43l5.257 1.376c.634.16 1.127.692 1.309 1.314.027.154.05.346.077.5-.09 4.332.735 8.617 2.341 12.617.293.669.121 1.455-.412 1.987l-.243.21-5.292 3.76c-.762.553-.991 1.601-.558 2.432l.102.16 3.792 6.825c.473.796 1.512 1.138 2.415.748zm43.797-39.18a19.347 19.347 0 012.26 3.364c1.31 2.341 2.068 6.507 1.685 9.143-.06.3-.08.565-.14.865-3.152 17.047-24.549 20.765-33.188 5.44-1.146-1.987-1.86-5.198-1.855-7.862.007-.608.049-1.176.126-1.703.366-2.409 1.097-4.6 2.108-6.467 5.812-10.838 20.729-12.711 29.004-2.78z" fill="#AEC3FF"/><path opacity=".5" d="M212.716 77.208l7.701-3.469c.63-.296 1.38-.165 1.919.256a23.42 23.42 0 002.159 1.642 32.525 32.525 0 004.298 2.523 1.805 1.805 0 011.047 1.79l-.535 8.828a1.765 1.765 0 001.57 1.904l7.967 1.194c.901.142 1.742-.443 1.995-1.3l2.061-7.878c.171-.787.856-1.308 1.695-1.36a31.992 31.992 0 0010.037-2.155c.781-.286 1.674-.03 2.156.653l2.856 4.053c.551.764 1.598.993 2.428.56l6.976-3.941c.157-.065.279-.17.401-.275a1.837 1.837 0 00.379-2.065l-2.579-5.746-.618-1.416a28.601 28.601 0 002.845-3.558 30.128 30.128 0 002.973-5.3c.317-.7.996-1.145 1.751-1.09l7.11.447c.983.072 1.832-.627 1.98-1.606l.904-6.099.244-1.77c.145-.941-.471-1.862-1.402-2.12l-6.559-1.738c-.745-.207-1.305-.857-1.363-1.622a31.934 31.934 0 00-1.284-6.83 2.223 2.223 0 00-.15-.545c-.032-.078-.03-.116-.062-.194a1.791 1.791 0 01.747-1.887l6.535-4.657a.462.462 0 00.203-.176c.611-.564.756-1.505.355-2.257l-3.894-6.984a1.858 1.858 0 00-2.374-.783l-8.018 3.635c-.67.331-1.455.16-2.027-.339-1.209-1.117-2.498-2.2-3.91-3.142a35.436 35.436 0 00-2.251-1.42c-.621-.35-.986-1.063-.933-1.782l.509-8.487c.069-.947-.593-1.756-1.532-1.902l-7.892-1.188a1.893 1.893 0 00-2.116 1.405l-1.636 6.235c-.213.822-.978 1.413-1.812 1.39a33.29 33.29 0 00-9.938 1.325 1.78 1.78 0 01-2.037-.72l-4.201-5.904a1.88 1.88 0 00-2.467-.562l-6.933 3.868c-.832.472-1.175 1.512-.779 2.34l.164.355 3.004 6.69c.327.71.153 1.534-.383 2.103a34.627 34.627 0 00-3.667 4.412c-.596.87-1.116 1.745-1.637 2.62-.349.621-1.022.99-1.702.94l-7.186-.451c-.983-.072-1.872.661-1.98 1.605l-1.267 7.937c-.016.227-.033.454.029.649.141.657.669 1.229 1.338 1.43l5.257 1.376c.634.16 1.127.692 1.309 1.314.027.154.05.346.077.5-.09 4.332.735 8.617 2.341 12.617.293.669.121 1.455-.412 1.987l-.243.21-5.292 3.76c-.762.553-.991 1.601-.558 2.432l.102.16 3.792 6.825c.473.796 1.512 1.138 2.415.748zm43.797-39.18a19.347 19.347 0 012.26 3.364c1.31 2.341 2.068 6.507 1.685 9.143-.06.3-.08.565-.14.865-3.152 17.047-24.549 20.765-33.188 5.44-1.146-1.987-1.86-5.198-1.855-7.862.007-.608.049-1.176.126-1.703.366-2.409 1.097-4.6 2.108-6.467 5.812-10.838 20.729-12.711 29.004-2.78z" fill="#AEC3FF"/><path opacity=".5" d="M212.716 77.208l7.701-3.469c.63-.296 1.38-.165 1.919.256a23.42 23.42 0 002.159 1.642 32.525 32.525 0 004.298 2.523 1.805 1.805 0 011.047 1.79l-.535 8.828a1.765 1.765 0 001.57 1.904l7.967 1.194c.901.142 1.742-.443 1.995-1.3l2.061-7.878c.171-.787.856-1.308 1.695-1.36a31.992 31.992 0 0010.037-2.155c.781-.286 1.674-.03 2.156.653l2.856 4.053c.551.764 1.598.993 2.428.56l6.976-3.941c.157-.065.279-.17.401-.275a1.837 1.837 0 00.379-2.065l-2.579-5.746-.618-1.416a28.601 28.601 0 002.845-3.558 30.128 30.128 0 002.973-5.3c.317-.7.996-1.145 1.751-1.09l7.11.447c.983.072 1.832-.627 1.98-1.606l.904-6.099.244-1.77c.145-.941-.471-1.862-1.402-2.12l-6.559-1.738c-.745-.207-1.305-.857-1.363-1.622a31.934 31.934 0 00-1.284-6.83 2.223 2.223 0 00-.15-.545c-.032-.078-.03-.116-.062-.194a1.791 1.791 0 01.747-1.887l6.535-4.657a.462.462 0 00.203-.176c.611-.564.756-1.505.355-2.257l-3.894-6.984a1.858 1.858 0 00-2.374-.783l-8.018 3.635c-.67.331-1.455.16-2.027-.339-1.209-1.117-2.498-2.2-3.91-3.142a35.436 35.436 0 00-2.251-1.42c-.621-.35-.986-1.063-.933-1.782l.509-8.487c.069-.947-.593-1.756-1.532-1.902l-7.892-1.188a1.893 1.893 0 00-2.116 1.405l-1.636 6.235c-.213.822-.978 1.413-1.812 1.39a33.29 33.29 0 00-9.938 1.325 1.78 1.78 0 01-2.037-.72l-4.201-5.904a1.88 1.88 0 00-2.467-.562l-6.933 3.868c-.832.472-1.175 1.512-.779 2.34l.164.355 3.004 6.69c.327.71.153 1.534-.383 2.103a34.627 34.627 0 00-3.667 4.412c-.596.87-1.116 1.745-1.637 2.62-.349.621-1.022.99-1.702.94l-7.186-.451c-.983-.072-1.872.661-1.98 1.605l-1.267 7.937c-.016.227-.033.454.029.649.141.657.669 1.229 1.338 1.43l5.257 1.376c.634.16 1.127.692 1.309 1.314.027.154.05.346.077.5-.09 4.332.735 8.617 2.341 12.617.293.669.121 1.455-.412 1.987l-.243.21-5.292 3.76c-.762.553-.991 1.601-.558 2.432l.102.16 3.792 6.825c.473.796 1.512 1.138 2.415.748zm43.797-39.18a19.347 19.347 0 012.26 3.364c1.31 2.341 2.068 6.507 1.685 9.143-.06.3-.08.565-.14.865-3.152 17.047-24.549 20.765-33.188 5.44-1.146-1.987-1.86-5.198-1.855-7.862.007-.608.049-1.176.126-1.703.366-2.409 1.097-4.6 2.108-6.467 5.812-10.838 20.729-12.711 29.004-2.78z" fill="#AEC3FF"/><path opacity=".5" d="M212.716 77.208l7.701-3.469c.63-.296 1.38-.165 1.919.256a23.42 23.42 0 002.159 1.642 32.525 32.525 0 004.298 2.523 1.805 1.805 0 011.047 1.79l-.535 8.828a1.765 1.765 0 001.57 1.904l7.967 1.194c.901.142 1.742-.443 1.995-1.3l2.061-7.878c.171-.787.856-1.308 1.695-1.36a31.992 31.992 0 0010.037-2.155c.781-.286 1.674-.03 2.156.653l2.856 4.053c.551.764 1.598.993 2.428.56l6.976-3.941c.157-.065.279-.17.401-.275a1.837 1.837 0 00.379-2.065l-2.579-5.746-.618-1.416a28.601 28.601 0 002.845-3.558 30.128 30.128 0 002.973-5.3c.317-.7.996-1.145 1.751-1.09l7.11.447c.983.072 1.832-.627 1.98-1.606l.904-6.099.244-1.77c.145-.941-.471-1.862-1.402-2.12l-6.559-1.738c-.745-.207-1.305-.857-1.363-1.622a31.934 31.934 0 00-1.284-6.83 2.223 2.223 0 00-.15-.545c-.032-.078-.03-.116-.062-.194a1.791 1.791 0 01.747-1.887l6.535-4.657a.462.462 0 00.203-.176c.611-.564.756-1.505.355-2.257l-3.894-6.984a1.858 1.858 0 00-2.374-.783l-8.018 3.635c-.67.331-1.455.16-2.027-.339-1.209-1.117-2.498-2.2-3.91-3.142a35.436 35.436 0 00-2.251-1.42c-.621-.35-.986-1.063-.933-1.782l.509-8.487c.069-.947-.593-1.756-1.532-1.902l-7.892-1.188a1.893 1.893 0 00-2.116 1.405l-1.636 6.235c-.213.822-.978 1.413-1.812 1.39a33.29 33.29 0 00-9.938 1.325 1.78 1.78 0 01-2.037-.72l-4.201-5.904a1.88 1.88 0 00-2.467-.562l-6.933 3.868c-.832.472-1.175 1.512-.779 2.34l.164.355 3.004 6.69c.327.71.153 1.534-.383 2.103a34.627 34.627 0 00-3.667 4.412c-.596.87-1.116 1.745-1.637 2.62-.349.621-1.022.99-1.702.94l-7.186-.451c-.983-.072-1.872.661-1.98 1.605l-1.267 7.937c-.016.227-.033.454.029.649.141.657.669 1.229 1.338 1.43l5.257 1.376c.634.16 1.127.692 1.309 1.314.027.154.05.346.077.5-.09 4.332.735 8.617 2.341 12.617.293.669.121 1.455-.412 1.987l-.243.21-5.292 3.76c-.762.553-.991 1.601-.558 2.432l.102.16 3.792 6.825c.473.796 1.512 1.138 2.415.748zm43.797-39.18a19.347 19.347 0 012.26 3.364c1.31 2.341 2.068 6.507 1.685 9.143-.06.3-.08.565-.14.865-3.152 17.047-24.549 20.765-33.188 5.44-1.146-1.987-1.86-5.198-1.855-7.862.007-.608.049-1.176.126-1.703.366-2.409 1.097-4.6 2.108-6.467 5.812-10.838 20.729-12.711 29.004-2.78z" fill="#AEC3FF"/><g clip-path="url(#clip0_817_16555)"><path d="M265.188 325.168a4.33 4.33 0 00-.543-.845 2.92 2.92 0 00-.522-.52l-.782-.802-.218.152c-4.021-1.994-12.345.108-20.756 5.591-10.172 6.631-16.715 15.754-14.824 20.587l-.282.216 1.13 1.127c.044.065.109.109.174.174l.022.021c.282.26.608.499.978.672 3.977 2.081 12.389 0 20.909-5.526 10.367-6.739 16.953-16.08 14.714-20.847z" fill="#FFA412"/><path d="M241.149 327.53c10.368-6.74 20.583-8.343 22.822-3.576 2.239 4.768-4.347 14.108-14.714 20.869-10.368 6.74-20.583 8.343-22.822 3.576-2.239-4.79 4.347-14.13 14.714-20.869z" fill="#FFB93E"/><path d="M233.716 349.092c-.847 0-1.608-.087-2.282-.282-1.282-.368-2.195-1.084-2.673-2.124-.935-2.037-.065-5.049 2.434-8.495 2.456-3.359 6.195-6.783 10.52-9.622 6.672-4.334 13.454-6.436 17.279-5.352 1.282.368 2.195 1.083 2.673 2.124.935 2.037.066 5.049-2.434 8.494-2.456 3.359-6.194 6.783-10.52 9.622-5.52 3.576-11.084 5.635-14.997 5.635zm23.018-25.398c-3.761 0-9.281 2.037-14.585 5.504-4.281 2.795-7.933 6.154-10.345 9.448-2.304 3.164-3.174 5.981-2.369 7.737.369.823 1.108 1.408 2.195 1.712.608.173 1.282.26 2.043.26 3.76 0 9.281-2.037 14.584-5.505 4.282-2.817 7.955-6.154 10.346-9.448 2.304-3.164 3.173-5.981 2.369-7.736-.37-.824-1.109-1.409-2.195-1.712-.587-.174-1.283-.26-2.043-.26z" fill="#FFA412"/><path d="M241.041 338.625c.326-.13.608-.303.847-.455.239-.173.478-.368.696-.585.217-.217.413-.477.608-.78.196-.282.37-.629.565-.997a24.07 24.07 0 011.022-1.842c.348-.564.739-1.105 1.174-1.582.434-.499.934-.932 1.478-1.344a10.5 10.5 0 011.956-1.105 7.819 7.819 0 011.739-.542c.521-.086.956-.065 1.325.044.37.108.652.303.87.606.217.282.326.672.348 1.127l2.456-1.062-.131 1.279-2.478 1.084c-.13.52-.369 1.018-.673 1.517a8.17 8.17 0 01-1.196 1.451c-.478.456-1.021.911-1.652 1.322-.63.412-1.325.781-2.086 1.127l.239-2.362c.913-.39 1.608-.845 2.086-1.3.479-.477.739-.932.783-1.387.022-.238 0-.433-.087-.563a.651.651 0 00-.37-.261c-.173-.043-.369-.021-.608.022s-.5.13-.783.26c-.282.13-.543.26-.782.412a3.246 3.246 0 00-.652.563 4.672 4.672 0 00-.609.781c-.195.303-.391.65-.608 1.061a24.25 24.25 0 01-1.065 1.842 12.026 12.026 0 01-1.196 1.582 8.902 8.902 0 01-1.499 1.344c-.565.412-1.196.78-1.935 1.105a7.211 7.211 0 01-1.782.564c-.522.086-.956.065-1.326-.065-.369-.109-.63-.325-.848-.629-.195-.303-.304-.672-.326-1.148l-2.282.996.131-1.3 2.26-.997c.109-.476.304-.997.565-1.517.261-.52.631-1.04 1.109-1.56a9.663 9.663 0 011.695-1.495 12.983 12.983 0 012.391-1.322l-.239 2.362c-.544.238-1 .477-1.37.737-.369.26-.673.52-.912.78a2.73 2.73 0 00-.522.78c-.109.26-.174.499-.196.715-.021.26 0 .455.087.607.087.152.196.26.37.303.152.065.369.065.587.022.282.022.543-.065.826-.195zm30.71 72.749c.123-.297.198-.639.244-.948.034-.231.036-.492.009-.721l.022-1.089-.249-.048c-1.321-4.161-8.403-8.583-17.945-10.804-11.552-2.682-22.411-1.123-24.58 3.468l-.342-.043-.028 1.55c-.012.077.007.153-.004.23l-.013.047c.004.383.07.762.182 1.155 1.2 4.198 8.331 8.693 17.998 10.939 11.755 2.717 22.824 1.055 24.706-3.736z" fill="#FFA412"/><path d="M253.871 396.107c11.771 2.732 19.769 8.822 17.918 13.611-1.882 4.79-12.935 6.466-24.706 3.735-11.771-2.731-19.769-8.821-17.918-13.61 1.882-4.791 12.935-6.467 24.706-3.736z" fill="#FFB93E"/><path d="M233.563 405.418c-.57-.598-1.017-1.203-1.325-1.8-.614-1.163-.7-2.262-.291-3.295.806-2.021 3.537-3.453 7.668-4.01 4.039-.552 8.985-.233 13.896.901 7.576 1.744 13.617 5.086 15.425 8.516.614 1.163.7 2.262.291 3.296-.806 2.02-3.537 3.453-7.668 4.01-4.039.552-8.985.232-13.896-.902-6.251-1.431-11.449-3.959-14.1-6.716zm33.506-.953c-2.523-2.641-7.703-5.125-13.737-6.536-4.848-1.107-9.702-1.431-13.634-.9-3.795.508-6.378 1.811-7.076 3.549-.328.815-.25 1.73.261 2.684.273.538.686 1.083 1.206 1.607 2.523 2.641 7.703 5.124 13.737 6.536 4.848 1.107 9.702 1.431 13.634.9 3.795-.508 6.378-1.811 7.075-3.549.328-.815.251-1.73-.26-2.684-.274-.538-.687-1.083-1.206-1.607z" fill="#FFA412"/><path d="M245.913 403.504a4.484 4.484 0 001.791.38c.293 0 .615-.032.949-.111.321-.063.701-.16 1.096-.273a41.033 41.033 0 012.006-.536 11.943 11.943 0 011.928-.256 9.45 9.45 0 011.949.142c.653.118 1.372.325 2.096.624a6.835 6.835 0 011.569.852c.4.301.694.622.85.967.171.328.219.662.16 1.018-.075.341-.258.673-.565 1.011l2.408.991-1.007.79-2.44-1.02c-.45.238-.979.435-1.544.542a7.243 7.243 0 01-1.826.143 12.951 12.951 0 01-2.047-.259 13.355 13.355 0 01-2.193-.712l1.836-1.446c.897.366 1.678.57 2.341.581.648.026 1.15-.108 1.521-.388.193-.148.308-.308.347-.448.039-.14 0-.291-.069-.441a1.294 1.294 0 00-.421-.406 6.662 6.662 0 00-.713-.376 6.501 6.501 0 00-.814-.264c-.265-.062-.543-.078-.852-.092a4.15 4.15 0 00-.95.111c-.351.065-.731.162-1.157.277a48.45 48.45 0 01-2.008.505c-.64.126-1.283.221-1.944.241-.645.034-1.295-.023-1.963-.125a10.488 10.488 0 01-2.096-.625c-.661-.271-1.185-.565-1.601-.88a2.922 2.922 0 01-.851-.967 1.36 1.36 0 01-.113-1.006c.075-.341.289-.674.581-.997l-2.235-.923 1.008-.79 2.234.924c.42-.237.902-.446 1.464-.614a7.131 7.131 0 011.834-.282c.676-.036 1.42.047 2.212.174.794.157 1.654.403 2.551.769l-1.837 1.447c-.535-.217-1.005-.376-1.456-.46a4.213 4.213 0 00-1.161-.106 3.221 3.221 0 00-.901.155c-.258.09-.467.224-.645.356a1.103 1.103 0 00-.376.48.592.592 0 00.024.458c.069.15.2.296.392.439.132.177.37.303.638.426zm13.581-49.081c.152-.303.326-.607.543-.867.152-.195.326-.368.522-.541l.804-.802.217.151c4.065-1.993 12.476.109 20.974 5.657 10.281 6.696 16.867 15.906 14.976 20.782l.282.216-1.152 1.127-.173.174-.022.021a5.34 5.34 0 01-.978.694c-4.021 2.102-12.52 0-21.105-5.591-10.498-6.783-17.149-16.21-14.888-21.021z" fill="#FFA412"/><path d="M283.772 356.807c-10.477-6.804-20.779-8.43-23.039-3.619-2.261 4.811 4.39 14.238 14.845 21.064 10.476 6.805 20.778 8.43 23.039 3.619 2.26-4.811-4.391-14.259-14.845-21.064z" fill="#FFB93E"/><path d="M276.143 372.887c-4.391-2.86-8.151-6.306-10.629-9.708-2.521-3.489-3.412-6.523-2.456-8.582.478-1.04 1.391-1.755 2.695-2.145 3.869-1.105 10.716 1.018 17.432 5.396 4.39 2.86 8.15 6.306 10.628 9.708 2.521 3.489 3.413 6.523 2.456 8.582-.478 1.04-1.391 1.755-2.695 2.145-.674.195-1.456.282-2.304.282-3.956.022-9.585-2.059-15.127-5.678zm-10.172-19.677c-1.087.304-1.826.889-2.217 1.734-.804 1.755.065 4.616 2.391 7.801 2.412 3.316 6.129 6.697 10.432 9.514 5.369 3.511 10.933 5.569 14.737 5.569.76 0 1.456-.086 2.064-.26 1.087-.303 1.826-.888 2.217-1.733.805-1.756-.065-4.616-2.39-7.802-2.413-3.316-6.13-6.696-10.433-9.513-5.369-3.511-10.933-5.57-14.736-5.57-.761 0-1.457.087-2.065.26z" fill="#FFA412"/><path d="M284.663 368.271c.239.043.434.022.608-.022a.645.645 0 00.37-.303c.087-.152.108-.368.087-.628a2.362 2.362 0 00-.196-.716 2.708 2.708 0 00-.522-.78 5.722 5.722 0 00-.912-.802c-.37-.26-.826-.52-1.391-.758l-.24-2.384c.913.412 1.717.845 2.413 1.344.674.498 1.261.997 1.717 1.517.456.52.826 1.04 1.109 1.582.282.52.456 1.04.586 1.517l2.283.996.13 1.322-2.304-.996c-.022.476-.13.845-.326 1.148a1.48 1.48 0 01-.848.629c-.369.108-.804.13-1.325.065a7.372 7.372 0 01-1.804-.564 10.486 10.486 0 01-1.957-1.105 9.053 9.053 0 01-1.499-1.365 12.376 12.376 0 01-1.196-1.604c-.347-.585-.717-1.192-1.065-1.864a14.599 14.599 0 00-.608-1.062 4.703 4.703 0 00-.609-.78 4.076 4.076 0 00-.674-.563 4.426 4.426 0 00-.782-.412 3.288 3.288 0 00-.783-.26c-.239-.043-.456-.065-.608-.022a.635.635 0 00-.391.26c-.087.13-.109.326-.087.564.043.455.304.932.804 1.408.478.477 1.195.911 2.108 1.322l.239 2.384c-.76-.347-1.478-.715-2.108-1.127a11.85 11.85 0 01-1.674-1.322c-.478-.476-.891-.953-1.195-1.473a6.057 6.057 0 01-.696-1.539l-2.499-1.105-.13-1.322 2.477 1.084c.022-.477.131-.846.348-1.127.217-.282.5-.499.869-.607.37-.108.826-.13 1.348-.043.522.086 1.108.26 1.761.541.76.325 1.412.694 1.977 1.106a8.973 8.973 0 011.5 1.365c.435.498.826 1.018 1.196 1.603.347.586.695 1.192 1.043 1.864.195.39.391.715.565 1.019.196.281.391.541.608.78.218.216.457.433.696.585.261.173.543.325.869.455.218.065.479.152.718.195z" fill="#FFA412"/><g clip-path="url(#clip1_817_16555)"><path d="M293.716 434.655c.306.183.612.365.917.527.102.061.204.122.326.162.245.122.489.244.713.365 11.615 5.676 25.796 1.318 32.113-10.075 6.031-10.866 2.791-24.346-7.091-31.421a22.211 22.211 0 00-2.486-1.561c-.306-.162-.632-.345-.937-.487a7.76 7.76 0 00-.938-.425 22.9 22.9 0 00-2.913-1.075 23.81 23.81 0 00-4.422-.892 24.474 24.474 0 00-13.326 2.352 24.245 24.245 0 00-10.636 10.095c-6.337 11.434-2.425 25.725 8.68 32.435z" fill="#FFB93E"/><path d="M295.55 433.5c-10.697-5.859-14.609-19.319-8.7-29.962 5.909-10.663 19.418-14.555 30.135-8.676 10.718 5.879 14.63 19.319 8.721 29.982-4.034 7.277-11.634 11.413-19.459 11.413a22.358 22.358 0 01-10.697-2.757zm-7.641-29.374c-5.583 10.055-1.874 22.765 8.232 28.32 10.127 5.554 22.882 1.865 28.465-8.19 5.583-10.075 1.875-22.765-8.232-28.32a20.81 20.81 0 00-10.065-2.595c-7.397 0-14.59 3.893-18.4 10.785z" fill="#FFA412"/><path d="M294.98 419.005c.02.872.224 1.703.591 2.473.02.061.061.122.081.183a7.385 7.385 0 001.549 2.006c.713.669 1.569 1.257 2.547 1.764l-1.284 3.163 2.73 1.094 1.284-3.142c.998.284 1.997.446 3.016.487a7.952 7.952 0 002.934-.426 6.898 6.898 0 002.567-1.602c.795-.75 1.447-1.743 1.956-3.02l-4.972-2.007c-.305.75-.672 1.338-1.079 1.764a3.278 3.278 0 01-1.345.871 3.29 3.29 0 01-1.467.142 5.208 5.208 0 01-1.467-.385 5.986 5.986 0 01-1.345-.77 3.293 3.293 0 01-.795-.994 2.425 2.425 0 01-.265-1.115c0-.385.082-.77.245-1.175.183-.446.407-.811.672-1.095.265-.284.591-.507.999-.669a4.794 4.794 0 011.426-.304c.55-.061 1.202-.061 1.936-.02 1.283.061 2.465.061 3.565 0a11.662 11.662 0 002.955-.527 6.67 6.67 0 002.323-1.359c.672-.608 1.222-1.419 1.63-2.473.367-.892.55-1.784.53-2.655a5.913 5.913 0 00-.591-2.494c-.367-.79-.897-1.52-1.59-2.209-.692-.69-1.528-1.278-2.526-1.784l1.385-3.406-2.75-1.115-1.406 3.446c-1.04-.263-2.038-.365-2.996-.304a7.317 7.317 0 00-2.669.689 7.312 7.312 0 00-2.2 1.703c-.652.73-1.203 1.622-1.63 2.676l4.971 2.007c.51-1.277 1.182-2.108 2.017-2.514.815-.405 1.712-.405 2.67-.02.509.203.937.466 1.243.75.305.284.55.608.672.953.143.345.204.709.183 1.095-.02.385-.122.77-.285 1.175-.163.386-.367.73-.611.994a2.758 2.758 0 01-.958.648c-.387.163-.876.264-1.426.304-.571.061-1.243.061-2.038.041a40.1 40.1 0 00-3.545.041c-1.08.06-2.078.243-2.955.547-.876.304-1.67.75-2.322 1.358-.591.527-1.08 1.237-1.488 2.108a2.52 2.52 0 00-.143.345c-.387.973-.55 1.885-.529 2.757z" fill="#FFA412"/></g></g><defs><clipPath id="clip0_817_16555"><path fill="#fff" transform="translate(226 321.202)" d="M0 0h112v117H0z"/></clipPath><clipPath id="clip1_817_16555"><path fill="#fff" transform="translate(282 389.651)" d="M0 0h48.8v48.551H0z"/></clipPath><linearGradient id="paint0_linear_817_16555" x1="166.982" y1="68.688" x2="276.365" y2="536.27" gradientUnits="userSpaceOnUse"><stop stop-color="#3598DF"/><stop offset="1" stop-color="#227FC1" stop-opacity="0"/></linearGradient></defs></svg>