<svg xmlns="http://www.w3.org/2000/svg" fill="none" viewBox="92.03 54.6 306.93 454.79"><path d="M388.574 164.021l-.389-.095 10.04-41.166c3.332-13.664-5.085-27.438-18.77-30.776L229.169 55.33c-13.686-3.337-27.5 5.015-30.832 18.679l-10.04 41.166-.39-.095a3.313 3.313 0 00-4.017 2.434l-6.944 28.473a3.313 3.313 0 002.446 4.01l.389.095-1.657 6.793-.389-.095a3.314 3.314 0 00-4.018 2.434l-6.944 28.473a3.314 3.314 0 002.446 4.01l.389.095-60.833 249.424c-3.327 13.645 5.066 27.434 18.771 30.776l150.286 36.654c13.685 3.338 27.499-5.015 30.831-18.678l66.741-273.648.389.095a3.314 3.314 0 004.018-2.433l11.209-45.961a3.314 3.314 0 00-2.446-4.01z" fill="#333343"/><path d="M276.743 501.955l-145.146-35.401c-11.116-2.711-17.937-13.895-15.234-24.978l88.861-364.345c2.702-11.082 13.907-17.87 25.023-15.16l145.166 35.405c11.116 2.711 17.937 13.896 15.234 24.978L301.791 486.78c-2.707 11.102-13.912 17.89-25.048 15.175z" fill="url(#paint0_linear_650_1651)" style="mix-blend-mode:color-dodge"/><path d="M309.354 455.666c12.054-154.38-83.151-251.723-127.944-280.442l24.108-100.987c2.575-10.789 13.438-17.421 24.212-14.782l148.019 36.261c10.616 2.601 17.179 13.216 14.655 23.85-16.238 68.426-53.085 216.257-83.05 336.1z" fill="#fff" fill-opacity=".2"/><rect x="238.863" y="344.669" width="83.262" height="36.585" rx="4" transform="rotate(13.706 238.863 344.669)" fill="#C8CFE2"/><path stroke="#fff" stroke-width="2" d="M278.386 363.982l30.66 7.477m-38.949-4.661l37.836 9.228m-39.603-4.821l38.489 9.387m-20.509 1.91l18.918 4.614"/><circle cx="251.538" cy="367.238" r="10.092" transform="rotate(13.706 251.538 367.238)" fill="#fff"/><rect x="163.022" y="85.944" width="194.278" height="75.693" rx="10" transform="rotate(13.706 163.022 85.944)" fill="#07C"/><path stroke="#fff" stroke-width="2" d="M207.531 121.74l115.209 28.099m-144.265-26.096l142.172 34.675m-146.715-26.692l144.623 35.272M171.54 141.53l144.624 35.273"/><rect x="188.643" y="284.375" width="112.278" height="29.015" rx="4" transform="rotate(13.706 188.643 284.375)" fill="#07C"/><path stroke="#fff" stroke-width="2" d="M215.71 299.551l66.581 16.239m-83.374-15.082l82.164 20.039m-84.79-15.426l83.581 20.385"/><rect x="108.468" y="176.521" width="156.432" height="69.385" rx="10" transform="rotate(13.706 108.468 176.521)" fill="#C8CFE2"/><path stroke="#fff" stroke-width="2" d="M182.361 214.291l57.604 14.049m-73.178-8.758l71.086 17.337m-74.403-9.057l72.311 17.637m-38.532 3.587l35.543 8.669"/><circle cx="133.19" cy="218.91" r="18.923" transform="rotate(13.706 133.19 218.91)" fill="#fff"/><rect x="108.468" y="376" width="156.432" height="69.385" rx="10" transform="rotate(13.706 108.468 376)" fill="#2F82FF"/><path stroke="#fff" stroke-width="2" d="M134.118 403.615l57.604 14.05m-73.178-8.759l71.086 17.338m-74.404-9.057l72.312 17.636m-38.532 3.587l35.543 8.669"/><circle cx="223.868" cy="439.868" r="18.923" transform="rotate(13.706 223.868 439.868)" fill="#fff"/><defs><linearGradient id="paint0_linear_650_1651" x1="302.83" y1="79.774" x2="155.294" y2="663.109" gradientUnits="userSpaceOnUse"><stop stop-color="#3598DF"/><stop offset="1" stop-color="#227FC1" stop-opacity="0"/></linearGradient></defs></svg>