<svg width="98" height="98" fill="none" xmlns="http://www.w3.org/2000/svg"><g clip-path="url(#clip0_812_6494)"><path d="M49 74.29c13.968 0 25.29-11.323 25.29-25.29 0-13.968-11.323-25.29-25.29-25.29-13.967 0-25.29 11.322-25.29 25.29 0 13.967 11.323 25.29 25.29 25.29z" fill="#2F82FF"/><path d="M49 14.226c-19.175 0-34.774 15.599-34.774 34.774S29.826 83.774 49 83.774c19.175 0 34.774-15.6 34.774-34.774 0-19.175-15.6-34.774-34.774-34.774zm0 66.387C31.569 80.613 17.387 66.43 17.387 49c0-17.432 14.182-31.613 31.613-31.613 17.431 0 31.613 14.181 31.613 31.613 0 17.43-14.183 31.613-31.613 31.613z" fill="#333"/><path d="M47.42 47.42H26.87v3.16h23.71V26.872h-3.16V47.42zM49 23.71a1.58 1.58 0 100-3.162 1.58 1.58 0 000 3.162zm0 53.742a1.58 1.58 0 100-3.162 1.58 1.58 0 000 3.162zM75.87 50.58a1.58 1.58 0 10.001-3.16 1.58 1.58 0 000 3.16zm-53.741 0a1.58 1.58 0 100-3.16 1.58 1.58 0 000 3.16z" fill="#333"/><path d="M11.177 67.381l-1.827 4.57A45.554 45.554 0 013.16 49C3.161 23.726 23.725 3.161 49 3.161a45.946 45.946 0 0128.807 10.192l1.989-2.458A49.12 49.12 0 0049 0C21.98 0 0 21.98 0 49c0 8.74 2.327 17.213 6.722 24.707l-4.832-.966-.62 3.098 9.192 1.839 3.652-9.124-2.937-1.173zm3.049 14.813a1.58 1.58 0 100-3.162 1.58 1.58 0 000 3.162zm77.052-57.901l4.832.966.62-3.1-9.19-1.838-3.652 9.123 2.935 1.173 1.828-4.57A45.563 45.563 0 0194.838 49c0 25.275-20.564 45.839-45.839 45.839a45.945 45.945 0 01-28.807-10.192l-1.989 2.458A49.12 49.12 0 0049 98c27.02 0 49-21.98 49-49 0-8.74-2.327-17.213-6.722-24.707zm-7.504-5.325a1.58 1.58 0 100-3.161 1.58 1.58 0 000 3.16z" fill="#333"/></g><defs><clipPath id="clip0_812_6494"><path fill="#fff" d="M0 0h98v98H0z"/></clipPath></defs></svg>