<svg width="155" height="155" fill="none" xmlns="http://www.w3.org/2000/svg"><g clip-path="url(#clip0_650_1461)"><path d="M77.5 45C65.095 45 55 34.907 55 22.5 55 10.092 65.095 0 77.5 0S100 10.092 100 22.5C100 34.907 89.905 45 77.5 45zm0 110C65.095 155 55 144.907 55 132.5S65.095 110 77.5 110s22.5 10.093 22.5 22.5S89.905 155 77.5 155zm35-45c-6.892 0-12.5-5.608-12.5-12.5S105.608 85 112.5 85 125 90.608 125 97.5s-5.608 12.5-12.5 12.5zm-70 0c-6.892 0-12.5-5.608-12.5-12.5S35.608 85 42.5 85 55 90.608 55 97.5 49.392 110 42.5 110z" fill="#2F82FF"/><path d="M80 30h-5c-1.377 0-2.5-1.12-2.5-2.5h-5c0 4.135 3.365 7.5 7.5 7.5v5h5v-5c4.135 0 7.5-3.365 7.5-7.5S84.135 20 80 20h-5c-1.377 0-2.5-1.12-2.5-2.5S73.623 15 75 15h5c1.377 0 2.5 1.12 2.5 2.5h5c0-4.135-3.365-7.5-7.5-7.5V5h-5v5c-4.135 0-7.5 3.365-7.5 7.5S70.865 25 75 25h5c1.377 0 2.5 1.12 2.5 2.5S81.377 30 80 30zm-5 95h5c1.377 0 2.5 1.12 2.5 2.5h5c0-4.135-3.365-7.5-7.5-7.5v-5h-5v5c-4.135 0-7.5 3.365-7.5 7.5s3.365 7.5 7.5 7.5h5c1.377 0 2.5 1.12 2.5 2.5S81.377 140 80 140h-5c-1.377 0-2.5-1.12-2.5-2.5h-5c0 4.135 3.365 7.5 7.5 7.5v5h5v-5c4.135 0 7.5-3.365 7.5-7.5S84.135 130 80 130h-5c-1.377 0-2.5-1.12-2.5-2.5s1.123-2.5 2.5-2.5zm80-47.5c0-6.17-.833-12.283-2.475-18.173l-4.818 1.343A62.555 62.555 0 01150 77.5c0 23.39-12.895 44.64-33.655 55.462l-3.783 1.97 18.57 12.16 2.74-4.185-11.555-7.562C142.58 123.152 155 101.357 155 77.5zm-17.5-30c0 4.135 3.365 7.5 7.5 7.5s7.5-3.365 7.5-7.5-3.365-7.5-7.5-7.5-7.5 3.365-7.5 7.5zM145 45c1.377 0 2.5 1.12 2.5 2.5S146.377 50 145 50s-2.5-1.12-2.5-2.5 1.123-2.5 2.5-2.5zm-12.5-7.5c4.135 0 7.5-3.365 7.5-7.5s-3.365-7.5-7.5-7.5-7.5 3.365-7.5 7.5 3.365 7.5 7.5 7.5zm0-10c1.377 0 2.5 1.12 2.5 2.5s-1.123 2.5-2.5 2.5c-1.378 0-2.5-1.12-2.5-2.5s1.122-2.5 2.5-2.5zM5 77.5c0-23.39 12.895-44.64 33.655-55.463l3.782-1.97L23.87 7.907l-2.74 4.185 11.555 7.563C12.42 31.847 0 53.642 0 77.5c0 6.17.833 12.282 2.475 18.172l4.818-1.342A62.574 62.574 0 015 77.5zm12.5 30c0-4.135-3.365-7.5-7.5-7.5s-7.5 3.365-7.5 7.5S5.865 115 10 115s7.5-3.365 7.5-7.5zM10 110c-1.377 0-2.5-1.12-2.5-2.5S8.623 105 10 105s2.5 1.12 2.5 2.5-1.123 2.5-2.5 2.5zm12.5 7.5c-4.135 0-7.5 3.365-7.5 7.5s3.365 7.5 7.5 7.5 7.5-3.365 7.5-7.5-3.365-7.5-7.5-7.5zm0 10c-1.378 0-2.5-1.12-2.5-2.5s1.122-2.5 2.5-2.5 2.5 1.12 2.5 2.5-1.122 2.5-2.5 2.5zM54.748 100c-.38 1.857-1.206 3.54-2.31 5h50.127c-1.105-1.46-1.932-3.143-2.31-5H54.748zm0-5h45.505c.38-1.858 1.205-3.54 2.31-5H52.435c1.108 1.46 1.933 3.142 2.313 5z" fill="#2D2F35"/><path d="M76.72 55h12.785c13.585 0 25.38 9.668 28.045 22.99l.4 2.01h4.55c4.135 0 7.5 3.365 7.5 7.5V90h-7.565c1.105 1.46 1.932 3.142 2.31 5H130v2.5c0 1.38-1.123 2.5-2.5 2.5h-2.753c-.38 1.857-1.205 3.54-2.31 5h5.063c4.135 0 7.5-3.365 7.5-7.5v-10c0-6.892-5.608-12.5-12.5-12.5h-.515c-3.868-14.605-17.213-25-32.48-25H76.72c-12.81 0-24.322 7.117-30.053 18.573l-.857 1.717-15.763 3.152C24.226 74.605 20 79.76 20 85.698V97.5c0 4.135 3.365 7.5 7.5 7.5h5.065c-1.105-1.46-1.932-3.143-2.31-5H27.5c-1.378 0-2.5-1.12-2.5-2.5V95h5.253c.38-1.858 1.204-3.54 2.31-5H25v-4.302a7.517 7.517 0 016.03-7.355l18.16-3.63 1.953-3.905C56.017 61.058 65.816 55 76.72 55z" fill="#2D2F35"/><path d="M112.5 100a2.5 2.5 0 100-5 2.5 2.5 0 000 5zm-70 0a2.5 2.5 0 100-5 2.5 2.5 0 000 5zm50-40H74.71a17.416 17.416 0 00-13.665 6.567L55 74.123V80h55v-2.5c0-9.647-7.85-17.5-17.5-17.5zm-27.552 9.692A12.44 12.44 0 0174.71 65h7.79v10H60.703l4.245-5.308zM87.5 75V65h5c6.037 0 11.087 4.302 12.247 10H87.5z" fill="#2D2F35"/></g><defs><clipPath id="clip0_650_1461"><path fill="#fff" d="M0 0h155v155H0z"/></clipPath></defs></svg>