<svg width="45" height="45" fill="none" xmlns="http://www.w3.org/2000/svg"><g clip-path="url(#clip0_812_13560)"><path d="M2.903 11.613h16.694v13.065H2.903V11.613zm26.855 13.151l-.324-.163a11.167 11.167 0 01-6.208-10.044v-3.225l2.55.852c1.084.36 2.315.07 3.123-.738l.859-.86.859.86a3.078 3.078 0 003.122.737l2.551-.851v3.224c0 4.281-2.378 8.13-6.208 10.045l-.324.163z" fill="#2F82FF"/><path d="M29.758 20.623l-2.69-2.69 1.025-1.026 1.665 1.664 8.922-8.923 1.026 1.027-9.948 9.948zM24.677 36.29h7.984v1.452h-7.984V36.29z" fill="#494D58"/><path d="M29.032 43.548H1.452V10.161h8.709v-8.71h18.871v9.861l.726-.725.726.725V0H9.134L0 9.135V45h30.484v-8.075h-1.452v6.623zM2.478 8.71l6.231-6.232V8.71H2.478z" fill="#494D58"/><path d="M43.13 29.587l-3.22-.46a.732.732 0 01-.487-.296l-2.4-3.36a3.633 3.633 0 00-2.953-1.52h-9.29a3.62 3.62 0 00-3.02 1.617l-1.751 2.626a.725.725 0 01-.395.293l-5.723 1.716a2.165 2.165 0 00-1.553 2.086v3.275c0 1.2.978 2.178 2.178 2.178h4.355V36.29h-4.355a.727.727 0 01-.726-.726V32.29c0-.323.208-.602.517-.695l5.723-1.717A2.18 2.18 0 0021.216 29l1.751-2.627a2.173 2.173 0 011.813-.97h9.29c.703 0 1.364.342 1.772.912l2.4 3.361a2.19 2.19 0 001.464.89l3.22.46c.354.05.622.359.622.717v3.822c0 .4-.326.726-.726.726h-4.355v1.452h4.355A2.18 2.18 0 0045 35.564v-3.822a2.187 2.187 0 00-1.87-2.155z" fill="#494D58"/><path d="M24.228 26.855l-2.177 4.354h14.688l-2.178-4.354H24.228zm.172 2.903l.726-1.452h8.538l.726 1.452H24.4zM18.87 5.807h1.452v1.451h-1.451V5.807zm2.904 0h1.451v1.451h-1.451V5.807zm-5.807 0h1.452v1.451h-1.452V5.807zM2.903 11.613h16.694v1.452H2.903v-1.452zm0 5.806h16.694v1.452H2.903v-1.452z" fill="#494D58"/><path d="M21.774 40.645a3.633 3.633 0 01-3.629-3.63 3.633 3.633 0 013.63-3.628c2 0 3.628 1.628 3.628 3.629 0 2-1.628 3.629-3.629 3.629z" fill="#2F82FF"/><path d="M21.048 36.29H22.5v1.452h-1.452V36.29z" fill="#494D58"/><path d="M35.564 40.645c-2 0-3.629-1.628-3.629-3.63a3.633 3.633 0 013.63-3.628 3.633 3.633 0 013.628 3.629c0 2-1.628 3.629-3.629 3.629z" fill="#2F82FF"/><path d="M34.838 36.29h1.452v1.452h-1.452V36.29zM13.064 14.517h6.532v1.451h-6.532v-1.451zm-10.161 0h8.71v1.451h-8.71v-1.451zm0 5.805h16.694v1.452H2.903v-1.452zm0 2.904h16.694v1.451H2.903v-1.451zm13.065 18.871h-1.452c-1.109 0-1.586-1.09-1.934-1.887-.133-.304-.444-1.016-.604-1.016-.16 0-.471.712-.604 1.016-.349.796-.825 1.887-1.935 1.887s-1.587-1.09-1.936-1.886c-.133-.305-.445-1.017-.606-1.017-.161 0-.473.712-.606 1.017-.349.796-.827 1.886-1.936 1.886H2.903v-1.452h1.452c.16 0 .473-.712.606-1.016.349-.797.827-1.887 1.936-1.887 1.11 0 1.587 1.09 1.936 1.887.133.304.446 1.016.607 1.016.16 0 .47-.712.604-1.016.348-.797.825-1.887 1.934-1.887 1.11 0 1.587 1.091 1.935 1.887.133.304.443 1.016.603 1.016h1.452v1.452zm1.452-1.452h1.45v1.452h-1.45v-1.452zm10.16-30.484H11.613V2.903H27.58v7.258zM13.064 8.71H26.13V4.355H13.064V8.71z" fill="#494D58"/></g><defs><clipPath id="clip0_812_13560"><path fill="#fff" d="M0 0h45v45H0z"/></clipPath></defs></svg>