<svg width="98" height="98" fill="none" xmlns="http://www.w3.org/2000/svg"><g clip-path="url(#clip0_812_6414)"><path d="M15.806 6.323h41.097V26.87H15.806V6.323z" fill="#2F82FF"/><path d="M15.806 6.323h3.162v3.161h-3.162V6.323zm6.324 0h34.773v3.161H22.13V6.323zM15.806 16h41.097v3.161H15.806V16zm0 9.29h41.097v3.162H15.806V25.29z" fill="#000"/><path d="M63.226 10.538V0H9.484v10.538L0 23.183v46.365h49.475v-3.16H6.008L25.912 50.1a16.704 16.704 0 0010.443 3.64c3.841 0 7.48-1.286 10.443-3.64l8.371 6.85 2.001-2.446-8.031-6.57 20.41-20.41V49.08h3.16V23.183l-9.483-12.645zm5.817 13.023l-5.817 5.817V15.806l5.817 7.755zM23.57 47.935L3.16 64.633V27.526l20.41 20.409zM9.484 29.378L3.667 23.56l5.817-7.755v13.572zM26.68 46.572L12.645 32.539V3.161h47.42V32.54L46.03 46.574a13.593 13.593 0 01-9.675 4.007c-3.655 0-7.09-1.423-9.675-4.01z" fill="#000"/><path d="M72.71 98c-13.944 0-25.29-11.346-25.29-25.29 0-13.944 11.346-25.29 25.29-25.29C86.654 47.42 98 58.765 98 72.71 98 86.654 86.654 98 72.71 98z" fill="#2F82FF"/><path d="M72.5 65c-3.584 0-6.5 2.871-6.5 6.4v3.2c0 3.529 2.916 6.4 6.5 6.4h2.438v-1.6H72.5c-2.689 0-4.875-2.153-4.875-4.8v-3.2c0-2.647 2.186-4.8 4.875-4.8s4.875 2.153 4.875 4.8V77c0 .44-.364.8-.813.8a.807.807 0 01-.812-.8v-5.6c0-1.765-1.458-3.2-3.25-3.2s-3.25 1.435-3.25 3.2v3.2c0 1.765 1.458 3.2 3.25 3.2.609 0 1.172-.176 1.66-.463a2.422 2.422 0 002.403 2.063C77.906 79.4 79 78.323 79 77v-5.6c0-3.529-2.916-6.4-6.5-6.4zm0 11.2c-.896 0-1.625-.718-1.625-1.6v-3.2c0-.882.729-1.6 1.625-1.6s1.625.718 1.625 1.6v3.2c0 .882-.729 1.6-1.625 1.6zm16.016-5.071h3.161v3.161h-3.16v-3.16zm-34.774 0h3.161v3.161h-3.161v-3.16z" fill="#000"/></g><defs><clipPath id="clip0_812_6414"><path fill="#fff" d="M0 0h98v98H0z"/></clipPath></defs></svg>