<svg width="149" height="42" fill="none" xmlns="http://www.w3.org/2000/svg"><path d="M57.774 25.1h.373l2.773-10.132.64-3.147h5.12l.426 2.827 2.347 10.399h.32l2.72-10.08.64-3.146h4.479l-5.813 18.612h-4.96l-2.88-11.946h-.373l-3.253 11.946h-5.28L50.255 11.98l4.8-.266.426 2.933L57.774 25.1zm33.621-6.24c0-1.955-.836-2.932-2.507-2.932-1.208 0-2.488.568-3.84 1.706v4.64l.267 8.159h-5.332l.266-7.68-.213-10.558 5.066-.427v2.72h.267c1.529-1.351 3.128-2.311 4.8-2.88 2.026 0 3.555.462 4.586 1.386 1.066.925 1.582 2.24 1.546 3.947l-.107 5.333.214 8.159h-5.333l.32-11.572zm13.275 2.987c.213 3.377 1.849 5.066 4.906 5.066 1.742 0 3.538-.498 5.386-1.493l.427.32-.693 3.893c-1.849.782-3.715 1.19-5.6 1.226-2.95 0-5.244-.853-6.879-2.56-1.635-1.706-2.453-4.052-2.453-7.039 0-3.022.818-5.386 2.453-7.092 1.671-1.742 3.786-2.613 6.346-2.613s4.462.657 5.706 1.973c1.28 1.28 1.92 3.057 1.92 5.333 0 .71-.053 1.44-.16 2.186l-.8.747-10.559.053zm4.053-6.826c-1.031 0-1.902.338-2.613 1.013-.675.676-1.12 1.636-1.333 2.88l6.719-.213.107-.427c-.036-2.169-.996-3.253-2.88-3.253zm21.285-3.2c.249.036.587.071 1.014.107v4.853l-.534.213a4.125 4.125 0 00-1.493-.267c-1.529 0-2.933.978-4.213 2.934v2.613l.32 8.159h-5.333l.267-7.68-.213-10.558 5.066-.427-.053 3.68h.32c1.279-2.382 2.897-3.591 4.852-3.627z" fill="#fff"/><path d="M140.202 25.047h.266l3.253-9.866.693-3.36h4.587l-6.026 17.332c-.854 2.524-2.027 4.444-3.52 5.76-1.493 1.35-3.609 2.417-6.346 3.2l-.373-.054c-.96-.853-1.742-1.92-2.347-3.2l.16-.533c3.093-.534 5.564-1.831 7.413-3.893l-6.826-18.452 5.119-.266.587 2.986 3.36 10.346z" fill="#fff"/><path class="logo-o" fill="#fff" d="M.906 26.544c.633 2.032 1.536 3.948 2.79 5.704.045.2.182.34.332.47l.006.011c.407.629.905 1.188 1.416 1.74l.014.01a17.52 17.52 0 001.956 1.905c.167.142.266.377.53.399l.511.4c.122.239.38.314.583.462 4.995 3.49 10.55 4.805 16.666 3.944a20.599 20.599 0 006.394-1.997c.846-.307 1.582-.803 2.321-1.277l.012-.008c.666-.35 1.232-.828 1.826-1.273.005 0 .01-.004.014-.012l.65-.545.825-.743c.25-.155.399-.4.583-.616l.012-.009c.199-.118.362-.283.475-.48l.273-.319.07-.09a.787.787 0 01-.07.09c.315-.24.5-.58.744-.873.284-.315.573-.626.761-1.007l.841-1.298c.075-.139.148-.28.227-.417a20.34 20.34 0 002.042-5.023c.943-3.588.89-7.35-.153-10.911-.487-1.696-1.166-3.32-2.12-4.83a2.773 2.773 0 00-.594-.958 1.853 1.853 0 00-.51-.719.826.826 0 00-.24-.32l-.417-.558-.75-.879c-.676-.68-1.34-1.373-2.08-1.996l-.245-.16c-.094-.208-.32-.29-.49-.4-.387-.239-.656-.63-1.11-.777-.09-.061-.175-.13-.27-.183a14.61 14.61 0 00-6.171-1.826c-2.66-.182-5.209.218-7.63 1.334a13.856 13.856 0 00-4.58 3.354 12.545 12.545 0 00-2.53 3.987c.885-.623 1.866-1.06 2.81-1.553 1.327-.474 2.673-.87 4.09-1.001 3.977-.366 7.544.618 10.574 3.115 4.393 3.616 5.972 9.32 4.016 14.562-1.523 4.083-4.454 6.868-8.76 8.282-2.65.869-5.337.944-8.012.195-4.73-1.326-7.909-4.253-9.45-8.75-1.348-3.938-1.285-7.944-.411-11.963a25.713 25.713 0 012.355-6.444c.083-.136.179-.267.258-.406.887-1.556 1.95-2.985 3.262-4.242.616-.59 1.308-1.088 1.959-1.645-.472.109-.937.228-1.394.374-1.831.583-3.533 1.426-5.152 2.425-.4.246-.837.457-1.121.847l-.144.086c-.302.122-.53.338-.764.549-.233.226-.557.36-.725.654l-.175.16c-.286.148-.495.375-.686.619l-.08.076c-1.023.888-1.802 1.97-2.595 3.04-.166.192-.3.407-.397.638-.234.202-.334.487-.478.74C1.17 13.026.23 16.039.04 19.26a20.27 20.27 0 00.865 7.285z"/></svg>