<svg width="84" height="24" fill="none" xmlns="http://www.w3.org/2000/svg"><path d="M32.305 14.223h.211l1.572-5.741.362-1.783h2.901l.242 1.601 1.33 5.893h.181l1.541-5.711.363-1.783h2.538l-3.294 10.546h-2.81l-1.632-6.769h-.21l-1.844 6.77h-2.991l-2.72-10.457 2.72-.15.241 1.661 1.3 5.923zm19.052-3.535c0-1.108-.474-1.662-1.42-1.662-.685 0-1.41.322-2.176.967v2.629l.15 4.623H44.89l.151-4.351-.12-5.984 2.87-.242V8.21h.151c.866-.766 1.773-1.31 2.72-1.632 1.148 0 2.014.262 2.599.786.604.523.896 1.269.876 2.236l-.06 3.022.12 4.623h-3.021l.18-6.557zm7.523 1.692c.12 1.914 1.047 2.87 2.78 2.87.987 0 2.004-.281 3.052-.845l.242.18-.393 2.207a8.5 8.5 0 01-3.173.695c-1.672 0-2.972-.483-3.898-1.45-.927-.968-1.39-2.297-1.39-3.99 0-1.712.463-3.052 1.39-4.019.946-.987 2.145-1.48 3.596-1.48 1.45 0 2.528.372 3.233 1.118.725.725 1.088 1.732 1.088 3.022 0 .403-.03.816-.09 1.239l-.454.423-5.983.03zm2.296-3.868c-.584 0-1.078.191-1.48.574-.383.383-.635.927-.756 1.632l3.808-.121.06-.242c-.02-1.229-.564-1.843-1.632-1.843zm12.062-1.813c.14.02.332.04.574.06v2.75l-.302.121a2.337 2.337 0 00-.846-.151c-.867 0-1.662.554-2.388 1.662v1.48l.182 4.624h-3.022l.15-4.351-.12-5.984 2.87-.242-.03 2.086h.182c.725-1.35 1.642-2.035 2.75-2.055z" fill="#242424"/><path d="M79.014 14.193h.151l1.843-5.59.393-1.904h2.6l-3.416 9.821c-.483 1.43-1.148 2.518-1.994 3.264-.846.765-2.045 1.37-3.596 1.813l-.212-.03a5.57 5.57 0 01-1.33-1.814l.091-.302c1.753-.302 3.153-1.037 4.2-2.206L73.878 6.79l2.9-.15.333 1.692 1.904 5.862zm-78.501.848c.36 1.152.87 2.238 1.581 3.233.026.113.104.192.189.266l.003.007c.23.356.513.672.802.985l.008.006c.34.387.71.748 1.109 1.08.094.08.15.213.3.226l.29.226c.069.136.215.178.33.262 2.83 1.978 5.979 2.723 9.444 2.235 1.266-.178 2.49-.56 3.623-1.131.48-.175.897-.456 1.316-.724l.006-.005c.378-.199.699-.469 1.035-.72.003 0 .006-.004.008-.008l.368-.309.468-.421c.142-.087.226-.226.33-.349l.007-.005a.75.75 0 00.27-.271l.154-.181.04-.052a.435.435 0 01-.04.052c.178-.136.283-.329.422-.496.16-.178.324-.354.431-.57l.476-.736c.043-.078.084-.158.129-.236a11.54 11.54 0 001.157-2.846 11.528 11.528 0 00-.087-6.183 10.53 10.53 0 00-1.2-2.737 1.573 1.573 0 00-.337-.543 1.052 1.052 0 00-.29-.407.468.468 0 00-.136-.181l-.236-.317-.424-.498c-.384-.385-.76-.778-1.18-1.131l-.138-.09c-.054-.119-.181-.165-.278-.227-.22-.136-.372-.358-.629-.44-.05-.036-.1-.075-.153-.104A8.279 8.279 0 0016.184.666c-1.507-.103-2.951.123-4.324.756a7.852 7.852 0 00-2.595 1.9 7.11 7.11 0 00-1.434 2.26c.502-.353 1.058-.601 1.593-.88.752-.269 1.514-.494 2.318-.568 2.253-.207 4.275.35 5.991 1.765 2.49 2.05 3.384 5.282 2.276 8.252-.863 2.314-2.524 3.892-4.964 4.693a7.668 7.668 0 01-4.54.11c-2.68-.75-4.482-2.41-5.355-4.957-.764-2.232-.728-4.502-.233-6.78a14.571 14.571 0 011.335-3.651c.047-.077.101-.151.146-.23A10.448 10.448 0 018.246.932c.35-.334.741-.616 1.11-.932-.267.061-.53.13-.79.212-1.037.33-2.002.808-2.92 1.374-.225.14-.473.259-.634.48l-.082.049c-.171.069-.3.192-.433.31-.132.13-.316.205-.41.372l-.1.09a1.21 1.21 0 00-.389.35l-.045.044c-.58.503-1.021 1.116-1.47 1.722-.094.11-.17.231-.226.362-.132.115-.188.276-.27.42C.663 7.38.13 9.088.024 10.913c-.09 1.393.076 2.79.49 4.128z" fill="#242424"/></svg>