<svg width="45" height="45" fill="none" xmlns="http://www.w3.org/2000/svg"><g clip-path="url(#clip0_812_13541)"><path d="M26.855 0H3.629a3.633 3.633 0 00-3.63 3.629v37.742A3.633 3.633 0 003.63 45h23.226a3.633 3.633 0 003.629-3.629V3.629A3.633 3.633 0 0026.854 0zM3.629 1.452h23.226c1.2 0 2.177.977 2.177 2.177v.726H1.452v-.726c0-1.2.976-2.177 2.177-2.177zm23.226 42.096H3.629a2.18 2.18 0 01-2.178-2.177v-2.177h23.226v-1.452H1.451V5.806h27.581v35.565a2.18 2.18 0 01-2.177 2.177z" fill="#494D58"/><path d="M41 34.839a4 4 0 004-4V12.71a4 4 0 00-4-4H8.354a4 4 0 00-4 4v18.129a4 4 0 004 4H41z" fill="#2F82FF"/><path d="M19.597 40.645h-8.71v1.451h8.71v-1.451zm10.161-2.903h-3.63v1.452h3.63v-1.452zm-7.984-12.339h-5.807v-7.258h5.807v7.258zm-4.355-1.452h2.903v-4.355H17.42v4.355zm-2.903-5.806h-1.452v7.258h1.452v-7.258zm20.322 7.258h-5.806v-7.258h5.806v7.258zm-4.354-1.452h2.903v-4.355h-2.903v4.355zm-5.807-5.806h-1.451v7.258h1.451v-7.258zm2.903 0h-1.45v7.258h1.451v-7.258zm10.162 0H36.29v7.258h1.452v-7.258zm2.903 0h-1.452v7.258h1.452v-7.258zM16.74 31.913a10.192 10.192 0 01-1.593-.232l.325-1.415c.445.102.904.168 1.363.199l-.095 1.448zm1.607-.02l-.132-1.446a8.91 8.91 0 001.36-.233l.357 1.407a10.18 10.18 0 01-1.585.272zm-4.735-.696c-.495-.2-.978-.442-1.437-.718l.75-1.244c.393.238.808.445 1.232.617l-.545 1.345zm7.844-.1l-.58-1.33a8.58 8.58 0 001.217-.65l.784 1.222c-.452.29-.93.545-1.42.759zm-10.589-1.555a10.29 10.29 0 01-1.142-1.13l1.099-.95c.3.348.63.675.981.97l-.938 1.11zm-2.094-2.427a10.11 10.11 0 01-.736-1.432l1.34-.56c.176.424.388.836.63 1.226l-1.234.766zM7.54 24.154a10.167 10.167 0 01-.25-1.59l1.447-.111c.035.461.107.92.214 1.361l-1.41.34zm1.198-3.081l-1.447-.118c.044-.537.13-1.072.255-1.588l1.41.344c-.107.442-.18.9-.218 1.362zm.649-2.671l-1.338-.563c.207-.493.456-.974.74-1.428l1.23.767c-.242.39-.454.8-.632 1.224zm1.453-2.334l-1.097-.951c.35-.405.736-.784 1.146-1.129l.933 1.113a8.79 8.79 0 00-.982.967zm11.275-1.625a8.779 8.779 0 00-1.215-.654l.585-1.328c.492.217.968.473 1.416.762l-.786 1.22zm-9.167-.144l-.75-1.243a10.03 10.03 0 011.442-.717l.54 1.347a8.582 8.582 0 00-1.232.613zm6.651-.959a8.583 8.583 0 00-1.357-.236l.135-1.446c.531.05 1.065.143 1.586.278l-.364 1.404zm-4.102-.062l-.32-1.416a9.994 9.994 0 011.592-.228l.092 1.448a8.62 8.62 0 00-1.364.196zm26.6 17.205h-1.452v1.452h1.452v-1.452zm-2.904 0h-8.71v1.452h8.71v-1.452z" fill="#494D58"/></g><defs><clipPath id="clip0_812_13541"><path fill="#fff" d="M0 0h45v45H0z"/></clipPath></defs></svg>