<svg width="155" height="155" fill="none" xmlns="http://www.w3.org/2000/svg"><g clip-path="url(#clip0_650_1468)"><path d="M47.5 140C29.58 140 15 125.42 15 107.5S29.58 75 47.5 75 80 89.58 80 107.5 65.42 140 47.5 140zm0-47.5c-8.27 0-15 6.73-15 15s6.73 15 15 15 15-6.73 15-15-6.73-15-15-15z" fill="#2F82FF"/><path d="M155 70h-16.622l-7.705-6.165A17.575 17.575 0 00119.74 60h-2.24V46.627C125.25 42.16 130 34.01 130 25c0-9.61-7.648-16.803-10.933-19.447L118.383 5h-.883c-4.135 0-7.5 3.365-7.5 7.5v5c0 2.758-2.242 5-5 5s-5-2.242-5-5v-5c0-4.135-3.365-7.5-7.5-7.5h-.882l-.685.553C87.647 8.197 80 15.39 80 25a24.837 24.837 0 005.007 15H27.5c-1.38 0-2.5-1.123-2.5-2.5V5h5V0H5v5h5v32.5C10 47.15 17.852 55 27.5 55H30v7.5c0 .285.052.557.085.835C12.032 70.457 0 87.975 0 107.5 0 133.693 21.308 155 47.5 155c21.56 0 39.963-14.36 45.66-34.458 1.17 2.62 3.79 4.458 6.84 4.458h10c4.135 0 7.5-3.365 7.5-7.5V115h2.24c3.957 0 7.843-1.363 10.933-3.833L138.38 105H155V70zM93.263 10.117A2.507 2.507 0 0195 12.5v5c0 5.515 4.485 10 10 10s10-4.485 10-10v-5c0-1.113.73-2.057 1.737-2.383 3 2.588 8.263 8.095 8.263 14.883 0 7.625-4.257 14.483-11.112 17.895l-1.388.69V60h-15V43.585l-1.388-.69C89.257 39.482 85 32.625 85 25c0-6.788 5.263-12.295 8.263-14.883zM102.5 107.5a2.5 2.5 0 01-2.5 2.5H90a2.5 2.5 0 010-5h10a2.5 2.5 0 012.5 2.5zm0-20A2.5 2.5 0 01100 90H90a2.5 2.5 0 010-5h10a2.5 2.5 0 012.5 2.5zm0 10a2.5 2.5 0 01-2.5 2.5H90a2.5 2.5 0 010-5h10a2.5 2.5 0 012.5 2.5zm0-20c0 1.377-1.12 2.5-2.5 2.5H90c-1.38 0-2.5-1.123-2.5-2.5S88.62 75 90 75h10c1.38 0 2.5 1.123 2.5 2.5zM87.5 65c0 1.873.55 3.605 1.448 5.105a7.428 7.428 0 00-3.31 1.317 52.415 52.415 0 00-35.64-16.354V55h42.5v5a5.005 5.005 0 00-4.998 5zm2.56-20c.78.58 1.585 1.135 2.44 1.627V50H50v-5h40.06zM45 45v20h-7.5c-1.38 0-2.5-1.123-2.5-2.5V45h10zm-17.5 5C20.608 50 15 44.392 15 37.5V5h5v32.5c0 4.135 3.365 7.5 7.5 7.5H30v5h-2.5zm20 100C24.065 150 5 130.935 5 107.5c0-17.573 10.887-33.328 27.258-39.653A7.466 7.466 0 0037.5 70H45v5.127c.828-.064 1.655-.127 2.5-.127s1.672.063 2.5.127V60.066c12.555.657 24.282 6.29 32.737 15.655a7.362 7.362 0 00-.237 1.78c0 1.927.752 3.67 1.95 5-1.2 1.33-1.95 3.073-1.95 5s.752 3.67 1.95 5c-1.2 1.33-1.95 3.073-1.95 5s.752 3.67 1.95 5a7.435 7.435 0 00-1.49 2.5h-3.087c.064.828.127 1.655.127 2.5s-.063 1.672-.127 2.5h3.087a7.464 7.464 0 006.353 4.93C85.77 135.098 68.278 150 47.5 150zm62.5-30h-10a2.5 2.5 0 01-2.5-2.5V115h2.5c4.135 0 7.5-3.365 7.5-7.5 0-1.928-.752-3.67-1.95-5 1.2-1.33 1.95-3.073 1.95-5s-.752-3.67-1.95-5c1.2-1.33 1.95-3.073 1.95-5s-.752-3.67-1.95-5c1.2-1.33 1.95-3.073 1.95-5 0-.88-.18-1.715-.46-2.5h1.925l2.372 2.375c.373.373.763.72 1.163 1.052V117.5a2.5 2.5 0 01-2.5 2.5zm17.548-12.74a12.546 12.546 0 01-7.808 2.74h-2.24V81.35c1.96.745 4.055 1.15 6.213 1.15h3.787v-5h-3.787c-3.338 0-6.478-1.3-8.84-3.66L111.035 70H97.5c-2.757 0-5-2.243-5-5h27.24c2.827 0 5.6.972 7.808 2.74L135 73.703v27.595l-7.452 5.962zM150 100h-10V75h10v25z" fill="#2D2F35"/><path d="M47.5 100c-4.135 0-7.5 3.365-7.5 7.5s3.365 7.5 7.5 7.5 7.5-3.365 7.5-7.5-3.365-7.5-7.5-7.5zm0 10a2.5 2.5 0 010-5 2.5 2.5 0 010 5z" fill="#2D2F35"/><path d="M50 90.2V85h-5v5.2c-7.648 1.102-13.698 7.153-14.8 14.8H25v5h5.2c1.102 7.647 7.152 13.697 14.8 14.8v5.2h5v-5.2c7.648-1.103 13.697-7.153 14.8-14.8H70v-5h-5.2c-1.102-7.647-7.152-13.698-14.8-14.8zM47.5 120c-6.892 0-12.5-5.608-12.5-12.5 0-6.893 5.608-12.5 12.5-12.5S60 100.607 60 107.5c0 6.892-5.608 12.5-12.5 12.5zm17.677-26.642a2.497 2.497 0 000-3.535 2.497 2.497 0 00-3.535 0 2.497 2.497 0 000 3.535c.975.977 2.56.977 3.535 0zm-31.819 0a2.497 2.497 0 000-3.535 2.497 2.497 0 00-3.535 0 2.497 2.497 0 000 3.535c.974.977 2.56.977 3.535 0zm-3.535 28.284a2.497 2.497 0 000 3.535 2.5 2.5 0 100-3.535zm31.819 0a2.499 2.499 0 103.535 3.535 2.497 2.497 0 000-3.535 2.498 2.498 0 00-3.535 0z" fill="#2D2F35"/></g><defs><clipPath id="clip0_650_1468"><path fill="#fff" d="M0 0h155v155H0z"/></clipPath></defs></svg>