<svg width="98" height="98" fill="none" xmlns="http://www.w3.org/2000/svg"><path d="M68.5 42.5V21c2.167 0 8.3.1 15.5.5 5.6 7.6 2 16.5-.5 20l-15 1zM49 6.323h-6.322v50.58H49V6.323z" fill="#2F82FF"/><path d="M83.774 20.566v-.01l-2.121-.22C80.962 12.046 79.152 0 74.25 0c-.505 0-.959.144-1.406.39L60.956 4.356a38.167 38.167 0 01-12.11 1.967H33.193c-13.944 0-25.29 11.345-25.29 25.29 0 11.353 7.522 20.981 17.846 24.168l-8.934 7.445H1.581v3.16h16.378l9.28-7.733 9.777 2.793 3.325 4.157c.441.55.634 1.237.547 1.938a2.56 2.56 0 01-1.012 1.738 2.6 2.6 0 01-3.374-.238l-3.192-3.19-9.008 7.206 1.976 2.47 3.754-3.004v12.832H19.341l-3.162-1.581H1.581v3.161h13.853l3.16 1.58h11.438v1.582c0 4.357 3.546 7.903 7.904 7.903 4.358 0 7.903-3.545 7.903-7.903v-1.581a4.748 4.748 0 004.742-4.742c0-1.219-.476-2.32-1.233-3.162a4.704 4.704 0 001.233-3.16c0-1.22-.476-2.321-1.233-3.162a4.704 4.704 0 001.233-3.161c0-1.219-.476-2.32-1.233-3.162a4.704 4.704 0 001.233-3.16 4.748 4.748 0 00-4.742-4.743v-3.161h3.007c4.127 0 8.205.66 12.12 1.966l11.898 3.966c.447.246.921.39 1.427.39 4.901 0 6.672-12.046 7.362-20.336l2.122-.22v-.01c3.161-.178 4.585-5.631 4.585-11.046 0-5.416-1.425-10.869-4.586-11.047zM69.861 40.899a133.988 133.988 0 01-.313-9.286c0-3.372.117-6.468.313-9.286l10.576 1.057c-.954 2.127-1.405 5.183-1.405 8.229 0 3.046.45 6.101 1.405 8.229l-10.576 1.057zm8.67-20.883l-8.403-.841c.9-9.144 2.65-14.67 3.824-15.816l.404-.134c1.006.641 3.165 5.437 4.175 16.79zM41.773 71.808a5.658 5.658 0 001.772-2.26h2.294a1.581 1.581 0 010 3.161h-5.872a5.724 5.724 0 001.806-.9zm5.646 5.643c0 .872-.708 1.581-1.58 1.581h-6.323c-.873 0-1.581-.71-1.581-1.58 0-.871.708-1.581 1.58-1.581h6.323c.873 0 1.581.71 1.581 1.58zm-4.742 12.646a4.748 4.748 0 01-4.742 4.742 4.748 4.748 0 01-4.742-4.742V70.203l1.074 1.071c.177.179.374.324.57.474.13.973.544 1.848 1.171 2.542a4.704 4.704 0 00-1.233 3.161c0 1.22.476 2.32 1.233 3.162a4.704 4.704 0 00-1.233 3.161 4.748 4.748 0 004.742 4.742h3.162v1.58h-.002zm3.162-4.742h-6.323c-.872 0-1.58-.71-1.58-1.581s.708-1.581 1.58-1.581h6.323a1.582 1.582 0 010 3.162zm1.58-20.549c0 .871-.708 1.581-1.58 1.581h-1.855a5.684 5.684 0 00-1.174-2.76l-.321-.401h3.35c.872 0 1.58.71 1.58 1.58zm-4.742-4.742H39.96l-1.105-1.381-6.35-1.815c.23.007.456.035.689.035h9.483v3.161zm6.168-6.322H33.194c-12.203 0-22.13-9.927-22.13-22.13 0-12.202 9.927-22.128 22.13-22.128h15.653c4.466 0 8.88-.716 13.119-2.13L69.78 4.75c-2.588 6.613-3.394 18.7-3.394 26.863 0 8.162.806 20.25 3.394 26.863l-7.815-2.605a41.407 41.407 0 00-13.121-2.13zm25.572 6.28l-.297-.1c-1.237-.964-3.065-6.515-3.99-15.873l8.401-.84c-1.021 11.483-3.212 16.258-4.114 16.813zm9.357-20.65c-.585-.743-1.58-3.392-1.58-7.76 0-4.367.995-7.016 1.58-7.759.585.743 1.58 3.392 1.58 7.76 0 4.367-.995 7.016-1.58 7.76zm12.646-9.34h-4.743v3.162h4.742v-3.162zm-2.085-18.889l-4.741 1.581 1 2.999 4.741-1.582-1-2.998zm-3.741 36.355l-1 2.999 4.742 1.58 1-3-4.742-1.58z" fill="#333"/></svg>