<svg width="206" height="204" fill="none" xmlns="http://www.w3.org/2000/svg"><path d="M97.201 2.127a10 10 0 0111.598 0l10.054 7.156a10 10 0 007.782 1.655l12.096-2.448a10 10 0 0110.595 4.716l6.275 10.628a9.998 9.998 0 006.436 4.676l12.046 2.684a9.999 9.999 0 017.76 8.618l1.41 12.26a10 10 0 003.978 6.89l9.913 7.352a10 10 0 013.584 11.03l-3.699 11.773a10.003 10.003 0 00.831 7.913l6.066 10.747a9.999 9.999 0 01-1.212 11.534l-8.168 9.251a9.997 9.997 0 00-2.458 7.567l1.17 12.286a10 10 0 01-5.799 10.043l-11.225 5.13a9.999 9.999 0 00-5.323 5.912l-3.928 11.7a10 10 0 01-9.383 6.816l-12.34.121a9.996 9.996 0 00-7.268 3.236l-8.347 9.09a10 10 0 01-11.344 2.411l-11.323-4.909a9.995 9.995 0 00-7.956 0l-11.323 4.909a10 10 0 01-11.344-2.411l-8.347-9.09a9.998 9.998 0 00-7.268-3.236l-12.34-.121a10 10 0 01-9.383-6.816l-3.928-11.7a9.998 9.998 0 00-5.323-5.912l-11.225-5.13a10 10 0 01-5.799-10.043l1.17-12.286a10 10 0 00-2.458-7.567l-8.168-9.251a10 10 0 01-1.212-11.534L8.14 97.03a10 10 0 00.831-7.913L5.272 77.343a10 10 0 013.584-11.03l9.913-7.35a10 10 0 003.978-6.89l1.41-12.26a10 10 0 017.76-8.62l12.046-2.683a10 10 0 006.436-4.676l6.275-10.627A10 10 0 0167.269 8.49l12.096 2.447a10 10 0 007.782-1.654L97.2 2.127z" fill="#07C"/></svg>