<?xml version="1.0" encoding="utf-8"?><svg xmlns="http://www.w3.org/2000/svg" xmlns:xlink="http://www.w3.org/1999/xlink"><symbol viewBox="0 0 54 54" id="boat" xmlns="http://www.w3.org/2000/svg"><g clip-path="url(#a)"><path d="M53.209 30.436c-2.333 0-3.514.457-4.656.9-.974.376-1.9.734-3.648.785 2.751-1.11 4.924-2.5 6.481-4.155 1.8-1.912 2.386-3.752 2.56-4.96a1.635 1.635 0 0 0-1.621-1.87H36.553l-5.05-3.607a3.31 3.31 0 0 0-1.934-.62h-6.796c-.903 0-1.637.734-1.637 1.637v2.59h-1.045a.894.894 0 0 1-.636-.263l-.59-.59a2.49 2.49 0 0 0-2.132-.698l-8.85 1.361c-.96.148-1.894.51-2.702 1.05l-2.449 1.632c-.577.385-.97.999-1.076 1.684a2.49 2.49 0 0 0 .515 1.931l3.274 4.093h-.002c-1.141-.443-2.321-.9-4.652-.9a.791.791 0 1 0 0 1.582c2.035 0 3.028.385 4.08.792 1.141.442 2.321.9 4.652.9s3.511-.458 4.652-.9c1.053-.407 2.046-.792 4.082-.792 2.037 0 3.03.385 4.083.792 1.142.442 2.322.9 4.654.9 2.331 0 3.512-.458 4.653-.9 1.052-.407 2.046-.792 4.081-.792 2.038 0 3.032.385 4.085.792 1.142.442 2.323.9 4.656.9 2.332 0 3.513-.458 4.655-.9 1.053-.407 2.048-.792 4.085-.792a.791.791 0 1 0 0-1.582ZM26.1 18.491h3.469c.366 0 .717.113 1.014.325l3.248 2.32H26.1v-2.645Zm-3.382.055c0-.03.024-.055.055-.055h1.745v2.646h-1.8v-2.591Zm18.596 13.13a18.256 18.256 0 0 1-.93-.341c-1.142-.442-2.323-.899-4.656-.899-2.331 0-3.511.457-4.653.9-1.052.407-2.045.791-4.081.791-2.037 0-3.03-.385-4.083-.792-1.142-.442-2.322-.899-4.654-.899-2.331 0-3.512.457-4.653.9-1.052.407-2.045.791-4.081.791-.568 0-1.055-.03-1.485-.082l-4.632-5.79a.915.915 0 0 1-.1-.155h3.403a.791.791 0 0 0 0-1.582H4.25l1.81-1.206a5.164 5.164 0 0 1 2.064-.802l8.85-1.361a.904.904 0 0 1 .774.253l.59.59a2.465 2.465 0 0 0 1.754.726h32.234c.007 0 .026 0 .042.019.016.018.013.036.012.044a6.405 6.405 0 0 1-.525 1.737H10.091a.791.791 0 0 0 0 1.582h40.805c-1.44 1.885-4.22 4.038-9.582 5.575Zm8.406 3.439a.79.79 0 0 0-1.022-.453l-.144.055c-.477.184-.926.358-1.462.498a.791.791 0 0 0 .398 1.53c.624-.161 1.137-.36 1.634-.552l.143-.055a.79.79 0 0 0 .453-1.023Zm-5.783.385c-1.688-.06-2.594-.412-3.554-.783-1.142-.442-2.323-.899-4.656-.899-2.331 0-3.511.457-4.653.9-1.052.406-2.045.791-4.081.791-2.037 0-3.03-.385-4.083-.792-1.142-.442-2.322-.899-4.654-.899-2.331 0-3.511.457-4.653.9-.957.37-1.861.72-3.542.782a.791.791 0 0 0 .058 1.58c1.946-.07 3.019-.486 4.056-.887 1.052-.408 2.045-.793 4.081-.793 2.037 0 3.03.385 4.083.793 1.142.441 2.322.898 4.654.898 2.331 0 3.512-.457 4.653-.898 1.052-.408 2.045-.793 4.081-.793 2.038 0 3.032.385 4.085.793 1.04.402 2.114.818 4.068.888a.791.791 0 0 0 .057-1.581ZM6.91 35.216c-.539-.14-.99-.314-1.468-.5a.791.791 0 1 0-.571 1.476c.499.193 1.014.393 1.642.556a.79.79 0 1 0 .397-1.532Z"/></g></symbol><symbol viewBox="0 0 29 20" id="burger" xmlns="http://www.w3.org/2000/svg"><path d="M2 10h25M2 2h25M2 18h25"/></symbol><symbol viewBox="0 0 54 54" id="camping-tent" xmlns="http://www.w3.org/2000/svg"><mask id="aca" x="0" y="0" width="54" height="54"><path d="M0 0h54v54H0V0Z"/></mask><g mask="url(#aca)"><path d="M35.648 14.713h3.006L51.31 42.029H28.107L15.451 14.713h16.506"/></g><path d="M28.107 42.03H15.451V14.606L28.107 42.03Z"/><mask id="acb" x="0" y="0" width="54" height="54"><path d="M0 0h54v54H0V0Z"/></mask><g mask="url(#acb)" stroke-width="1.6" stroke-miterlimit="10" stroke-linecap="round" stroke-linejoin="round"><path d="m51.363 42.03 1.846-1.846M2.637 42.03.79 40.183m9.535 1.847h5.126V14.712L2.637 42.029h3.99"/><path d="M28.107 42.03c-3.05-3.947-5.73-4.14-8.753-3.191L15.45 14.713l12.656 27.316Zm-7.962-24.153L27 32.537h16.559l-6.75-14.66H20.145Z"/><path d="M36.176 24.205h-9.492l-1.53-3.164h9.44l1.582 3.164Zm-20.725-9.387v-2.847m23.203 2.847v-2.847M28.16 42.03l1.846-1.846"/></g></symbol><symbol viewBox="0 0 10 10" id="cancel" xmlns="http://www.w3.org/2000/svg"><path fill-rule="evenodd" clip-rule="evenodd" d="M5 0a5 5 0 1 0 0 10A5 5 0 0 0 5 0Zm0 9.375a4.375 4.375 0 1 1 0-8.75 4.375 4.375 0 0 1 0 8.75Z"/><path fill-rule="evenodd" clip-rule="evenodd" d="M7.103 6.647 5.457 5l1.636-1.623a.31.31 0 0 0 0-.442.318.318 0 0 0-.446 0L5.012 4.556 3.353 2.897a.315.315 0 0 0-.446 0 .317.317 0 0 0 0 .448L4.564 5 2.898 6.654a.31.31 0 0 0 0 .441.318.318 0 0 0 .446 0l1.664-1.65 1.649 1.65a.315.315 0 0 0 .446 0 .317.317 0 0 0 0-.448Z"/></symbol><symbol viewBox="0 0 54 54" id="caravan" xmlns="http://www.w3.org/2000/svg"><path d="M21.065 35.16H6.969A2.968 2.968 0 0 1 4 32.194V15.87a2.968 2.968 0 0 1 2.968-2.968h34.127a2.968 2.968 0 0 1 2.968 2.968v16.322a2.968 2.968 0 0 1-2.968 2.968H27m23 0h-8.903M50 41.096H6.968m41.547-7.419v4.451m0 2.968a1.484 1.484 0 1 0 0-2.968 1.484 1.484 0 0 0 0 2.968Z"/><path d="M24.032 41.096a3.71 3.71 0 1 0 0-7.42 3.71 3.71 0 0 0 0 7.42Zm0-3.709h.008m-5.201-5.194h-4.452a.742.742 0 0 1-.742-.742V16.613c0-.41.332-.742.742-.742h4.452c.41 0 .742.332.742.742v14.838c0 .41-.333.742-.742.742Zm-8.903-7.419H7.711a.742.742 0 0 1-.742-.741v-5.936c0-.41.332-.742.742-.742h2.225c.41 0 .742.333.742.742v5.936a.74.74 0 0 1-.742.741ZM27 22.548h-3.71a.742.742 0 0 1-.742-.742v-3.71a.74.74 0 0 1 .742-.741H27a.74.74 0 0 1 .741.741v3.71c0 .41-.332.742-.741.742Zm12.613-5.193h.742c.41 0 .742.332.742.741v5.936c0 .41-.333.741-.742.741h-8.903a.742.742 0 0 1-.742-.741v-5.936a.74.74 0 0 1 .742-.741h5.193m-23 7.418h5.936m0 2.968H4.001m40.062 0H22.548"/></symbol><symbol viewBox="0 0 9 5" id="caret-down" xmlns="http://www.w3.org/2000/svg"><path d="M4.329 5a.656.656 0 0 0 .451-.206l3.612-3.622A.66.66 0 0 0 7.945 0a.656.656 0 0 0-.477.244L3.857 3.868A.66.66 0 0 0 4.329 5Z"/><path d="M4.308 5a.656.656 0 0 1-.452-.206L.245 1.172A.66.66 0 0 1 .692 0c.186.01.36.099.476.244L4.78 3.868A.66.66 0 0 1 4.308 5Z"/></symbol><symbol viewBox="0 0 6 6" id="dbl-arrow-down" xmlns="http://www.w3.org/2000/svg"><path d="M3.007 6a.456.456 0 0 0 .314-.143L5.83 3.34a.458.458 0 0 0-.31-.813.456.456 0 0 0-.332.17L2.68 5.213A.458.458 0 0 0 3.007 6Z"/><path d="M2.993 6a.456.456 0 0 1-.314-.143L.17 3.34a.458.458 0 0 1 .312-.813c.129.007.25.069.33.17l2.51 2.516A.458.458 0 0 1 2.993 6Zm.014-2.526a.456.456 0 0 0 .314-.143L5.83.814A.458.458 0 0 0 5.52 0a.456.456 0 0 0-.332.17L2.68 2.686a.458.458 0 0 0 .328.787Z"/><path d="M2.993 3.474a.456.456 0 0 1-.314-.143L.17.814A.458.458 0 0 1 .482 0 .454.454 0 0 1 .81.17l2.51 2.516a.458.458 0 0 1-.328.787Z"/></symbol><symbol viewBox="0 0 17 16" id="dbl-arrow-left" xmlns="http://www.w3.org/2000/svg"><path d="M0 7.981c.013-.31.146-.602.372-.815L6.915.642a1.192 1.192 0 0 1 2.115.808c-.019.336-.18.649-.442.86L2.045 8.834A1.192 1.192 0 0 1 0 7.98Z"/><path d="M0 8.018c.013.31.146.603.372.816l6.543 6.524a1.191 1.191 0 0 0 2.115-.808 1.186 1.186 0 0 0-.442-.86L2.045 7.166A1.192 1.192 0 0 0 0 8.018Zm6.569-.037c.012-.31.146-.602.372-.815L13.484.642a1.192 1.192 0 0 1 2.114.808 1.184 1.184 0 0 1-.441.86L8.614 8.834a1.192 1.192 0 0 1-2.045-.853Z"/><path d="M7 8.214c.013.31.146.603.372.816l6.543 6.524a1.192 1.192 0 0 0 2.115-.808 1.186 1.186 0 0 0-.442-.86L9.045 7.362A1.192 1.192 0 0 0 7 8.214Z"/></symbol><symbol viewBox="0 0 16 16" id="dbl-arrow-right" xmlns="http://www.w3.org/2000/svg"><path d="M16 7.981a1.185 1.185 0 0 0-.372-.815L9.085.642a1.192 1.192 0 0 0-2.115.808c.019.336.18.649.442.86l6.543 6.524c.34.351.862.458 1.315.27.452-.189.742-.634.73-1.123Z"/><path d="M16 8.018c-.012.31-.146.603-.372.816l-6.543 6.524a1.191 1.191 0 0 1-2.115-.808c.019-.336.18-.65.442-.86l6.543-6.524c.34-.351.862-.459 1.315-.27.452.188.742.634.73 1.122Zm-6.568-.037a1.185 1.185 0 0 0-.372-.815L2.517.642a1.192 1.192 0 0 0-2.115.808c.018.336.179.649.442.86l6.543 6.524a1.192 1.192 0 0 0 2.045-.853Z"/><path d="M9.432 8.018a1.19 1.19 0 0 1-.372.816l-6.543 6.524a1.191 1.191 0 0 1-2.115-.808c.018-.336.179-.65.442-.86l6.543-6.524a1.192 1.192 0 0 1 2.045.852Z"/></symbol><symbol viewBox="0 0 14 9" id="eye" xmlns="http://www.w3.org/2000/svg"><path d="M13.508 4.166a7.878 7.878 0 0 0-2.777-2.715C9.568.768 8.339.426 7.046.426 5.752.426 4.524.767 3.36 1.45A7.877 7.877 0 0 0 .584 4.166a1.021 1.021 0 0 0-.148.509c0 .167.05.337.148.509A7.875 7.875 0 0 0 3.36 7.899c1.163.683 2.391 1.025 3.685 1.025 1.293 0 2.522-.34 3.685-1.022a7.826 7.826 0 0 0 2.777-2.718 1.02 1.02 0 0 0 .148-.509c0-.167-.05-.337-.148-.509ZM5.463 2.148c.44-.44.968-.66 1.583-.66.098 0 .182.035.25.103a.342.342 0 0 1 .104.251.342.342 0 0 1-.103.25.341.341 0 0 1-.251.104c-.423 0-.784.15-1.084.45-.3.3-.45.662-.45 1.085a.342.342 0 0 1-.104.25.341.341 0 0 1-.25.104.342.342 0 0 1-.251-.103.341.341 0 0 1-.104-.251c0-.615.22-1.143.66-1.583Zm4.788 4.936a6.075 6.075 0 0 1-3.205.896c-1.15 0-2.22-.299-3.205-.896a7.517 7.517 0 0 1-2.107-1.905.837.837 0 0 1-.002-1.01c.313-.417.655-.79 1.026-1.119.38-.337.983.173.983.68 0 .91.323 1.689.97 2.336.647.646 1.425.97 2.335.97.91 0 1.688-.324 2.335-.97.647-.647.97-1.425.97-2.335 0-.508.603-1.018.983-.68.37.328.713.701 1.026 1.119.225.3.224.71-.002 1.009a7.516 7.516 0 0 1-2.107 1.905Z"/></symbol><symbol viewBox="0 0 12 22" id="facebook" xmlns="http://www.w3.org/2000/svg"><path d="M3.649 8.66h.75V5.415c0-1.491.455-2.647 1.192-3.424.734-.773 1.81-1.24 3.194-1.24l2.464.004V3.51H9.69c-.708.001-1.375.136-1.815.647-.415.483-.46 1.123-.46 1.637v2.867h3.703l-.002 3.014h-3.7v9.575H4.399v-9.575h-3.23V8.66h2.48Zm7.913-5.15Z"/></symbol><symbol viewBox="0 0 22 19" id="favourites" xmlns="http://www.w3.org/2000/svg"><path d="M20.194 1.793a6.132 6.132 0 0 0-8.65 0l-.586.586-.568-.586a6.127 6.127 0 0 0-8.663 0c-2.384 2.385-2.26 6.412.125 8.796l.444.444 7.446 7.464a1.723 1.723 0 0 0 2.433 0l7.45-7.45.444-.445c2.38-2.38 2.51-6.407.125-8.809ZM19.75 6.38a4.09 4.09 0 0 1-1.23 2.606l-.466.489-7.105 7.104-7.104-7.104-.453-.471a4.094 4.094 0 0 1-1.234-2.606 3.907 3.907 0 0 1 4.152-4.16A4.072 4.072 0 0 1 8.915 3.48l.475.47.821.822 1.173 1.172a1.159 1.159 0 0 0 1.979-.823 1.16 1.16 0 0 0-.341-.82l-.422-.444.497-.475a3.908 3.908 0 0 1 6.66 3.015l-.008-.018Z"/></symbol><symbol viewBox="0 0 12 8" id="filter" xmlns="http://www.w3.org/2000/svg"><path fill-rule="evenodd" clip-rule="evenodd" d="M5.333 8h1.334c.366 0 .666-.3.666-.667 0-.366-.3-.666-.666-.666H5.333c-.366 0-.666.3-.666.666 0 .367.3.667.666.667ZM0 .667c0 .366.3.666.667.666h10.666c.367 0 .667-.3.667-.666C12 .3 11.7 0 11.333 0H.667C.3 0 0 .3 0 .667Zm2.667 4h6.666c.367 0 .667-.3.667-.667 0-.367-.3-.667-.667-.667H2.667C2.3 3.333 2 3.633 2 4c0 .367.3.667.667.667Z"/></symbol><symbol viewBox="0 0 23 23" id="globe" xmlns="http://www.w3.org/2000/svg"><path d="M7.3 8.7v-.75a.75.75 0 0 0-.75.75h.75Zm0 1.4.53.53.22-.22v-.31H7.3Zm-2.39.41-.53.53.53-.53Zm5.19 8.69h.75v-.31l-.22-.22-.53.53Zm-1.4-1.4h-.75v.31l.22.22.53-.53Zm0-2.1h.75v-.31l-.22-.22-.53.53Zm-1.4-1.4h-.75v.31l.22.22.53-.53Zm0-1.4v-.75a.75.75 0 0 0-.75.75h.75Zm6.25-11.2v2.8h1.5V1.7h-1.5Zm-.65 3.45h-1.4v1.5h1.4v-1.5Zm-4.2 2.8H7.3v1.5h1.4v-1.5Zm-2.15.75v1.4h1.5V8.7h-1.5Zm.22.87-.41.41 1.06 1.06.41-.41-1.06-1.06Zm-1.33.41L2.93 7.47 1.87 8.53l2.51 2.51 1.06-1.06ZM9.35 7.3a.65.65 0 0 1-.65.65v1.5a2.15 2.15 0 0 0 2.15-2.15h-1.5Zm2.15-2.15A2.15 2.15 0 0 0 9.35 7.3h1.5a.65.65 0 0 1 .65-.65v-1.5ZM6.36 9.98a.65.65 0 0 1-.92 0l-1.06 1.06c.84.84 2.2.84 3.04 0L6.36 9.98Zm7.19-5.48a.65.65 0 0 1-.65.65v1.5a2.15 2.15 0 0 0 2.15-2.15h-1.5Zm-2.7 16.8v-2.1h-1.5v2.1h1.5Zm-.22-2.63-1.4-1.4-1.06 1.06 1.4 1.4 1.06-1.06Zm-1.18-.87v-2.1h-1.5v2.1h1.5Zm-.22-2.63-1.4-1.4-1.06 1.06 1.4 1.4 1.06-1.06Zm-1.18-.87v-1.4h-1.5v1.4h1.5Zm-.75-.65h5.6v-1.5H7.3v1.5Zm6.25.65v.933h1.5V14.3h-1.5Zm2.617 3.55H19.9v-1.5h-3.733v1.5Zm-1.217-1.217c0 .672.545 1.217 1.217 1.217v-1.5c.156 0 .283.127.283.283h-1.5Zm-.183-.183c.1 0 .183.082.183.183h1.5c0-.93-.754-1.683-1.683-1.683v1.5Zm-1.217-1.217c0 .672.545 1.217 1.217 1.217v-1.5c.156 0 .283.127.283.283h-1.5Zm-.65-1.583a.65.65 0 0 1 .65.65h1.5a2.15 2.15 0 0 0-2.15-2.15v1.5Zm-1.4 6.9a9.05 9.05 0 0 1-9.05-9.05H.95c0 5.827 4.723 10.55 10.55 10.55v-1.5Zm9.05-9.05a9.05 9.05 0 0 1-9.05 9.05v1.5c5.827 0 10.55-4.723 10.55-10.55h-1.5ZM11.5 2.45a9.05 9.05 0 0 1 9.05 9.05h1.5C22.05 5.673 17.327.95 11.5.95v1.5Zm0-1.5C5.673.95.95 5.673.95 11.5h1.5a9.05 9.05 0 0 1 9.05-9.05V.95Z"/></symbol><symbol viewBox="0 0 17 17" id="grid" xmlns="http://www.w3.org/2000/svg"><rect width="8" height="8" rx="2"/><rect y="9" width="8" height="8" rx="2"/><rect x="9" width="8" height="8" rx="2"/><rect x="9" y="9" width="8" height="8" rx="2"/></symbol><symbol viewBox="0 0 11 11" id="grid-small" xmlns="http://www.w3.org/2000/svg"><rect width="3" height="3" rx="1"/><rect y="4" width="3" height="3" rx="1"/><rect y="8" width="3" height="3" rx="1"/><rect x="4" width="3" height="3" rx="1"/><rect x="8" width="3" height="3" rx="1"/><rect x="4" y="4" width="3" height="3" rx="1"/><rect x="4" y="8" width="3" height="3" rx="1"/><rect x="8" y="4" width="3" height="3" rx="1"/><rect x="8" y="8" width="3" height="3" rx="1"/></symbol><symbol viewBox="0 0 24 14" id="hamburger" xmlns="http://www.w3.org/2000/svg"><path d="M23 1.134H1m22 11.733H9.8M23 7h-8.8"/></symbol><symbol viewBox="0 0 11 9" id="heart" xmlns="http://www.w3.org/2000/svg"><path d="M9.468 1.172a2.743 2.743 0 0 0-3.868 0l-.004.004a.36.36 0 0 1-.513-.004 2.74 2.74 0 0 0-3.874 0C.142 2.24.198 4.04 1.264 5.106l.199.199 3.33 3.338a.77.77 0 0 0 1.089 0l3.332-3.332.199-.199c1.064-1.064 1.122-2.865.055-3.94Zm-.196 2.056h-.003a1.83 1.83 0 0 1-.55 1.161l-.208.219a4.494 4.494 0 0 1-6.355 0l-.203-.21a1.831 1.831 0 0 1-.552-1.166A1.748 1.748 0 0 1 3.258 1.37a1.82 1.82 0 0 1 1.166.556l.212.21.368.368.524.524a.519.519 0 1 0 .733-.735.275.275 0 0 1 .01-.388l.024-.023a1.748 1.748 0 0 1 2.977 1.345Z"/></symbol><symbol viewBox="0 0 24 24" id="instagram" xmlns="http://www.w3.org/2000/svg"><mask id="asa"><path fill-rule="evenodd" clip-rule="evenodd" d="M3.05 4.267C2 5.713 2 7.81 2 12s0 6.287 1.05 7.733a5.5 5.5 0 0 0 1.217 1.217C5.713 22 7.81 22 12 22s6.287 0 7.733-1.05a5.5 5.5 0 0 0 1.217-1.217C22 18.287 22 16.19 22 12s0-6.287-1.05-7.733a5.5 5.5 0 0 0-1.217-1.217C18.287 2 16.19 2 12 2S5.713 2 4.267 3.05A5.5 5.5 0 0 0 3.05 4.267ZM8.373 12a3.627 3.627 0 1 1 7.254 0 3.627 3.627 0 0 1-7.254 0Z"/></mask><path d="m3.05 4.267 1.214.882-1.214-.882Zm0 15.466 1.214-.882-1.214.882Zm1.217 1.217.882-1.214-.882 1.214Zm15.466 0-.882-1.214.882 1.214Zm1.217-1.217-1.214-.882 1.214.882Zm0-15.466-1.214.882 1.214-.882ZM19.733 3.05l-.882 1.214.882-1.214Zm-15.466 0 .882 1.214-.882-1.214ZM3.5 12c0-2.129.002-3.606.123-4.737.118-1.104.335-1.693.64-2.114L1.838 3.385C1.093 4.41.784 5.592.64 6.946.498 8.27.5 9.937.5 12h3Zm.764 6.851c-.306-.421-.523-1.01-.641-2.114C3.502 15.607 3.5 14.129 3.5 12h-3c0 2.063-.002 3.729.14 5.055.144 1.353.453 2.535 1.197 3.56l2.427-1.764Zm.885.885a4.002 4.002 0 0 1-.885-.885l-2.427 1.764a6.998 6.998 0 0 0 1.548 1.548l1.764-2.427ZM12 20.5c-2.129 0-3.606-.002-4.737-.123-1.104-.118-1.693-.335-2.114-.64l-1.764 2.426c1.025.744 2.207 1.053 3.56 1.197 1.326.142 2.992.14 5.055.14v-3Zm6.851-.764c-.421.306-1.01.523-2.114.641-1.13.121-2.608.123-4.737.123v3c2.063 0 3.729.002 5.055-.14 1.353-.144 2.535-.453 3.56-1.197l-1.764-2.427Zm.885-.885c-.247.34-.545.638-.885.885l1.764 2.427a6.996 6.996 0 0 0 1.548-1.549l-2.427-1.763ZM20.5 12c0 2.129-.002 3.606-.123 4.737-.118 1.105-.335 1.693-.64 2.114l2.426 1.764c.744-1.025 1.053-2.207 1.197-3.56.142-1.326.14-2.992.14-5.055h-3Zm-.764-6.851c.306.421.523 1.01.641 2.114.121 1.13.123 2.608.123 4.737h3c0-2.063.002-3.729-.14-5.055-.144-1.353-.453-2.535-1.197-3.56L19.736 5.15Zm-.885-.885c.34.247.638.545.885.885l2.427-1.764a6.998 6.998 0 0 0-1.549-1.548l-1.763 2.427ZM12 3.5c2.129 0 3.606.002 4.737.123 1.105.118 1.693.335 2.114.64l1.764-2.426C19.59 1.093 18.407.784 17.055.64 15.73.498 14.063.5 12 .5v3Zm-6.851.764c.421-.306 1.01-.523 2.114-.641C8.393 3.502 9.871 3.5 12 3.5v-3C9.937.5 8.271.498 6.945.64c-1.353.144-2.535.453-3.56 1.197L5.15 4.264Zm-.885.885a4 4 0 0 1 .885-.885L3.385 1.837a7 7 0 0 0-1.548 1.548L4.264 5.15ZM12 6.873A5.127 5.127 0 0 0 6.873 12h3c0-1.175.953-2.127 2.127-2.127v-3ZM17.127 12A5.127 5.127 0 0 0 12 6.873v3c1.175 0 2.127.953 2.127 2.127h3ZM12 17.127A5.127 5.127 0 0 0 17.127 12h-3A2.127 2.127 0 0 1 12 14.127v3ZM6.873 12A5.127 5.127 0 0 0 12 17.127v-3A2.127 2.127 0 0 1 9.873 12h-3Z" mask="url(#asa)"/><circle cx="17.39" cy="6.698" r="1.226"/></symbol><symbol viewBox="0 0 54 54" id="motorbike" xmlns="http://www.w3.org/2000/svg"><path d="M48.33 30.167a.654.654 0 0 0-1.128.662c.529.9.808 1.93.808 2.976a5.894 5.894 0 0 1-5.887 5.887 5.894 5.894 0 0 1-5.887-5.887c0-.826.173-1.637.505-2.384l1.737 1.652a3.72 3.72 0 0 0 3.645 4.45 3.722 3.722 0 0 0 3.718-3.718 3.722 3.722 0 0 0-4.632-3.603l-1.737-1.652a5.887 5.887 0 0 1 6.468.776.65.65 0 0 0 .922-.074.654.654 0 0 0-.073-.921 7.196 7.196 0 0 0-8.312-.727l-.804-.765a8.138 8.138 0 0 1 4.035-1.066c.434 0 .872.035 1.3.103a.655.655 0 0 0 .532-.152l2.063-1.786c.329-.285.578-.64.732-1.037.551-1.416.578-4.09-.473-5.29-2.882-3.293-7.16-4.913-12.043-4.565-1.2.086-1.891 1.412-1.273 2.45l.287.483H31.47a.654.654 0 1 0 0 1.308h2.108a4.71 4.71 0 0 1 .42 2.123 7.181 7.181 0 0 0-4.797-1.817 7.204 7.204 0 0 0-5.91 3.06h-4.704c-.37 0-.733-.127-1.021-.36l-4.784-3.843a.654.654 0 0 0-.41-.144H8.46a1.97 1.97 0 0 0-1.969 1.968c0 .632.307 1.23.82 1.599l1.408 1.01a.654.654 0 0 0 .763-1.062l-1.408-1.01a.662.662 0 0 1 .386-1.198h3.681l4.605 3.7c.52.418 1.173.648 1.84.648h4.95l4.233 1.618 2.33.891c-.12.063-1.692 1.44-4.245 1.44h-1.436a4.037 4.037 0 0 0-3.536 2.1l-1.081-.777-8.546-6.138a.654.654 0 0 0-.763 1.062l7.748 5.565-1.41.867a7.21 7.21 0 0 0-4.953-1.978c-3.968 0-7.195 3.227-7.195 7.194S7.909 41 11.876 41c3.968 0 7.195-3.228 7.195-7.195a7.17 7.17 0 0 0-.23-1.8l1.548-.953v4.902c0 1.869 1.52 3.39 3.389 3.39h3.15v.348h-4.266a.654.654 0 1 0 0 1.308h4.92a.654.654 0 0 0 .654-.654v-1.003h5.999a.654.654 0 0 0 .552-1.004 8.161 8.161 0 0 1-1.267-4.377c0-1.614.469-3.12 1.278-4.39l.948.903a7.179 7.179 0 0 0-.817 3.33c0 3.967 3.227 7.195 7.194 7.195 3.968 0 7.195-3.228 7.195-7.195a7.18 7.18 0 0 0-.989-3.638Zm-3.796 3.638a2.413 2.413 0 0 1-2.41 2.41 2.415 2.415 0 0 1-2.36-1.92l.994.946c.37.352.855.545 1.365.545a1.99 1.99 0 0 0 1.436-.616c.365-.383.559-.886.545-1.415a1.968 1.968 0 0 0-.615-1.386l-.995-.946a2.414 2.414 0 0 1 2.04 2.382Zm.562-14.995c.493 1.085.34 2.94-.01 3.688a1.873 1.873 0 0 1-1.556-1.844c0-.926.678-1.698 1.566-1.844ZM29.2 18.9a5.89 5.89 0 0 1 4.482 2.048c-.657 1.703-1.94 2.29-2.309 2.61l-5.454-2.086-1.244-.475A5.9 5.9 0 0 1 29.2 18.9Zm-8.764 10.4c-.01.063-.02.132-.028.204l-5.812 3.576a.36.36 0 0 1-.006.004l-1.957 1.204a.674.674 0 1 1-.69-1.157l2.05-1.262.006-.003 3.06-1.882.003-.002 2.329-1.433 1.045.751Zm-9.848 5.434a1.98 1.98 0 0 0 2.725.67l.653-.4a2.411 2.411 0 0 1-2.09 1.212 2.413 2.413 0 0 1-2.41-2.41 2.413 2.413 0 0 1 2.76-2.385l-.964.593a1.98 1.98 0 0 0-.888 1.172 1.99 1.99 0 0 0 .214 1.548Zm7.174-.929a5.894 5.894 0 0 1-5.886 5.887 5.893 5.893 0 0 1-5.887-5.887 5.894 5.894 0 0 1 5.886-5.887 5.9 5.9 0 0 1 3.791 1.387l-2.01 1.236a3.69 3.69 0 0 0-1.78-.454 3.722 3.722 0 0 0-3.719 3.718 3.722 3.722 0 0 0 3.719 3.718 3.722 3.722 0 0 0 3.712-3.518l2.074-1.276c.066.354.1.714.1 1.076Zm15.366 4.23h-9.351a2.084 2.084 0 0 1-2.082-2.08v-6.016a2.728 2.728 0 0 1 2.278-2.684c1.166-.194 3.781.504 6.696-1.584 2.061-1.478 3.932-2.42 4.511-5.19a6.022 6.022 0 0 0-.199-3.194h.775a.654.654 0 0 0 0-1.308h-1.402l-.685-1.152a.315.315 0 0 1 .242-.476c4.075-.291 7.674.903 10.253 3.376a3.183 3.183 0 0 0-1.942 2.927 3.18 3.18 0 0 0 1.844 2.884l-1.158 1.003c-.398-.05-.8-.076-1.2-.076-5.231 0-9.497 4.249-9.497 9.497a9.48 9.48 0 0 0 .917 4.074Zm3.439-10.442 1.378 1.31.002.002 4.64 4.412a.67.67 0 0 1-.465 1.162.671.671 0 0 1-.464-.185l-4.639-4.412a.081.081 0 0 0-.004-.004l-1.424-1.354c.3-.337.626-.648.976-.931Z"/><path d="M27 34.385h-1.878a.654.654 0 1 0 0 1.308H27a.654.654 0 1 0 0-1.308Z"/></symbol><symbol viewBox="0 0 54 54" id="motorcycle" xmlns="http://www.w3.org/2000/svg"><path d="M33.445 36.41h-8.894m-2.879-2.578h10.785"/><mask id="aua" x="5" y="5" width="44" height="44"><path d="M5 5h44v44H5V5Z"/></mask><g mask="url(#aua)" stroke-width="1.6" stroke-miterlimit="10" stroke-linecap="round" stroke-linejoin="round"><path d="M32.457 33.832V14.754h2.434c.755 0 1.472.33 1.962.905l1.605 1.881c.398.467.616 1.06.616 1.673v7.142m0-6.789h.645a1.934 1.934 0 0 1 0 3.868h-.645m-26.726.343v-5.156a1.29 1.29 0 0 0-1.29-1.289H6.935a1.29 1.29 0 0 0-1.29 1.29v5.155"/><path d="M44.74 27.64a7.95 7.95 0 0 0-12.283 6.665v2.105h15.04a.86.86 0 0 0 .858-.86v-1.245a7.912 7.912 0 0 0-1.445-4.572m-11.875 6.792a5.371 5.371 0 0 0 10.741 0"/><path d="M43.2 36.525a2.793 2.793 0 0 1-5.585 0m-24.021-10.17a7.95 7.95 0 0 0-7.95 7.95v1.246c0 .474.385.86.86.86h15.039v-2.106a7.95 7.95 0 0 0-7.95-7.95Zm-5.371 10.17a5.371 5.371 0 0 0 10.74 0"/><path d="M16.387 36.453a2.793 2.793 0 0 1-5.585.072m8.978-7.291.89-.747c.593-.498.62-1.407.05-1.931a10.49 10.49 0 0 0-7.126-2.779h-7.95v2.074c0 .376.124.742.351 1.04l1.639 2.154m27.401-14.291v-1.29a1.29 1.29 0 0 0-1.289-1.288h-1.289v2.578m0-2.578h-4.598m2.02.043v1.246a1.29 1.29 0 0 1-1.29 1.289h-.73m-15.511 3.867a1.29 1.29 0 0 1-1.29 1.29H6.935a1.29 1.29 0 0 1-1.29-1.29m5.199 12.633h5.5m-7.219 2.578h8.938m14.394-10.141a2.578 2.578 0 0 0-2.578 2.579v7.562"/></g></symbol><symbol viewBox="0 0 20 20" id="reply" xmlns="http://www.w3.org/2000/svg"><path d="M20 21a1 1 0 0 1-.883.993L19 22h-6.5a3.5 3.5 0 0 1-3.495-3.308L9 18.5V5.415L5.707 8.707a1 1 0 0 1-1.32.083l-.094-.083a1 1 0 0 1-.083-1.32l.083-.094 5-5a1.01 1.01 0 0 1 .112-.097l.11-.071.114-.054.105-.035.118-.025.058-.007L10 2l.075.003.126.017.111.03.111.044.098.052.092.064.094.083 5 5a1 1 0 0 1-1.32 1.497l-.094-.083L11 5.415V18.5a1.5 1.5 0 0 0 1.355 1.493L12.5 20H19a1 1 0 0 1 1 1Z"/></symbol><symbol viewBox="0 0 19 18" id="search" xmlns="http://www.w3.org/2000/svg"><path d="m17.734 16.452-3.805-3.805a.999.999 0 0 0-1.41 0 6.303 6.303 0 1 1 1.709-2.9.902.902 0 1 0 1.744.464 8.123 8.123 0 1 0-2.782 4.26l3.269 3.264a.9.9 0 0 0 1.275 0 .902.902 0 0 0 0-1.283Z"/></symbol><symbol viewBox="0 0 15 15" id="search_icon_new" xmlns="http://www.w3.org/2000/svg"><path d="m14.5 14.5-4-4m-4 2a6 6 0 1 1 0-12 6 6 0 0 1 0 12Z"/></symbol><symbol viewBox="0 0 54 54" id="sedan" xmlns="http://www.w3.org/2000/svg"><mask id="aya" x="0" y="0" width="54" height="54"><path d="M0 0h54v54H0V0Z"/></mask><g mask="url(#aya)" stroke-width="1.8" stroke-miterlimit="10" stroke-linecap="round" stroke-linejoin="round"><path d="M15.164 32.072a4.227 4.227 0 1 1-8.455 0 4.227 4.227 0 0 1 8.455 0Zm0 1.692h24.518m-28.148-2.29-1.196 1.196m37.799-.598a4.227 4.227 0 1 1-8.454 0 4.227 4.227 0 0 1 8.454 0Zm-4.827-.598 1.196 1.196"/><path d="m6.71 32.918-4.08-1.165a2.536 2.536 0 0 1-1.839-2.439v-5.049a1.69 1.69 0 0 1 1.481-1.677l3.127-.391a12.68 12.68 0 0 0 4.099-1.241l4.012-2.006a11.836 11.836 0 0 1 5.293-1.25h7.533c2.09 0 4.137.596 5.9 1.718l6.6 4.2s7.664 0 12.445 2.22a3.363 3.363 0 0 1 1.928 3.058v2.806c0 1.309-.757 2.062-1.69 2.062"/><path d="M16.854 23.618h-1.631a4.227 4.227 0 0 1-2.99-1.238l-1.298-1.298m27.902 2.536h-18.6m-1.692 6.764h17.754M.791 26.154h1.69m48.192 1.692h2.043M23.62 23.618V17.7m-9.724 5.574 1.1-4.861"/></g></symbol><symbol viewBox="0 0 54 54" id="semi-truck" xmlns="http://www.w3.org/2000/svg"><path d="M26.328 34.616h-3.292m-17.106.001H4.75a.612.612 0 0 1-.612-.612v-2.738c0-.338.274-.612.612-.612h15.68m-4.248 3.961h-3.398m13.545-3.961h-2.68M33.684 19.01h1.922a6.147 6.147 0 0 1 5.748 3.965c.419 1.104.866 2.307 1.26 3.43.085.24.309.4.563.409 2.486.08 4.258.851 5.345 1.524a2.781 2.781 0 0 1 1.309 2.367v.959m-.001 3.216v1.673a.719.719 0 0 1-.72.719h-1.872m-15.999.001h7.655m-12.565-3.39V20.177c0-.644.523-1.166 1.167-1.166h3.745"/><path d="M44.669 40.87a4.18 4.18 0 1 0-3.2-7.723 4.18 4.18 0 0 0 3.2 7.724Z"/><path d="M43.611 38.32a1.42 1.42 0 1 0-1.086-2.622 1.42 1.42 0 0 0 1.086 2.622ZM21.21 40.872a4.18 4.18 0 1 0-3.199-7.724 4.18 4.18 0 0 0 3.2 7.724Z"/><path d="M20.154 38.321a1.42 1.42 0 1 0-1.087-2.622 1.42 1.42 0 0 0 1.087 2.622Zm-9.196 2.551a4.18 4.18 0 1 0-3.2-7.724 4.18 4.18 0 0 0 3.2 7.724Z"/><path d="M9.901 38.321A1.42 1.42 0 1 0 8.815 35.7a1.42 1.42 0 0 0 1.086 2.622ZM42.577 26.3H37.06a.54.54 0 0 1-.54-.541v-3.498a.54.54 0 0 1 .54-.54h3.644m-7.022 15.552V16.659A3.659 3.659 0 0 0 30.024 13h-.706a.276.276 0 0 0-.275.275v1.892c0 .152.123.276.275.276h.706c.672 0 1.216.544 1.216 1.216v20.614"/><path d="M27.073 38.523h3.424a.744.744 0 0 0 .744-.744v-3.896h-4.912v3.896c0 .41.333.744.744.744Z"/></symbol><symbol viewBox="0 0 15 15" id="tick_circle" xmlns="http://www.w3.org/2000/svg"><path fill-rule="evenodd" clip-rule="evenodd" d="M0 7.5a7.5 7.5 0 1 1 15 0 7.5 7.5 0 0 1-15 0Zm7.072 3.21 4.318-5.398-.78-.624-3.682 4.601L4.32 7.116l-.64.768 3.392 2.827Z"/></symbol><symbol viewBox="0 0 22 18" id="youtube" xmlns="http://www.w3.org/2000/svg"><path d="M1.461 14.265V3.735c0-.903.631-1.683 1.514-1.873a38.3 38.3 0 0 1 16.05 0c.883.19 1.514.97 1.514 1.873v10.53c0 .903-.631 1.683-1.514 1.873a38.298 38.298 0 0 1-16.05 0 1.915 1.915 0 0 1-1.514-1.873Z"/><path d="M9.637 12.332V5.698L14.32 9l-4.682 3.332Z"/></symbol></svg>