<?xml version="1.0" encoding="utf-8"?><svg xmlns="http://www.w3.org/2000/svg" xmlns:xlink="http://www.w3.org/1999/xlink"><symbol viewBox="0 0 10 10" id="cancel" xmlns="http://www.w3.org/2000/svg"><path fill-rule="evenodd" clip-rule="evenodd" d="M5 0a5 5 0 1 0 0 10A5 5 0 0 0 5 0Zm0 9.375a4.375 4.375 0 1 1 0-8.75 4.375 4.375 0 0 1 0 8.75Z"/><path fill-rule="evenodd" clip-rule="evenodd" d="M7.103 6.647 5.457 5l1.636-1.623a.31.31 0 0 0 0-.442.318.318 0 0 0-.446 0L5.012 4.556 3.353 2.897a.315.315 0 0 0-.446 0 .317.317 0 0 0 0 .448L4.564 5 2.898 6.654a.31.31 0 0 0 0 .441.318.318 0 0 0 .446 0l1.664-1.65 1.649 1.65a.315.315 0 0 0 .446 0 .317.317 0 0 0 0-.448Z"/></symbol><symbol viewBox="0 0 9 5" id="caret-down" xmlns="http://www.w3.org/2000/svg"><path d="M4.329 5a.656.656 0 0 0 .451-.206l3.612-3.622A.66.66 0 0 0 7.945 0a.656.656 0 0 0-.477.244L3.857 3.868A.66.66 0 0 0 4.329 5Z"/><path d="M4.308 5a.656.656 0 0 1-.452-.206L.245 1.172A.66.66 0 0 1 .692 0c.186.01.36.099.476.244L4.78 3.868A.66.66 0 0 1 4.308 5Z"/></symbol><symbol viewBox="0 0 14 9" id="eye" xmlns="http://www.w3.org/2000/svg"><path d="M13.508 4.166a7.878 7.878 0 0 0-2.777-2.715C9.568.768 8.339.426 7.046.426 5.752.426 4.524.767 3.36 1.45A7.877 7.877 0 0 0 .584 4.166a1.021 1.021 0 0 0-.148.509c0 .167.05.337.148.509A7.875 7.875 0 0 0 3.36 7.899c1.163.683 2.391 1.025 3.685 1.025 1.293 0 2.522-.34 3.685-1.022a7.826 7.826 0 0 0 2.777-2.718 1.02 1.02 0 0 0 .148-.509c0-.167-.05-.337-.148-.509ZM5.463 2.148c.44-.44.968-.66 1.583-.66.098 0 .182.035.25.103a.342.342 0 0 1 .104.251.342.342 0 0 1-.103.25.341.341 0 0 1-.251.104c-.423 0-.784.15-1.084.45-.3.3-.45.662-.45 1.085a.342.342 0 0 1-.104.25.341.341 0 0 1-.25.104.342.342 0 0 1-.251-.103.341.341 0 0 1-.104-.251c0-.615.22-1.143.66-1.583Zm4.788 4.936a6.075 6.075 0 0 1-3.205.896c-1.15 0-2.22-.299-3.205-.896a7.517 7.517 0 0 1-2.107-1.905.837.837 0 0 1-.002-1.01c.313-.417.655-.79 1.026-1.119.38-.337.983.173.983.68 0 .91.323 1.689.97 2.336.647.646 1.425.97 2.335.97.91 0 1.688-.324 2.335-.97.647-.647.97-1.425.97-2.335 0-.508.603-1.018.983-.68.37.328.713.701 1.026 1.119.225.3.224.71-.002 1.009a7.516 7.516 0 0 1-2.107 1.905Z"/></symbol><symbol viewBox="0 0 12 8" id="filter" xmlns="http://www.w3.org/2000/svg"><path fill-rule="evenodd" clip-rule="evenodd" d="M5.333 8h1.334c.366 0 .666-.3.666-.667 0-.366-.3-.666-.666-.666H5.333c-.366 0-.666.3-.666.666 0 .367.3.667.666.667ZM0 .667c0 .366.3.666.667.666h10.666c.367 0 .667-.3.667-.666C12 .3 11.7 0 11.333 0H.667C.3 0 0 .3 0 .667Zm2.667 4h6.666c.367 0 .667-.3.667-.667 0-.367-.3-.667-.667-.667H2.667C2.3 3.333 2 3.633 2 4c0 .367.3.667.667.667Z"/></symbol><symbol viewBox="0 0 17 17" id="grid" xmlns="http://www.w3.org/2000/svg"><rect width="8" height="8" rx="2"/><rect y="9" width="8" height="8" rx="2"/><rect x="9" width="8" height="8" rx="2"/><rect x="9" y="9" width="8" height="8" rx="2"/></symbol><symbol viewBox="0 0 11 11" id="grid-small" xmlns="http://www.w3.org/2000/svg"><rect width="3" height="3" rx="1"/><rect y="4" width="3" height="3" rx="1"/><rect y="8" width="3" height="3" rx="1"/><rect x="4" width="3" height="3" rx="1"/><rect x="8" width="3" height="3" rx="1"/><rect x="4" y="4" width="3" height="3" rx="1"/><rect x="4" y="8" width="3" height="3" rx="1"/><rect x="8" y="4" width="3" height="3" rx="1"/><rect x="8" y="8" width="3" height="3" rx="1"/></symbol><symbol viewBox="0 0 11 9" id="heart" xmlns="http://www.w3.org/2000/svg"><path d="M9.468 1.172a2.743 2.743 0 0 0-3.868 0l-.004.004a.36.36 0 0 1-.513-.004 2.74 2.74 0 0 0-3.874 0C.142 2.24.198 4.04 1.264 5.106l.199.199 3.33 3.338a.77.77 0 0 0 1.089 0l3.332-3.332.199-.199c1.064-1.064 1.122-2.865.055-3.94Zm-.196 2.056h-.003a1.83 1.83 0 0 1-.55 1.161l-.208.219a4.494 4.494 0 0 1-6.355 0l-.203-.21a1.831 1.831 0 0 1-.552-1.166A1.748 1.748 0 0 1 3.258 1.37a1.82 1.82 0 0 1 1.166.556l.212.21.368.368.524.524a.519.519 0 1 0 .733-.735.275.275 0 0 1 .01-.388l.024-.023a1.748 1.748 0 0 1 2.977 1.345Z"/></symbol><symbol viewBox="0 0 19 18" id="search" xmlns="http://www.w3.org/2000/svg"><path d="m17.734 16.452-3.805-3.805a.999.999 0 0 0-1.41 0 6.303 6.303 0 1 1 1.709-2.9.902.902 0 1 0 1.744.464 8.123 8.123 0 1 0-2.782 4.26l3.269 3.264a.9.9 0 0 0 1.275 0 .902.902 0 0 0 0-1.283Z"/></symbol></svg>