<svg width="430" height="391" viewBox="0 0 430 391" fill="none" xmlns="http://www.w3.org/2000/svg">
<g clip-path="url(#clip0_677_2164)">
<path d="M236.6 161.9C236.6 173.3 245.8 182.5 257.2 182.5H291.9C303.3 182.5 312.5 173.3 312.5 161.9V75.4L318.4 78.3C318.2 75.1 314.6 72.7 312.5 71.4V43.3C312.5 24.4 297.2 9 278.2 9H270.9C252 9 236.6 24.3 236.6 43.3V71.5C234.5 72.7 230.9 75.2 230.7 78.4L236.6 75.5V161.9Z" fill="#EBEFF1"/>
<path d="M222 69.6998C222.2 66.4998 225.8 64.0998 227.9 62.7998V34.5998C227.9 15.6998 243.2 0.299805 262.2 0.299805H269.5C288.4 0.299805 303.8 15.5998 303.8 34.5998V62.7998C305.9 63.9998 309.5 66.4998 309.7 69.6998L303.8 66.7998V153.3C303.8 164.7 294.6 173.9 283.2 173.9H248.5C237.1 173.9 227.9 164.7 227.9 153.3V66.7998L222 69.6998Z" fill="#50CECD"/>
<path d="M250.6 168.9H281.1C292.5 168.9 298.6 157.6 298.6 146.3L301.7 39.5002C301.7 20.6002 286.4 5.2002 267.4 5.2002H264.3C245.4 5.2002 230 20.5002 230 39.5002L233.1 146.3C233.2 157.7 239.3 168.9 250.6 168.9Z" fill="#81E0DB"/>
<path d="M299.6 104.3C300.1 104.1 300.5 104 301 103.8V103.9C301 120.1 298.7 146.3 298.7 146.3C298.7 146.3 292.1 149.5 292.1 131.4C292.1 123.6 292 115.2 292.1 107C294.5 106.1 297 105.2 299.6 104.3Z" fill="#45474A"/>
<path d="M292 103.6C292.1 93.9996 292.5 85.1996 293.4 78.9996C295.2 66.7996 300.9 48.5996 300.9 48.5996C300.9 48.5996 300.9 81.7996 300.9 99.6996C298 101 295 102.3 292 103.6Z" fill="#45474A"/>
<path d="M232.2 104.3C231.7 104.1 231.3 104 230.8 103.8V103.9C230.8 120.1 233.1 146.3 233.1 146.3C233.1 146.3 239.7 149.5 239.7 131.4C239.7 123.6 239.8 115.2 239.7 107C237.3 106.1 234.7 105.2 232.2 104.3Z" fill="#45474A"/>
<path d="M239.8 103.6C239.7 93.9996 239.3 85.1996 238.4 78.9996C236.6 66.7996 230.9 48.5996 230.9 48.5996C230.9 48.5996 230.9 81.7996 230.9 99.6996C233.8 101 236.8 102.3 239.8 103.6Z" fill="#45474A"/>
<path d="M232.2 104.3C231.7 104.1 231.3 104 230.8 103.8V103.9C230.8 120.1 233.1 146.3 233.1 146.3C233.1 146.3 239.7 149.5 239.7 131.4C239.7 123.6 239.8 115.2 239.7 107C237.3 106.1 234.7 105.2 232.2 104.3Z" fill="#45474A"/>
<path d="M239.8 103.6C239.7 93.9996 239.3 85.1996 238.4 78.9996C236.6 66.7996 230.9 48.5996 230.9 48.5996C230.9 48.5996 230.9 81.7996 230.9 99.6996C233.8 101 236.8 102.3 239.8 103.6Z" fill="#45474A"/>
<path d="M265.9 34.2002C244.3 34.2002 235.4 44.8002 235.4 44.8002L241.1 76.8002H265.9H290.7L296.4 44.8002C296.4 44.8002 287.4 34.2002 265.9 34.2002Z" fill="#45474A"/>
<path d="M296.4 18.0002C296.3 18.5002 295.9 18.9002 295.4 19.0002C295 19.1002 294.6 18.8002 294.2 18.6002C289.3 15.6002 285.5 10.7002 283.7 5.2002C289.2 8.1002 293.6 12.6002 296.4 18.0002Z" fill="#E9E8D8"/>
<path d="M235.3 18.0002C235.4 18.5002 235.8 18.9002 236.3 19.0002C236.7 19.1002 237.1 18.8002 237.5 18.6002C242.4 15.6002 246.2 10.7002 248 5.2002C242.6 8.1002 238.2 12.6002 235.3 18.0002Z" fill="#E9E8D8"/>
<path d="M235.3 161.4L239.8 169.5L244.4 158.4L241 156.6C240.3 156.2 239.4 156.4 238.9 157L235.3 161.4Z" fill="#FFCC00"/>
<path d="M296.4 161.4L291.9 169.5L287.3 158.4L290.7 156.6C291.4 156.2 292.3 156.4 292.8 157L296.4 161.4Z" fill="#FFCC00"/>
<path d="M287.3 158.399C281.9 160.699 265.9 160.599 265.9 160.599C265.9 160.599 249.9 160.799 244.5 158.399L239.9 169.499C244.4 172.599 265.9 171.799 265.9 171.799C265.9 171.799 287.4 172.499 291.9 169.499L287.3 158.399Z" fill="#45474A"/>
<path d="M125.9 67.6994C126.2 67.5994 129.1 66.3994 130.8 65.6994L130.9 66.1994C131.5 70.2994 131.8 74.4994 131.7 78.6994L131 124.999C131 127.699 130.5 130.399 129.7 132.999C128.9 135.699 128.4 138.599 128.4 141.399V161.899C128.4 173.299 137.6 182.499 149 182.499H183.7C195.1 182.499 204.3 173.299 204.3 161.899V141.399C204.3 138.499 203.9 135.699 203 132.999C202.2 130.399 201.8 127.699 201.7 124.999L201.1 78.6994C201 74.4994 201.3 70.3994 201.9 66.1994L202 65.6994C203.7 66.3994 206.5 67.5994 206.9 67.6994C207.4 67.7994 208.1 66.4994 207.4 65.0994C206.8 63.8994 203.8 61.6994 202.7 60.8994L203.5 54.9994C204 51.1994 204.3 47.3994 204.3 43.5994V35.4994C204.3 20.7994 192.4 8.89941 177.7 8.89941H155C140.3 8.89941 128.4 20.7994 128.4 35.4994V43.5994C128.4 47.3994 128.7 51.1994 129.2 54.9994L130 60.8994C128.9 61.6994 125.9 63.8994 125.3 65.0994C124.7 66.4994 125.4 67.7994 125.9 67.6994Z" fill="#EBEFF1"/>
<path d="M120.6 46.3998C120.1 42.5998 119.8 38.7998 119.8 34.9998V26.8998C119.8 12.1998 131.7 0.299805 146.4 0.299805H157.7H169C183.7 0.299805 195.6 12.1998 195.6 26.8998V34.9998C195.6 38.7998 195.3 42.5998 194.8 46.3998L193.2 57.4998C192.6 61.5998 192.3 65.7998 192.4 69.9998L193 116.3C193 119 193.5 121.7 194.3 124.3C195.1 127 195.6 129.9 195.6 132.7V153.2C195.6 164.6 186.4 173.8 175 173.8H157.6H140.2C128.8 173.8 119.6 164.6 119.6 153.2V132.7C119.6 129.8 120 127 120.9 124.3C121.7 121.7 122.1 119 122.2 116.3L122.8 69.9998C122.9 65.7998 122.6 61.6998 122 57.4998L120.6 46.3998Z" fill="#FF6F00"/>
<path d="M192.699 48.6998C193.199 45.1998 193.499 41.5998 193.499 37.9998V30.3998C193.499 16.4998 182.299 5.2998 168.399 5.2998H157.699H146.999C133.099 5.2998 121.899 16.4998 121.899 30.3998V37.9998C121.899 41.5998 122.199 45.1998 122.699 48.6998L124.199 59.1998C124.799 63.0998 124.999 66.9998 124.999 70.9998L124.399 114.7C124.399 117.3 123.999 119.8 123.199 122.3C122.399 124.9 121.999 127.5 121.999 130.2V149.6C121.999 160.3 130.699 169 141.399 169H157.799H174.199C184.899 169 193.599 160.3 193.599 149.6V130.2C193.599 127.5 193.199 124.8 192.399 122.3C191.599 119.8 191.199 117.3 191.199 114.7L190.499 70.9998C190.399 67.0998 190.699 63.0998 191.299 59.1998L192.699 48.6998Z" fill="#FF8B00"/>
<path d="M125 15.6001C122.8 12.4001 132.2 6.30008 134.9 8.40008C137.7 10.5001 126.7 18.2001 125 15.6001Z" fill="#E9E8D8"/>
<path d="M121.8 52C121.8 52 117.5 55 116.7 56.4C116 57.8 116.7 59.2 117.2 59C117.7 58.8 123.3 56.5 123.3 56.5L121.8 52Z" fill="#FF6600"/>
<path d="M128.599 95.1998C128.599 87.4998 128.499 80.8998 128.299 76.0998C127.599 60.8998 124.799 48.7998 124.799 48.7998C123.899 66.7998 123.499 81.4998 123.399 93.3998C125.099 94.0998 126.799 94.4998 128.599 95.1998Z" fill="#45474A"/>
<path d="M123.399 94.7002C123.099 131.3 125.799 140.4 125.799 140.4C127.699 133.1 128.499 113.4 128.599 96.5002C126.899 95.9002 125.099 95.1002 123.399 94.7002Z" fill="#45474A"/>
<path d="M186.8 95.1998C186.8 87.4998 186.9 80.8998 187.1 76.0998C187.8 60.8998 190.6 48.7998 190.6 48.7998C191.5 66.7998 191.9 81.4998 192 93.3998C190.3 94.0998 188.5 94.4998 186.8 95.1998Z" fill="#45474A"/>
<path d="M192 94.7002C192.3 131.3 189.6 140.4 189.6 140.4C187.7 133.1 186.9 113.4 186.8 96.5002C188.5 95.9002 190.2 95.1002 192 94.7002Z" fill="#45474A"/>
<path d="M135 168.9C134.5 169.9 132.1 169.8 129.6 168.6C127.1 167.4 125.5 165.6 126 164.6C126.5 163.6 128.9 163.7 131.4 164.9C133.8 166.1 135.5 167.9 135 168.9Z" fill="#FFCC00"/>
<path d="M190.399 15.6001C192.599 12.4001 183.199 6.30008 180.499 8.40008C177.699 10.5001 188.599 18.2001 190.399 15.6001Z" fill="#E9E8D8"/>
<path d="M193.6 52C193.6 52 197.9 55 198.7 56.4C199.4 57.8 198.7 59.2 198.2 59C197.7 58.9 192.1 56.5 192.1 56.5L193.6 52Z" fill="#FF6600"/>
<path d="M180.399 168.9C180.899 169.9 183.299 169.8 185.799 168.6C188.299 167.4 189.899 165.6 189.399 164.6C188.899 163.6 186.499 163.7 183.999 164.9C181.499 166.1 179.899 167.9 180.399 168.9Z" fill="#FFCC00"/>
<path d="M157.7 132.6C175.3 132.6 183.2 129.1 183.2 129.1V155.6C183.2 155.6 176.7 162.9 157.7 162.9C138.7 162.9 132.2 155.6 132.2 155.6V129.1C132.1 129.1 140 132.6 157.7 132.6ZM157.7 29.2998C133.2 29.2998 127 42.6998 127 42.6998L130.3 69.0998C130.3 69.0998 144.3 66.0998 157.7 66.0998C171.1 66.0998 185.1 69.0998 185.1 69.0998L188.4 42.6998C188.4 42.7998 182.2 29.2998 157.7 29.2998Z" fill="#45474A"/>
<path d="M19.4997 73.2002L17.7997 140.1C17.7997 151.5 26.9997 182.9 38.3997 182.9H71.9997C83.3997 182.9 92.5997 151.5 92.5997 140.1L90.8997 73.2002L96.0997 74.5002C96.0997 74.5002 97.1997 70.2002 90.7997 69.3002L90.6997 65.9002C90.6997 64.6002 90.6997 63.2002 90.7997 61.9002L92.1997 46.3002C93.0997 36.1002 89.6997 23.1002 82.4997 15.9002C76.2997 9.7002 66.6997 8.7002 57.1997 8.7002H53.0997C43.5997 8.7002 33.9997 9.7002 27.7997 15.9002C20.5997 23.1002 17.0997 36.1002 18.0997 46.3002L19.4997 61.9002C19.5997 63.2002 19.6997 64.5002 19.5997 65.9002L19.4997 69.3002C13.1997 70.2002 14.1997 74.5002 14.1997 74.5002L19.4997 73.2002Z" fill="#EBEFF1"/>
<path d="M10.9996 57.2C10.9996 55.9 10.9996 54.5 10.8996 53.2L9.49961 37.6C8.49961 27.4 11.9996 14.4 19.1996 7.2C25.3996 1 34.9996 0 44.4996 0H48.5996C57.9996 0 67.6996 1 73.8996 7.2C81.0996 14.4 84.5996 27.4 83.5996 37.6L82.1996 53.2C82.0996 54.5 81.9996 55.8 82.0996 57.2L83.9996 131.5C83.9996 142.9 74.7996 174.3 63.3996 174.3H29.6996C18.2996 174.3 9.09961 142.9 9.09961 131.5L10.9996 57.2Z" fill="#E13E26"/>
<path d="M76.6001 63.0996C76.6001 61.7996 80.4001 56.0996 80.5001 54.7996L81.9001 39.8996C82.8001 30.1996 79.5001 17.7996 72.6001 10.8996C66.7001 4.99961 57.5001 4.09961 48.5001 4.09961H44.6001C35.6001 4.09961 26.4001 4.99961 20.5001 10.8996C13.6001 17.7996 10.3001 30.1996 11.2001 39.8996L12.6001 54.7996C12.7001 56.0996 16.5001 61.7996 16.5001 63.0996V132.2C16.5001 143 19.7001 170.2 30.5001 170.2H62.6001C73.4001 170.2 76.6001 143 76.6001 132.2V63.0996Z" fill="#FF6148"/>
<path d="M13.4999 60.3994V63.8994L5.69994 65.7994C5.69994 65.7994 4.39994 60.3994 13.4999 60.3994Z" fill="#E13E26"/>
<path d="M15.4004 96.8994C15.4004 97.0994 15.4004 97.2994 15.4004 97.5994C15.4004 114.899 16.5004 132.099 16.5004 132.099C16.5004 132.099 20.8004 119.499 20.8004 114.899V97.9994C19.0004 97.4994 17.2004 97.1994 15.4004 96.8994Z" fill="#45474A"/>
<path d="M20.8004 95.9996V80.1996C20.8004 77.4996 16.5004 63.0996 16.5004 63.0996C16.5004 63.0996 15.6004 78.2996 15.4004 94.3996C17.2004 94.7996 19.0004 95.3996 20.8004 95.9996Z" fill="#45474A"/>
<path d="M77.6998 96.8994C77.6998 97.0994 77.6998 97.2994 77.6998 97.5994C77.6998 114.899 76.5998 132.099 76.5998 132.099C76.5998 132.099 72.2998 119.499 72.2998 114.899V97.9994C74.0998 97.4994 75.8998 97.1994 77.6998 96.8994Z" fill="#45474A"/>
<path d="M72.2998 95.9996V80.1996C72.2998 77.4996 76.5998 63.0996 76.5998 63.0996C76.5998 63.0996 77.4998 78.2996 77.6998 94.3996C75.7998 94.7996 74.0998 95.3996 72.2998 95.9996Z" fill="#45474A"/>
<path d="M79.5996 60.3994V63.8994L87.3996 65.7994C87.3996 65.7994 88.6996 60.3994 79.5996 60.3994Z" fill="#E13E26"/>
<path d="M22.7998 75.5L16.2998 50.5C16.2998 50.5 23.0998 41 46.4998 41C69.8998 41 76.6998 50.5 76.6998 50.5L70.1998 75.5C70.1998 75.5 57.1998 72.4 46.3998 72.4C35.7998 72.5 22.7998 75.5 22.7998 75.5ZM68.2998 130.8C64.3998 131.7 54.3998 133.5 46.5998 133.5C38.7998 133.5 28.7998 131.7 24.8998 130.8C23.7998 130.6 22.7998 131.3 22.7998 132.4L21.9998 155.2C21.9998 155.8 22.2998 156.4 22.7998 156.7C31.8998 162.1 46.5998 161.4 46.5998 161.4C46.5998 161.4 61.2998 162.1 70.3998 156.7C70.8998 156.4 71.2998 155.8 71.1998 155.2L70.3998 132.4C70.2998 131.4 69.2998 130.6 68.2998 130.8Z" fill="#45474A"/>
<path d="M16.2998 13.0996C21.6998 11.7996 25.0998 5.69961 24.8998 4.09961C23.3998 4.89961 21.8998 5.99961 20.6998 7.29961C18.9998 8.89961 17.4998 10.8996 16.2998 13.0996Z" fill="#E9E8D8"/>
<path d="M76.7998 13.0996C71.3998 11.7996 67.9998 5.69961 68.1998 4.09961C69.6998 4.89961 71.1998 5.99961 72.3998 7.29961C74.0998 8.89961 75.4998 10.8996 76.7998 13.0996Z" fill="#E9E8D8"/>
<path d="M202.9 272.4V248.6C202.9 233.5 190.7 221.3 175.6 221.3H157.2C142.1 221.3 129.9 233.5 129.9 248.6V272.4C121.8 274.3 121.8 279.3 121.8 279.3C121.8 279.3 127.2 278.1 129.9 277.2V367.7C129.9 376.2 136.8 383 145.2 383H187.6C196.1 383 202.9 376.1 202.9 367.7V277.2C205.7 278.1 211 279.3 211 279.3C211 279.3 211 274.3 202.9 272.4Z" fill="#EBEFF1"/>
<path d="M181.3 374.3H134.1C126.9 374.3 121.1 368.5 121.1 361.3V240.6C121.1 225.1 133.7 212.5 149.2 212.5H166.2C181.7 212.5 194.3 225.1 194.3 240.6V361.3C194.2 368.5 188.4 374.3 181.3 374.3Z" fill="#2A89E4"/>
<path d="M166.6 367H148.7C134.3 367 127.1 364.6 127.1 350.2L132.3 284.3L122.6 243.4C122.6 228.3 134.8 216.1 149.9 216.1H165.2C180.3 216.1 192.5 228.3 192.5 243.4L182.8 284.3L188 350.2C188.2 364.6 181 367 166.6 367Z" fill="#54A0E9"/>
<path d="M122.5 263.4C124.5 263.1 123.9 267 122.5 267.9C121.1 268.8 113 270.6 113 270.6C113 270.6 113 265 122.5 263.4Z" fill="#2A89E4"/>
<path d="M123.8 254.6C123.8 254.6 129.3 281.7 129.9 286.9C130.4 292.1 131 346 129.9 348.4C128.8 350.7 127.2 350.2 127.2 350.2C127.2 350.2 123.8 343.9 123.8 312.1C123.8 280.3 123.8 254.6 123.8 254.6Z" fill="#45474A"/>
<path d="M125.6 359.7C126 361.1 132.1 367.6 132.4 368.9C132.8 370.2 129.2 371.7 125.6 367.8C122 364 125.6 359.7 125.6 359.7Z" fill="#FF6166"/>
<path d="M133.5 367C133.5 367 137.9 368.2 139.7 371.5C139.7 371.5 134 371.2 133.5 367Z" fill="#FFCC00"/>
<path d="M125.2 234C125.2 234 124.2 221.6 136.6 218.5C136.6 218.5 133.3 230 125.2 234Z" fill="#E9E8D8"/>
<path d="M192.8 263.4C190.8 263.1 191.4 267 192.8 267.9C194.2 268.8 202.3 270.6 202.3 270.6C202.3 270.6 202.4 265 192.8 263.4Z" fill="#2A89E4"/>
<path d="M191.6 254.6C191.6 254.6 186.1 281.7 185.5 286.9C185 292.1 184.4 346 185.5 348.4C186.6 350.7 188.2 350.2 188.2 350.2C188.2 350.2 191.6 343.9 191.6 312.1C191.6 280.3 191.6 254.6 191.6 254.6Z" fill="#45474A"/>
<path d="M132.4 284.3C132.4 284.3 126 257 127.2 252C128.3 247 142.3 243.2 157.7 243.2C173.1 243.2 187.1 247 188.2 252C189.3 257 183 284.3 183 284.3C183 284.3 174.5 282.7 157.7 282.7C140.9 282.7 132.4 284.3 132.4 284.3ZM157.7 364.4C139 364.4 133.5 359.7 133.5 359.7L129.7 362.6C140.8 370.7 157.7 369.8 157.7 369.8C157.7 369.8 174.5 370.7 185.7 362.6L181.9 359.7C181.9 359.7 176.4 364.4 157.7 364.4Z" fill="#45474A"/>
<path d="M189.8 359.7C189.4 361.1 183.3 367.6 183 368.9C182.6 370.2 186.2 371.7 189.8 367.8C193.4 364 189.8 359.7 189.8 359.7Z" fill="#FF6166"/>
<path d="M181.9 367C181.9 367 177.5 368.2 175.7 371.5C175.7 371.5 181.3 371.2 181.9 367Z" fill="#FFCC00"/>
<path d="M190.1 234C190.1 234 191.1 221.6 178.7 218.5C178.8 218.5 182.1 230 190.1 234Z" fill="#E9E8D8"/>
<path d="M238 375.2C238 383.7 244.9 390.5 253.3 390.5H295.7C304.2 390.5 311 383.6 311 375.2V270.2L318.8 271.9L319.1 270.6C319.4 269.1 318.6 267.7 317.1 267.3L311 265.6V241C311 225.9 298.8 213.7 283.7 213.7H265.3C250.2 213.7 238 225.9 238 241V265.6L231.9 267.3C230.4 267.7 229.6 269.2 229.9 270.6L230.2 271.9L238 270.2V375.2Z" fill="#EBEFF1"/>
<path d="M241.5 381.8H290.2C296.9 381.8 302.4 376.4 302.4 369.6V232.3C302.4 217.2 290.2 205 275.1 205H256.6C241.5 205 229.3 217.2 229.3 232.3V369.7C229.3 376.4 234.8 381.8 241.5 381.8Z" fill="#6F686C"/>
<path d="M246.5 377.3H285.2C293.7 377.3 300.5 370.4 300.5 362L288.8 329.7L289.1 270L300.5 236.9C300.5 221.8 288.3 209.6 273.2 209.6H258.5C243.4 209.6 231.2 221.8 231.2 236.9L242.6 270L242.9 329.7L231.2 362C231.2 370.5 238.1 377.3 246.5 377.3Z" fill="#807A7E"/>
<path d="M247.7 209.4C248 208.7 248 208 248 207.3C243.2 209.2 239.1 212.6 236.2 217C238 215.5 240 214.3 242.1 213.4C244.2 212.5 246.8 211.6 247.7 209.4Z" fill="#E9E8D8"/>
<path d="M284.1 209.4C283.8 208.7 283.8 208 283.8 207.3C288.6 209.2 292.7 212.6 295.6 217C293.8 215.5 291.8 214.3 289.7 213.4C287.5 212.5 285 211.6 284.1 209.4Z" fill="#E9E8D8"/>
<path d="M239.9 299.3C239.8 290.2 239.6 281.9 239.6 278.8C239.6 269.6 232.8 261 232.8 261V296.5C235 297.6 237.4 298.5 239.9 299.3Z" fill="#45474A"/>
<path d="M239.7 321.9C240 316.1 240 308.2 239.9 300.6C237.5 299.9 235.1 299.2 232.7 298.4V325.4C235.1 324.3 237.4 323.2 239.7 321.9Z" fill="#45474A"/>
<path d="M232.7 327.3V336.7C232.7 336.7 238.6 336.5 239.5 324.3C239.5 324 239.5 323.6 239.6 323.3C237.3 324.7 235.1 326.2 232.7 327.3Z" fill="#45474A"/>
<path d="M231.2 256.4L223.2 258.6C221.7 259 220.9 260.5 221.2 261.9L221.5 263.2L231.2 261V256.4Z" fill="#6F686C"/>
<path d="M275.1 205.8H256.7C254.5 205.8 252.3 206.1 250.2 206.6C252.5 208.2 255.3 209.1 258.2 209.1H273.6C276.4 209.1 279.2 208.2 281.6 206.6C279.5 206 277.3 205.8 275.1 205.8Z" fill="#45474A"/>
<path d="M291.9 299.3C292 290.2 292.2 281.9 292.2 278.8C292.2 269.6 299 261 299 261V296.5C296.7 297.6 294.3 298.5 291.9 299.3Z" fill="#45474A"/>
<path d="M292.1 321.9C291.8 316.1 291.8 308.2 291.9 300.6C294.3 299.9 296.7 299.2 299.1 298.4V325.4C296.7 324.3 294.4 323.2 292.1 321.9Z" fill="#45474A"/>
<path d="M299.1 327.3V336.7C299.1 336.7 293.2 336.5 292.3 324.3C292.3 324 292.3 323.6 292.2 323.3C294.4 324.7 296.7 326.2 299.1 327.3Z" fill="#45474A"/>
<path d="M295.4 255.1C295 258 293.6 263.9 289.2 270C288.6 270.8 287.6 271.3 286.5 271.2C283 270.9 274.6 270.3 265.9 270.3C257.2 270.3 248.8 270.9 245.3 271.2C244.3 271.3 243.2 270.8 242.6 270C238.1 264 236.8 258.1 236.4 255.1C236.2 253.8 236.8 252.6 237.9 252C241 250.3 248.8 247.4 265.9 247.4C283 247.4 290.8 250.3 293.9 252C295 252.6 295.6 253.9 295.4 255.1ZM288.8 329.7C288.8 329.7 279.2 334.6 265.8 334.6C252.5 334.6 242.8 329.7 242.8 329.7C240.9 335.1 240.2 342.3 239.9 346.2C239.8 347.9 240.7 349.5 242.3 350.3C246.3 352.3 254.9 355.8 265.8 355.8C276.7 355.8 285.2 352.3 289.3 350.3C290.8 349.5 291.8 347.9 291.7 346.2C291.4 342.3 290.7 335.1 288.8 329.7Z" fill="#45474A"/>
<path d="M300.5 256.4L308.5 258.6C310 259 310.8 260.5 310.5 261.9L310.2 263.2L300.5 261V256.4Z" fill="#6F686C"/>
<path d="M241.1 379.7C238.8 379 236.7 377.8 235 376.1C234.6 375.7 234.1 375.2 233.6 374.9C233.2 374.7 232.7 374.7 232.3 374.8C234.7 378.1 238.4 380.4 242.7 381C242.6 380.2 241.8 379.9 241.1 379.7Z" fill="#FFCC00"/>
<path d="M290.701 379.7C293.001 379 295.101 377.8 296.801 376.1C297.201 375.7 297.701 375.2 298.201 374.9C298.601 374.7 299.101 374.7 299.501 374.8C297.101 378.1 293.401 380.4 289.101 381C289.101 380.2 290.001 379.9 290.701 379.7Z" fill="#FFCC00"/>
<path d="M94.6998 270.4C94.0998 252 92.6998 237.6 91.6998 229.1C90.9998 223.4 87.0998 218.7 81.5998 217.1C75.3998 215.2 66.2998 213.3 55.1998 213.3C44.0998 213.3 34.9998 215.2 28.7998 217.1C23.3998 218.7 19.3998 223.5 18.6998 229.1C17.6998 237.6 16.2998 252 15.6998 270.4C13.8998 270.7 10.6998 271.4 8.89983 273.7C8.19983 274.6 8.89983 275.8 9.99983 275.7L15.4998 275C15.3998 279.9 15.2998 285 15.2998 290.3C15.2998 322.2 18.7998 361.5 20.3998 378.5C20.8998 383.7 24.8998 388 30.0998 388.8C36.1998 389.8 44.9998 390.9 55.1998 390.9C65.3998 390.9 74.1998 389.9 80.2998 388.8C85.4998 387.9 89.3998 383.7 89.9998 378.5C91.6998 361.4 95.0998 322.1 95.0998 290.3C95.0998 284.9 94.9998 279.8 94.8998 275L100.4 275.7C101.5 275.8 102.2 274.6 101.5 273.7C99.6998 271.4 96.4998 270.6 94.6998 270.4Z" fill="#EBEFF1"/>
<path d="M82.9996 220.4C82.2996 214.7 78.3996 210 72.8996 208.4C66.6996 206.5 57.5996 204.6 46.4996 204.6C35.3996 204.6 26.2996 206.5 20.0996 208.4C14.6996 210 10.6996 214.8 9.99961 220.4C8.69961 231.8 6.59961 253.6 6.59961 281.7C6.59961 313.6 10.0996 352.9 11.6996 369.9C12.1996 375.1 16.1996 379.4 21.3996 380.2C27.4996 381.2 36.2996 382.3 46.4996 382.3C56.6996 382.3 65.4996 381.3 71.5996 380.2C76.7996 379.3 80.6996 375.1 81.2996 369.9C82.9996 352.8 86.3996 313.5 86.3996 281.7C86.3996 253.6 84.3996 231.8 82.9996 220.4Z" fill="#FFA400"/>
<path d="M81.7994 222.8C81.1994 217.3 77.2994 212.8 72.0994 211.2C66.0994 209.4 57.2994 207.5 46.4994 207.5C35.6994 207.5 26.8994 209.4 20.8994 211.2C15.5994 212.8 11.7994 217.4 11.1994 222.8C9.89937 233.8 16.6994 249.8 16.6994 276.9C16.6994 307.7 17.9994 332.9 19.5994 349.4C20.0994 354.5 17.1994 376.6 22.2994 377.4C28.1994 378.4 36.6994 379.4 46.5994 379.4C56.4994 379.4 64.9994 378.4 70.8994 377.4C75.8994 376.6 73.0994 354.4 73.5994 349.4C75.1994 332.9 76.4994 307.7 76.4994 276.9C76.2994 249.7 83.0994 233.8 81.7994 222.8Z" fill="#FFE04A"/>
<path d="M8.29964 261.6C8.29964 261.6 2.69964 261.8 0.199638 265.1C-0.500362 266 0.199638 267.2 1.29964 267.1L8.29964 266.3V261.6Z" fill="#FFA400"/>
<path d="M31.1998 206.899C26.8998 207.599 23.0998 208.499 20.0998 209.499C17.8998 210.199 15.8998 211.399 14.2998 212.899C14.3998 213.299 14.6998 213.699 15.0998 213.799C15.8998 214.099 16.8998 213.699 17.6998 213.299C21.9998 211.299 26.1998 209.299 30.4998 207.299C30.6998 207.199 30.8998 206.999 31.1998 206.899Z" fill="#E9E8D8"/>
<path d="M84.6992 261.6C84.6992 261.6 90.2992 261.8 92.7992 265.1C93.4992 266 92.7992 267.2 91.6992 267.1L84.6992 266.3V261.6Z" fill="#FFA400"/>
<path d="M61.8994 206.899C66.1994 207.599 69.9994 208.499 72.9994 209.499C75.1994 210.199 77.1994 211.399 78.7994 212.899C78.6994 213.299 78.3994 213.699 77.9994 213.799C77.1994 214.099 76.1994 213.699 75.3994 213.299C71.0994 211.299 66.8994 209.299 62.5994 207.299C62.3994 207.199 62.0994 206.999 61.8994 206.899Z" fill="#E9E8D8"/>
<path d="M19.5996 349.399V375.099C19.5996 377.199 21.0996 378.999 23.1996 379.299C31.3996 380.599 46.4996 380.799 46.4996 380.799C46.4996 380.799 61.5996 380.599 69.7996 379.299C71.8996 378.999 73.3996 377.199 73.3996 375.099V349.399H19.5996Z" fill="#45474A"/>
<path d="M46.4994 225.399C25.0994 225.399 12.8994 238.599 12.8994 238.599L16.6994 276.899C16.6994 276.899 29.5994 269.799 46.4994 269.799C63.3994 269.799 76.2994 276.899 76.2994 276.899L80.0994 238.599C80.1994 238.599 67.9994 225.399 46.4994 225.399Z" fill="#45474A"/>
<path d="M14.5994 343.099C14.4994 333.799 14.3994 323.299 14.2994 313.499C12.2994 312.499 10.2994 311.599 8.39941 310.699C8.69941 322.499 9.59941 333.699 10.6994 343.099H14.5994Z" fill="#45474A"/>
<path d="M11.0996 345.8C12.8996 360 14.7996 369.4 14.7996 369.4C14.7996 369.4 14.6996 359.2 14.5996 345.6C13.4996 345.7 12.2996 345.8 11.0996 345.8Z" fill="#45474A"/>
<path d="M14.2998 309.5C14.1998 296.1 13.9998 284.7 13.7998 280.7C13.2998 268.7 9.9998 247.6 9.9998 247.6C9.9998 247.6 8.2998 269.9 8.2998 304.1V304.2C10.2998 306.2 12.2998 307.9 14.2998 309.5Z" fill="#45474A"/>
<path d="M78.3994 343.099C78.4994 333.799 78.5994 323.299 78.6994 313.499C80.6994 312.499 82.6994 311.599 84.5994 310.699C84.2994 322.499 83.3994 333.699 82.2994 343.099H78.3994Z" fill="#45474A"/>
<path d="M81.9998 345.8C80.1998 360 78.2998 369.4 78.2998 369.4C78.2998 369.4 78.3998 359.2 78.4998 345.6C79.5998 345.7 80.7998 345.8 81.9998 345.8Z" fill="#45474A"/>
<path d="M78.6992 309.5C78.7992 296.1 78.9992 284.7 79.1992 280.7C79.6992 268.7 82.9992 247.6 82.9992 247.6C82.9992 247.6 84.6992 269.9 84.6992 304.1V304.2C82.7992 306.2 80.7992 307.9 78.6992 309.5Z" fill="#45474A"/>
<path d="M406 390.1C414.5 390.1 421.3 383.2 421.3 374.8V273.6C424.1 274.5 429.4 275.7 429.4 275.7C429.4 275.7 429.4 270.7 421.3 268.8V242C421.3 228.6 410.4 217.7 397 217.7H372.5C359.1 217.7 348.2 228.6 348.2 242V268.8C340.1 270.7 340.1 275.7 340.1 275.7C340.1 275.7 345.5 274.5 348.2 273.6V374.8C348.2 383.3 355.1 390.1 363.5 390.1H406Z" fill="#EBEFF1"/>
<path d="M401.2 381.5H351.1C344.8 381.5 339.6 376.4 339.6 370V233.2C339.6 219.8 350.4 209 363.8 209H388.5C401.9 209 412.7 219.8 412.7 233.2V370C412.7 376.4 407.5 381.5 401.2 381.5Z" fill="#231D27"/>
<path d="M341 259.8C343 259.5 342.4 263.4 341 264.3C339.6 265.2 331.5 267 331.5 267C331.5 267 331.4 261.5 341 259.8Z" fill="#231D27"/>
<path d="M411.3 259.8C409.3 259.5 409.9 263.4 411.3 264.3C412.7 265.2 420.8 267 420.8 267C420.8 267 420.8 261.5 411.3 259.8Z" fill="#231D27"/>
<path d="M367.2 374.2H385.1C399.5 374.2 406.7 371.8 406.7 357.4L401.5 280.7L411.2 234.4C411.2 219.3 399 211 383.9 211H368.6C353.5 211 341.3 219.3 341.3 234.4L351 280.7L345.8 357.4C345.6 371.8 352.8 374.2 367.2 374.2Z" fill="#2B252F"/>
<path d="M342.3 251C342.3 251 347.8 278.1 348.4 283.3C349 288.5 349.5 353.2 348.4 355.5C347.3 357.8 345.7 357.3 345.7 357.3C345.7 357.3 342.3 343.8 342.3 312C342.3 280.3 342.3 251 342.3 251Z" fill="#45474A"/>
<path d="M344 366.9C344.4 368.3 350.5 374.8 350.8 376.1C351.2 377.4 347.6 378.9 344 375C340.4 371.2 344 366.9 344 366.9Z" fill="#FF6166"/>
<path d="M410 251C410 251 404.5 278.1 403.9 283.3C403.4 288.5 402.8 353.2 403.9 355.5C405 357.8 406.6 357.3 406.6 357.3C406.6 357.3 410 343.8 410 312C410 280.3 410 251 410 251Z" fill="#45474A"/>
<path d="M350.9 280.7C350.9 280.7 344.5 253.4 345.7 248.4C346.8 243.4 360.8 239.6 376.2 239.6C391.6 239.6 405.6 243.4 406.7 248.4C407.8 253.4 401.5 280.7 401.5 280.7C401.5 280.7 393 279.1 376.2 279.1C359.4 279.1 350.9 280.7 350.9 280.7ZM376.1 371.6C357.4 371.6 351.9 366.9 351.9 366.9L348.1 369.8C359.2 377.9 376.1 377 376.1 377C376.1 377 392.9 377.9 404.1 369.8L400.3 366.9C400.3 366.9 394.9 371.6 376.1 371.6Z" fill="#45474A"/>
<path d="M408.2 366.9C407.8 368.3 401.7 374.8 401.4 376.1C401 377.4 404.6 378.9 408.2 375C411.8 371.2 408.2 366.9 408.2 366.9Z" fill="#FF6166"/>
<path d="M358.4 214.2C358.3 212.9 357.5 211.8 356.5 211C352 212.8 348.2 215.9 345.6 219.9C348.7 220.8 352.2 220.5 355.1 219C356.9 217.9 358.6 216.2 358.4 214.2Z" fill="#E9E8D8"/>
<path d="M393.8 214.2C393.9 212.9 394.7 211.8 395.7 211C400.2 212.8 404 215.9 406.6 219.9C403.5 220.8 400 220.5 397.1 219C395.4 217.9 393.7 216.2 393.8 214.2Z" fill="#E9E8D8"/>
<path d="M397.7 311.9H354.6C353.2 311.9 352 310.8 352 309.3V290.8C352 289.4 353.1 288.2 354.6 288.2H397.7C399.1 288.2 400.3 289.3 400.3 290.8V309.3C400.2 310.7 399.1 311.9 397.7 311.9Z" fill="#45474A"/>
<path d="M345.199 161.9C345.199 173.3 354.399 182.5 365.799 182.5H400.499C411.899 182.5 421.099 173.3 421.099 161.9V75.4L426.999 78.3C426.799 75.1 423.199 72.7 421.099 71.4V32.2C420.999 19.4 410.599 9 397.799 9H368.299C355.499 9 345.099 19.4 345.099 32.2V71.5C342.999 72.7 339.399 75.2 339.199 78.4L345.099 75.5V161.9H345.199Z" fill="#EBEFF1"/>
<path d="M330.6 69.6998C330.8 66.4998 334.4 64.0998 336.5 62.7998V23.4998C336.5 10.6998 346.9 0.299805 359.7 0.299805H389.2C402 0.299805 412.4 10.6998 412.4 23.4998V62.7998C414.5 63.9998 418.1 66.4998 418.3 69.6998L412.4 66.7998V153.3C412.4 164.7 403.2 173.9 391.8 173.9H357C345.6 173.9 336.4 164.7 336.4 153.3V66.7998L330.6 69.6998Z" fill="#1FB80F"/>
<path d="M349.6 76.8002L338.6 27.1002C338.6 15.0002 348.4 5.2002 360.5 5.2002H388.4C400.5 5.2002 410.3 15.0002 410.3 27.1002L399.3 76.8002C401.3 78.0002 400.6 103.6 400.6 103.6V142.2C400.6 152.9 401.6 169 390.9 169H358C347.3 169 348.4 151.2 348.4 140.5L348.3 103.7C348.3 103.6 347.6 77.9002 349.6 76.8002Z" fill="#50CE5A"/>
<path d="M355.3 82.5H351.8V140.4H355.3V82.5Z" fill="#45474A"/>
<path d="M397 82.5H393.5V140.4H397V82.5Z" fill="#45474A"/>
<path d="M400.5 103.6C400.6 93.9996 401 85.1996 401.9 78.9996C403.7 66.7996 409.4 48.5996 409.4 48.5996C409.4 48.5996 409.4 81.7996 409.4 99.6996C406.5 101 403.5 102.3 400.5 103.6Z" fill="#45474A"/>
<path d="M407.9 136.199C407.5 142.199 407.1 146.299 407.1 146.299C407.1 146.299 400.5 149.499 400.5 131.399C400.5 130.599 400.5 129.699 400.5 128.899C403 131.299 405.5 133.799 407.9 136.199Z" fill="#45474A"/>
<path d="M400.5 126.799C400.5 120.399 400.5 113.599 400.5 107.099C403 106.199 405.6 105.299 408.1 104.399C408.6 104.199 409 104.099 409.5 103.899V103.999C409.5 112.799 408.8 124.699 408.2 133.599C405.7 131.099 403.1 128.999 400.5 126.799Z" fill="#45474A"/>
<path d="M348.299 103.6C348.199 93.9996 347.799 85.1996 346.899 78.9996C345.099 66.7996 339.399 48.5996 339.399 48.5996C339.399 48.5996 339.399 81.7996 339.399 99.6996C342.299 101 345.299 102.3 348.299 103.6Z" fill="#45474A"/>
<path d="M348.299 103.6C348.199 93.9996 347.799 85.1996 346.899 78.9996C345.099 66.7996 339.399 48.5996 339.399 48.5996C339.399 48.5996 339.399 81.7996 339.399 99.6996C342.299 101 345.299 102.3 348.299 103.6Z" fill="#45474A"/>
<path d="M340.899 136.199C341.299 142.199 341.699 146.299 341.699 146.299C341.699 146.299 348.299 149.499 348.299 131.399C348.299 130.599 348.299 129.699 348.299 128.899C345.799 131.299 343.399 133.799 340.899 136.199Z" fill="#45474A"/>
<path d="M348.399 126.799C348.399 120.399 348.399 113.599 348.399 107.099C345.899 106.199 343.299 105.299 340.799 104.399C340.299 104.199 339.899 104.099 339.399 103.899V103.999C339.399 112.799 340.099 124.699 340.699 133.599C343.099 131.099 345.799 128.999 348.399 126.799Z" fill="#45474A"/>
<path d="M374.399 34.2002C352.799 34.2002 343.899 44.8002 343.899 44.8002L349.599 76.8002H374.399H399.199L404.899 44.8002C404.999 44.8002 395.999 34.2002 374.399 34.2002Z" fill="#45474A"/>
<path d="M400.1 145.3C400.1 145.3 389.4 150.7 374.4 150.7C359.5 150.7 348.7 145.3 348.7 145.3C346.6 151.3 345.8 155.8 345.5 160.1C345.4 162 346.4 163.8 348.1 164.7C352.6 166.9 362.2 170.8 374.3 170.8C386.4 170.8 396 166.9 400.5 164.7C402.2 163.8 403.3 162 403.1 160.1C403 155.8 402.2 151.4 400.1 145.3Z" fill="#45474A"/>
<path d="M354.499 170.7C351.699 167.5 347.199 165.7 342.899 166C342.899 166.3 342.899 166.5 342.899 166.8C346.199 169.9 350.599 172 355.499 172.3C355.299 171.7 354.899 171.2 354.499 170.7Z" fill="#FF6148"/>
<path d="M394.3 170.7C397.1 167.5 401.6 165.7 405.9 166C405.9 166.3 405.9 166.5 405.9 166.8C402.6 169.9 398.2 172 393.3 172.3C393.5 171.7 393.9 171.2 394.3 170.7Z" fill="#FF6148"/>
<path d="M341.7 14.8999C339.5 11.6999 348.9 5.59988 351.6 7.69988C354.4 9.79988 343.5 17.4999 341.7 14.8999Z" fill="#E9E8D8"/>
<path d="M407.099 14.8999C409.299 11.6999 399.899 5.59988 397.199 7.69988C394.399 9.79988 405.299 17.4999 407.099 14.8999Z" fill="#E9E8D8"/>
</g>
<defs>
<clipPath id="clip0_677_2164">
<rect width="429.5" height="391" fill="white"/>
</clipPath>
</defs>
</svg>
