<svg width="407" height="458" viewBox="0 0 407 458" fill="none" xmlns="http://www.w3.org/2000/svg">
<path d="M97.357 134.687L97.669 134.617L90.2463 101.624C87.7825 90.6733 94.6963 79.8026 105.664 77.335L226.109 50.2371C237.077 47.7695 247.981 54.6316 250.444 65.5824L257.867 98.5748L258.179 98.5046C259.614 98.1816 261.028 99.073 261.35 100.504L266.484 123.323C266.806 124.754 265.91 126.165 264.475 126.488L264.163 126.558L265.388 132.003L265.7 131.933C267.135 131.61 268.549 132.501 268.871 133.932L274.005 156.751C274.326 158.182 273.431 159.593 271.996 159.916L271.684 159.986L316.657 359.885C319.117 370.82 312.223 381.703 301.239 384.174L180.794 411.272C169.826 413.74 158.923 406.878 156.459 395.927L107.118 176.615L106.806 176.685C105.371 177.008 103.957 176.117 103.635 174.686L95.348 137.852C95.0261 136.42 95.9216 135.01 97.357 134.687Z" fill="#333343"/>
<path d="M181.759 405.94L298.085 379.769C306.994 377.764 312.597 368.937 310.599 360.055L244.904 68.0547C242.905 59.1727 234.062 53.5959 225.153 55.6001L108.811 81.775C99.9028 83.7792 94.2995 92.6064 96.2978 101.488L161.989 393.473C163.991 402.371 172.835 407.948 181.759 405.94Z" fill="url(#paint0_linear_817_16555)" style="mix-blend-mode:color-dodge"/>
<path d="M156.399 368.538C148.989 245.178 226.35 168.865 262.503 146.59L245.584 69.6297C243.202 58.7965 232.459 51.9707 221.64 54.4164L110.853 79.4608C100.192 81.8708 93.4398 92.3509 95.7838 103.027C108.163 159.409 134.711 274.681 156.399 368.538Z" fill="white" fill-opacity="0.2"/>
<path d="M183.872 179.604L225.523 260.483L283.601 256.291L314.842 170.15L183.872 179.604Z" fill="#F99746"/>
<path d="M255.346 258.178L227.414 179.967L185.913 183.558L225.418 260.573L255.346 258.178Z" fill="#F37B40"/>
<path d="M315.712 174.234L181.96 183.889C179.532 184.064 177.426 182.239 177.25 179.807C177.075 177.375 178.897 175.265 181.325 175.09L315.05 165.437C317.478 165.262 319.584 167.088 319.76 169.52C319.935 171.952 318.113 174.061 315.712 174.234Z" fill="#F78248"/>
<path d="M279.437 285.212L233.579 288.522C230.278 288.76 227.384 286.277 227.144 282.944L225.521 260.455L283.408 256.277L285.031 278.765C285.245 282.101 282.765 284.972 279.437 285.212Z" fill="#F78248"/>
<path d="M144.93 147.699L151.214 144.9C151.742 144.67 152.338 144.743 152.793 145.106C153.361 145.566 153.961 145.999 154.561 146.432C155.708 147.205 156.861 147.888 158.051 148.484C158.602 148.763 158.952 149.328 158.906 149.953L158.471 157.101C158.414 157.875 158.967 158.543 159.741 158.66L166.259 159.618C167.003 159.732 167.699 159.274 167.871 158.569L169.542 152.2C169.678 151.581 170.251 151.145 170.916 151.104C173.726 150.951 176.476 150.375 179.109 149.342C179.759 149.091 180.494 149.324 180.874 149.891L183.19 153.172C183.626 153.803 184.485 153.985 185.174 153.617L190.882 150.446C191.006 150.396 191.103 150.313 191.199 150.23C191.651 149.815 191.791 149.137 191.533 148.549L189.439 143.878L188.922 142.733C189.74 141.836 190.532 140.877 191.239 139.852C192.214 138.457 193.012 137.02 193.662 135.542C193.913 134.992 194.482 134.615 195.111 134.661L200.891 135.026C201.669 135.083 202.373 134.506 202.49 133.737L203.244 128.796L203.438 127.375C203.555 126.605 203.069 125.852 202.3 125.675L196.957 124.266C196.338 124.101 195.894 123.589 195.85 122.958C195.686 121.091 195.341 119.241 194.811 117.437C194.762 117.283 194.743 117.132 194.694 116.979C194.669 116.918 194.671 116.888 194.645 116.826C194.507 116.248 194.763 115.638 195.27 115.286L200.601 111.519C200.663 111.494 200.728 111.439 200.762 111.382C201.248 110.909 201.362 110.169 201.045 109.577L197.879 103.93C197.508 103.244 196.656 102.972 195.941 103.279L189.408 106.21C188.847 106.468 188.193 106.36 187.773 105.94C186.787 105.03 185.736 104.175 184.592 103.373C183.989 102.969 183.357 102.564 182.751 102.22C182.232 101.913 181.94 101.383 181.983 100.788L182.396 93.937C182.451 93.1931 181.9 92.4945 181.157 92.38L174.728 91.4292C173.954 91.3125 173.196 91.7954 172.99 92.5581L171.656 97.6059C171.487 98.2816 170.881 98.7457 170.16 98.7227C167.426 98.6714 164.691 99.039 162.048 99.8022C161.432 99.9963 160.757 99.7672 160.375 99.2306L156.964 94.4625C156.499 93.83 155.642 93.6175 154.951 94.0155L149.274 97.1587C148.585 97.527 148.313 98.3746 148.654 99.0578L148.783 99.3366L151.244 104.753C151.502 105.34 151.394 105.99 150.938 106.466C149.865 107.554 148.845 108.735 147.937 110.045C147.465 110.728 147.022 111.443 146.608 112.161C146.329 112.679 145.796 112.969 145.198 112.925L139.328 112.554C138.52 112.494 137.816 113.071 137.697 113.87L136.748 120.233C136.735 120.411 136.722 120.59 136.769 120.773C136.879 121.319 137.297 121.769 137.857 121.93L142.054 122.956C142.586 123.085 142.977 123.502 143.119 124.021C143.14 124.143 143.189 124.296 143.178 124.445C143.132 127.942 143.781 131.4 145.075 134.666C145.305 135.222 145.17 135.84 144.748 136.258C144.684 136.313 144.619 136.368 144.555 136.423L140.241 139.457C139.607 139.889 139.424 140.743 139.797 141.399L139.878 141.524L142.963 147.046C143.334 147.732 144.184 148.034 144.93 147.699ZM180.625 116.006C181.289 116.802 181.913 117.716 182.472 118.714C183.536 120.617 184.163 123.954 183.824 126.113C183.777 126.349 183.759 126.587 183.714 126.794C181.167 140.578 163.707 143.574 156.644 131.178C155.741 129.556 155.118 126.967 155.126 124.813C155.133 124.305 155.166 123.859 155.227 123.445C155.52 121.492 156.13 119.741 156.967 118.187C161.699 109.47 173.844 107.968 180.625 116.006Z" fill="#DFEBFD"/>
<path d="M144.93 147.699L151.214 144.9C151.742 144.67 152.338 144.743 152.793 145.106C153.361 145.566 153.961 145.999 154.561 146.432C155.708 147.205 156.861 147.888 158.051 148.484C158.602 148.763 158.952 149.328 158.906 149.953L158.471 157.101C158.414 157.875 158.967 158.543 159.741 158.66L166.259 159.618C167.003 159.732 167.699 159.274 167.871 158.569L169.542 152.2C169.678 151.581 170.251 151.145 170.916 151.104C173.726 150.951 176.476 150.375 179.109 149.342C179.759 149.091 180.494 149.324 180.874 149.891L183.19 153.172C183.626 153.803 184.485 153.985 185.174 153.617L190.882 150.446C191.006 150.396 191.103 150.313 191.199 150.23C191.651 149.815 191.791 149.137 191.533 148.549L189.439 143.878L188.922 142.733C189.74 141.836 190.532 140.877 191.239 139.852C192.214 138.457 193.012 137.02 193.662 135.542C193.913 134.992 194.482 134.615 195.111 134.661L200.891 135.026C201.669 135.083 202.373 134.506 202.49 133.737L203.244 128.796L203.438 127.375C203.555 126.605 203.069 125.852 202.3 125.675L196.957 124.266C196.338 124.101 195.894 123.589 195.85 122.958C195.686 121.091 195.341 119.241 194.811 117.437C194.762 117.283 194.743 117.132 194.694 116.979C194.669 116.918 194.671 116.888 194.645 116.826C194.507 116.248 194.763 115.638 195.27 115.286L200.601 111.519C200.663 111.494 200.728 111.439 200.762 111.382C201.248 110.909 201.362 110.169 201.045 109.577L197.879 103.93C197.508 103.244 196.656 102.972 195.941 103.279L189.408 106.21C188.847 106.468 188.193 106.36 187.773 105.94C186.787 105.03 185.736 104.175 184.592 103.373C183.989 102.969 183.357 102.564 182.751 102.22C182.232 101.913 181.94 101.383 181.983 100.788L182.396 93.937C182.451 93.1931 181.9 92.4945 181.157 92.38L174.728 91.4292C173.954 91.3125 173.196 91.7954 172.99 92.5581L171.656 97.6059C171.487 98.2816 170.881 98.7457 170.16 98.7227C167.426 98.6714 164.691 99.039 162.048 99.8022C161.432 99.9963 160.757 99.7672 160.375 99.2306L156.964 94.4625C156.499 93.83 155.642 93.6175 154.951 94.0155L149.274 97.1587C148.585 97.527 148.313 98.3746 148.654 99.0578L148.783 99.3366L151.244 104.753C151.502 105.34 151.394 105.99 150.938 106.466C149.865 107.554 148.845 108.735 147.937 110.045C147.465 110.728 147.022 111.443 146.608 112.161C146.329 112.679 145.796 112.969 145.198 112.925L139.328 112.554C138.52 112.494 137.816 113.071 137.697 113.87L136.748 120.233C136.735 120.411 136.722 120.59 136.769 120.773C136.879 121.319 137.297 121.769 137.857 121.93L142.054 122.956C142.586 123.085 142.977 123.502 143.119 124.021C143.14 124.143 143.189 124.296 143.178 124.445C143.132 127.942 143.781 131.4 145.075 134.666C145.305 135.222 145.17 135.84 144.748 136.258C144.684 136.313 144.619 136.368 144.555 136.423L140.241 139.457C139.607 139.889 139.424 140.743 139.797 141.399L139.878 141.524L142.963 147.046C143.334 147.732 144.184 148.034 144.93 147.699ZM180.625 116.006C181.289 116.802 181.913 117.716 182.472 118.714C183.536 120.617 184.163 123.954 183.824 126.113C183.777 126.349 183.759 126.587 183.714 126.794C181.167 140.578 163.707 143.574 156.644 131.178C155.741 129.556 155.118 126.967 155.126 124.813C155.133 124.305 155.166 123.859 155.227 123.445C155.52 121.492 156.13 119.741 156.967 118.187C161.699 109.47 173.844 107.968 180.625 116.006Z" fill="#DFEBFD"/>
<path d="M144.93 147.699L151.214 144.9C151.742 144.67 152.338 144.743 152.793 145.106C153.361 145.566 153.961 145.999 154.561 146.432C155.708 147.205 156.861 147.888 158.051 148.484C158.602 148.763 158.952 149.328 158.906 149.953L158.471 157.101C158.414 157.875 158.967 158.543 159.741 158.66L166.259 159.618C167.003 159.732 167.699 159.274 167.871 158.569L169.542 152.2C169.678 151.581 170.251 151.145 170.916 151.104C173.726 150.951 176.476 150.375 179.109 149.342C179.759 149.091 180.494 149.324 180.874 149.891L183.19 153.172C183.626 153.803 184.485 153.985 185.174 153.617L190.882 150.446C191.006 150.396 191.103 150.313 191.199 150.23C191.651 149.815 191.791 149.137 191.533 148.549L189.439 143.878L188.922 142.733C189.74 141.836 190.532 140.877 191.239 139.852C192.214 138.457 193.012 137.02 193.662 135.542C193.913 134.992 194.482 134.615 195.111 134.661L200.891 135.026C201.669 135.083 202.373 134.506 202.49 133.737L203.244 128.796L203.438 127.375C203.555 126.605 203.069 125.852 202.3 125.675L196.957 124.266C196.338 124.101 195.894 123.589 195.85 122.958C195.686 121.091 195.341 119.241 194.811 117.437C194.762 117.283 194.743 117.132 194.694 116.979C194.669 116.918 194.671 116.888 194.645 116.826C194.507 116.248 194.763 115.638 195.27 115.286L200.601 111.519C200.663 111.494 200.728 111.439 200.762 111.382C201.248 110.909 201.362 110.169 201.045 109.577L197.879 103.93C197.508 103.244 196.656 102.972 195.941 103.279L189.408 106.21C188.847 106.468 188.193 106.36 187.773 105.94C186.787 105.03 185.736 104.175 184.592 103.373C183.989 102.969 183.357 102.564 182.751 102.22C182.232 101.913 181.94 101.383 181.983 100.788L182.396 93.937C182.451 93.1931 181.9 92.4945 181.157 92.38L174.728 91.4292C173.954 91.3125 173.196 91.7954 172.99 92.5581L171.656 97.6059C171.487 98.2816 170.881 98.7457 170.16 98.7227C167.426 98.6714 164.691 99.039 162.048 99.8022C161.432 99.9963 160.757 99.7672 160.375 99.2306L156.964 94.4625C156.499 93.83 155.642 93.6175 154.951 94.0155L149.274 97.1587C148.585 97.527 148.313 98.3746 148.654 99.0578L148.783 99.3366L151.244 104.753C151.502 105.34 151.394 105.99 150.938 106.466C149.865 107.554 148.845 108.735 147.937 110.045C147.465 110.728 147.022 111.443 146.608 112.161C146.329 112.679 145.796 112.969 145.198 112.925L139.328 112.554C138.52 112.494 137.816 113.071 137.697 113.87L136.748 120.233C136.735 120.411 136.722 120.59 136.769 120.773C136.879 121.319 137.297 121.769 137.857 121.93L142.054 122.956C142.586 123.085 142.977 123.502 143.119 124.021C143.14 124.143 143.189 124.296 143.178 124.445C143.132 127.942 143.781 131.4 145.075 134.666C145.305 135.222 145.17 135.84 144.748 136.258C144.684 136.313 144.619 136.368 144.555 136.423L140.241 139.457C139.607 139.889 139.424 140.743 139.797 141.399L139.878 141.524L142.963 147.046C143.334 147.732 144.184 148.034 144.93 147.699ZM180.625 116.006C181.289 116.802 181.913 117.716 182.472 118.714C183.536 120.617 184.163 123.954 183.824 126.113C183.777 126.349 183.759 126.587 183.714 126.794C181.167 140.578 163.707 143.574 156.644 131.178C155.741 129.556 155.118 126.967 155.126 124.813C155.133 124.305 155.166 123.859 155.227 123.445C155.52 121.492 156.13 119.741 156.967 118.187C161.699 109.47 173.844 107.968 180.625 116.006Z" fill="#DFEBFD"/>
<path d="M144.93 147.699L151.214 144.9C151.742 144.67 152.338 144.743 152.793 145.106C153.361 145.566 153.961 145.999 154.561 146.432C155.708 147.205 156.861 147.888 158.051 148.484C158.602 148.763 158.952 149.328 158.906 149.953L158.471 157.101C158.414 157.875 158.967 158.543 159.741 158.66L166.259 159.618C167.003 159.732 167.699 159.274 167.871 158.569L169.542 152.2C169.678 151.581 170.251 151.145 170.916 151.104C173.726 150.951 176.476 150.375 179.109 149.342C179.759 149.091 180.494 149.324 180.874 149.891L183.19 153.172C183.626 153.803 184.485 153.985 185.174 153.617L190.882 150.446C191.006 150.396 191.103 150.313 191.199 150.23C191.651 149.815 191.791 149.137 191.533 148.549L189.439 143.878L188.922 142.733C189.74 141.836 190.532 140.877 191.239 139.852C192.214 138.457 193.012 137.02 193.662 135.542C193.913 134.992 194.482 134.615 195.111 134.661L200.891 135.026C201.669 135.083 202.373 134.506 202.49 133.737L203.244 128.796L203.438 127.375C203.555 126.605 203.069 125.852 202.3 125.675L196.957 124.266C196.338 124.101 195.894 123.589 195.85 122.958C195.686 121.091 195.341 119.241 194.811 117.437C194.762 117.283 194.743 117.132 194.694 116.979C194.669 116.918 194.671 116.888 194.645 116.826C194.507 116.248 194.763 115.638 195.27 115.286L200.601 111.519C200.663 111.494 200.728 111.439 200.762 111.382C201.248 110.909 201.362 110.169 201.045 109.577L197.879 103.93C197.508 103.244 196.656 102.972 195.941 103.279L189.408 106.21C188.847 106.468 188.193 106.36 187.773 105.94C186.787 105.03 185.736 104.175 184.592 103.373C183.989 102.969 183.357 102.564 182.751 102.22C182.232 101.913 181.94 101.383 181.983 100.788L182.396 93.937C182.451 93.1931 181.9 92.4945 181.157 92.38L174.728 91.4292C173.954 91.3125 173.196 91.7954 172.99 92.5581L171.656 97.6059C171.487 98.2816 170.881 98.7457 170.16 98.7227C167.426 98.6714 164.691 99.039 162.048 99.8022C161.432 99.9963 160.757 99.7672 160.375 99.2306L156.964 94.4625C156.499 93.83 155.642 93.6175 154.951 94.0155L149.274 97.1587C148.585 97.527 148.313 98.3746 148.654 99.0578L148.783 99.3366L151.244 104.753C151.502 105.34 151.394 105.99 150.938 106.466C149.865 107.554 148.845 108.735 147.937 110.045C147.465 110.728 147.022 111.443 146.608 112.161C146.329 112.679 145.796 112.969 145.198 112.925L139.328 112.554C138.52 112.494 137.816 113.071 137.697 113.87L136.748 120.233C136.735 120.411 136.722 120.59 136.769 120.773C136.879 121.319 137.297 121.769 137.857 121.93L142.054 122.956C142.586 123.085 142.977 123.502 143.119 124.021C143.14 124.143 143.189 124.296 143.178 124.445C143.132 127.942 143.781 131.4 145.075 134.666C145.305 135.222 145.17 135.84 144.748 136.258C144.684 136.313 144.619 136.368 144.555 136.423L140.241 139.457C139.607 139.889 139.424 140.743 139.797 141.399L139.878 141.524L142.963 147.046C143.334 147.732 144.184 148.034 144.93 147.699ZM180.625 116.006C181.289 116.802 181.913 117.716 182.472 118.714C183.536 120.617 184.163 123.954 183.824 126.113C183.777 126.349 183.759 126.587 183.714 126.794C181.167 140.578 163.707 143.574 156.644 131.178C155.741 129.556 155.118 126.967 155.126 124.813C155.133 124.305 155.166 123.859 155.227 123.445C155.52 121.492 156.13 119.741 156.967 118.187C161.699 109.47 173.844 107.968 180.625 116.006Z" fill="#DFEBFD"/>
<path opacity="0.5" d="M239.425 152.81L243.836 150.698C244.19 150.534 244.643 150.567 244.966 150.819C245.36 151.153 245.794 151.451 246.228 151.749C247.061 152.305 247.9 152.786 248.747 153.152C249.151 153.334 249.388 153.732 249.392 154.189L249.168 159.31C249.129 159.84 249.549 160.328 250.076 160.405L254.704 161.011C255.231 161.088 255.712 160.742 255.826 160.218L256.924 155.618C257.033 155.169 257.398 154.853 257.895 154.814C259.882 154.655 261.854 154.191 263.694 153.451C264.127 153.254 264.685 153.409 264.96 153.81L266.653 156.104C266.962 156.545 267.599 156.668 268.075 156.399L272.086 154.029C272.165 153.997 272.246 153.927 272.289 153.854C272.617 153.535 272.691 153.046 272.492 152.651L270.911 149.338L270.513 148.548C271.092 147.905 271.639 147.184 272.111 146.458C272.793 145.442 273.324 144.415 273.783 143.346C273.965 142.94 274.365 142.665 274.781 142.696L278.908 142.885C279.478 142.888 279.962 142.505 280.041 141.94L280.491 138.396L280.604 137.377C280.684 136.812 280.304 136.289 279.781 136.175L275.936 135.245C275.488 135.136 275.173 134.771 275.13 134.311C275.001 132.969 274.718 131.654 274.318 130.369C274.289 130.253 274.259 130.137 274.227 130.058C274.23 130.02 274.195 129.98 274.198 129.942C274.115 129.517 274.261 129.071 274.621 128.831L278.358 126.061C278.399 126.026 278.439 125.991 278.48 125.956C278.81 125.599 278.886 125.072 278.653 124.636L276.326 120.622C276.057 120.145 275.426 119.947 274.915 120.176L270.307 122.387C269.913 122.586 269.462 122.515 269.141 122.225C268.427 121.602 267.675 120.976 266.839 120.458C266.405 120.16 265.969 119.899 265.494 119.636C265.13 119.419 264.89 119.059 264.921 118.642L265.131 113.71C265.17 113.18 264.75 112.693 264.224 112.616L259.63 112.05C259.066 111.971 258.547 112.313 258.43 112.876L257.555 116.503C257.444 116.99 257 117.338 256.506 117.339C254.568 117.349 252.607 117.662 250.74 118.248C250.311 118.407 249.828 118.257 249.553 117.856L247.066 114.477C246.719 114.033 246.119 113.912 245.606 114.179L241.635 116.513C241.159 116.783 240.961 117.415 241.23 117.892L241.329 118.089L243.135 121.952C243.334 122.347 243.26 122.836 242.93 123.193C242.189 123.975 241.48 124.837 240.841 125.779C240.499 126.287 240.196 126.797 239.93 127.311C239.751 127.678 239.354 127.915 238.938 127.885L234.773 127.693C234.206 127.651 233.719 128.072 233.64 128.637L233.036 133.236C233.028 133.35 233.017 133.501 233.046 133.617C233.132 134.004 233.449 134.332 233.86 134.438L236.922 135.158C237.295 135.261 237.577 135.549 237.704 135.9C237.736 135.979 237.765 136.095 237.757 136.209C237.762 138.721 238.265 141.193 239.272 143.513C239.433 143.905 239.362 144.357 239.073 144.678C239.032 144.713 238.991 144.748 238.951 144.783L235.936 147.035C235.495 147.346 235.372 147.984 235.641 148.46L235.711 148.541L238.009 152.44C238.321 152.843 238.914 153.039 239.425 152.81ZM264.388 129.526C264.878 130.094 265.325 130.736 265.728 131.451C266.503 132.802 267.011 135.199 266.821 136.745C266.81 136.896 266.758 137.083 266.747 137.234C265.106 147.161 252.734 149.563 247.563 140.811C246.888 139.658 246.417 137.796 246.377 136.271C246.364 135.928 246.389 135.587 246.411 135.284C246.59 133.889 246.987 132.624 247.564 131.487C250.842 125.144 259.446 123.873 264.388 129.526Z" fill="#AEC3FF"/>
<path opacity="0.5" d="M239.425 152.81L243.836 150.698C244.19 150.534 244.643 150.567 244.966 150.819C245.36 151.153 245.794 151.451 246.228 151.749C247.061 152.305 247.9 152.786 248.747 153.152C249.151 153.334 249.388 153.732 249.392 154.189L249.168 159.31C249.129 159.84 249.549 160.328 250.076 160.405L254.704 161.011C255.231 161.088 255.712 160.742 255.826 160.218L256.924 155.618C257.033 155.169 257.398 154.853 257.895 154.814C259.882 154.655 261.854 154.191 263.694 153.451C264.127 153.254 264.685 153.409 264.96 153.81L266.653 156.104C266.962 156.545 267.599 156.668 268.075 156.399L272.086 154.029C272.165 153.997 272.246 153.927 272.289 153.854C272.617 153.535 272.691 153.046 272.492 152.651L270.911 149.338L270.513 148.548C271.092 147.905 271.639 147.184 272.111 146.458C272.793 145.442 273.324 144.415 273.783 143.346C273.965 142.94 274.365 142.665 274.781 142.696L278.908 142.885C279.478 142.888 279.962 142.505 280.041 141.94L280.491 138.396L280.604 137.377C280.684 136.812 280.304 136.289 279.781 136.175L275.936 135.245C275.488 135.136 275.173 134.771 275.13 134.311C275.001 132.969 274.718 131.654 274.318 130.369C274.289 130.253 274.259 130.137 274.227 130.058C274.23 130.02 274.195 129.98 274.198 129.942C274.115 129.517 274.261 129.071 274.621 128.831L278.358 126.061C278.399 126.026 278.439 125.991 278.48 125.956C278.81 125.599 278.886 125.072 278.653 124.636L276.326 120.622C276.057 120.145 275.426 119.947 274.915 120.176L270.307 122.387C269.913 122.586 269.462 122.515 269.141 122.225C268.427 121.602 267.675 120.976 266.839 120.458C266.405 120.16 265.969 119.899 265.494 119.636C265.13 119.419 264.89 119.059 264.921 118.642L265.131 113.71C265.17 113.18 264.75 112.693 264.224 112.616L259.63 112.05C259.066 111.971 258.547 112.313 258.43 112.876L257.555 116.503C257.444 116.99 257 117.338 256.506 117.339C254.568 117.349 252.607 117.662 250.74 118.248C250.311 118.407 249.828 118.257 249.553 117.856L247.066 114.477C246.719 114.033 246.119 113.912 245.606 114.179L241.635 116.513C241.159 116.783 240.961 117.415 241.23 117.892L241.329 118.089L243.135 121.952C243.334 122.347 243.26 122.836 242.93 123.193C242.189 123.975 241.48 124.837 240.841 125.779C240.499 126.287 240.196 126.797 239.93 127.311C239.751 127.678 239.354 127.915 238.938 127.885L234.773 127.693C234.206 127.651 233.719 128.072 233.64 128.637L233.036 133.236C233.028 133.35 233.017 133.501 233.046 133.617C233.132 134.004 233.449 134.332 233.86 134.438L236.922 135.158C237.295 135.261 237.577 135.549 237.704 135.9C237.736 135.979 237.765 136.095 237.757 136.209C237.762 138.721 238.265 141.193 239.272 143.513C239.433 143.905 239.362 144.357 239.073 144.678C239.032 144.713 238.991 144.748 238.951 144.783L235.936 147.035C235.495 147.346 235.372 147.984 235.641 148.46L235.711 148.541L238.009 152.44C238.321 152.843 238.914 153.039 239.425 152.81ZM264.388 129.526C264.878 130.094 265.325 130.736 265.728 131.451C266.503 132.802 267.011 135.199 266.821 136.745C266.81 136.896 266.758 137.083 266.747 137.234C265.106 147.161 252.734 149.563 247.563 140.811C246.888 139.658 246.417 137.796 246.377 136.271C246.364 135.928 246.389 135.587 246.411 135.284C246.59 133.889 246.987 132.624 247.564 131.487C250.842 125.144 259.446 123.873 264.388 129.526Z" fill="#AEC3FF"/>
<path opacity="0.5" d="M239.425 152.81L243.836 150.698C244.19 150.534 244.643 150.567 244.966 150.819C245.36 151.153 245.794 151.451 246.228 151.749C247.061 152.305 247.9 152.786 248.747 153.152C249.151 153.334 249.388 153.732 249.392 154.189L249.168 159.31C249.129 159.84 249.549 160.328 250.076 160.405L254.704 161.011C255.231 161.088 255.712 160.742 255.826 160.218L256.924 155.618C257.033 155.169 257.398 154.853 257.895 154.814C259.882 154.655 261.854 154.191 263.694 153.451C264.127 153.254 264.685 153.409 264.96 153.81L266.653 156.104C266.962 156.545 267.599 156.668 268.075 156.399L272.086 154.029C272.165 153.997 272.246 153.927 272.289 153.854C272.617 153.535 272.691 153.046 272.492 152.651L270.911 149.338L270.513 148.548C271.092 147.905 271.639 147.184 272.111 146.458C272.793 145.442 273.324 144.415 273.783 143.346C273.965 142.94 274.365 142.665 274.781 142.696L278.908 142.885C279.478 142.888 279.962 142.505 280.041 141.94L280.491 138.396L280.604 137.377C280.684 136.812 280.304 136.289 279.781 136.175L275.936 135.245C275.488 135.136 275.173 134.771 275.13 134.311C275.001 132.969 274.718 131.654 274.318 130.369C274.289 130.253 274.259 130.137 274.227 130.058C274.23 130.02 274.195 129.98 274.198 129.942C274.115 129.517 274.261 129.071 274.621 128.831L278.358 126.061C278.399 126.026 278.439 125.991 278.48 125.956C278.81 125.599 278.886 125.072 278.653 124.636L276.326 120.622C276.057 120.145 275.426 119.947 274.915 120.176L270.307 122.387C269.913 122.586 269.462 122.515 269.141 122.225C268.427 121.602 267.675 120.976 266.839 120.458C266.405 120.16 265.969 119.899 265.494 119.636C265.13 119.419 264.89 119.059 264.921 118.642L265.131 113.71C265.17 113.18 264.75 112.693 264.224 112.616L259.63 112.05C259.066 111.971 258.547 112.313 258.43 112.876L257.555 116.503C257.444 116.99 257 117.338 256.506 117.339C254.568 117.349 252.607 117.662 250.74 118.248C250.311 118.407 249.828 118.257 249.553 117.856L247.066 114.477C246.719 114.033 246.119 113.912 245.606 114.179L241.635 116.513C241.159 116.783 240.961 117.415 241.23 117.892L241.329 118.089L243.135 121.952C243.334 122.347 243.26 122.836 242.93 123.193C242.189 123.975 241.48 124.837 240.841 125.779C240.499 126.287 240.196 126.797 239.93 127.311C239.751 127.678 239.354 127.915 238.938 127.885L234.773 127.693C234.206 127.651 233.719 128.072 233.64 128.637L233.036 133.236C233.028 133.35 233.017 133.501 233.046 133.617C233.132 134.004 233.449 134.332 233.86 134.438L236.922 135.158C237.295 135.261 237.577 135.549 237.704 135.9C237.736 135.979 237.765 136.095 237.757 136.209C237.762 138.721 238.265 141.193 239.272 143.513C239.433 143.905 239.362 144.357 239.073 144.678C239.032 144.713 238.991 144.748 238.951 144.783L235.936 147.035C235.495 147.346 235.372 147.984 235.641 148.46L235.711 148.541L238.009 152.44C238.321 152.843 238.914 153.039 239.425 152.81ZM264.388 129.526C264.878 130.094 265.325 130.736 265.728 131.451C266.503 132.802 267.011 135.199 266.821 136.745C266.81 136.896 266.758 137.083 266.747 137.234C265.106 147.161 252.734 149.563 247.563 140.811C246.888 139.658 246.417 137.796 246.377 136.271C246.364 135.928 246.389 135.587 246.411 135.284C246.59 133.889 246.987 132.624 247.564 131.487C250.842 125.144 259.446 123.873 264.388 129.526Z" fill="#AEC3FF"/>
<path opacity="0.5" d="M239.425 152.81L243.836 150.698C244.19 150.534 244.643 150.567 244.966 150.819C245.36 151.153 245.794 151.451 246.228 151.749C247.061 152.305 247.9 152.786 248.747 153.152C249.151 153.334 249.388 153.732 249.392 154.189L249.168 159.31C249.129 159.84 249.549 160.328 250.076 160.405L254.704 161.011C255.231 161.088 255.712 160.742 255.826 160.218L256.924 155.618C257.033 155.169 257.398 154.853 257.895 154.814C259.882 154.655 261.854 154.191 263.694 153.451C264.127 153.254 264.685 153.409 264.96 153.81L266.653 156.104C266.962 156.545 267.599 156.668 268.075 156.399L272.086 154.029C272.165 153.997 272.246 153.927 272.289 153.854C272.617 153.535 272.691 153.046 272.492 152.651L270.911 149.338L270.513 148.548C271.092 147.905 271.639 147.184 272.111 146.458C272.793 145.442 273.324 144.415 273.783 143.346C273.965 142.94 274.365 142.665 274.781 142.696L278.908 142.885C279.478 142.888 279.962 142.505 280.041 141.94L280.491 138.396L280.604 137.377C280.684 136.812 280.304 136.289 279.781 136.175L275.936 135.245C275.488 135.136 275.173 134.771 275.13 134.311C275.001 132.969 274.718 131.654 274.318 130.369C274.289 130.253 274.259 130.137 274.227 130.058C274.23 130.02 274.195 129.98 274.198 129.942C274.115 129.517 274.261 129.071 274.621 128.831L278.358 126.061C278.399 126.026 278.439 125.991 278.48 125.956C278.81 125.599 278.886 125.072 278.653 124.636L276.326 120.622C276.057 120.145 275.426 119.947 274.915 120.176L270.307 122.387C269.913 122.586 269.462 122.515 269.141 122.225C268.427 121.602 267.675 120.976 266.839 120.458C266.405 120.16 265.969 119.899 265.494 119.636C265.13 119.419 264.89 119.059 264.921 118.642L265.131 113.71C265.17 113.18 264.75 112.693 264.224 112.616L259.63 112.05C259.066 111.971 258.547 112.313 258.43 112.876L257.555 116.503C257.444 116.99 257 117.338 256.506 117.339C254.568 117.349 252.607 117.662 250.74 118.248C250.311 118.407 249.828 118.257 249.553 117.856L247.066 114.477C246.719 114.033 246.119 113.912 245.606 114.179L241.635 116.513C241.159 116.783 240.961 117.415 241.23 117.892L241.329 118.089L243.135 121.952C243.334 122.347 243.26 122.836 242.93 123.193C242.189 123.975 241.48 124.837 240.841 125.779C240.499 126.287 240.196 126.797 239.93 127.311C239.751 127.678 239.354 127.915 238.938 127.885L234.773 127.693C234.206 127.651 233.719 128.072 233.64 128.637L233.036 133.236C233.028 133.35 233.017 133.501 233.046 133.617C233.132 134.004 233.449 134.332 233.86 134.438L236.922 135.158C237.295 135.261 237.577 135.549 237.704 135.9C237.736 135.979 237.765 136.095 237.757 136.209C237.762 138.721 238.265 141.193 239.272 143.513C239.433 143.905 239.362 144.357 239.073 144.678C239.032 144.713 238.991 144.748 238.951 144.783L235.936 147.035C235.495 147.346 235.372 147.984 235.641 148.46L235.711 148.541L238.009 152.44C238.321 152.843 238.914 153.039 239.425 152.81ZM264.388 129.526C264.878 130.094 265.325 130.736 265.728 131.451C266.503 132.802 267.011 135.199 266.821 136.745C266.81 136.896 266.758 137.083 266.747 137.234C265.106 147.161 252.734 149.563 247.563 140.811C246.888 139.658 246.417 137.796 246.377 136.271C246.364 135.928 246.389 135.587 246.411 135.284C246.59 133.889 246.987 132.624 247.564 131.487C250.842 125.144 259.446 123.873 264.388 129.526Z" fill="#AEC3FF"/>
<path opacity="0.5" d="M239.425 152.81L243.836 150.698C244.19 150.534 244.643 150.567 244.966 150.819C245.36 151.153 245.794 151.451 246.228 151.749C247.061 152.305 247.9 152.786 248.747 153.152C249.151 153.334 249.388 153.732 249.392 154.189L249.168 159.31C249.129 159.84 249.549 160.328 250.076 160.405L254.704 161.011C255.231 161.088 255.712 160.742 255.826 160.218L256.924 155.618C257.033 155.169 257.398 154.853 257.895 154.814C259.882 154.655 261.854 154.191 263.694 153.451C264.127 153.254 264.685 153.409 264.96 153.81L266.653 156.104C266.962 156.545 267.599 156.668 268.075 156.399L272.086 154.029C272.165 153.997 272.246 153.927 272.289 153.854C272.617 153.535 272.691 153.046 272.492 152.651L270.911 149.338L270.513 148.548C271.092 147.905 271.639 147.184 272.111 146.458C272.793 145.442 273.324 144.415 273.783 143.346C273.965 142.94 274.365 142.665 274.781 142.696L278.908 142.885C279.478 142.888 279.962 142.505 280.041 141.94L280.491 138.396L280.604 137.377C280.684 136.812 280.304 136.289 279.781 136.175L275.936 135.245C275.488 135.136 275.173 134.771 275.13 134.311C275.001 132.969 274.718 131.654 274.318 130.369C274.289 130.253 274.259 130.137 274.227 130.058C274.23 130.02 274.195 129.98 274.198 129.942C274.115 129.517 274.261 129.071 274.621 128.831L278.358 126.061C278.399 126.026 278.439 125.991 278.48 125.956C278.81 125.599 278.886 125.072 278.653 124.636L276.326 120.622C276.057 120.145 275.426 119.947 274.915 120.176L270.307 122.387C269.913 122.586 269.462 122.515 269.141 122.225C268.427 121.602 267.675 120.976 266.839 120.458C266.405 120.16 265.969 119.899 265.494 119.636C265.13 119.419 264.89 119.059 264.921 118.642L265.131 113.71C265.17 113.18 264.75 112.693 264.224 112.616L259.63 112.05C259.066 111.971 258.547 112.313 258.43 112.876L257.555 116.503C257.444 116.99 257 117.338 256.506 117.339C254.568 117.349 252.607 117.662 250.74 118.248C250.311 118.407 249.828 118.257 249.553 117.856L247.066 114.477C246.719 114.033 246.119 113.912 245.606 114.179L241.635 116.513C241.159 116.783 240.961 117.415 241.23 117.892L241.329 118.089L243.135 121.952C243.334 122.347 243.26 122.836 242.93 123.193C242.189 123.975 241.48 124.837 240.841 125.779C240.499 126.287 240.196 126.797 239.93 127.311C239.751 127.678 239.354 127.915 238.938 127.885L234.773 127.693C234.206 127.651 233.719 128.072 233.64 128.637L233.036 133.236C233.028 133.35 233.017 133.501 233.046 133.617C233.132 134.004 233.449 134.332 233.86 134.438L236.922 135.158C237.295 135.261 237.577 135.549 237.704 135.9C237.736 135.979 237.765 136.095 237.757 136.209C237.762 138.721 238.265 141.193 239.272 143.513C239.433 143.905 239.362 144.357 239.073 144.678C239.032 144.713 238.991 144.748 238.951 144.783L235.936 147.035C235.495 147.346 235.372 147.984 235.641 148.46L235.711 148.541L238.009 152.44C238.321 152.843 238.914 153.039 239.425 152.81ZM264.388 129.526C264.878 130.094 265.325 130.736 265.728 131.451C266.503 132.802 267.011 135.199 266.821 136.745C266.81 136.896 266.758 137.083 266.747 137.234C265.106 147.161 252.734 149.563 247.563 140.811C246.888 139.658 246.417 137.796 246.377 136.271C246.364 135.928 246.389 135.587 246.411 135.284C246.59 133.889 246.987 132.624 247.564 131.487C250.842 125.144 259.446 123.873 264.388 129.526Z" fill="#AEC3FF"/>
<path opacity="0.5" d="M212.716 77.2079L220.417 73.7394C221.047 73.4432 221.797 73.5744 222.336 73.9946C223.015 74.5773 223.735 75.1248 224.495 75.6374C225.905 76.6162 227.326 77.4437 228.793 78.1604C229.492 78.4781 229.895 79.1927 229.84 79.9498L229.305 88.7779C229.236 89.7242 229.895 90.5719 230.875 90.6819L238.842 91.876C239.743 92.0183 240.584 91.4331 240.837 90.5763L242.898 82.6976C243.069 81.911 243.754 81.3904 244.593 81.3379C248.025 81.1713 251.423 80.4314 254.63 79.1827C255.411 78.8975 256.304 79.1534 256.786 79.8358L259.642 83.8893C260.193 84.6529 261.24 84.8821 262.07 84.4483L269.046 80.508C269.203 80.4434 269.325 80.3381 269.447 80.2329C269.98 79.7012 270.154 78.8767 269.826 78.1676L267.247 72.4218L266.629 71.0063C267.66 69.9023 268.621 68.717 269.474 67.4476C270.663 65.7462 271.668 63.9553 272.447 62.1477C272.764 61.4479 273.443 61.003 274.198 61.0585L281.308 61.5046C282.291 61.5768 283.14 60.878 283.288 59.8994L284.192 53.8005L284.436 52.0297C284.581 51.0889 283.965 50.1683 283.034 49.9097L276.475 48.172C275.73 47.9651 275.17 47.315 275.112 46.5497C274.939 44.2535 274.501 41.9379 273.828 39.7192C273.804 39.5272 273.742 39.3324 273.678 39.1754C273.646 39.0969 273.648 39.0591 273.616 38.9806C273.442 38.2447 273.762 37.5071 274.363 37.0945L280.898 32.4367C280.976 32.4044 281.057 32.3343 281.101 32.2613C281.712 31.6973 281.857 30.7565 281.456 30.004L277.562 23.0199C277.091 22.1861 276.053 21.8434 275.188 22.2366L267.17 25.8721C266.5 26.2034 265.715 26.0316 265.143 25.533C263.934 24.4165 262.645 23.3324 261.233 22.3914C260.473 21.8789 259.747 21.407 258.982 20.9702C258.361 20.6202 257.996 19.9083 258.049 19.1891L258.558 10.7017C258.627 9.75534 257.965 8.94554 257.026 8.80045L249.134 7.61192C248.195 7.46682 247.279 8.04649 247.018 9.01679L245.382 15.2522C245.169 16.0739 244.404 16.6646 243.57 16.6414C240.193 16.5837 236.855 17.0236 233.632 17.9666C232.892 18.2167 232.039 17.9258 231.595 17.2462L227.394 11.3431C226.845 10.5417 225.76 10.3098 224.927 10.7814L217.994 14.6488C217.162 15.1205 216.819 16.1609 217.215 16.9891L217.379 17.3437L220.383 24.0341C220.71 24.7432 220.536 25.5676 220 26.1372C218.685 27.4868 217.438 28.9555 216.333 30.5489C215.737 31.4185 215.217 32.2937 214.696 33.1688C214.347 33.7901 213.674 34.1593 212.994 34.1094L205.808 33.6577C204.825 33.5855 203.936 34.3194 203.828 35.2629L202.561 43.2C202.545 43.4271 202.528 43.6542 202.59 43.849C202.731 44.5064 203.259 45.078 203.928 45.2794L209.185 46.6549C209.819 46.8156 210.312 47.3466 210.494 47.9689C210.521 48.1231 210.544 48.3151 210.571 48.4693C210.481 52.8012 211.306 57.0862 212.912 61.086C213.205 61.7545 213.033 62.5411 212.5 63.0728C212.419 63.1429 212.338 63.2131 212.257 63.2832L206.965 67.0428C206.203 67.5958 205.974 68.6445 206.407 69.4755L206.509 69.6353L210.301 76.4597C210.774 77.2556 211.813 77.5983 212.716 77.2079ZM256.513 38.0288C257.35 39.0418 258.107 40.1249 258.773 41.3917C260.083 43.7333 260.841 47.8991 260.458 50.5349C260.398 50.835 260.378 51.1 260.318 51.4C257.166 68.4465 235.769 72.1649 227.13 56.8403C225.984 54.8533 225.27 51.642 225.275 48.9785C225.282 48.37 225.324 47.8022 225.401 47.2751C225.767 44.8663 226.498 42.6746 227.509 40.808C233.321 29.9698 248.238 28.097 256.513 38.0288Z" fill="#AEC3FF"/>
<path opacity="0.5" d="M212.716 77.2079L220.417 73.7394C221.047 73.4432 221.797 73.5744 222.336 73.9946C223.015 74.5773 223.735 75.1248 224.495 75.6374C225.905 76.6162 227.326 77.4437 228.793 78.1604C229.492 78.4781 229.895 79.1927 229.84 79.9498L229.305 88.7779C229.236 89.7242 229.895 90.5719 230.875 90.6819L238.842 91.876C239.743 92.0183 240.584 91.4331 240.837 90.5763L242.898 82.6976C243.069 81.911 243.754 81.3904 244.593 81.3379C248.025 81.1713 251.423 80.4314 254.63 79.1827C255.411 78.8975 256.304 79.1534 256.786 79.8358L259.642 83.8893C260.193 84.6529 261.24 84.8821 262.07 84.4483L269.046 80.508C269.203 80.4434 269.325 80.3381 269.447 80.2329C269.98 79.7012 270.154 78.8767 269.826 78.1676L267.247 72.4218L266.629 71.0063C267.66 69.9023 268.621 68.717 269.474 67.4476C270.663 65.7462 271.668 63.9553 272.447 62.1477C272.764 61.4479 273.443 61.003 274.198 61.0585L281.308 61.5046C282.291 61.5768 283.14 60.878 283.288 59.8994L284.192 53.8005L284.436 52.0297C284.581 51.0889 283.965 50.1683 283.034 49.9097L276.475 48.172C275.73 47.9651 275.17 47.315 275.112 46.5497C274.939 44.2535 274.501 41.9379 273.828 39.7192C273.804 39.5272 273.742 39.3324 273.678 39.1754C273.646 39.0969 273.648 39.0591 273.616 38.9806C273.442 38.2447 273.762 37.5071 274.363 37.0945L280.898 32.4367C280.976 32.4044 281.057 32.3343 281.101 32.2613C281.712 31.6973 281.857 30.7565 281.456 30.004L277.562 23.0199C277.091 22.1861 276.053 21.8434 275.188 22.2366L267.17 25.8721C266.5 26.2034 265.715 26.0316 265.143 25.533C263.934 24.4165 262.645 23.3324 261.233 22.3914C260.473 21.8789 259.747 21.407 258.982 20.9702C258.361 20.6202 257.996 19.9083 258.049 19.1891L258.558 10.7017C258.627 9.75534 257.965 8.94554 257.026 8.80045L249.134 7.61192C248.195 7.46682 247.279 8.04649 247.018 9.01679L245.382 15.2522C245.169 16.0739 244.404 16.6646 243.57 16.6414C240.193 16.5837 236.855 17.0236 233.632 17.9666C232.892 18.2167 232.039 17.9258 231.595 17.2462L227.394 11.3431C226.845 10.5417 225.76 10.3098 224.927 10.7814L217.994 14.6488C217.162 15.1205 216.819 16.1609 217.215 16.9891L217.379 17.3437L220.383 24.0341C220.71 24.7432 220.536 25.5676 220 26.1372C218.685 27.4868 217.438 28.9555 216.333 30.5489C215.737 31.4185 215.217 32.2937 214.696 33.1688C214.347 33.7901 213.674 34.1593 212.994 34.1094L205.808 33.6577C204.825 33.5855 203.936 34.3194 203.828 35.2629L202.561 43.2C202.545 43.4271 202.528 43.6542 202.59 43.849C202.731 44.5064 203.259 45.078 203.928 45.2794L209.185 46.6549C209.819 46.8156 210.312 47.3466 210.494 47.9689C210.521 48.1231 210.544 48.3151 210.571 48.4693C210.481 52.8012 211.306 57.0862 212.912 61.086C213.205 61.7545 213.033 62.5411 212.5 63.0728C212.419 63.1429 212.338 63.2131 212.257 63.2832L206.965 67.0428C206.203 67.5958 205.974 68.6445 206.407 69.4755L206.509 69.6353L210.301 76.4597C210.774 77.2556 211.813 77.5983 212.716 77.2079ZM256.513 38.0288C257.35 39.0418 258.107 40.1249 258.773 41.3917C260.083 43.7333 260.841 47.8991 260.458 50.5349C260.398 50.835 260.378 51.1 260.318 51.4C257.166 68.4465 235.769 72.1649 227.13 56.8403C225.984 54.8533 225.27 51.642 225.275 48.9785C225.282 48.37 225.324 47.8022 225.401 47.2751C225.767 44.8663 226.498 42.6746 227.509 40.808C233.321 29.9698 248.238 28.097 256.513 38.0288Z" fill="#AEC3FF"/>
<path opacity="0.5" d="M212.716 77.2079L220.417 73.7394C221.047 73.4432 221.797 73.5744 222.336 73.9946C223.015 74.5773 223.735 75.1248 224.495 75.6374C225.905 76.6162 227.326 77.4437 228.793 78.1604C229.492 78.4781 229.895 79.1927 229.84 79.9498L229.305 88.7779C229.236 89.7242 229.895 90.5719 230.875 90.6819L238.842 91.876C239.743 92.0183 240.584 91.4331 240.837 90.5763L242.898 82.6976C243.069 81.911 243.754 81.3904 244.593 81.3379C248.025 81.1713 251.423 80.4314 254.63 79.1827C255.411 78.8975 256.304 79.1534 256.786 79.8358L259.642 83.8893C260.193 84.6529 261.24 84.8821 262.07 84.4483L269.046 80.508C269.203 80.4434 269.325 80.3381 269.447 80.2329C269.98 79.7012 270.154 78.8767 269.826 78.1676L267.247 72.4218L266.629 71.0063C267.66 69.9023 268.621 68.717 269.474 67.4476C270.663 65.7462 271.668 63.9553 272.447 62.1477C272.764 61.4479 273.443 61.003 274.198 61.0585L281.308 61.5046C282.291 61.5768 283.14 60.878 283.288 59.8994L284.192 53.8005L284.436 52.0297C284.581 51.0889 283.965 50.1683 283.034 49.9097L276.475 48.172C275.73 47.9651 275.17 47.315 275.112 46.5497C274.939 44.2535 274.501 41.9379 273.828 39.7192C273.804 39.5272 273.742 39.3324 273.678 39.1754C273.646 39.0969 273.648 39.0591 273.616 38.9806C273.442 38.2447 273.762 37.5071 274.363 37.0945L280.898 32.4367C280.976 32.4044 281.057 32.3343 281.101 32.2613C281.712 31.6973 281.857 30.7565 281.456 30.004L277.562 23.0199C277.091 22.1861 276.053 21.8434 275.188 22.2366L267.17 25.8721C266.5 26.2034 265.715 26.0316 265.143 25.533C263.934 24.4165 262.645 23.3324 261.233 22.3914C260.473 21.8789 259.747 21.407 258.982 20.9702C258.361 20.6202 257.996 19.9083 258.049 19.1891L258.558 10.7017C258.627 9.75534 257.965 8.94554 257.026 8.80045L249.134 7.61192C248.195 7.46682 247.279 8.04649 247.018 9.01679L245.382 15.2522C245.169 16.0739 244.404 16.6646 243.57 16.6414C240.193 16.5837 236.855 17.0236 233.632 17.9666C232.892 18.2167 232.039 17.9258 231.595 17.2462L227.394 11.3431C226.845 10.5417 225.76 10.3098 224.927 10.7814L217.994 14.6488C217.162 15.1205 216.819 16.1609 217.215 16.9891L217.379 17.3437L220.383 24.0341C220.71 24.7432 220.536 25.5676 220 26.1372C218.685 27.4868 217.438 28.9555 216.333 30.5489C215.737 31.4185 215.217 32.2937 214.696 33.1688C214.347 33.7901 213.674 34.1593 212.994 34.1094L205.808 33.6577C204.825 33.5855 203.936 34.3194 203.828 35.2629L202.561 43.2C202.545 43.4271 202.528 43.6542 202.59 43.849C202.731 44.5064 203.259 45.078 203.928 45.2794L209.185 46.6549C209.819 46.8156 210.312 47.3466 210.494 47.9689C210.521 48.1231 210.544 48.3151 210.571 48.4693C210.481 52.8012 211.306 57.0862 212.912 61.086C213.205 61.7545 213.033 62.5411 212.5 63.0728C212.419 63.1429 212.338 63.2131 212.257 63.2832L206.965 67.0428C206.203 67.5958 205.974 68.6445 206.407 69.4755L206.509 69.6353L210.301 76.4597C210.774 77.2556 211.813 77.5983 212.716 77.2079ZM256.513 38.0288C257.35 39.0418 258.107 40.1249 258.773 41.3917C260.083 43.7333 260.841 47.8991 260.458 50.5349C260.398 50.835 260.378 51.1 260.318 51.4C257.166 68.4465 235.769 72.1649 227.13 56.8403C225.984 54.8533 225.27 51.642 225.275 48.9785C225.282 48.37 225.324 47.8022 225.401 47.2751C225.767 44.8663 226.498 42.6746 227.509 40.808C233.321 29.9698 248.238 28.097 256.513 38.0288Z" fill="#AEC3FF"/>
<path opacity="0.5" d="M212.716 77.2079L220.417 73.7394C221.047 73.4432 221.797 73.5744 222.336 73.9946C223.015 74.5773 223.735 75.1248 224.495 75.6374C225.905 76.6162 227.326 77.4437 228.793 78.1604C229.492 78.4781 229.895 79.1927 229.84 79.9498L229.305 88.7779C229.236 89.7242 229.895 90.5719 230.875 90.6819L238.842 91.876C239.743 92.0183 240.584 91.4331 240.837 90.5763L242.898 82.6976C243.069 81.911 243.754 81.3904 244.593 81.3379C248.025 81.1713 251.423 80.4314 254.63 79.1827C255.411 78.8975 256.304 79.1534 256.786 79.8358L259.642 83.8893C260.193 84.6529 261.24 84.8821 262.07 84.4483L269.046 80.508C269.203 80.4434 269.325 80.3381 269.447 80.2329C269.98 79.7012 270.154 78.8767 269.826 78.1676L267.247 72.4218L266.629 71.0063C267.66 69.9023 268.621 68.717 269.474 67.4476C270.663 65.7462 271.668 63.9553 272.447 62.1477C272.764 61.4479 273.443 61.003 274.198 61.0585L281.308 61.5046C282.291 61.5768 283.14 60.878 283.288 59.8994L284.192 53.8005L284.436 52.0297C284.581 51.0889 283.965 50.1683 283.034 49.9097L276.475 48.172C275.73 47.9651 275.17 47.315 275.112 46.5497C274.939 44.2535 274.501 41.9379 273.828 39.7192C273.804 39.5272 273.742 39.3324 273.678 39.1754C273.646 39.0969 273.648 39.0591 273.616 38.9806C273.442 38.2447 273.762 37.5071 274.363 37.0945L280.898 32.4367C280.976 32.4044 281.057 32.3343 281.101 32.2613C281.712 31.6973 281.857 30.7565 281.456 30.004L277.562 23.0199C277.091 22.1861 276.053 21.8434 275.188 22.2366L267.17 25.8721C266.5 26.2034 265.715 26.0316 265.143 25.533C263.934 24.4165 262.645 23.3324 261.233 22.3914C260.473 21.8789 259.747 21.407 258.982 20.9702C258.361 20.6202 257.996 19.9083 258.049 19.1891L258.558 10.7017C258.627 9.75534 257.965 8.94554 257.026 8.80045L249.134 7.61192C248.195 7.46682 247.279 8.04649 247.018 9.01679L245.382 15.2522C245.169 16.0739 244.404 16.6646 243.57 16.6414C240.193 16.5837 236.855 17.0236 233.632 17.9666C232.892 18.2167 232.039 17.9258 231.595 17.2462L227.394 11.3431C226.845 10.5417 225.76 10.3098 224.927 10.7814L217.994 14.6488C217.162 15.1205 216.819 16.1609 217.215 16.9891L217.379 17.3437L220.383 24.0341C220.71 24.7432 220.536 25.5676 220 26.1372C218.685 27.4868 217.438 28.9555 216.333 30.5489C215.737 31.4185 215.217 32.2937 214.696 33.1688C214.347 33.7901 213.674 34.1593 212.994 34.1094L205.808 33.6577C204.825 33.5855 203.936 34.3194 203.828 35.2629L202.561 43.2C202.545 43.4271 202.528 43.6542 202.59 43.849C202.731 44.5064 203.259 45.078 203.928 45.2794L209.185 46.6549C209.819 46.8156 210.312 47.3466 210.494 47.9689C210.521 48.1231 210.544 48.3151 210.571 48.4693C210.481 52.8012 211.306 57.0862 212.912 61.086C213.205 61.7545 213.033 62.5411 212.5 63.0728C212.419 63.1429 212.338 63.2131 212.257 63.2832L206.965 67.0428C206.203 67.5958 205.974 68.6445 206.407 69.4755L206.509 69.6353L210.301 76.4597C210.774 77.2556 211.813 77.5983 212.716 77.2079ZM256.513 38.0288C257.35 39.0418 258.107 40.1249 258.773 41.3917C260.083 43.7333 260.841 47.8991 260.458 50.5349C260.398 50.835 260.378 51.1 260.318 51.4C257.166 68.4465 235.769 72.1649 227.13 56.8403C225.984 54.8533 225.27 51.642 225.275 48.9785C225.282 48.37 225.324 47.8022 225.401 47.2751C225.767 44.8663 226.498 42.6746 227.509 40.808C233.321 29.9698 248.238 28.097 256.513 38.0288Z" fill="#AEC3FF"/>
<g clip-path="url(#clip0_817_16555)">
<path d="M265.188 325.168C265.036 324.865 264.862 324.583 264.645 324.323C264.493 324.128 264.319 323.954 264.123 323.803L263.341 323.001L263.123 323.153C259.102 321.159 250.778 323.261 242.367 328.744C232.195 335.375 225.652 344.498 227.543 349.331L227.261 349.547L228.391 350.674C228.435 350.739 228.5 350.783 228.565 350.848L228.587 350.869C228.869 351.129 229.195 351.368 229.565 351.541C233.542 353.622 241.954 351.541 250.474 346.015C260.841 339.276 267.427 329.935 265.188 325.168Z" fill="#FFA412"/>
<path d="M241.149 327.53C251.517 320.79 261.732 319.187 263.971 323.954C266.21 328.722 259.624 338.062 249.257 344.823C238.889 351.563 228.674 353.166 226.435 348.399C224.196 343.609 230.782 334.269 241.149 327.53Z" fill="#FFB93E"/>
<path d="M233.716 349.092C232.869 349.092 232.108 349.005 231.434 348.81C230.152 348.442 229.239 347.726 228.761 346.686C227.826 344.649 228.696 341.637 231.195 338.191C233.651 334.832 237.39 331.408 241.715 328.569C248.387 324.235 255.169 322.133 258.994 323.217C260.276 323.585 261.189 324.3 261.667 325.341C262.602 327.378 261.733 330.39 259.233 333.835C256.777 337.194 253.039 340.618 248.713 343.457C243.193 347.033 237.629 349.092 233.716 349.092ZM256.734 323.694C252.973 323.694 247.453 325.731 242.149 329.198C237.868 331.993 234.216 335.352 231.804 338.646C229.5 341.81 228.63 344.627 229.435 346.383C229.804 347.206 230.543 347.791 231.63 348.095C232.238 348.268 232.912 348.355 233.673 348.355C237.433 348.355 242.954 346.318 248.257 342.85C252.539 340.033 256.212 336.696 258.603 333.402C260.907 330.238 261.776 327.421 260.972 325.666C260.602 324.842 259.863 324.257 258.777 323.954C258.19 323.78 257.494 323.694 256.734 323.694Z" fill="#FFA412"/>
<path d="M241.041 338.625C241.367 338.495 241.649 338.322 241.888 338.17C242.127 337.997 242.366 337.802 242.584 337.585C242.801 337.368 242.997 337.108 243.192 336.805C243.388 336.523 243.562 336.176 243.757 335.808C244.083 335.158 244.431 334.529 244.779 333.966C245.127 333.402 245.518 332.861 245.953 332.384C246.387 331.885 246.887 331.452 247.431 331.04C247.996 330.629 248.648 330.26 249.387 329.935C250.039 329.653 250.626 329.48 251.126 329.393C251.647 329.307 252.082 329.328 252.451 329.437C252.821 329.545 253.103 329.74 253.321 330.043C253.538 330.325 253.647 330.715 253.669 331.17L256.125 330.108L255.994 331.387L253.516 332.471C253.386 332.991 253.147 333.489 252.843 333.988C252.517 334.486 252.125 334.984 251.647 335.439C251.169 335.895 250.626 336.35 249.995 336.761C249.365 337.173 248.67 337.542 247.909 337.888L248.148 335.526C249.061 335.136 249.756 334.681 250.234 334.226C250.713 333.749 250.973 333.294 251.017 332.839C251.039 332.601 251.017 332.406 250.93 332.276C250.843 332.146 250.713 332.059 250.56 332.015C250.387 331.972 250.191 331.994 249.952 332.037C249.713 332.08 249.452 332.167 249.169 332.297C248.887 332.427 248.626 332.557 248.387 332.709C248.148 332.861 247.931 333.056 247.735 333.272C247.518 333.489 247.322 333.749 247.126 334.053C246.931 334.356 246.735 334.703 246.518 335.114C246.17 335.765 245.822 336.393 245.453 336.956C245.105 337.52 244.692 338.04 244.257 338.538C243.823 339.037 243.323 339.47 242.758 339.882C242.193 340.294 241.562 340.662 240.823 340.987C240.149 341.291 239.563 341.464 239.041 341.551C238.519 341.637 238.085 341.616 237.715 341.486C237.346 341.377 237.085 341.161 236.867 340.857C236.672 340.554 236.563 340.185 236.541 339.709L234.259 340.705L234.39 339.405L236.65 338.408C236.759 337.932 236.954 337.411 237.215 336.891C237.476 336.371 237.846 335.851 238.324 335.331C238.78 334.811 239.345 334.313 240.019 333.836C240.693 333.359 241.497 332.904 242.41 332.514L242.171 334.876C241.627 335.114 241.171 335.353 240.801 335.613C240.432 335.873 240.128 336.133 239.889 336.393C239.65 336.653 239.476 336.913 239.367 337.173C239.258 337.433 239.193 337.672 239.171 337.888C239.15 338.148 239.171 338.343 239.258 338.495C239.345 338.647 239.454 338.755 239.628 338.798C239.78 338.863 239.997 338.863 240.215 338.82C240.497 338.842 240.758 338.755 241.041 338.625Z" fill="#FFA412"/>
<path d="M271.751 411.374C271.874 411.077 271.949 410.735 271.995 410.426C272.029 410.195 272.031 409.934 272.004 409.705L272.026 408.616L271.777 408.568C270.456 404.407 263.374 399.985 253.832 397.764C242.28 395.082 231.421 396.641 229.252 401.232L228.91 401.189L228.882 402.739C228.87 402.816 228.889 402.892 228.878 402.969L228.865 403.016C228.869 403.399 228.935 403.778 229.047 404.171C230.247 408.369 237.378 412.864 247.045 415.11C258.8 417.827 269.869 416.165 271.751 411.374Z" fill="#FFA412"/>
<path d="M253.871 396.107C265.642 398.839 273.64 404.929 271.789 409.718C269.907 414.508 258.854 416.184 247.083 413.453C235.312 410.722 227.314 404.632 229.165 399.843C231.047 395.052 242.1 393.376 253.871 396.107Z" fill="#FFB93E"/>
<path d="M233.563 405.418C232.993 404.82 232.546 404.215 232.238 403.618C231.624 402.455 231.538 401.356 231.947 400.323C232.753 398.302 235.484 396.87 239.615 396.313C243.654 395.761 248.6 396.08 253.511 397.214C261.087 398.958 267.128 402.3 268.936 405.73C269.55 406.893 269.636 407.992 269.227 409.026C268.421 411.046 265.69 412.479 261.559 413.036C257.52 413.588 252.574 413.268 247.663 412.134C241.412 410.703 236.214 408.175 233.563 405.418ZM267.069 404.465C264.546 401.824 259.366 399.34 253.332 397.929C248.484 396.822 243.63 396.498 239.698 397.029C235.903 397.537 233.32 398.84 232.622 400.578C232.294 401.393 232.372 402.308 232.883 403.262C233.156 403.8 233.569 404.345 234.089 404.869C236.612 407.51 241.792 409.993 247.826 411.405C252.674 412.512 257.528 412.836 261.46 412.305C265.255 411.797 267.838 410.494 268.535 408.756C268.863 407.941 268.786 407.026 268.275 406.072C268.001 405.534 267.588 404.989 267.069 404.465Z" fill="#FFA412"/>
<path d="M245.913 403.504C246.228 403.641 246.525 403.733 246.821 403.793C247.117 403.854 247.411 403.885 247.704 403.884C247.997 403.884 248.319 403.852 248.653 403.773C248.974 403.71 249.354 403.613 249.749 403.5C250.432 403.295 251.116 403.121 251.755 402.964C252.41 402.822 253.038 402.742 253.683 402.708C254.314 402.69 254.979 402.731 255.632 402.85C256.285 402.968 257.004 403.175 257.728 403.474C258.373 403.731 258.896 404.025 259.297 404.326C259.697 404.627 259.991 404.948 260.147 405.293C260.318 405.621 260.366 405.955 260.307 406.311C260.232 406.652 260.049 406.984 259.742 407.322L262.15 408.313L261.143 409.103L258.703 408.083C258.253 408.321 257.724 408.518 257.159 408.625C256.58 408.748 255.981 408.795 255.333 408.768C254.684 408.741 254.002 408.655 253.286 408.509C252.584 408.347 251.833 408.111 251.093 407.797L252.929 406.351C253.826 406.717 254.607 406.921 255.27 406.932C255.918 406.958 256.42 406.824 256.791 406.544C256.984 406.396 257.099 406.236 257.138 406.096C257.177 405.956 257.138 405.805 257.069 405.655C256.985 405.522 256.838 405.361 256.648 405.249C256.441 405.122 256.204 404.996 255.935 404.873C255.653 404.765 255.386 404.672 255.121 404.609C254.856 404.547 254.578 404.531 254.269 404.517C253.976 404.517 253.654 404.549 253.319 404.628C252.968 404.693 252.588 404.79 252.162 404.905C251.463 405.095 250.779 405.269 250.154 405.41C249.514 405.536 248.871 405.631 248.21 405.651C247.565 405.685 246.915 405.628 246.247 405.526C245.594 405.407 244.875 405.2 244.151 404.901C243.49 404.63 242.966 404.336 242.55 404.021C242.149 403.72 241.87 403.382 241.699 403.054C241.528 402.726 241.495 402.375 241.586 402.048C241.661 401.707 241.875 401.374 242.167 401.051L239.932 400.128L240.94 399.338L243.174 400.262C243.594 400.025 244.076 399.816 244.638 399.648C245.199 399.48 245.811 399.386 246.472 399.366C247.148 399.33 247.892 399.413 248.684 399.54C249.478 399.697 250.338 399.943 251.235 400.309L249.398 401.756C248.863 401.539 248.393 401.38 247.942 401.296C247.505 401.197 247.119 401.172 246.781 401.19C246.443 401.207 246.137 401.254 245.88 401.345C245.622 401.435 245.413 401.569 245.235 401.701C245.043 401.849 244.913 402.025 244.859 402.181C244.806 402.337 244.813 402.49 244.883 402.639C244.952 402.789 245.083 402.935 245.275 403.078C245.407 403.255 245.645 403.381 245.913 403.504Z" fill="#FFA412"/>
<path d="M259.494 354.423C259.646 354.12 259.82 353.816 260.037 353.556C260.189 353.361 260.363 353.188 260.559 353.015L261.363 352.213L261.58 352.364C265.645 350.371 274.056 352.473 282.554 358.021C292.835 364.717 299.421 373.927 297.53 378.803L297.812 379.019L296.66 380.146C296.595 380.211 296.552 380.255 296.487 380.32L296.465 380.341C296.182 380.601 295.834 380.84 295.487 381.035C291.466 383.137 282.967 381.035 274.382 375.444C263.884 368.661 257.233 359.234 259.494 354.423Z" fill="#FFA412"/>
<path d="M283.772 356.807C273.295 350.003 262.993 348.377 260.733 353.188C258.472 357.999 265.123 367.426 275.578 374.252C286.054 381.057 296.356 382.682 298.617 377.871C300.877 373.06 294.226 363.612 283.772 356.807Z" fill="#FFB93E"/>
<path d="M276.143 372.887C271.752 370.027 267.992 366.581 265.514 363.179C262.993 359.69 262.102 356.656 263.058 354.597C263.536 353.557 264.449 352.842 265.753 352.452C269.622 351.347 276.469 353.47 283.185 357.848C287.575 360.708 291.335 364.154 293.813 367.556C296.334 371.045 297.226 374.079 296.269 376.138C295.791 377.178 294.878 377.893 293.574 378.283C292.9 378.478 292.118 378.565 291.27 378.565C287.314 378.587 281.685 376.506 276.143 372.887ZM265.971 353.21C264.884 353.514 264.145 354.099 263.754 354.944C262.95 356.699 263.819 359.56 266.145 362.745C268.557 366.061 272.274 369.442 276.577 372.259C281.946 375.77 287.51 377.828 291.314 377.828C292.074 377.828 292.77 377.742 293.378 377.568C294.465 377.265 295.204 376.68 295.595 375.835C296.4 374.079 295.53 371.219 293.205 368.033C290.792 364.717 287.075 361.337 282.772 358.52C277.403 355.009 271.839 352.95 268.036 352.95C267.275 352.95 266.579 353.037 265.971 353.21Z" fill="#FFA412"/>
<path d="M284.663 368.271C284.902 368.314 285.097 368.293 285.271 368.249C285.445 368.184 285.554 368.098 285.641 367.946C285.728 367.794 285.749 367.578 285.728 367.318C285.706 367.101 285.641 366.841 285.532 366.602C285.423 366.342 285.25 366.082 285.01 365.822C284.771 365.562 284.467 365.28 284.098 365.02C283.728 364.76 283.272 364.5 282.707 364.262L282.467 361.878C283.38 362.29 284.184 362.723 284.88 363.222C285.554 363.72 286.141 364.219 286.597 364.739C287.053 365.259 287.423 365.779 287.706 366.321C287.988 366.841 288.162 367.361 288.292 367.838L290.575 368.834L290.705 370.156L288.401 369.16C288.379 369.636 288.271 370.005 288.075 370.308C287.879 370.611 287.597 370.828 287.227 370.937C286.858 371.045 286.423 371.067 285.902 371.002C285.38 370.915 284.771 370.741 284.098 370.438C283.359 370.113 282.707 369.745 282.141 369.333C281.576 368.921 281.076 368.466 280.642 367.968C280.207 367.469 279.794 366.927 279.446 366.364C279.099 365.779 278.729 365.172 278.381 364.5C278.164 364.089 277.968 363.742 277.773 363.438C277.577 363.135 277.381 362.875 277.164 362.658C276.947 362.442 276.729 362.247 276.49 362.095C276.251 361.943 275.99 361.791 275.708 361.683C275.425 361.553 275.165 361.466 274.925 361.423C274.686 361.38 274.469 361.358 274.317 361.401C274.143 361.445 274.013 361.531 273.926 361.661C273.839 361.791 273.817 361.987 273.839 362.225C273.882 362.68 274.143 363.157 274.643 363.633C275.121 364.11 275.838 364.544 276.751 364.955L276.99 367.339C276.23 366.992 275.512 366.624 274.882 366.212C274.252 365.801 273.687 365.345 273.208 364.89C272.73 364.414 272.317 363.937 272.013 363.417C271.687 362.897 271.47 362.398 271.317 361.878L268.818 360.773L268.688 359.451L271.165 360.535C271.187 360.058 271.296 359.689 271.513 359.408C271.73 359.126 272.013 358.909 272.382 358.801C272.752 358.693 273.208 358.671 273.73 358.758C274.252 358.844 274.838 359.018 275.491 359.299C276.251 359.624 276.903 359.993 277.468 360.405C278.034 360.816 278.533 361.271 278.968 361.77C279.403 362.268 279.794 362.788 280.164 363.373C280.511 363.959 280.859 364.565 281.207 365.237C281.402 365.627 281.598 365.952 281.772 366.256C281.968 366.537 282.163 366.797 282.38 367.036C282.598 367.252 282.837 367.469 283.076 367.621C283.337 367.794 283.619 367.946 283.945 368.076C284.163 368.141 284.424 368.228 284.663 368.271Z" fill="#FFA412"/>
<g clip-path="url(#clip1_817_16555)">
<path d="M293.716 434.655C294.022 434.838 294.328 435.02 294.633 435.182C294.735 435.243 294.837 435.304 294.959 435.344C295.204 435.466 295.448 435.588 295.672 435.709C307.287 441.385 321.468 437.027 327.785 425.634C333.816 414.768 330.576 401.288 320.694 394.213C319.899 393.645 319.084 393.118 318.208 392.652C317.902 392.49 317.576 392.307 317.271 392.165C316.965 392.003 316.659 391.861 316.333 391.74C315.376 391.314 314.398 390.949 313.42 390.665C311.973 390.219 310.486 389.936 308.998 389.773C304.393 389.287 299.768 390.118 295.672 392.125C291.312 394.253 287.542 397.679 285.036 402.22C278.699 413.654 282.611 427.945 293.716 434.655Z" fill="#FFB93E"/>
<path d="M295.55 433.5C284.853 427.641 280.941 414.181 286.85 403.538C292.759 392.875 306.268 388.983 316.985 394.862C327.703 400.741 331.615 414.181 325.706 424.844C321.672 432.121 314.072 436.257 306.247 436.257C302.6 436.237 298.953 435.365 295.55 433.5ZM287.909 404.126C282.326 414.181 286.035 426.891 296.141 432.446C306.268 438 319.023 434.311 324.606 424.256C330.189 414.181 326.481 401.491 316.374 395.936C313.175 394.173 309.711 393.341 306.309 393.341C298.912 393.341 291.719 397.234 287.909 404.126Z" fill="#FFA412"/>
<path d="M294.98 419.005C295 419.877 295.204 420.708 295.571 421.478C295.591 421.539 295.632 421.6 295.652 421.661C296.019 422.37 296.528 423.039 297.201 423.667C297.914 424.336 298.77 424.924 299.748 425.431L298.464 428.594L301.194 429.688L302.478 426.546C303.476 426.83 304.475 426.992 305.494 427.033C306.512 427.073 307.49 426.931 308.428 426.607C309.365 426.283 310.221 425.755 310.995 425.005C311.79 424.255 312.442 423.262 312.951 421.985L307.979 419.978C307.674 420.728 307.307 421.316 306.9 421.742C306.492 422.167 306.044 422.451 305.555 422.613C305.066 422.776 304.577 422.816 304.088 422.755C303.578 422.694 303.089 422.573 302.621 422.37C302.091 422.147 301.643 421.884 301.276 421.6C300.929 421.296 300.665 420.971 300.481 420.606C300.298 420.242 300.216 419.877 300.216 419.491C300.216 419.106 300.298 418.721 300.461 418.316C300.644 417.87 300.868 417.505 301.133 417.221C301.398 416.937 301.724 416.714 302.132 416.552C302.539 416.39 303.008 416.289 303.558 416.248C304.108 416.187 304.76 416.187 305.494 416.228C306.777 416.289 307.959 416.289 309.059 416.228C310.16 416.167 311.138 415.984 312.014 415.701C312.89 415.397 313.664 414.951 314.337 414.342C315.009 413.734 315.559 412.923 315.967 411.869C316.334 410.977 316.517 410.085 316.497 409.214C316.476 408.342 316.293 407.511 315.906 406.72C315.539 405.93 315.009 405.2 314.316 404.511C313.624 403.821 312.788 403.233 311.79 402.727L313.175 399.321L310.425 398.206L309.019 401.652C307.979 401.389 306.981 401.287 306.023 401.348C305.066 401.409 304.169 401.652 303.354 402.037C302.539 402.443 301.806 403.01 301.154 403.74C300.502 404.47 299.951 405.362 299.524 406.416L304.495 408.423C305.005 407.146 305.677 406.315 306.512 405.909C307.327 405.504 308.224 405.504 309.182 405.889C309.691 406.092 310.119 406.355 310.425 406.639C310.73 406.923 310.975 407.247 311.097 407.592C311.24 407.937 311.301 408.301 311.28 408.687C311.26 409.072 311.158 409.457 310.995 409.862C310.832 410.248 310.628 410.592 310.384 410.856C310.139 411.119 309.813 411.342 309.426 411.504C309.039 411.667 308.55 411.768 308 411.808C307.429 411.869 306.757 411.869 305.962 411.849C304.679 411.808 303.497 411.829 302.417 411.89C301.337 411.95 300.339 412.133 299.462 412.437C298.586 412.741 297.792 413.187 297.14 413.795C296.549 414.322 296.06 415.032 295.652 415.903C295.591 416.025 295.55 416.126 295.509 416.248C295.122 417.221 294.959 418.133 294.98 419.005Z" fill="#FFA412"/>
</g>
</g>
<defs>
<linearGradient id="paint0_linear_817_16555" x1="166.982" y1="68.6876" x2="276.365" y2="536.27" gradientUnits="userSpaceOnUse">
<stop stop-color="#3598DF"/>
<stop offset="1" stop-color="#227FC1" stop-opacity="0"/>
</linearGradient>
<clipPath id="clip0_817_16555">
<rect width="112" height="117" fill="white" transform="translate(226 321.202)"/>
</clipPath>
<clipPath id="clip1_817_16555">
<rect width="48.8" height="48.551" fill="white" transform="translate(282 389.651)"/>
</clipPath>
</defs>
</svg>
